<?xml version="1.0" encoding="UTF-8"?><svg id="_图层_2" xmlns="http://www.w3.org/2000/svg" viewBox="0 0 326.531 290.401"><g id="text"><path d="M135.998,249.946c-8.418,0-16.341-2.764-22.912-7.993-6.665-5.296-11.115-12.471-12.866-20.747l-.809-3.667h-11.086l-.822,3.72c-1.745,8.229-6.196,15.404-12.863,20.701-6.564,5.224-14.485,7.985-22.902,7.985h-21.759c-9.754,0-18.306-4.335-24.084-12.206-5.719-7.762-7.347-17.129-4.578-26.365.01-.035,15.148-48.076,45.413-144.125,2.312-7.783,7.083-14.528,13.769-19.418,6.682-4.895,14.327-7.378,22.719-7.378h22.222c8.23,0,15.797,2.483,22.491,7.379,6.601,4.832,11.261,11.209,13.849,18.955,0,.004,45.562,144.588,45.562,144.588,2.765,9.223,1.135,18.592-4.589,26.377-5.781,7.862-14.331,12.191-24.073,12.191h-22.685,0Z" style="fill:#e5006a;"/><path d="M234.515,252.262c-13.329,0-27.405-.649-41.837-1.931-8.837-.744-16.698-4.703-22.706-11.449-5.855-6.558-8.952-14.7-8.952-23.543V75.061c0-8.472,2.928-16.426,8.468-23.003,5.939-7.054,13.879-11.201,22.959-11.988,13.625-1.28,27.014-1.931,39.754-1.931,27.317,0,47.899,4.625,62.921,14.14,17.518,11.095,26.779,28.418,26.779,50.097,0,14.115-4.344,26.468-12.921,36.763.478.477.949.963,1.411,1.454,10.71,11.413,16.139,25.035,16.139,40.486,0,24.202-8.53,42.68-25.351,54.919-15.031,10.942-36.838,16.262-66.663,16.262h-.002Z" style="fill:#e5006a;"/><path d="M135.998,241.265c-6.526,0-12.417-2.053-17.508-6.104-5.167-4.107-8.464-9.438-9.796-15.844l-2.31-10.459h-25.033l-2.34,10.596c-1.295,6.208-4.679,11.663-9.772,15.71-5.086,4.047-10.975,6.101-17.502,6.101h-21.759c-6.918,0-12.986-3.076-17.085-8.661-4.066-5.521-5.227-12.177-3.26-18.737L55.017,69.839c1.815-6.134,5.385-11.181,10.608-15,5.166-3.784,11.088-5.704,17.595-5.704h22.222c6.348,0,12.19,1.919,17.366,5.705,5.122,3.748,8.735,8.694,10.742,14.701.013.037,15.157,48.095,45.432,144.172,2.003,6.677.852,13.362-3.22,18.9-4.103,5.581-10.168,8.654-17.08,8.654h-22.685,0Z" style="fill:#e5006a;"/><path d="M234.515,243.581c-13.072,0-26.89-.639-41.07-1.897-6.606-.557-12.491-3.522-16.993-8.576-4.479-5.017-6.753-10.997-6.753-17.768V75.061c0-6.489,2.162-12.347,6.427-17.409,4.443-5.28,10.371-8.371,17.143-8.939,13.322-1.254,26.439-1.892,38.931-1.892,25.623,0,44.686,4.184,58.277,12.792,15.091,9.557,22.742,23.945,22.742,42.763,0,12.806-4.17,23.878-12.392,32.908-1.431,1.573-2.958,3.049-4.575,4.421,2.821,2.015,5.431,4.297,7.81,6.831,9.148,9.749,13.786,21.371,13.786,34.543,0,21.27-7.327,37.386-21.778,47.9-13.495,9.825-33.631,14.601-61.556,14.601v.002ZM237.987,185.7c8.233-.157,11.15-1.972,11.866-2.546,1.343-1.073,2.022-3.328,2.022-6.703,0-1.55-.072-2.301-.765-2.995-.839-.84-3.798-2.792-13.123-2.792v15.036h0ZM237.987,114.943c6.507-.503,8.859-2.02,9.625-2.743.72-.681.792-1.365.792-2.879,0-2.438-.806-4.472-10.417-4.621v10.243Z" style="fill:#e5006a;"/><path d="M133.104,235.478c-4.514,0-8.586-1.419-12.103-4.217-3.538-2.813-5.794-6.453-6.702-10.819l-3.835-17.37-38.979-.002-3.843,17.406c-.904,4.326-3.162,7.976-6.697,10.786-3.515,2.797-7.587,4.216-12.101,4.216h-21.759c-4.143,0-7.63-1.769-10.087-5.117-2.451-3.326-3.125-7.169-1.944-11.108L60.419,75.289c1.273-4.324,3.775-7.873,7.436-10.55,3.65-2.673,7.846-4.031,12.47-4.031h22.222c4.467,0,8.585,1.356,12.241,4.032,3.638,2.663,6.208,6.177,7.634,10.445.011.032,45.386,144.031,45.386,144.031,1.195,3.986.518,7.814-1.934,11.149-2.459,3.345-5.947,5.114-10.086,5.114h-22.685,0ZM101.436,162.562l-10.461-47.079-10.462,47.079h20.923Z" style="fill:#e5006a;"/><path d="M231.621,237.794c-12.815,0-26.375-.627-40.302-1.863-4.437-.373-8.241-2.293-11.279-5.704-3.02-3.383-4.553-7.419-4.553-11.994V77.954c0-4.387,1.476-8.362,4.385-11.817,2.967-3.525,6.746-5.504,11.23-5.881,13.113-1.234,25.986-1.862,38.205-1.862,48.001,0,72.338,15.771,72.338,46.875,0,10.725-3.314,19.578-10.129,27.064-4.373,4.806-9.754,8.451-16.073,10.897,7.669,2.508,14.167,6.57,19.399,12.141,7.694,8.199,11.432,17.554,11.432,28.601,0,18.596-5.955,31.968-18.205,40.882-11.794,8.585-30.786,12.939-56.449,12.939h0ZM226.413,196.719c2.438.375,4.964.565,7.523.565,8.542,0,14.748-1.5,18.447-4.459,3.553-2.841,5.28-7.251,5.28-13.482,0-3.578,0-14.468-22.569-14.468h-8.679l-.002,31.843h0ZM230.464,126.682c23.728,0,23.728-10.889,23.728-14.468,0-13.31-14.715-13.31-20.255-13.31-2.565,0-5.093.19-7.523.564v27.212l4.05.002h0Z" style="fill:#e5006a;"/><path d="M138.891,229.691c-4.514,0-8.586-1.419-12.103-4.217-3.538-2.813-5.794-6.453-6.702-10.819l-3.835-17.37-38.979-.002-3.843,17.406c-.904,4.326-3.162,7.976-6.697,10.786-3.515,2.797-7.587,4.216-12.101,4.216h-21.759c-4.143,0-7.63-1.769-10.087-5.117-2.451-3.326-3.125-7.169-1.944-11.108l45.364-143.964c1.273-4.324,3.775-7.873,7.436-10.55,3.65-2.673,7.846-4.031,12.47-4.031h22.222c4.467,0,8.585,1.356,12.241,4.032,3.638,2.663,6.208,6.177,7.634,10.445.011.032,45.386,144.031,45.386,144.031,1.195,3.986.518,7.814-1.934,11.149-2.459,3.345-5.947,5.114-10.086,5.114h-22.685,0ZM107.223,156.775l-10.461-47.079-10.462,47.079h20.923Z" style="fill:#e5006a;"/><path d="M237.408,232.007c-12.815,0-26.375-.627-40.302-1.863-4.437-.373-8.241-2.293-11.279-5.704-3.02-3.383-4.553-7.419-4.553-11.994V72.167c0-4.387,1.476-8.362,4.385-11.817,2.967-3.525,6.746-5.504,11.23-5.881,13.113-1.234,25.986-1.862,38.205-1.862,48.001,0,72.338,15.771,72.338,46.875,0,10.725-3.314,19.578-10.129,27.064-4.373,4.806-9.754,8.451-16.073,10.897,7.669,2.508,14.167,6.57,19.399,12.141,7.694,8.199,11.432,17.554,11.432,28.601,0,18.596-5.955,31.968-18.205,40.882-11.794,8.585-30.786,12.939-56.449,12.939h0ZM232.2,190.932c2.438.375,4.964.565,7.523.565,8.542,0,14.748-1.5,18.447-4.459,3.553-2.841,5.28-7.251,5.28-13.482,0-3.578,0-14.468-22.569-14.468h-8.679l-.002,31.843h0ZM236.251,120.895c23.728,0,23.728-10.889,23.728-14.468,0-13.31-14.715-13.31-20.255-13.31-2.565,0-5.093.19-7.523.564v27.212l4.05.002h0Z" style="fill:#e5006a;"/><path d="M135.998,235.478c-5.184,0-9.863-1.63-13.905-4.846-4.081-3.244-6.684-7.448-7.733-12.494l-3.328-15.068h-34.33l-3.342,15.136c-1.04,4.983-3.643,9.185-7.722,12.427-4.039,3.214-8.717,4.844-13.901,4.844h-21.759c-5.101,0-9.396-2.178-12.42-6.298-3.008-4.084-3.835-8.807-2.382-13.651L60.552,71.527c1.444-4.91,4.299-8.954,8.488-12.016,4.156-3.044,8.927-4.588,14.179-4.588h22.222c5.094,0,9.786,1.544,13.949,4.589,4.134,3.026,7.051,7.017,8.67,11.863.011.032,45.401,144.077,45.401,144.077,1.474,4.915.649,9.636-2.362,13.732-3.028,4.118-7.322,6.294-12.417,6.294h-22.685,0ZM100.722,156.775l-6.854-30.845-6.854,30.845h13.709,0Z" style="fill:#e5006a;"/><path d="M234.515,237.794c-12.901,0-26.547-.631-40.558-1.874-5.191-.437-9.636-2.678-13.184-6.661-3.507-3.928-5.286-8.612-5.286-13.919V75.061c0-5.088,1.704-9.69,5.066-13.682,3.432-4.077,7.998-6.463,13.201-6.9,13.182-1.24,26.137-1.872,38.447-1.872,24.494,0,42.543,3.891,55.18,11.894,13.305,8.427,20.052,21.17,20.052,37.874,0,11.319-3.661,21.08-10.884,29.012-3.174,3.488-6.835,6.401-10.962,8.728,5.431,2.591,10.197,6.057,14.258,10.382,8.107,8.64,12.217,18.929,12.217,30.582,0,19.315-6.526,33.857-19.395,43.222-12.472,9.079-31.493,13.493-58.151,13.493h-.002ZM232.2,191.274c1.519.149,3.067.223,4.63.223,7.758,0,13.512-1.322,16.64-3.825,2.822-2.256,4.194-5.927,4.194-11.222,0-3.464,0-11.574-19.675-11.574h-5.787v26.398h0ZM233.357,120.895c20.834,0,20.834-8.111,20.834-11.574,0-10.417-11.726-10.417-17.361-10.417-1.564,0-3.112.074-4.63.223v21.768h1.156,0Z" style="fill:#e5006a;"/><path d="M135.998,235.478c-5.184,0-9.863-1.63-13.905-4.846-4.081-3.244-6.684-7.448-7.733-12.494l-3.328-15.068h-34.33l-3.342,15.136c-1.04,4.983-3.643,9.185-7.722,12.427-4.039,3.214-8.717,4.844-13.901,4.844h-21.759c-5.101,0-9.396-2.178-12.42-6.298-3.008-4.084-3.835-8.807-2.382-13.651L60.552,71.527c1.444-4.91,4.299-8.954,8.488-12.016,4.156-3.044,8.927-4.588,14.179-4.588h22.222c5.094,0,9.786,1.544,13.949,4.589,4.134,3.026,7.051,7.017,8.67,11.863.011.032,45.401,144.077,45.401,144.077,1.474,4.915.649,9.636-2.362,13.732-3.028,4.118-7.322,6.294-12.417,6.294h-22.685,0ZM100.722,156.775l-6.854-30.845-6.854,30.845h13.709,0Z" style="fill:#e5006a;"/><path d="M234.515,237.794c-12.901,0-26.547-.631-40.558-1.874-5.191-.437-9.636-2.678-13.184-6.661-3.507-3.928-5.286-8.612-5.286-13.919V75.061c0-5.088,1.704-9.69,5.066-13.682,3.432-4.077,7.998-6.463,13.201-6.9,13.182-1.24,26.137-1.872,38.447-1.872,24.494,0,42.543,3.891,55.18,11.894,13.305,8.427,20.052,21.17,20.052,37.874,0,11.319-3.661,21.08-10.884,29.012-3.174,3.488-6.835,6.401-10.962,8.728,5.431,2.591,10.197,6.057,14.258,10.382,8.107,8.64,12.217,18.929,12.217,30.582,0,19.315-6.526,33.857-19.395,43.222-12.472,9.079-31.493,13.493-58.151,13.493h-.002ZM232.2,191.274c1.519.149,3.067.223,4.63.223,7.758,0,13.512-1.322,16.64-3.825,2.822-2.256,4.194-5.927,4.194-11.222,0-3.464,0-11.574-19.675-11.574h-5.787v26.398h0ZM233.357,120.895c20.834,0,20.834-8.111,20.834-11.574,0-10.417-11.726-10.417-17.361-10.417-1.564,0-3.112.074-4.63.223v21.768h1.156,0Z" style="fill:#e5006a;"/><path d="M130.211,238.372c-7.095,0-13.772-2.328-19.309-6.734-5.601-4.45-9.338-10.473-10.807-17.416l-1.823-8.257h-20.384l-1.824,8.26c-1.473,6.945-5.209,12.966-10.812,17.419-5.53,4.4-12.207,6.728-19.302,6.728h-21.759c-7.864,0-14.76-3.496-19.418-9.844-4.614-6.263-5.933-13.827-3.699-21.279.019-.065,45.39-144.047,45.39-144.047,1.976-6.651,6.008-12.349,11.666-16.486,5.67-4.153,12.167-6.263,19.303-6.263h22.222c6.975,0,13.393,2.107,19.074,6.264,5.614,4.11,9.577,9.532,11.778,16.118.026.079,45.488,144.349,45.508,144.413,2.231,7.443.914,15.004-3.708,21.29-4.662,6.341-11.556,9.832-19.411,9.832h-22.685l.002.002ZM102.315,94.735h0ZM102.316,94.723h0Z" style="fill:#e5006a;"/><path d="M228.728,240.687c-13.157,0-27.06-.642-41.325-1.909-7.336-.617-13.894-3.916-18.898-9.533-4.894-5.482-7.486-12.296-7.486-19.692V69.274c0-7.089,2.458-13.754,7.107-19.274,4.932-5.858,11.512-9.299,19.033-9.951,13.487-1.266,26.694-1.909,39.255-1.909,26.187,0,45.756,4.332,59.825,13.242,15.758,9.981,24.088,25.614,24.088,45.208,0,13.548-4.422,25.277-13.146,34.856-.713.783-1.445,1.541-2.196,2.275,1.899,1.553,3.701,3.236,5.402,5.046,9.669,10.305,14.57,22.592,14.57,36.525,0,22.247-7.728,39.15-22.969,50.24-14.007,10.197-34.7,15.154-63.258,15.154h0ZM235.094,176.876c5.441-.444,7.085-1.705,7.166-1.77.466-.373.935-1.89.935-4.443,0-.552-.049-.9-.088-1.089-.535-.341-2.641-1.429-8.014-1.728v9.031h0ZM261.595,120.549h0ZM235.094,105.876c2.871-.5,4.157-1.195,4.567-1.463.03-.168.063-.452.063-.88,0-.211-.008-.384-.019-.523-.705-.322-2.172-.77-4.61-1.021v3.886h0Z" style="fill:#e5006a;"/><path d="M130.211,229.691c-5.184,0-9.863-1.63-13.905-4.846-4.081-3.244-6.684-7.448-7.733-12.494l-3.328-15.068h-34.33l-3.342,15.136c-1.04,4.983-3.643,9.185-7.722,12.427-4.039,3.214-8.717,4.844-13.901,4.844h-21.759c-5.101,0-9.396-2.178-12.42-6.298-3.008-4.084-3.835-8.807-2.382-13.651L54.765,65.74c1.444-4.91,4.299-8.954,8.488-12.016,4.156-3.044,8.927-4.588,14.179-4.588h22.222c5.094,0,9.786,1.544,13.949,4.589,4.134,3.026,7.051,7.017,8.67,11.863.011.032,45.401,144.077,45.401,144.077,1.474,4.915.649,9.636-2.362,13.732-3.028,4.118-7.322,6.294-12.417,6.294h-22.685,0ZM94.935,150.988l-6.854-30.845-6.854,30.845h13.709,0Z" style="fill:#fff;"/><path d="M228.728,232.007c-12.901,0-26.547-.631-40.558-1.874-5.191-.437-9.636-2.678-13.184-6.661-3.507-3.928-5.286-8.612-5.286-13.919V69.274c0-5.088,1.704-9.69,5.066-13.682,3.432-4.077,7.998-6.463,13.201-6.9,13.182-1.24,26.137-1.872,38.447-1.872,24.494,0,42.543,3.891,55.18,11.894,13.305,8.427,20.052,21.17,20.052,37.874,0,11.319-3.661,21.08-10.884,29.012-3.174,3.488-6.835,6.401-10.962,8.728,5.431,2.591,10.197,6.057,14.258,10.382,8.107,8.64,12.217,18.928,12.217,30.582,0,19.315-6.526,33.857-19.395,43.222-12.472,9.079-31.493,13.493-58.151,13.493h-.002ZM226.413,185.487c1.519.149,3.067.223,4.63.223,7.758,0,13.512-1.322,16.64-3.825,2.822-2.256,4.194-5.927,4.194-11.222,0-3.464,0-11.574-19.675-11.574h-5.787v26.398h0ZM227.57,115.108c20.834,0,20.834-8.111,20.834-11.574,0-10.417-11.726-10.417-17.361-10.417-1.564,0-3.112.074-4.63.223v21.768h1.156,0Z" style="fill:#fff;"/><path d="M127.317,223.904c-3.218,0-5.998-.967-8.5-2.958-2.488-1.977-4.006-4.42-4.64-7.469l-3.942-17.859c-.657-2.612-2.571-4.121-5.14-4.121h-39.583c-3.504,0-5.076,2.155-5.396,4.229l-3.911,17.716c-.644,3.085-2.162,5.529-4.646,7.503-2.503,1.992-5.284,2.959-8.5,2.959h-21.759c-2.321,0-4.043-.875-5.422-2.754-1.394-1.891-1.731-3.803-1.066-6.022L60.169,71.185c.921-3.162,2.652-5.615,5.314-7.561,2.678-1.962,5.639-2.915,9.055-2.915h22.222c3.256,0,6.143.953,8.823,2.915,2.69,1.969,4.509,4.457,5.562,7.609l45.355,143.935c.652,2.177.314,4.09-1.076,5.981-1.382,1.881-3.106,2.756-5.423,2.756h-22.685,0ZM68.73,157.079c-.417,1.451-.009,2.957,1.111,4.066.91.92,2.062,1.417,3.309,1.417h24.074c1.238,0,2.386-.494,3.319-1.427,1.103-1.103,1.508-2.604,1.103-4.046l-13.367-60.156c-.22-1.524-1.499-2.658-3.092-2.658s-2.872,1.135-3.091,2.658l-13.365,60.147h0Z" style="fill:#f9d2d4;"/><path d="M225.834,226.22c-12.647,0-26.034-.619-39.79-1.84-2.983-.251-5.422-1.49-7.47-3.789-2.079-2.328-3.087-4.991-3.087-8.144V72.167c0-3.028.989-5.673,3.024-8.089,1.97-2.339,4.353-3.596,7.288-3.842,13-1.223,25.681-1.842,37.721-1.842,44.782,0,66.551,13.44,66.551,41.088,0,9.218-2.82,16.796-8.622,23.168-5.747,6.315-13.592,10.325-23.32,11.919-1.585.166-2.781,1.471-2.781,3.107,0,1.659,1.23,2.977,2.847,3.113,11.1,1.461,20.063,5.752,26.641,12.757,6.637,7.073,9.864,15.133,9.864,24.639,0,16.614-5.176,28.455-15.823,36.202-10.784,7.851-28.63,11.832-53.044,11.832h0ZM219.817,153.302c-2.976,0-4.977,2-4.977,4.977v32.87c0,2.724,1.513,4.725,4.049,5.354.072.018.147.034.221.045,2.922.487,5.964.735,9.041.735,10.028,0,17.244-1.873,22.062-5.727,4.944-3.954,7.452-10.011,7.452-18.001,0-16.74-15.42-20.255-28.356-20.255h-9.493ZM228.149,87.33c-3.082,0-6.124.247-9.041.734-.077.013-.153.029-.229.047-2.53.636-4.04,2.636-4.04,5.352v28.241c0,2.976,2,4.977,4.977,4.977h4.86c13.465,0,29.515-3.514,29.515-20.255,0-8.712-4.518-19.097-26.042-19.097h0Z" style="fill:#f9d2d4;"/><path d="M133.104,218.117c-3.218,0-5.998-.967-8.5-2.958-2.488-1.977-4.006-4.42-4.64-7.469l-3.942-17.859c-.657-2.612-2.571-4.121-5.14-4.121h-39.583c-3.504,0-5.076,2.155-5.396,4.229l-3.911,17.716c-.644,3.085-2.162,5.529-4.646,7.503-2.503,1.992-5.284,2.959-8.5,2.959h-21.759c-2.321,0-4.043-.875-5.422-2.754-1.394-1.891-1.731-3.803-1.066-6.022l45.359-143.942c.921-3.162,2.652-5.615,5.314-7.561,2.678-1.962,5.639-2.915,9.055-2.915h22.222c3.256,0,6.143.953,8.823,2.915,2.69,1.969,4.509,4.457,5.562,7.609l45.355,143.935c.652,2.177.314,4.09-1.076,5.981-1.382,1.881-3.106,2.756-5.423,2.756h-22.685,0ZM74.517,151.292c-.417,1.451-.009,2.957,1.111,4.066.91.92,2.062,1.417,3.309,1.417h24.074c1.238,0,2.386-.494,3.319-1.427,1.103-1.103,1.508-2.604,1.103-4.046l-13.367-60.156c-.22-1.524-1.499-2.658-3.092-2.658s-2.872,1.135-3.091,2.658l-13.365,60.147h0Z" style="fill:#fff;"/><path d="M231.621,220.433c-12.647,0-26.034-.619-39.79-1.84-2.983-.251-5.422-1.49-7.47-3.789-2.079-2.328-3.087-4.991-3.087-8.144V66.38c0-3.028.989-5.673,3.024-8.089,1.97-2.339,4.353-3.596,7.288-3.842,13-1.223,25.681-1.842,37.721-1.842,44.782,0,66.551,13.44,66.551,41.088,0,9.218-2.82,16.796-8.622,23.168-5.747,6.315-13.592,10.325-23.32,11.919-1.585.166-2.781,1.471-2.781,3.107,0,1.659,1.23,2.977,2.847,3.113,11.1,1.461,20.063,5.752,26.641,12.757,6.637,7.073,9.864,15.133,9.864,24.639,0,16.614-5.176,28.455-15.823,36.202-10.784,7.851-28.63,11.832-53.044,11.832h0ZM225.604,147.515c-2.976,0-4.977,2-4.977,4.977v32.87c0,2.724,1.513,4.725,4.049,5.354.072.018.147.034.221.045,2.922.487,5.964.735,9.041.735,10.028,0,17.244-1.873,22.062-5.727,4.944-3.954,7.452-10.011,7.452-18.001,0-16.74-15.42-20.255-28.356-20.255h-9.493ZM233.936,81.543c-3.082,0-6.124.247-9.041.734-.077.013-.153.029-.229.047-2.53.636-4.04,2.636-4.04,5.352v28.241c0,2.976,2,4.977,4.977,4.977h4.86c13.465,0,29.515-3.514,29.515-20.255,0-8.712-4.518-19.097-26.042-19.097h0Z" style="fill:#fff;"/></g></svg>