<?xml version="1.0" encoding="UTF-8"?>
<svg id="_图层_2" xmlns="http://www.w3.org/2000/svg" version="1.1" viewBox="0 0 310.6 276.3">
  <!-- Generator: Adobe Illustrator 30.1.0, SVG Export Plug-In . SVG Version: 2.1.1 Build 136)  -->
  <defs>
    <style>
      .st0 {
        fill: #f9d2d4;
      }

      .st1 {
        fill: #fff;
      }

      .st2 {
        fill: #e5006a;
      }
    </style>
  </defs>
  <g id="text">
    <g>
      <g>
        <g>
          <path class="st2" d="M129.7,236.6c-7.9,0-15.3-2.6-21.5-7.5-6.3-5-10.4-11.7-12.1-19.5l-.8-3.4h-10.4l-.8,3.5c-1.6,7.7-5.8,14.4-12.1,19.4-6.2,4.9-13.6,7.5-21.5,7.5h-20.4c-9.1,0-17.2-4.1-22.6-11.4-5.4-7.3-6.9-16.1-4.3-24.7,1.7-5.8,15.9-50.8,42.6-135.1,2.2-7.3,6.6-13.6,12.9-18.2,6.3-4.6,13.4-6.9,21.3-6.9h20.8c7.7,0,14.8,2.3,21.1,6.9,6.2,4.5,10.6,10.5,13,17.8,0,0,42.7,135.6,42.7,135.6,2.6,8.6,1.1,17.4-4.3,24.7-5.4,7.4-13.4,11.4-22.6,11.4h-21.3,0Z"/>
          <path class="st2" d="M222,238.7c-12.5,0-25.7-.6-39.2-1.8-8.3-.7-15.7-4.4-21.3-10.7-5.5-6.2-8.4-13.8-8.4-22.1V72.6c0-7.9,2.7-15.4,7.9-21.6,5.6-6.6,13-10.5,21.5-11.2,12.8-1.2,25.3-1.8,37.3-1.8,25.6,0,44.9,4.3,59,13.3,16.4,10.4,25.1,26.6,25.1,47s-4.1,24.8-12.1,34.5c.4.4.9.9,1.3,1.4,10,10.7,15.1,23.5,15.1,38,0,22.7-8,40-23.8,51.5-14.1,10.3-34.5,15.2-62.5,15.2h0Z"/>
        </g>
        <g>
          <path class="st2" d="M129.7,228.4c-6.1,0-11.6-1.9-16.4-5.7-4.8-3.8-7.9-8.9-9.2-14.8l-2.2-9.8h-23.5l-2.2,9.9c-1.2,5.8-4.4,10.9-9.2,14.7-4.8,3.8-10.3,5.7-16.4,5.7h-20.4c-6.5,0-12.2-2.9-16-8.1-3.8-5.2-4.9-11.4-3.1-17.6L53.7,67.7c1.7-5.8,5-10.5,9.9-14.1,4.8-3.5,10.4-5.4,16.5-5.4h20.8c6,0,11.4,1.8,16.3,5.4,4.8,3.5,8.2,8.2,10.1,13.8l42.6,135.2c1.9,6.3.8,12.5-3,17.7-3.8,5.2-9.5,8.1-16,8.1h-21.3,0Z"/>
          <path class="st2" d="M222,230.6c-12.3,0-25.2-.6-38.5-1.8-6.2-.5-11.7-3.3-15.9-8-4.2-4.7-6.3-10.3-6.3-16.7V72.6c0-6.1,2-11.6,6-16.3,4.2-5,9.7-7.9,16.1-8.4,12.5-1.2,24.8-1.8,36.5-1.8,24,0,41.9,3.9,54.6,12,14.1,9,21.3,22.5,21.3,40.1s-3.9,22.4-11.6,30.9c-1.3,1.5-2.8,2.9-4.3,4.1,2.6,1.9,5.1,4,7.3,6.4,8.6,9.1,12.9,20,12.9,32.4,0,19.9-6.9,35-20.4,44.9-12.7,9.2-31.5,13.7-57.7,13.7h0ZM225.3,176.3c7.7-.1,10.5-1.9,11.1-2.4,1.3-1,1.9-3.1,1.9-6.3s0-2.2-.7-2.8-3.6-2.6-12.3-2.6h0v14.1h0ZM225.3,110c6.1-.5,8.3-1.9,9-2.6.7-.6.7-1.3.7-2.7,0-2.3-.8-4.2-9.8-4.3v9.6h0Z"/>
        </g>
        <g>
          <path class="st2" d="M126.9,223c-4.2,0-8.1-1.3-11.4-4-3.3-2.6-5.4-6.1-6.3-10.1l-3.6-16.3h-36.6l-3.6,16.3c-.8,4.1-3,7.5-6.3,10.1-3.3,2.6-7.1,4-11.4,4h-20.4c-3.9,0-7.2-1.7-9.5-4.8-2.3-3.1-2.9-6.7-1.8-10.4L58.8,72.8c1.2-4,3.5-7.4,7-9.9,3.4-2.5,7.4-3.8,11.7-3.8h20.8c4.2,0,8.1,1.3,11.5,3.8,3.4,2.5,5.8,5.8,7.2,9.8l42.6,135c1.1,3.7.5,7.3-1.8,10.5-2.3,3.1-5.6,4.8-9.5,4.8h-21.3,0ZM97.3,154.6l-9.8-44.1-9.8,44.1h19.6Z"/>
          <path class="st2" d="M219.3,225.2c-12,0-24.7-.6-37.8-1.7-4.2-.4-7.7-2.1-10.6-5.3-2.8-3.2-4.3-7-4.3-11.2V75.3c0-4.1,1.4-7.8,4.1-11.1,2.8-3.3,6.3-5.2,10.5-5.5,12.3-1.2,24.4-1.7,35.8-1.7,45,0,67.8,14.8,67.8,43.9s-3.1,18.4-9.5,25.4c-4.1,4.5-9.1,7.9-15.1,10.2,7.2,2.3,13.3,6.2,18.2,11.4,7.2,7.7,10.7,16.5,10.7,26.8,0,17.4-5.6,30-17.1,38.3-11.1,8.1-28.9,12.1-52.9,12.1h0ZM214.4,186.7c2.3.4,4.6.5,7.1.5,8,0,13.8-1.4,17.3-4.2,3.3-2.7,5-6.8,5-12.6s0-13.6-21.2-13.6h-8.1v29.9h0ZM218.2,121c22.2,0,22.2-10.2,22.2-13.6,0-12.5-13.8-12.5-19-12.5s-4.8.2-7.1.5v25.5s3.8,0,3.8,0Z"/>
        </g>
        <g>
          <path class="st2" d="M132.4,217.6c-4.2,0-8.1-1.3-11.4-4-3.3-2.6-5.4-6.1-6.3-10.1l-3.6-16.3h-36.6l-3.6,16.3c-.8,4.1-3,7.5-6.3,10.1-3.3,2.6-7.1,4-11.4,4h-20.4c-3.9,0-7.2-1.7-9.5-4.8-2.3-3.1-2.9-6.7-1.8-10.4l42.5-135c1.2-4,3.5-7.4,7-9.9,3.4-2.5,7.4-3.8,11.7-3.8h20.8c4.2,0,8.1,1.3,11.5,3.8,3.4,2.5,5.8,5.8,7.2,9.8l42.6,135c1.1,3.7.5,7.3-1.8,10.5-2.3,3.1-5.6,4.8-9.5,4.8h-21.3,0ZM102.7,149.2l-9.8-44.1-9.8,44.1h19.6Z"/>
          <path class="st2" d="M224.7,219.7c-12,0-24.7-.6-37.8-1.7-4.2-.4-7.7-2.1-10.6-5.3-2.8-3.2-4.3-7-4.3-11.2V69.9c0-4.1,1.4-7.8,4.1-11.1,2.8-3.3,6.3-5.2,10.5-5.5,12.3-1.2,24.4-1.7,35.8-1.7,45,0,67.8,14.8,67.8,43.9s-3.1,18.4-9.5,25.4c-4.1,4.5-9.1,7.9-15.1,10.2,7.2,2.3,13.3,6.2,18.2,11.4,7.2,7.7,10.7,16.5,10.7,26.8,0,17.4-5.6,30-17.1,38.3-11.1,8.1-28.9,12.1-52.9,12.1h0ZM219.9,181.2c2.3.4,4.6.5,7.1.5,8,0,13.8-1.4,17.3-4.2,3.3-2.7,5-6.8,5-12.6s0-13.6-21.2-13.6h-8.1v29.9ZM223.7,115.6c22.2,0,22.2-10.2,22.2-13.6,0-12.5-13.8-12.5-19-12.5s-4.8.2-7.1.5v25.5h3.8,0Z"/>
        </g>
        <g>
          <path class="st2" d="M129.7,223c-4.9,0-9.2-1.5-13-4.5-3.8-3-6.3-7-7.3-11.7l-3.1-14.1h-32.2l-3.1,14.2c-1,4.7-3.4,8.6-7.2,11.7-3.8,3-8.2,4.5-13,4.5h-20.4c-4.8,0-8.8-2-11.6-5.9-2.8-3.8-3.6-8.3-2.2-12.8L58.9,69.3c1.3-4.6,4-8.4,8-11.3,3.9-2.9,8.4-4.3,13.3-4.3h20.8c4.8,0,9.2,1.4,13.1,4.3,3.9,2.8,6.6,6.6,8.1,11.1l42.6,135.1c1.4,4.6.6,9-2.2,12.9-2.8,3.9-6.9,5.9-11.6,5.9h-21.3ZM96.6,149.2l-6.4-28.9-6.4,28.9h12.9Z"/>
          <path class="st2" d="M222,225.2c-12.1,0-24.9-.6-38-1.8-4.9-.4-9-2.5-12.4-6.2-3.3-3.7-5-8.1-5-13.1V72.6c0-4.8,1.6-9.1,4.8-12.8,3.2-3.8,7.5-6.1,12.4-6.5,12.4-1.2,24.5-1.8,36-1.8,23,0,39.9,3.7,51.7,11.2,12.5,7.9,18.8,19.8,18.8,35.5s-3.4,19.8-10.2,27.2c-3,3.3-6.4,6-10.3,8.2,5.1,2.4,9.6,5.7,13.4,9.7,7.6,8.1,11.5,17.7,11.5,28.7,0,18.1-6.1,31.7-18.2,40.5-11.7,8.5-29.5,12.7-54.5,12.7h0ZM219.9,181.6c1.4.1,2.9.2,4.3.2,7.3,0,12.7-1.2,15.6-3.6,2.6-2.1,3.9-5.6,3.9-10.5s0-10.9-18.5-10.9h-5.4v24.8h0ZM220.9,115.6c19.5,0,19.5-7.6,19.5-10.9,0-9.8-11-9.8-16.3-9.8s-2.9,0-4.3.2v20.4h1.1Z"/>
        </g>
        <g>
          <path class="st2" d="M129.7,223c-4.9,0-9.2-1.5-13-4.5-3.8-3-6.3-7-7.3-11.7l-3.1-14.1h-32.2l-3.1,14.2c-1,4.7-3.4,8.6-7.2,11.7-3.8,3-8.2,4.5-13,4.5h-20.4c-4.8,0-8.8-2-11.6-5.9-2.8-3.8-3.6-8.3-2.2-12.8L58.9,69.3c1.3-4.6,4-8.4,8-11.3,3.9-2.9,8.4-4.3,13.3-4.3h20.8c4.8,0,9.2,1.4,13.1,4.3,3.9,2.8,6.6,6.6,8.1,11.1l42.6,135.1c1.4,4.6.6,9-2.2,12.9-2.8,3.9-6.9,5.9-11.6,5.9h-21.3ZM96.6,149.2l-6.4-28.9-6.4,28.9h12.9Z"/>
          <path class="st2" d="M222,225.2c-12.1,0-24.9-.6-38-1.8-4.9-.4-9-2.5-12.4-6.2-3.3-3.7-5-8.1-5-13.1V72.6c0-4.8,1.6-9.1,4.8-12.8,3.2-3.8,7.5-6.1,12.4-6.5,12.4-1.2,24.5-1.8,36-1.8,23,0,39.9,3.7,51.7,11.2,12.5,7.9,18.8,19.8,18.8,35.5s-3.4,19.8-10.2,27.2c-3,3.3-6.4,6-10.3,8.2,5.1,2.4,9.6,5.7,13.4,9.7,7.6,8.1,11.5,17.7,11.5,28.7,0,18.1-6.1,31.7-18.2,40.5-11.7,8.5-29.5,12.7-54.5,12.7h0ZM219.9,181.6c1.4.1,2.9.2,4.3.2,7.3,0,12.7-1.2,15.6-3.6,2.6-2.1,3.9-5.6,3.9-10.5s0-10.9-18.5-10.9h-5.4v24.8h0ZM220.9,115.6c19.5,0,19.5-7.6,19.5-10.9,0-9.8-11-9.8-16.3-9.8s-2.9,0-4.3.2v20.4h1.1Z"/>
        </g>
      </g>
      <g>
        <g>
          <path class="st2" d="M124.2,225.7c-6.7,0-12.9-2.2-18.1-6.3-5.3-4.2-8.8-9.8-10.1-16.3l-1.7-7.7h-19.1l-1.7,7.7c-1.4,6.5-4.9,12.2-10.1,16.3-5.2,4.1-11.4,6.3-18.1,6.3h-20.4c-7.4,0-13.8-3.3-18.2-9.2-4.3-5.9-5.6-13-3.5-20,0,0,42.6-135.1,42.6-135.1,1.9-6.2,5.6-11.6,10.9-15.5,5.3-3.9,11.4-5.9,18.1-5.9h20.8c6.5,0,12.6,2,17.9,5.9,5.3,3.9,9,8.9,11,15.1,0,0,42.7,135.3,42.7,135.4,2.1,7,.9,14.1-3.5,20-4.4,5.9-10.8,9.2-18.2,9.2h-21.3,0ZM98.1,91h0ZM98.1,91h0Z"/>
          <path class="st2" d="M216.6,227.9c-12.3,0-25.4-.6-38.7-1.8-6.9-.6-13-3.7-17.7-8.9-4.6-5.1-7-11.5-7-18.5V67.2c0-6.6,2.3-12.9,6.7-18.1,4.6-5.5,10.8-8.7,17.9-9.3,12.7-1.2,25-1.8,36.8-1.8,24.6,0,42.9,4.1,56.1,12.4,14.8,9.4,22.6,24,22.6,42.4s-4.1,23.7-12.3,32.7c-.7.7-1.3,1.4-2.1,2.1,1.8,1.5,3.5,3,5.1,4.7,9.1,9.7,13.7,21.2,13.7,34.3,0,20.9-7.2,36.7-21.5,47.1-13.1,9.6-32.5,14.2-59.3,14.2h0ZM222.6,168.1c5.1-.4,6.6-1.6,6.7-1.7.5-.4.9-2.1.9-4.2s0-.8,0-1c-.5-.3-2.5-1.3-7.5-1.6v8.5h0ZM247.5,115.2h0ZM222.6,101.5c2.7-.5,3.9-1.1,4.3-1.4,0-.2,0-.4,0-.8s0-.4,0-.5c-.7-.3-2-.7-4.3-1v3.6h0Z"/>
        </g>
        <g>
          <path class="st1" d="M124.2,217.6c-4.9,0-9.2-1.5-13-4.5-3.8-3-6.3-7-7.3-11.7l-3.1-14.1h-32.2l-3.1,14.2c-1,4.7-3.4,8.6-7.2,11.7-3.8,3-8.2,4.5-13,4.5h-20.4c-4.8,0-8.8-2-11.6-5.9-2.8-3.8-3.6-8.3-2.2-12.8L53.5,63.9c1.3-4.6,4-8.4,8-11.3,3.9-2.9,8.4-4.3,13.3-4.3h20.8c4.8,0,9.2,1.4,13.1,4.3,3.9,2.8,6.6,6.6,8.1,11.1l42.6,135.1c1.4,4.6.6,9-2.2,12.9-2.8,3.9-6.9,5.9-11.6,5.9h-21.3,0ZM91.2,143.8l-6.4-28.9-6.4,28.9h12.9Z"/>
          <path class="st1" d="M216.6,219.7c-12.1,0-24.9-.6-38-1.8-4.9-.4-9-2.5-12.4-6.2-3.3-3.7-5-8.1-5-13.1V67.2c0-4.8,1.6-9.1,4.8-12.8,3.2-3.8,7.5-6.1,12.4-6.5,12.4-1.2,24.5-1.8,36-1.8,23,0,39.9,3.7,51.7,11.2,12.5,7.9,18.8,19.8,18.8,35.5s-3.4,19.8-10.2,27.2c-3,3.3-6.4,6-10.3,8.2,5.1,2.4,9.6,5.7,13.4,9.7,7.6,8.1,11.5,17.7,11.5,28.7,0,18.1-6.1,31.7-18.2,40.5-11.7,8.5-29.5,12.7-54.5,12.7h0ZM214.4,176.1c1.4.1,2.9.2,4.3.2,7.3,0,12.7-1.2,15.6-3.6,2.6-2.1,3.9-5.6,3.9-10.5s0-10.9-18.5-10.9h-5.4v24.8h0ZM215.5,110.1c19.5,0,19.5-7.6,19.5-10.9,0-9.8-11-9.8-16.3-9.8s-2.9,0-4.3.2v20.4s1.1,0,1.1,0Z"/>
        </g>
        <g>
          <path class="st0" d="M121.5,212.2c-3,0-5.6-.9-8-2.8-2.3-1.9-3.8-4.1-4.4-7l-3.7-16.7c-.6-2.5-2.4-3.9-4.8-3.9h-37.1c-3.3,0-4.8,2-5.1,4l-3.7,16.6c-.6,2.9-2,5.2-4.4,7-2.3,1.9-5,2.8-8,2.8h-20.4c-2.2,0-3.8-.8-5.1-2.6-1.3-1.8-1.6-3.6-1-5.6L58.6,69c.9-3,2.5-5.3,5-7.1,2.5-1.8,5.3-2.7,8.5-2.7h20.8c3.1,0,5.8.9,8.3,2.7,2.5,1.8,4.2,4.2,5.2,7.1l42.5,135c.6,2,.3,3.8-1,5.6-1.3,1.8-2.9,2.6-5.1,2.6h-21.3,0ZM66.6,149.5c-.4,1.4,0,2.8,1,3.8.9.9,1.9,1.3,3.1,1.3h22.6c1.2,0,2.2-.5,3.1-1.3s1.4-2.4,1-3.8l-12.5-56.4c-.2-1.4-1.4-2.5-2.9-2.5s-2.7,1.1-2.9,2.5l-12.5,56.4h0Z"/>
          <path class="st0" d="M213.9,214.3c-11.9,0-24.4-.6-37.3-1.7-2.8-.2-5.1-1.4-7-3.6-1.9-2.2-2.9-4.7-2.9-7.6V69.9c0-2.8.9-5.3,2.8-7.6,1.8-2.2,4.1-3.4,6.8-3.6,12.2-1.2,24.1-1.7,35.4-1.7,42,0,62.4,12.6,62.4,38.5s-2.6,15.8-8.1,21.7c-5.4,5.9-12.7,9.7-21.9,11.2-1.5.2-2.6,1.4-2.6,2.9s1.2,2.8,2.7,2.9c10.4,1.4,18.8,5.4,25,12,6.2,6.6,9.2,14.2,9.2,23.1,0,15.6-4.9,26.7-14.8,33.9-10.1,7.4-26.8,11.1-49.7,11.1h0ZM208.3,146c-2.8,0-4.7,1.9-4.7,4.7v30.8c0,2.6,1.4,4.4,3.8,5,0,0,.1,0,.2,0,2.7.5,5.6.7,8.5.7,9.4,0,16.2-1.8,20.7-5.4,4.6-3.7,7-9.4,7-16.9,0-15.7-14.5-19-26.6-19h-8.9ZM216.1,84.1c-2.9,0-5.7.2-8.5.7,0,0-.1,0-.2,0-2.4.6-3.8,2.5-3.8,5v26.5c0,2.8,1.9,4.7,4.7,4.7h4.6c12.6,0,27.7-3.3,27.7-19s-4.2-17.9-24.4-17.9h0Z"/>
        </g>
        <g>
          <path class="st1" d="M126.9,206.7c-3,0-5.6-.9-8-2.8-2.3-1.9-3.8-4.1-4.4-7l-3.7-16.7c-.6-2.5-2.4-3.9-4.8-3.9h-37.1c-3.3,0-4.8,2-5.1,4l-3.7,16.6c-.6,2.9-2,5.2-4.4,7-2.3,1.9-5,2.8-8,2.8h-20.4c-2.2,0-3.8-.8-5.1-2.6-1.3-1.8-1.6-3.6-1-5.6L64,63.5c.9-3,2.5-5.3,5-7.1,2.5-1.8,5.3-2.7,8.5-2.7h20.8c3.1,0,5.8.9,8.3,2.7,2.5,1.8,4.2,4.2,5.2,7.1l42.5,135c.6,2,.3,3.8-1,5.6-1.3,1.8-2.9,2.6-5.1,2.6h-21.3,0ZM72,144.1c-.4,1.4,0,2.8,1,3.8.9.9,1.9,1.3,3.1,1.3h22.6c1.2,0,2.2-.5,3.1-1.3s1.4-2.4,1-3.8l-12.5-56.4c-.2-1.4-1.4-2.5-2.9-2.5s-2.7,1.1-2.9,2.5l-12.5,56.4h0Z"/>
          <path class="st1" d="M219.3,208.9c-11.9,0-24.4-.6-37.3-1.7-2.8-.2-5.1-1.4-7-3.6-1.9-2.2-2.9-4.7-2.9-7.6V64.5c0-2.8.9-5.3,2.8-7.6,1.8-2.2,4.1-3.4,6.8-3.6,12.2-1.2,24.1-1.7,35.4-1.7,42,0,62.4,12.6,62.4,38.5s-2.6,15.8-8.1,21.7c-5.4,5.9-12.7,9.7-21.9,11.2-1.5.2-2.6,1.4-2.6,2.9s1.2,2.8,2.7,2.9c10.4,1.4,18.8,5.4,25,12,6.2,6.6,9.2,14.2,9.2,23.1,0,15.6-4.9,26.7-14.8,33.9-10.1,7.4-26.8,11.1-49.7,11.1h0ZM213.7,140.5c-2.8,0-4.7,1.9-4.7,4.7v30.8c0,2.6,1.4,4.4,3.8,5,0,0,.1,0,.2,0,2.7.5,5.6.7,8.5.7,9.4,0,16.2-1.8,20.7-5.4,4.6-3.7,7-9.4,7-16.9,0-15.7-14.5-19-26.6-19h-8.9ZM221.5,78.7c-2.9,0-5.7.2-8.5.7,0,0-.1,0-.2,0-2.4.6-3.8,2.5-3.8,5v26.5c0,2.8,1.9,4.7,4.7,4.7h4.6c12.6,0,27.7-3.3,27.7-19s-4.2-17.9-24.4-17.9h0Z"/>
        </g>
      </g>
    </g>
  </g>
</svg>