<?xml version="1.0" encoding="UTF-8"?><svg id="_图层_2" xmlns="http://www.w3.org/2000/svg" viewBox="0 0 512 512"><g id="text"><path d="M213.246,420.241c-13.199,0-25.623-4.334-35.926-12.533-10.451-8.304-17.428-19.555-20.174-32.531l-1.269-5.75h-17.383l-1.289,5.833c-2.736,12.903-9.715,24.153-20.169,32.459-10.292,8.191-22.712,12.52-35.91,12.52h-34.118c-15.294,0-28.704-6.797-37.764-19.139-8.967-12.171-11.52-26.858-7.178-41.34.016-.055,23.752-75.383,71.208-225.988,3.625-12.204,11.106-22.78,21.59-30.447,10.477-7.675,22.465-11.569,35.623-11.569h34.844c12.905,0,24.77,3.893,35.266,11.57,10.35,7.577,17.657,17.576,21.715,29.721,0,.006,71.441,226.714,71.441,226.714,4.336,14.462,1.78,29.152-7.196,41.359-9.065,12.328-22.471,19.115-37.746,19.115h-35.57l.005.005Z" style="fill:#e5006a;"/><path d="M367.72,423.872c-20.9,0-42.971-1.018-65.6-3.028-13.856-1.167-26.182-7.374-35.603-17.952-9.181-10.283-14.037-23.05-14.037-36.915v-219.956c0-13.284,4.591-25.756,13.278-36.069,9.312-11.061,21.762-17.563,36-18.797,21.364-2.007,42.358-3.028,62.334-3.028,42.833,0,75.106,7.252,98.66,22.172,27.468,17.397,41.989,44.559,41.989,78.552,0,22.132-6.811,41.502-20.26,57.644.749.748,1.488,1.51,2.212,2.28,16.793,17.896,25.306,39.255,25.306,63.482,0,37.949-13.375,66.922-39.75,86.113-23.569,17.157-57.762,25.499-104.528,25.499h-.003l.002.003Z" style="fill:#e5006a;"/><path d="M213.246,406.629c-10.233,0-19.47-3.219-27.453-9.571-8.102-6.44-13.272-14.799-15.36-24.843l-3.622-16.4h-39.252l-3.669,16.615c-2.031,9.734-7.337,18.288-15.323,24.633-7.975,6.346-17.209,9.566-27.443,9.566h-34.118c-10.847,0-20.362-4.823-26.789-13.58-6.375-8.657-8.196-19.094-5.112-29.38l71.162-225.836c2.846-9.618,8.444-17.532,16.633-23.52,8.1-5.933,17.386-8.944,27.589-8.944h34.844c9.954,0,19.114,3.009,27.23,8.945,8.031,5.877,13.696,13.632,16.843,23.051.02.058,23.766,75.413,71.237,226.062,3.141,10.47,1.336,20.952-5.049,29.635-6.433,8.751-15.943,13.569-26.781,13.569h-35.57l.002-.003Z" style="fill:#e5006a;"/><path d="M367.72,410.261c-20.497,0-42.164-1.002-64.398-2.975-10.358-.873-19.586-5.523-26.645-13.447-7.023-7.867-10.589-17.243-10.589-27.86v-219.957c0-10.175,3.39-19.36,10.078-27.297,6.967-8.279,16.262-13.126,26.88-14.016,20.889-1.966,41.456-2.967,61.044-2.967,40.177,0,70.068,6.561,91.378,20.058,23.663,14.985,35.659,37.546,35.659,67.052,0,20.08-6.539,37.441-19.431,51.6-2.244,2.466-4.638,4.781-7.174,6.932,4.423,3.16,8.516,6.738,12.246,10.711,14.344,15.286,21.616,33.51,21.616,54.163,0,33.351-11.489,58.621-34.148,75.107-21.16,15.406-52.733,22.894-96.52,22.894v.003l.002-.002ZM373.165,319.503c12.909-.246,17.483-3.092,18.606-3.992,2.106-1.682,3.171-5.218,3.171-10.51,0-2.43-.113-3.608-1.2-4.696-1.316-1.317-5.955-4.378-20.577-4.378v23.576h0ZM373.165,208.556c10.203-.789,13.891-3.167,15.092-4.301,1.129-1.068,1.242-2.14,1.242-4.514,0-3.823-1.264-7.012-16.334-7.246v16.061Z" style="fill:#e5006a;"/><path d="M208.708,397.555c-7.078,0-13.463-2.225-18.978-6.612-5.548-4.411-9.085-10.118-10.509-16.964l-6.013-27.236-61.119-.003-6.026,27.293c-1.417,6.783-4.958,12.506-10.501,16.912-5.512,4.386-11.896,6.611-18.974,6.611h-34.118c-6.496,0-11.964-2.774-15.816-8.023-3.843-5.215-4.9-11.241-3.048-17.417l71.132-225.736c1.996-6.78,5.919-12.345,11.66-16.542,5.723-4.191,12.303-6.321,19.553-6.321h34.844c7.004,0,13.461,2.126,19.194,6.322,5.704,4.176,9.734,9.686,11.97,16.378.017.05,71.165,225.841,71.165,225.841,1.874,6.25.812,12.252-3.033,17.482-3.856,5.245-9.325,8.019-15.815,8.019h-35.57l.002-.002ZM159.053,283.223l-16.403-73.82-16.404,73.82s32.807,0,32.807,0Z" style="fill:#e5006a;"/><path d="M363.183,401.187c-20.094,0-41.356-.983-63.194-2.921-6.957-.585-12.922-3.595-17.685-8.944-4.735-5.305-7.139-11.633-7.139-18.807v-219.958c0-6.879,2.314-13.112,6.876-18.529,4.652-5.527,10.578-8.63,17.609-9.221,20.561-1.935,40.746-2.92,59.905-2.92,75.266,0,113.426,24.729,113.426,73.5,0,16.817-5.196,30.698-15.882,42.436-6.857,7.536-15.294,13.251-25.202,17.087,12.025,3.933,22.214,10.302,30.418,19.037,12.064,12.856,17.925,27.525,17.925,44.846,0,29.159-9.337,50.126-28.545,64.103-18.493,13.461-48.272,20.288-88.512,20.288h0l.002.002ZM355.016,336.781c3.823.588,7.784.886,11.796.886,13.394,0,23.125-2.352,28.925-6.992,5.571-4.455,8.279-11.37,8.279-21.14,0-5.61,0-22.686-35.388-22.686h-13.609l-.003,49.93h0v.002ZM361.368,226.963c37.206,0,37.206-17.074,37.206-22.686,0-20.87-23.073-20.87-31.76-20.87-4.022,0-7.986.298-11.796.884v42.668l6.35.003h0Z" style="fill:#e5006a;"/><path d="M217.782,388.481c-7.078,0-13.463-2.225-18.978-6.612-5.548-4.411-9.085-10.118-10.509-16.964l-6.013-27.236-61.119-.003-6.026,27.293c-1.417,6.783-4.958,12.506-10.501,16.912-5.512,4.386-11.896,6.611-18.974,6.611h-34.118c-6.496,0-11.964-2.774-15.816-8.023-3.843-5.215-4.9-11.241-3.048-17.417l71.131-225.736c1.996-6.78,5.919-12.345,11.66-16.542,5.723-4.191,12.303-6.321,19.553-6.321h34.844c7.004,0,13.461,2.126,19.194,6.322,5.704,4.176,9.734,9.686,11.97,16.378.017.05,71.165,225.841,71.165,225.841,1.874,6.25.812,12.252-3.033,17.482-3.856,5.245-9.325,8.019-15.815,8.019h-35.57l.003-.002ZM168.127,274.149l-16.403-73.82-16.404,73.82s32.807,0,32.807,0Z" style="fill:#e5006a;"/><path d="M372.257,392.113c-20.094,0-41.356-.983-63.194-2.921-6.957-.585-12.922-3.595-17.685-8.944-4.735-5.305-7.139-11.633-7.139-18.807v-219.958c0-6.879,2.314-13.112,6.876-18.529,4.652-5.527,10.578-8.63,17.609-9.221,20.561-1.935,40.746-2.92,59.905-2.92,75.266,0,113.426,24.729,113.426,73.5,0,16.817-5.196,30.698-15.882,42.436-6.857,7.536-15.294,13.251-25.202,17.087,12.025,3.933,22.214,10.302,30.418,19.037,12.064,12.856,17.925,27.525,17.925,44.846,0,29.159-9.337,50.126-28.545,64.103-18.493,13.461-48.272,20.288-88.512,20.288h0l.002.002ZM364.09,327.707c3.823.588,7.784.886,11.796.886,13.394,0,23.125-2.352,28.925-6.992,5.571-4.455,8.279-11.37,8.279-21.14,0-5.61,0-22.686-35.388-22.686h-13.609l-.003,49.93h0v.002ZM370.442,217.889c37.206,0,37.206-17.074,37.206-22.686,0-20.87-23.073-20.87-31.76-20.87-4.022,0-7.986.298-11.796.884v42.668l6.35.003h0Z" style="fill:#e5006a;"/><path d="M213.246,397.555c-8.129,0-15.465-2.556-21.803-7.599-6.399-5.087-10.481-11.678-12.125-19.591l-5.218-23.627h-53.829l-5.24,23.733c-1.631,7.813-5.712,14.402-12.108,19.486-6.333,5.04-13.668,7.595-21.797,7.595h-34.118c-7.998,0-14.733-3.415-19.475-9.875-4.717-6.404-6.013-13.809-3.735-21.405l71.15-225.794c2.264-7.699,6.741-14.04,13.309-18.841,6.517-4.773,13.998-7.194,22.233-7.194h34.844c7.987,0,15.344,2.421,21.872,7.196,6.482,4.745,11.056,11.003,13.595,18.601.017.05,71.189,225.913,71.189,225.913,2.311,7.707,1.018,15.109-3.704,21.532-4.748,6.457-11.481,9.869-19.47,9.869h-35.57.002ZM157.933,274.149l-10.747-48.365-10.747,48.365h21.496-.002Z" style="fill:#e5006a;"/><path d="M367.72,401.187c-20.229,0-41.626-.989-63.595-2.938-8.139-.685-15.109-4.199-20.673-10.444-5.499-6.159-8.288-13.504-8.288-21.825v-219.958c0-7.978,2.672-15.194,7.943-21.453,5.381-6.393,12.541-10.134,20.699-10.819,20.669-1.944,40.983-2.935,60.285-2.935,38.407,0,66.707,6.101,86.522,18.65,20.862,13.214,31.442,33.195,31.442,59.386,0,17.748-5.74,33.053-17.066,45.491-4.977,5.469-10.717,10.037-17.188,13.686,8.516,4.063,15.989,9.497,22.357,16.279,12.712,13.548,19.156,29.681,19.156,47.953,0,30.286-10.233,53.088-30.411,67.772-19.556,14.236-49.381,21.157-91.181,21.157h-.003.002ZM364.09,328.243c2.382.234,4.809.35,7.26.35,12.165,0,21.187-2.073,26.092-5.998,4.425-3.537,6.576-9.294,6.576-17.596,0-5.432,0-18.148-30.85-18.148h-9.074v41.392h-.003ZM365.905,217.889c32.668,0,32.668-12.718,32.668-18.148,0-16.334-18.386-16.334-27.222-16.334-2.452,0-4.88.116-7.26.35v34.132h1.814Z" style="fill:#e5006a;"/><path d="M213.246,397.555c-8.129,0-15.465-2.556-21.803-7.599-6.399-5.087-10.481-11.678-12.125-19.591l-5.218-23.627h-53.829l-5.24,23.733c-1.631,7.813-5.712,14.402-12.108,19.486-6.333,5.04-13.668,7.595-21.797,7.595h-34.118c-7.998,0-14.733-3.415-19.475-9.875-4.717-6.404-6.013-13.809-3.735-21.405l71.15-225.794c2.264-7.699,6.741-14.04,13.309-18.841,6.517-4.773,13.998-7.194,22.233-7.194h34.844c7.987,0,15.344,2.421,21.872,7.196,6.482,4.745,11.056,11.003,13.595,18.601.017.05,71.189,225.913,71.189,225.913,2.311,7.707,1.018,15.109-3.704,21.532-4.748,6.457-11.481,9.869-19.47,9.869h-35.57.002ZM157.933,274.149l-10.747-48.365-10.747,48.365h21.496-.002Z" style="fill:#e5006a;"/><path d="M367.72,401.187c-20.229,0-41.626-.989-63.595-2.938-8.139-.685-15.109-4.199-20.673-10.444-5.499-6.159-8.288-13.504-8.288-21.825v-219.958c0-7.978,2.672-15.194,7.943-21.453,5.381-6.393,12.541-10.134,20.699-10.819,20.669-1.944,40.983-2.935,60.285-2.935,38.407,0,66.707,6.101,86.522,18.65,20.862,13.214,31.442,33.195,31.442,59.386,0,17.748-5.74,33.053-17.066,45.491-4.977,5.469-10.717,10.037-17.188,13.686,8.516,4.063,15.989,9.497,22.357,16.279,12.712,13.548,19.156,29.681,19.156,47.953,0,30.286-10.233,53.088-30.411,67.772-19.556,14.236-49.381,21.157-91.181,21.157h-.003.002ZM364.09,328.243c2.382.234,4.809.35,7.26.35,12.165,0,21.187-2.073,26.092-5.998,4.425-3.537,6.576-9.294,6.576-17.596,0-5.432,0-18.148-30.85-18.148h-9.074v41.392h-.003ZM365.905,217.889c32.668,0,32.668-12.718,32.668-18.148,0-16.334-18.386-16.334-27.222-16.334-2.452,0-4.88.116-7.26.35v34.132h1.814Z" style="fill:#e5006a;"/><path d="M204.172,402.093c-11.125,0-21.595-3.65-30.277-10.559-8.782-6.978-14.642-16.422-16.945-27.308l-2.858-12.947h-31.962l-2.86,12.952c-2.31,10.89-8.168,20.331-16.953,27.313-8.671,6.899-19.141,10.55-30.266,10.55h-34.118c-12.331,0-23.144-5.482-30.447-15.435-7.235-9.82-9.303-21.681-5.8-33.365.03-.102,71.172-225.866,71.172-225.866,3.098-10.429,9.421-19.363,18.292-25.85,8.891-6.512,19.078-9.82,30.267-9.82h34.844c10.937,0,21,3.304,29.908,9.822,8.803,6.444,15.017,14.946,18.468,25.273.041.124,71.325,226.339,71.357,226.44,3.498,11.671,1.433,23.526-5.814,33.383-7.31,9.943-18.12,15.417-30.436,15.417h-35.57l.003.003h-.003ZM160.431,176.87h0ZM160.432,176.851h0Z" style="fill:#e5006a;"/><path d="M358.646,405.723c-20.63,0-42.43-1.007-64.798-2.993-11.503-.967-21.786-6.14-29.632-14.948-7.674-8.596-11.738-19.28-11.738-30.877v-219.957c0-11.116,3.854-21.566,11.144-30.222,7.733-9.185,18.051-14.581,29.844-15.603,21.148-1.985,41.856-2.993,61.552-2.993,41.061,0,71.745,6.793,93.806,20.763,24.709,15.65,37.77,40.163,37.77,70.886,0,21.243-6.934,39.634-20.613,54.654-1.118,1.228-2.266,2.416-3.443,3.567,2.978,2.435,5.803,5.074,8.47,7.912,15.161,16.158,22.846,35.424,22.846,57.271,0,34.883-12.118,61.387-36.015,78.776-21.963,15.989-54.41,23.761-99.189,23.761h0l-.003.002ZM368.628,305.667c8.531-.696,11.109-2.673,11.236-2.775.731-.585,1.466-2.964,1.466-6.967,0-.866-.077-1.411-.138-1.708-.839-.535-4.141-2.241-12.566-2.709v14.161h0l.002-.002ZM410.182,217.346h0ZM368.628,194.339c4.502-.784,6.518-1.874,7.161-2.294.047-.263.099-.709.099-1.38,0-.331-.013-.602-.03-.82-1.105-.505-3.406-1.207-7.228-1.601v6.093h0l-.002.002Z" style="fill:#e5006a;"/><path d="M204.172,388.481c-8.129,0-15.465-2.556-21.803-7.599-6.399-5.087-10.481-11.678-12.125-19.591l-5.218-23.627h-53.829l-5.24,23.733c-1.631,7.813-5.712,14.402-12.108,19.486-6.333,5.04-13.668,7.595-21.797,7.595h-34.118c-7.998,0-14.733-3.415-19.475-9.875-4.717-6.404-6.013-13.809-3.735-21.405l71.15-225.794c2.264-7.699,6.741-14.04,13.309-18.841,6.517-4.773,13.998-7.194,22.233-7.194h34.844c7.987,0,15.344,2.421,21.872,7.196,6.482,4.745,11.056,11.003,13.595,18.601.017.05,71.189,225.913,71.189,225.913,2.311,7.707,1.018,15.109-3.704,21.532-4.748,6.457-11.481,9.869-19.47,9.869h-35.57.002ZM148.859,265.075l-10.747-48.365-10.747,48.365h21.496-.002Z" style="fill:#fff;"/><path d="M358.646,392.113c-20.229,0-41.626-.989-63.595-2.938-8.139-.685-15.109-4.199-20.673-10.444-5.499-6.159-8.288-13.504-8.288-21.825v-219.958c0-7.978,2.672-15.194,7.943-21.453,5.381-6.393,12.541-10.134,20.699-10.819,20.669-1.944,40.983-2.935,60.285-2.935,38.407,0,66.707,6.101,86.522,18.65,20.862,13.214,31.442,33.195,31.442,59.386,0,17.748-5.74,33.053-17.066,45.491-4.977,5.469-10.717,10.037-17.188,13.686,8.516,4.063,15.989,9.497,22.357,16.279,12.712,13.548,19.156,29.679,19.156,47.953,0,30.286-10.233,53.088-30.411,67.772-19.556,14.236-49.381,21.157-91.181,21.157h-.003.002ZM355.016,319.169c2.382.234,4.809.35,7.26.35,12.165,0,21.187-2.073,26.092-5.998,4.425-3.537,6.576-9.294,6.576-17.596,0-5.432,0-18.148-30.85-18.148h-9.074v41.392h-.003ZM356.831,208.815c32.668,0,32.668-12.718,32.668-18.148,0-16.334-18.386-16.334-27.222-16.334-2.452,0-4.88.116-7.26.35v34.132h1.814Z" style="fill:#fff;"/><path d="M199.634,379.407c-5.046,0-9.405-1.516-13.328-4.638-3.901-3.1-6.281-6.931-7.276-11.711l-6.181-28.003c-1.03-4.096-4.031-6.462-8.06-6.462h-62.066c-5.494,0-7.959,3.379-8.461,6.631l-6.132,27.779c-1.01,4.837-3.39,8.669-7.285,11.765-3.925,3.123-8.285,4.64-13.328,4.64h-34.118c-3.639,0-6.339-1.372-8.502-4.318-2.186-2.965-2.714-5.963-1.671-9.443l71.12-225.703c1.444-4.958,4.158-8.804,8.332-11.856,4.199-3.076,8.842-4.571,14.198-4.571h34.844c5.105,0,9.632,1.494,13.834,4.571,4.218,3.087,7.07,6.989,8.721,11.931l71.117,225.69c1.022,3.414.492,6.413-1.687,9.378-2.167,2.949-4.87,4.321-8.503,4.321h-35.57l.002-.002ZM107.77,274.625c-.654,2.275-.014,4.637,1.742,6.375,1.427,1.443,3.233,2.222,5.189,2.222h37.748c1.941,0,3.741-.775,5.204-2.238,1.729-1.729,2.365-4.083,1.729-6.344l-20.959-94.325c-.345-2.39-2.35-4.168-4.848-4.168s-4.503,1.78-4.847,4.168l-20.956,94.311h0l-.002-.002Z" style="fill:#f9d2d4;"/><path d="M354.109,383.039c-19.831,0-40.821-.971-62.391-2.885-4.677-.394-8.502-2.336-11.713-5.941-3.26-3.65-4.84-7.826-4.84-12.77v-219.959c0-4.748,1.551-8.895,4.742-12.684,3.089-3.668,6.826-5.639,11.428-6.024,20.384-1.918,40.268-2.888,59.147-2.888,70.218,0,104.352,21.074,104.352,64.426,0,14.454-4.422,26.336-13.519,36.327-9.011,9.902-21.312,16.19-36.566,18.689-2.485.26-4.361,2.307-4.361,4.872,0,2.601,1.929,4.668,4.464,4.881,17.405,2.291,31.459,9.019,41.773,20.003,10.407,11.09,15.467,23.729,15.467,38.634,0,26.051-8.116,44.617-24.81,56.765-16.909,12.31-44.892,18.553-83.173,18.553h0l.002.002ZM344.674,268.703c-4.666,0-7.804,3.136-7.804,7.804v51.54c0,4.271,2.372,7.409,6.349,8.395.113.028.231.053.347.071,4.582.764,9.352,1.152,14.176,1.152,15.724,0,27.039-2.937,34.593-8.98,7.752-6.2,11.685-15.697,11.685-28.226,0-26.248-24.179-31.76-44.462-31.76h-14.885l.002.003ZM357.739,165.259c-4.833,0-9.602.387-14.176,1.151-.121.02-.24.045-.359.074-3.967.997-6.335,4.133-6.335,8.392v44.282c0,4.666,3.136,7.804,7.804,7.804h7.62c21.113,0,46.28-5.51,46.28-31.76,0-13.66-7.084-29.944-40.834-29.944h0v.002Z" style="fill:#f9d2d4;"/><path d="M208.708,370.333c-5.046,0-9.405-1.516-13.328-4.638-3.901-3.1-6.281-6.931-7.276-11.711l-6.181-28.003c-1.03-4.096-4.031-6.462-8.06-6.462h-62.066c-5.494,0-7.959,3.379-8.461,6.631l-6.132,27.779c-1.01,4.837-3.39,8.669-7.285,11.765-3.925,3.123-8.285,4.64-13.328,4.64h-34.118c-3.639,0-6.339-1.372-8.502-4.318-2.186-2.965-2.714-5.963-1.671-9.443l71.123-225.701c1.444-4.958,4.158-8.804,8.332-11.856,4.199-3.076,8.842-4.571,14.198-4.571h34.844c5.105,0,9.632,1.494,13.834,4.571,4.218,3.087,7.07,6.989,8.721,11.931l71.117,225.69c1.022,3.414.492,6.413-1.687,9.378-2.167,2.949-4.87,4.321-8.503,4.321h-35.57l-.002-.003ZM116.844,265.551c-.654,2.275-.014,4.637,1.742,6.375,1.427,1.443,3.233,2.222,5.189,2.222h37.748c1.941,0,3.741-.775,5.204-2.238,1.729-1.729,2.365-4.083,1.729-6.344l-20.959-94.325c-.345-2.39-2.35-4.168-4.848-4.168s-4.503,1.78-4.847,4.168l-20.956,94.311h0l-.002-.002Z" style="fill:#fff;"/><path d="M363.183,373.965c-19.831,0-40.821-.971-62.391-2.885-4.677-.394-8.502-2.336-11.713-5.941-3.26-3.65-4.84-7.826-4.84-12.77v-219.959c0-4.748,1.551-8.895,4.742-12.684,3.089-3.668,6.826-5.639,11.428-6.024,20.384-1.918,40.268-2.888,59.147-2.888,70.218,0,104.352,21.074,104.352,64.426,0,14.454-4.422,26.336-13.519,36.327-9.011,9.902-21.312,16.19-36.566,18.689-2.485.26-4.361,2.307-4.361,4.872,0,2.601,1.929,4.668,4.464,4.881,17.405,2.291,31.459,9.019,41.773,20.003,10.407,11.09,15.467,23.729,15.467,38.634,0,26.051-8.116,44.617-24.81,56.765-16.909,12.31-44.892,18.553-83.173,18.553h0l.002.002ZM353.748,259.629c-4.666,0-7.804,3.136-7.804,7.804v51.54c0,4.271,2.372,7.409,6.349,8.395.113.028.231.053.347.071,4.582.764,9.352,1.152,14.176,1.152,15.724,0,27.039-2.937,34.593-8.98,7.752-6.2,11.685-15.697,11.685-28.226,0-26.248-24.179-31.76-44.462-31.76h-14.885l.002.003ZM366.813,156.185c-4.833,0-9.602.387-14.176,1.151-.121.02-.24.045-.359.074-3.967.997-6.335,4.133-6.335,8.392v44.282c0,4.666,3.136,7.804,7.804,7.804h7.62c21.113,0,46.28-5.51,46.28-31.76,0-13.66-7.084-29.944-40.834-29.944h0v.002Z" style="fill:#fff;"/></g></svg>