<?xml version="1.0" encoding="UTF-8"?>
<svg id="_图层_2" data-name="图层 2" xmlns="http://www.w3.org/2000/svg" viewBox="0 0 322.08 211.2">
  <defs>
    <style>
      .cls-1 {
        fill: #f9d2d4;
      }

      .cls-2 {
        fill: #fff;
      }

      .cls-3 {
        fill: #e5006a;
      }
    </style>
  </defs>
  <g id="_图层_2-2" data-name=" 图层 2">
    <g id="text">
      <g>
        <g>
          <g>
            <path class="cls-3" d="M134.14,208.92c-8.3,0-16.11-2.73-22.6-7.88-6.58-5.23-10.96-12.3-12.69-20.47l-.8-3.61h-10.93l-.81,3.67c-1.72,8.12-6.11,15.19-12.69,20.42-6.48,5.15-14.29,7.88-22.59,7.88h-21.46c-9.62,0-18.06-4.28-23.75-12.04-5.64-7.65-7.25-16.89-4.52-26,1.82-6.07,16.75-53.46,44.8-142.17,2.28-7.68,6.99-14.33,13.58-19.15,6.59-4.83,14.13-7.28,22.41-7.28h21.92c8.12,0,15.58,2.45,22.18,7.28,6.51,4.77,11.11,11.06,13.66,18.7,0,.02,44.95,142.64,44.95,142.64,2.72,9.06,1.11,18.3-4.54,25.98-5.7,7.75-14.13,12.02-23.75,12.02h-22.38,0Z"/>
            <path class="cls-3" d="M231.32,211.2c-13.15,0-27.03-.64-41.27-1.9-8.71-.73-16.47-4.64-22.39-11.29-5.78-6.47-8.83-14.5-8.83-23.22V36.42c0-8.35,2.89-16.2,8.35-22.69,5.86-6.96,13.69-11.05,22.65-11.83,13.44-1.26,26.65-1.9,39.21-1.9,26.94,0,47.24,4.56,62.06,13.95,17.28,10.94,26.41,28.03,26.41,49.41,0,13.92-4.29,26.11-12.74,36.26.47.47.94.95,1.39,1.43,10.56,11.26,15.92,24.69,15.92,39.93,0,23.87-8.41,42.1-25,54.17-14.82,10.79-36.33,16.04-65.75,16.04h-.01Z"/>
          </g>
          <g>
            <path class="cls-3" d="M134.14,200.36c-6.43,0-12.24-2.03-17.27-6.02-5.1-4.05-8.35-9.31-9.66-15.62l-2.28-10.32h-24.69l-2.31,10.45c-1.28,6.12-4.62,11.5-9.64,15.5-5.02,3.99-10.83,6.02-17.26,6.02h-21.46c-6.82,0-12.81-3.03-16.85-8.54-4.01-5.44-5.16-12.01-3.22-18.48L54.27,31.27c1.79-6.05,5.31-11.03,10.46-14.79,5.1-3.73,10.94-5.63,17.36-5.63h21.92c6.26,0,12.03,1.89,17.13,5.63,5.05,3.7,8.62,8.58,10.59,14.5l44.81,142.2c1.97,6.59.84,13.18-3.17,18.64-4.05,5.5-10.03,8.54-16.85,8.54h-22.38,0Z"/>
            <path class="cls-3" d="M231.32,202.64c-12.89,0-26.52-.63-40.51-1.87-6.51-.55-12.32-3.47-16.76-8.46-4.42-4.95-6.66-10.85-6.66-17.53V36.42c0-6.4,2.13-12.18,6.34-17.17,4.38-5.21,10.23-8.26,16.91-8.82,13.15-1.24,26.09-1.87,38.4-1.87,25.27,0,44.07,4.13,57.48,12.62,14.88,9.43,22.43,23.62,22.43,42.18,0,12.63-4.11,23.55-12.22,32.46-1.41,1.55-2.92,3.01-4.51,4.36,2.78,1.99,5.36,4.24,7.7,6.74,9.02,9.62,13.6,21.08,13.6,34.07,0,20.98-7.23,36.87-21.48,47.25-13.31,9.69-33.17,14.4-60.71,14.4h-.01ZM234.74,145.55c8.12-.15,11-1.95,11.71-2.51,1.32-1.06,1.99-3.28,1.99-6.61,0-1.53-.07-2.27-.75-2.95-.83-.83-3.75-2.75-12.94-2.75h0v14.83h-.01ZM234.74,75.76c6.42-.5,8.74-1.99,9.49-2.71.71-.67.78-1.35.78-2.84,0-2.41-.8-4.41-10.27-4.56v10.1h0Z"/>
          </g>
          <g>
            <path class="cls-3" d="M131.29,194.65c-4.45,0-8.47-1.4-11.94-4.16-3.49-2.78-5.72-6.37-6.61-10.67l-3.78-17.13h-38.45l-3.79,17.17c-.89,4.27-3.12,7.87-6.6,10.64-3.47,2.76-7.49,4.16-11.94,4.16h-21.46c-4.08,0-7.53-1.75-9.95-5.05-2.42-3.28-3.08-7.07-1.92-10.95L59.6,36.65c1.26-4.26,3.72-7.76,7.33-10.4,3.6-2.64,7.74-3.98,12.3-3.98h21.92c4.41,0,8.47,1.34,12.07,3.98,3.59,2.63,6.12,6.1,7.53,10.3l44.77,142.06c1.18,3.93.51,7.71-1.91,11-2.43,3.3-5.87,5.05-9.95,5.05h-22.38.01ZM100.06,122.73l-10.32-46.43-10.32,46.43h20.64Z"/>
            <path class="cls-3" d="M228.46,196.93c-12.63,0-26.01-.62-39.75-1.84-4.38-.37-8.13-2.26-11.12-5.62-2.98-3.34-4.49-7.32-4.49-11.83V39.28c0-4.33,1.46-8.25,4.32-11.66,2.93-3.48,6.66-5.43,11.08-5.8,12.95-1.22,25.64-1.84,37.68-1.84,47.34,0,71.35,15.56,71.35,46.23,0,10.58-3.27,19.31-9.99,26.69-4.31,4.74-9.62,8.33-15.85,10.75,7.56,2.47,13.97,6.48,19.13,11.98,7.59,8.09,11.28,17.31,11.28,28.21,0,18.34-5.87,31.53-17.96,40.32-11.63,8.47-30.36,12.76-55.68,12.76h0ZM223.33,156.42c2.38.37,4.88.56,7.42.56,8.42,0,14.55-1.48,18.19-4.4,3.5-2.8,5.21-7.15,5.21-13.3,0-3.53,0-14.27-22.26-14.27h-8.56v31.41h0ZM227.32,87.34c23.4,0,23.4-10.74,23.4-14.27,0-13.13-14.51-13.13-19.98-13.13-2.53,0-5.02.19-7.42.56v26.84s4,0,4,0Z"/>
          </g>
          <g>
            <path class="cls-3" d="M137,188.94c-4.45,0-8.47-1.4-11.94-4.16-3.49-2.78-5.72-6.37-6.61-10.67l-3.78-17.13h-38.45l-3.79,17.17c-.89,4.27-3.12,7.87-6.6,10.64-3.47,2.76-7.49,4.16-11.94,4.16h-21.46c-4.08,0-7.53-1.75-9.95-5.05-2.42-3.28-3.08-7.07-1.92-10.95L65.31,30.94c1.26-4.26,3.72-7.76,7.33-10.4,3.6-2.64,7.74-3.98,12.3-3.98h21.92c4.41,0,8.47,1.34,12.07,3.98,3.59,2.63,6.12,6.1,7.53,10.3l44.77,142.06c1.18,3.93.51,7.71-1.91,11-2.43,3.3-5.87,5.05-9.95,5.05h-22.38,0ZM105.76,117.02l-10.32-46.43-10.32,46.43h20.64Z"/>
            <path class="cls-3" d="M234.17,191.22c-12.63,0-26.01-.62-39.75-1.84-4.38-.37-8.13-2.26-11.12-5.62-2.98-3.34-4.49-7.32-4.49-11.83V33.57c0-4.33,1.46-8.25,4.32-11.66,2.93-3.48,6.66-5.43,11.08-5.8,12.95-1.22,25.64-1.84,37.68-1.84,47.34,0,71.35,15.56,71.35,46.23,0,10.58-3.27,19.31-9.99,26.69-4.31,4.74-9.62,8.33-15.85,10.75,7.56,2.47,13.97,6.48,19.13,11.98,7.59,8.09,11.28,17.31,11.28,28.21,0,18.34-5.87,31.53-17.96,40.32-11.63,8.47-30.36,12.76-55.68,12.76h0ZM229.03,150.71c2.38.37,4.88.56,7.42.56,8.42,0,14.55-1.48,18.19-4.4,3.5-2.8,5.21-7.15,5.21-13.3,0-3.53,0-14.27-22.26-14.27h-8.56v31.41ZM233.03,81.63c23.4,0,23.4-10.74,23.4-14.27,0-13.13-14.51-13.13-19.98-13.13-2.53,0-5.02.19-7.42.56v26.84h4,0Z"/>
          </g>
          <g>
            <path class="cls-3" d="M134.14,194.65c-5.11,0-9.73-1.61-13.71-4.78-4.03-3.2-6.59-7.34-7.63-12.32l-3.28-14.86h-33.86l-3.3,14.93c-1.03,4.92-3.59,9.06-7.62,12.26-3.99,3.17-8.6,4.78-13.71,4.78h-21.46c-5.03,0-9.27-2.15-12.25-6.21-2.97-4.03-3.78-8.69-2.35-13.46L59.73,32.94c1.42-4.84,4.24-8.83,8.37-11.85,4.1-3,8.81-4.53,13.99-4.53h21.92c5.02,0,9.65,1.52,13.76,4.53,4.08,2.99,6.96,6.92,8.55,11.7l44.78,142.1c1.45,4.85.64,9.51-2.33,13.54-2.99,4.06-7.22,6.21-12.25,6.21h-22.38ZM99.35,117.02l-6.76-30.42-6.76,30.42h13.52Z"/>
            <path class="cls-3" d="M231.32,196.93c-12.72,0-26.18-.62-40-1.85-5.12-.43-9.5-2.64-13-6.57-3.46-3.88-5.21-8.5-5.21-13.73V36.42c0-5.02,1.68-9.56,5-13.49,3.39-4.02,7.89-6.38,13.02-6.81,13.01-1.22,25.79-1.85,37.92-1.85,24.16,0,41.96,3.84,54.43,11.73,13.12,8.31,19.78,20.88,19.78,37.36,0,11.17-3.61,20.79-10.73,28.62-3.13,3.44-6.74,6.31-10.81,8.61,5.36,2.55,10.06,5.97,14.06,10.24,8,8.52,12.05,18.67,12.05,30.16,0,19.05-6.44,33.39-19.13,42.63-12.3,8.95-31.06,13.31-57.36,13.31h-.02ZM229.03,151.05c1.5.15,3.03.22,4.57.22,7.65,0,13.33-1.3,16.41-3.77,2.78-2.23,4.14-5.85,4.14-11.07,0-3.42,0-11.42-19.41-11.42h-5.71v26.04h0ZM230.17,81.63c20.55,0,20.55-8,20.55-11.42,0-10.27-11.57-10.27-17.12-10.27-1.54,0-3.07.07-4.57.22v21.47h1.14Z"/>
          </g>
          <g>
            <path class="cls-3" d="M134.14,194.65c-5.11,0-9.73-1.61-13.71-4.78-4.03-3.2-6.59-7.34-7.63-12.32l-3.28-14.86h-33.86l-3.3,14.93c-1.03,4.92-3.59,9.06-7.62,12.26-3.99,3.17-8.6,4.78-13.71,4.78h-21.46c-5.03,0-9.27-2.15-12.25-6.21-2.97-4.03-3.78-8.69-2.35-13.46L59.73,32.94c1.42-4.84,4.24-8.83,8.37-11.85,4.1-3,8.81-4.53,13.99-4.53h21.92c5.02,0,9.65,1.52,13.76,4.53,4.08,2.99,6.96,6.92,8.55,11.7l44.78,142.1c1.45,4.85.64,9.51-2.33,13.54-2.99,4.06-7.22,6.21-12.25,6.21h-22.38ZM99.35,117.02l-6.76-30.42-6.76,30.42h13.52Z"/>
            <path class="cls-3" d="M231.32,196.93c-12.72,0-26.18-.62-40-1.85-5.12-.43-9.5-2.64-13-6.57-3.46-3.88-5.21-8.5-5.21-13.73V36.42c0-5.02,1.68-9.56,5-13.49,3.39-4.02,7.89-6.38,13.02-6.81,13.01-1.22,25.79-1.85,37.92-1.85,24.16,0,41.96,3.84,54.43,11.73,13.12,8.31,19.78,20.88,19.78,37.36,0,11.17-3.61,20.79-10.73,28.62-3.13,3.44-6.74,6.31-10.81,8.61,5.36,2.55,10.06,5.97,14.06,10.24,8,8.52,12.05,18.67,12.05,30.16,0,19.05-6.44,33.39-19.13,42.63-12.3,8.95-31.06,13.31-57.36,13.31h-.02ZM229.03,151.05c1.5.15,3.03.22,4.57.22,7.65,0,13.33-1.3,16.41-3.77,2.78-2.23,4.14-5.85,4.14-11.07,0-3.42,0-11.42-19.41-11.42h-5.71v26.04h0ZM230.17,81.63c20.55,0,20.55-8,20.55-11.42,0-10.27-11.57-10.27-17.12-10.27-1.54,0-3.07.07-4.57.22v21.47h1.14Z"/>
          </g>
        </g>
        <g>
          <g>
            <path class="cls-3" d="M128.44,197.5c-7,0-13.58-2.3-19.04-6.64-5.53-4.39-9.21-10.33-10.66-17.18l-1.8-8.14h-20.1l-1.8,8.15c-1.45,6.85-5.14,12.79-10.66,17.18-5.46,4.34-12.04,6.64-19.04,6.64h-21.46c-7.76,0-14.56-3.45-19.15-9.71-4.55-6.18-5.85-13.64-3.65-20.99.02-.06,44.77-142.08,44.77-142.08,1.95-6.56,5.92-12.18,11.5-16.26,5.6-4.1,12-6.18,19.04-6.18h21.92c6.88,0,13.21,2.08,18.81,6.18,5.54,4.06,9.45,9.41,11.62,15.9.03.08,44.87,142.37,44.88,142.44,2.2,7.34.9,14.8-3.66,21-4.6,6.25-11.4,9.7-19.15,9.7h-22.38,0Z"/>
            <path class="cls-3" d="M225.61,199.79c-12.98,0-26.69-.63-40.76-1.88-7.23-.61-13.7-3.86-18.64-9.4-4.83-5.41-7.38-12.13-7.38-19.43V30.72c0-6.99,2.42-13.56,7.01-19.01,4.87-5.78,11.36-9.17,18.78-9.82C197.93.64,210.96,0,223.33,0c25.83,0,45.13,4.27,59.01,13.06,15.54,9.84,23.76,25.26,23.76,44.59,0,13.36-4.36,24.93-12.97,34.38-.7.77-1.42,1.52-2.17,2.25,1.87,1.53,3.65,3.19,5.33,4.98,9.54,10.17,14.37,22.28,14.37,36.03,0,21.94-7.62,38.61-22.66,49.55-13.81,10.06-34.22,14.95-62.39,14.95h0ZM231.89,136.85c5.37-.44,6.99-1.68,7.07-1.75.55-.44.92-2.2.92-4.38,0-.54-.05-.89-.09-1.07-.53-.34-2.6-1.41-7.91-1.71v8.91h0ZM231.89,66.82c2.83-.49,4.1-1.18,4.51-1.44.03-.17.06-.45.06-.87,0-.21,0-.38-.02-.52-.7-.32-2.14-.76-4.55-1.01v3.83h0Z"/>
          </g>
          <g>
            <path class="cls-2" d="M128.44,188.94c-5.11,0-9.73-1.61-13.71-4.78-4.03-3.2-6.59-7.34-7.63-12.32l-3.28-14.86h-33.86l-3.3,14.93c-1.03,4.92-3.59,9.06-7.62,12.26-3.99,3.17-8.6,4.78-13.71,4.78h-21.46c-5.03,0-9.27-2.15-12.25-6.21-2.97-4.03-3.78-8.69-2.35-13.46L54.02,27.23c1.42-4.84,4.24-8.83,8.37-11.85,4.1-3,8.81-4.53,13.99-4.53h21.92c5.02,0,9.65,1.52,13.76,4.53,4.08,2.99,6.96,6.92,8.55,11.7l44.78,142.1c1.45,4.85.64,9.51-2.33,13.54-2.99,4.06-7.22,6.21-12.25,6.21h-22.38.01ZM93.64,111.31l-6.76-30.42-6.76,30.42h13.52Z"/>
            <path class="cls-2" d="M225.61,191.22c-12.72,0-26.18-.62-40-1.85-5.12-.43-9.5-2.64-13-6.57-3.46-3.88-5.21-8.5-5.21-13.73V30.72c0-5.02,1.68-9.56,5-13.49,3.39-4.02,7.89-6.38,13.02-6.81,13.01-1.22,25.79-1.85,37.92-1.85,24.16,0,41.96,3.84,54.43,11.73,13.12,8.31,19.78,20.88,19.78,37.36,0,11.17-3.61,20.79-10.73,28.62-3.13,3.44-6.74,6.31-10.81,8.61,5.36,2.55,10.06,5.97,14.06,10.24,8,8.52,12.05,18.67,12.05,30.16,0,19.05-6.44,33.39-19.13,42.63-12.3,8.95-31.06,13.31-57.36,13.31h-.02ZM223.32,145.34c1.5.15,3.03.22,4.57.22,7.65,0,13.33-1.3,16.41-3.77,2.78-2.23,4.14-5.85,4.14-11.07,0-3.42,0-11.42-19.41-11.42h-5.71v26.04h0ZM224.47,75.92c20.55,0,20.55-8,20.55-11.42,0-10.27-11.57-10.27-17.12-10.27-1.54,0-3.07.07-4.57.22v21.47s1.14,0,1.14,0Z"/>
          </g>
          <g>
            <path class="cls-1" d="M125.58,183.23c-3.17,0-5.91-.96-8.38-2.92-2.45-1.95-3.95-4.36-4.58-7.37l-3.89-17.61c-.65-2.58-2.54-4.06-5.07-4.06h-39.04c-3.46,0-5.01,2.12-5.32,4.17l-3.86,17.47c-.64,3.04-2.13,5.45-4.58,7.4-2.47,1.96-5.21,2.92-8.38,2.92h-21.46c-2.29,0-3.99-.86-5.35-2.72-1.37-1.87-1.71-3.75-1.05-5.94L59.35,32.6c.91-3.12,2.62-5.54,5.24-7.46,2.64-1.93,5.56-2.88,8.93-2.88h21.92c3.21,0,6.06.94,8.7,2.88,2.65,1.94,4.45,4.4,5.48,7.5l44.74,141.97c.64,2.15.31,4.04-1.06,5.9-1.36,1.85-3.06,2.72-5.35,2.72h-22.38.01ZM67.8,117.32c-.41,1.43,0,2.92,1.09,4.01.9.91,2.03,1.4,3.27,1.4h23.75c1.22,0,2.35-.49,3.27-1.41,1.09-1.09,1.49-2.57,1.09-3.99l-13.18-59.33c-.22-1.5-1.48-2.62-3.05-2.62s-2.83,1.12-3.05,2.62l-13.18,59.32h0Z"/>
            <path class="cls-1" d="M222.75,185.52c-12.47,0-25.68-.61-39.25-1.82-2.94-.25-5.35-1.47-7.37-3.74-2.05-2.3-3.04-4.92-3.04-8.03V33.57c0-2.99.98-5.6,2.98-7.98,1.94-2.31,4.29-3.55,7.19-3.79,12.83-1.21,25.34-1.82,37.21-1.82,44.17,0,65.64,13.26,65.64,40.53,0,9.09-2.78,16.57-8.5,22.85-5.67,6.23-13.41,10.18-23,11.76-1.56.16-2.74,1.45-2.74,3.06s1.21,2.94,2.81,3.07c10.95,1.44,19.79,5.67,26.28,12.58,6.55,6.98,9.73,14.93,9.73,24.3,0,16.39-5.11,28.07-15.61,35.71-10.64,7.74-28.24,11.67-52.32,11.67h-.01ZM216.82,113.6c-2.94,0-4.91,1.97-4.91,4.91v32.42c0,2.69,1.49,4.66,3.99,5.28.07.02.14.03.22.04,2.88.48,5.88.72,8.92.72,9.89,0,17.01-1.85,21.76-5.65,4.88-3.9,7.35-9.87,7.35-17.75,0-16.51-15.21-19.98-27.97-19.98h-9.36ZM225.04,48.53c-3.04,0-6.04.24-8.92.72-.08,0-.15.03-.23.05-2.5.63-3.99,2.6-3.99,5.28v27.86c0,2.94,1.97,4.91,4.91,4.91h4.79c13.28,0,29.11-3.47,29.11-19.98,0-8.59-4.46-18.84-25.69-18.84h.02Z"/>
          </g>
          <g>
            <path class="cls-2" d="M131.29,177.53c-3.17,0-5.91-.96-8.38-2.92-2.45-1.95-3.95-4.36-4.58-7.37l-3.89-17.61c-.65-2.58-2.54-4.06-5.07-4.06h-39.04c-3.46,0-5.01,2.12-5.32,4.17l-3.86,17.47c-.64,3.04-2.13,5.45-4.58,7.4-2.47,1.96-5.21,2.92-8.38,2.92h-21.46c-2.29,0-3.99-.86-5.35-2.72-1.37-1.87-1.71-3.75-1.05-5.94L65.06,26.89c.91-3.12,2.62-5.54,5.24-7.46,2.64-1.93,5.56-2.88,8.93-2.88h21.92c3.21,0,6.06.94,8.7,2.88,2.65,1.94,4.45,4.4,5.48,7.5l44.74,141.97c.64,2.15.31,4.04-1.06,5.9-1.36,1.85-3.06,2.72-5.35,2.72h-22.38.01ZM73.51,111.61c-.41,1.43,0,2.92,1.09,4.01.9.91,2.03,1.4,3.27,1.4h23.75c1.22,0,2.35-.49,3.27-1.41,1.09-1.09,1.49-2.57,1.09-3.99l-13.18-59.33c-.22-1.5-1.48-2.62-3.05-2.62s-2.83,1.12-3.05,2.62l-13.18,59.32h0Z"/>
            <path class="cls-2" d="M228.46,179.81c-12.47,0-25.68-.61-39.25-1.82-2.94-.25-5.35-1.47-7.37-3.74-2.05-2.3-3.04-4.92-3.04-8.03V27.86c0-2.99.98-5.6,2.98-7.98,1.94-2.31,4.29-3.55,7.19-3.79,12.83-1.21,25.34-1.82,37.21-1.82,44.17,0,65.64,13.26,65.64,40.53,0,9.09-2.78,16.57-8.5,22.85-5.67,6.23-13.41,10.18-23,11.76-1.56.16-2.74,1.45-2.74,3.06s1.21,2.94,2.81,3.07c10.95,1.44,19.79,5.67,26.28,12.58,6.55,6.98,9.73,14.93,9.73,24.3,0,16.39-5.11,28.07-15.61,35.71-10.64,7.74-28.24,11.67-52.32,11.67h-.01ZM222.53,107.89c-2.94,0-4.91,1.97-4.91,4.91v32.42c0,2.69,1.49,4.66,3.99,5.28.07.02.14.03.22.04,2.88.48,5.88.72,8.92.72,9.89,0,17.01-1.85,21.76-5.65,4.88-3.9,7.35-9.87,7.35-17.75,0-16.51-15.21-19.98-27.97-19.98h-9.36ZM230.74,42.82c-3.04,0-6.04.24-8.92.72-.08,0-.15.03-.23.05-2.5.63-3.99,2.6-3.99,5.28v27.86c0,2.94,1.97,4.91,4.91,4.91h4.79c13.28,0,29.11-3.47,29.11-19.98,0-8.59-4.46-18.84-25.69-18.84h.02Z"/>
          </g>
        </g>
      </g>
    </g>
  </g>
</svg>