<?xml version="1.0" encoding="UTF-8"?><svg id="_图层_2" xmlns="http://www.w3.org/2000/svg" viewBox="0 0 913.12 581.04"><g id="text"><path d="M61.118,305.895c-14.29,0-26.92-4.46-37.53-13.26-12.23-10.15-19.19-23.94-20.69-41-1.53-17.46,3.09-32.71,13.41-44.55-7-5.45-11.24-13.27-12.03-22.3l-.33-3.82c-.75-8.59,1.33-16.99,6.03-24.28,5.03-7.81,12.36-13.17,21.2-15.49,16.8-4.6,30.77-7.34,42.64-8.38,5.05-.44,9.92-.67,14.49-.67,19.21,0,34.19,3.82,45.79,11.68,15.51,10.52,24.4,27.56,26.42,50.66l5.71,65.27c.81,9.27-1.98,18-8.06,25.25-6.09,7.25-14.2,11.51-23.46,12.32l-15.06,1.32c-1.07.09-2.16.14-3.22.14-5.92,0-11.63-1.48-16.75-4.3-9.49,6.35-20.37,10.1-32.42,11.15-2.07.18-4.13.27-6.14.27v-.01Z" style="fill:#e5006a;"/><path d="M182.048,293.035c-8.12,0-15.78-2.84-22.17-8.2-7.24-6.07-11.5-14.18-12.32-23.46l-13.3-152.06c-.81-9.26,1.98-17.99,8.06-25.25,6.08-7.25,14.2-11.51,23.46-12.32l18.17-1.59c1.02-.09,2.06-.14,3.08-.14,8.11,0,15.77,2.83,22.16,8.19,7.26,6.1,11.52,14.21,12.33,23.47l1.72,19.63c4.78-1.48,9.73-2.45,14.8-2.89,2.22-.19,4.44-.29,6.6-.29,18.56,0,34.37,6.89,46.99,20.49,12.78,13.78,20.4,33.72,22.63,59.26,2.2,25.15-2.09,46.07-12.75,62.18-11.52,17.41-28.3,27.54-48.51,29.31-2.24.2-4.49.29-6.69.3-9.67,0-18.81-1.87-27.26-5.57-5.36,4.3-11.8,6.87-18.86,7.49l-15.06,1.32c-1.02.09-2.06.14-3.08.14v-.01Z" style="fill:#e5006a;"/><path d="M365.688,279.055c-21.43,0-39.57-6.15-53.93-18.29-16.64-14.06-26.23-34.3-28.49-60.18-2.26-25.87,3.66-47.48,17.61-64.22,13.99-16.79,34.3-26.45,60.39-28.74,3.58-.31,7.12-.47,10.53-.47,21.42,0,39.57,6.15,53.93,18.28,16.65,14.07,26.23,34.32,28.5,60.18,2.26,25.87-3.66,47.48-17.61,64.22-13.99,16.79-34.3,26.45-60.39,28.74-3.58.31-7.13.47-10.54.47v.01Z" style="fill:#e5006a;"/><path d="M487.938,268.485c-17.1,0-30.81-5.38-40.74-15.98-10.22-10.9-16.23-28.1-18.38-52.61l-5.29-60.49c-.81-9.27,1.98-18,8.06-25.25s14.2-11.51,23.46-12.32l16.98-1.49c1.02-.09,2.06-.14,3.08-.14,8.1,0,15.77,2.83,22.16,8.19,2.01,1.69,3.8,3.54,5.34,5.52,1.17-2.22,2.61-4.34,4.29-6.35,6.09-7.26,14.2-11.52,23.47-12.33l18.17-1.59c1.02-.09,2.06-.14,3.08-.14,8.1,0,15.77,2.83,22.16,8.19,7.26,6.1,11.52,14.22,12.33,23.47l8.49,97.07c.81,9.27-1.98,18-8.06,25.25s-14.2,11.51-23.47,12.32l-16.26,1.42c-1.08.09-2.16.14-3.22.14-5.86,0-11.52-1.45-16.6-4.22-9.29,6.27-19.83,9.96-31.38,10.97-2.62.23-5.21.34-7.68.34l.01.03Z" style="fill:#e5006a;"/><path d="M652.428,253.975c-17.75,0-31.91-4.53-42.08-13.47-11.99-10.51-18.86-27.6-21.02-52.24l-1.84-21.04c-5.7-1.11-11.05-3.68-15.7-7.58-7.24-6.07-11.5-14.18-12.32-23.46l-.33-3.83c-.81-9.26,1.98-17.99,8.06-25.25,3.9-4.65,8.72-8.11,14.13-10.19l-1.07-12.19c-.81-9.26,1.98-17.99,8.06-25.25,6.09-7.25,14.2-11.51,23.47-12.32l18.17-1.59c1.02-.09,2.06-.14,3.08-.14,8.1,0,15.77,2.83,22.16,8.19,7.26,6.1,11.52,14.22,12.33,23.47l.95,10.88,2.51-.22c1.02-.09,2.06-.14,3.08-.14,8.1,0,15.77,2.83,22.16,8.19,7.26,6.1,11.53,14.22,12.34,23.48l.33,3.82c.81,9.27-1.98,18-8.06,25.25-6.09,7.25-14.2,11.51-23.46,12.33l-2.51.22,1.29,14.77c1.69-.26,3.36-.39,5.01-.39,6.35,0,12.39,1.8,17.93,5.35,8.49,5.44,13.64,13.87,14.5,23.74l.54,6.22c.76,8.68-1.38,17.11-6.18,24.38-5.22,7.89-12.8,13.12-21.91,15.12-6.38,1.48-14.13,2.62-22.97,3.4-3.7.32-7.28.49-10.67.49h.02Z" style="fill:#e5006a;"/><path d="M61.118,296.895c-12.14,0-22.83-3.77-31.78-11.19-10.31-8.55-16.19-20.28-17.47-34.86-1.62-18.52,4.36-33.36,17.77-44.1.88-.7,1.79-1.39,2.72-2.05-3.14-.53-6.14-1.74-8.97-3.61-5.92-3.91-9.52-9.98-10.15-17.1l-.33-3.82c-.58-6.68.97-12.95,4.63-18.63,3.87-6.01,9.26-9.94,16.03-11.69,16.01-4.38,29.84-7.11,41.02-8.09,4.8-.42,9.41-.63,13.71-.63,17.11,0,30.82,3.41,40.74,10.13,13.16,8.92,20.73,23.72,22.51,43.99l5.71,65.27c.6,6.84-1.48,13.3-5.99,18.68-4.52,5.38-10.52,8.54-17.35,9.14l-15.06,1.32c-.82.07-1.63.11-2.43.11-6.08,0-11.58-1.97-16.34-5.84-.22-.18-.43-.35-.64-.54-9.33,7.71-20.4,12.16-32.98,13.26-1.8.16-3.6.24-5.35.24v.01ZM79.758,239.555c-.53.16-.99.31-1.38.46.49-.13.95-.28,1.38-.46Z" style="fill:#e5006a;"/><path d="M182.048,284.035c-6.06,0-11.57-2.05-16.38-6.09-5.38-4.51-8.54-10.51-9.14-17.35l-13.3-152.06c-.6-6.83,1.47-13.29,5.99-18.68,4.52-5.38,10.52-8.54,17.35-9.14l18.17-1.59c.77-.07,1.54-.1,2.29-.1,6.05,0,11.56,2.05,16.38,6.09,5.39,4.52,8.55,10.52,9.15,17.36l2.79,31.87c7.33-3.89,15.19-6.22,23.48-6.94,1.96-.17,3.92-.26,5.81-.26,15.96,0,29.55,5.93,40.39,17.61,11.39,12.28,18.21,30.42,20.26,53.92,2.02,23.07-1.78,42.06-11.29,56.43-10.1,15.25-24.16,23.76-41.78,25.31-1.98.17-3.97.26-5.91.26-10.46,0-20.17-2.52-28.95-7.5-.15.18-.3.36-.46.54-4.52,5.23-10.57,8.3-17.49,8.91l-15.06,1.32c-.77.07-1.54.1-2.3.1v-.01ZM228.208,186.185c-.35,0-.72.02-1.1.05-2.45.21-4.3,1.13-6.01,2.97-1.98,2.12-1.88,3.22-1.84,3.74l2.3,26.3c.05.53.14,1.62,2.46,3.37,1.76,1.33,3.44,1.92,5.46,1.92.31,0,.64-.01.96-.04,2.33-.2,3.59-1.03,4.84-3.17,1.32-2.26,2.72-6.99,1.87-16.69-1.01-11.51-3.67-15.71-5.17-17.19-1.21-1.2-2.23-1.26-3.77-1.26h0Z" style="fill:#e5006a;"/><path d="M365.688,270.055c-19.24,0-35.43-5.44-48.12-16.16-14.76-12.47-23.29-30.67-25.34-54.09s3.19-42.82,15.56-57.67c12.39-14.88,30.65-23.47,54.26-25.53,3.32-.29,6.6-.44,9.74-.44,19.24,0,35.43,5.44,48.12,16.16,14.77,12.48,23.29,30.68,25.34,54.1,2.05,23.42-3.19,42.82-15.56,57.67-12.39,14.88-30.65,23.46-54.25,25.53-3.32.29-6.6.44-9.75.44v-.01ZM367.958,171.545c-.34,0-.71.02-1.1.05-3.29.29-3.77,1.27-4.2,2.13-.57,1.16-2.32,6.02-1.09,20.02,1.22,14,3.79,18.48,4.55,19.52.63.86,1.2,1.42,3.4,1.42.34,0,.71-.02,1.1-.05,3.29-.29,3.77-1.27,4.2-2.13.57-1.16,2.32-6.02,1.09-20.01-1.22-13.99-3.8-18.48-4.56-19.53-.62-.85-1.2-1.41-3.4-1.41l.01-.01Z" style="fill:#e5006a;"/><path d="M487.938,259.485c-14.51,0-26.01-4.42-34.17-13.13-8.79-9.37-14.02-24.82-15.98-47.24l-5.29-60.49c-.6-6.83,1.47-13.29,5.99-18.68,4.52-5.38,10.52-8.54,17.35-9.14l16.97-1.49c.77-.07,1.54-.1,2.29-.1,6.05,0,11.56,2.05,16.38,6.08,5.39,4.53,8.55,10.53,9.15,17.36l5.08,58.1c.33,3.74.83,5.93,1.19,7.11.2,0,.41-.02.62-.04.93-.08,2.21-.42,3.98-2.39.63-.7,1.67-2.01,1.59-2.91l-5.29-60.49c-.6-6.84,1.47-13.3,5.99-18.68s10.52-8.55,17.36-9.14l18.17-1.59c.77-.07,1.54-.1,2.29-.1,6.05,0,11.56,2.05,16.38,6.08,5.39,4.53,8.55,10.53,9.15,17.36l8.49,97.07c.6,6.83-1.47,13.29-5.99,18.68-4.52,5.38-10.52,8.54-17.35,9.14l-16.26,1.42c-.81.07-1.63.11-2.43.11-6.08,0-11.57-1.96-16.33-5.84-.16-.13-.33-.27-.49-.41-9.04,7.59-19.76,11.97-31.94,13.03-2.36.21-4.68.31-6.9.31v.01Z" style="fill:#e5006a;"/><path d="M652.428,244.975c-15.5,0-27.66-3.78-36.15-11.23-10.16-8.91-16.04-24.04-17.99-46.26l-2.51-28.69c-.61.04-1.22.06-1.82.06-6.06,0-11.57-2.05-16.38-6.09-5.38-4.51-8.54-10.51-9.14-17.35l-.33-3.83c-.6-6.83,1.47-13.29,5.99-18.68,4.41-5.26,10.24-8.39,16.88-9.1l-1.74-19.85c-.6-6.84,1.47-13.29,5.99-18.68,4.52-5.38,10.52-8.54,17.36-9.14l18.17-1.59c.77-.07,1.54-.1,2.29-.1,6.05,0,11.56,2.05,16.38,6.09,5.39,4.53,8.55,10.53,9.15,17.36l1.74,19.84,11.48-1c.76-.07,1.54-.1,2.29-.1,6.05,0,11.56,2.05,16.38,6.08,5.39,4.53,8.55,10.53,9.15,17.36l.33,3.82c.6,6.84-1.47,13.3-5.99,18.68-4.52,5.38-10.52,8.54-17.35,9.14l-11.48,1,2.09,23.91c.41,4.67.88,7.67,1.26,9.51.25-.01.5-.03.77-.06,1.61-.14,3.79-.54,6.32-1.14,1.9-.44,3.78-.67,5.62-.67,4.61,0,9.01,1.32,13.08,3.93,6.08,3.9,9.77,9.92,10.39,16.94l.54,6.22c.59,6.73-1,13-4.72,18.63-3.92,5.91-9.58,9.82-16.39,11.31-5.96,1.38-13.31,2.47-21.76,3.21-3.43.3-6.76.45-9.88.45l-.02.02Z" style="fill:#e5006a;"/><path d="M58.118,290.895c-10.12,0-18.64-2.98-26.03-9.12-8.51-7.06-13.17-16.46-14.25-28.72-1.34-15.34,3.51-27.55,14.43-36.29,10.55-8.45,27.07-13.72,49.09-15.64l6.57-.57c-.77-6.78-4.39-9.68-11.98-9.68-.85,0-1.76.04-2.71.12-9.33.81-21.48,3.32-36.13,7.44-1.33.38-2.67.57-3.98.57-2.72,0-5.33-.82-7.77-2.43-3.68-2.43-5.75-5.92-6.14-10.37l-.33-3.83c-.41-4.64.68-9.01,3.23-12.97,2.6-4.04,6.21-6.68,10.71-7.84,15.57-4.26,28.91-6.91,39.56-7.84,4.54-.4,8.88-.6,12.92-.6,15.28,0,27.29,2.89,35.69,8.58,10.81,7.33,17.06,19.89,18.59,37.33l5.71,65.27c.39,4.47-.93,8.54-3.92,12.11-2.99,3.57-6.78,5.57-11.25,5.96l-15.06,1.32c-.55.05-1.11.07-1.65.07-3.96,0-7.54-1.29-10.66-3.82-2.44-1.98-4.19-4.39-5.24-7.19-9.2,10.8-20.66,16.69-34.85,17.93-1.54.13-3.08.2-4.57.2l.02.01ZM84.068,232.205c-7.38.65-12.81,2.19-16.12,4.59-2.89,2.09-4.13,4.9-3.81,8.59.43,4.95,2.79,7.07,7.87,7.07.56,0,1.15-.03,1.77-.08,5.47-.48,9.69-2.5,12.91-6.19,3.19-3.65,4.5-8.22,4-13.96l-.05-.6-6.57.58h0Z" style="fill:#e5006a;"/><path d="M179.048,278.035c-3.88,0-7.45-1.34-10.6-3.99-3.56-2.98-5.57-6.77-5.96-11.24l-13.3-152.06c-.39-4.47.93-8.54,3.92-12.11s6.78-5.57,11.25-5.96l18.17-1.59c.5-.04,1.01-.07,1.51-.07,3.88,0,7.45,1.34,10.6,3.99,3.57,3,5.57,6.78,5.96,11.24l4.15,47.38c9.41-8.45,20.11-13.24,31.88-14.27,1.71-.15,3.4-.22,5.03-.22,13.54,0,24.59,4.82,33.79,14.73,10,10.78,16.02,27.13,17.89,48.59,1.84,21-1.47,38.05-9.83,50.68-8.51,12.85-20.3,20.02-35.06,21.31-1.72.15-3.44.23-5.12.23-12.3,0-22.92-3.86-32.32-11.76-.56,2.91-1.86,5.56-3.89,7.91-3,3.47-6.86,5.43-11.47,5.83l-15.06,1.32c-.51.04-1.01.07-1.51.07l-.03-.01ZM225.208,180.185c-.61,0-1.24.03-1.88.08-4.7.41-8.56,2.31-11.81,5.8-3.17,3.4-4.54,6.89-4.21,10.66l2.3,26.3c.33,3.77,2.29,6.97,6,9.76,3.33,2.52,6.89,3.74,10.88,3.74.57,0,1.16-.03,1.75-.08,5.31-.46,9.06-2.88,11.82-7.59,2.84-4.86,3.9-12.47,3.06-22.02-2.33-26.66-14.05-26.66-17.91-26.66v.01Z" style="fill:#e5006a;"/><path d="M362.688,264.055c-17.05,0-31.29-4.72-42.31-14.03-12.88-10.88-20.34-27.03-22.18-48-1.83-20.97,2.71-38.17,13.51-51.12,10.8-12.97,27-20.48,48.13-22.33,3.06-.27,6.08-.4,8.96-.4,17.05,0,31.29,4.72,42.31,14.03,12.88,10.89,20.35,27.04,22.18,48,1.83,20.97-2.71,38.17-13.51,51.13-10.8,12.96-27,20.48-48.13,22.33-3.07.27-6.09.4-8.97.4l.01-.01ZM364.958,165.545c-.61,0-1.24.03-1.88.08-5.71.5-9.36,2.77-11.5,7.14-2.33,4.76-3,13.09-1.98,24.76s3.12,19.75,6.25,24.04c2.55,3.49,5.94,5.12,10.68,5.12.61,0,1.24-.03,1.88-.08,5.7-.5,9.35-2.77,11.5-7.14,2.33-4.77,3-13.1,1.98-24.76-1.02-11.66-3.12-19.75-6.25-24.04-2.55-3.49-5.94-5.12-10.67-5.12h-.01Z" style="fill:#e5006a;"/><path d="M484.938,253.485c-11.92,0-21.21-3.46-27.61-10.28-7.36-7.84-11.8-21.54-13.58-41.87l-5.29-60.49c-.39-4.47.93-8.54,3.92-12.11,2.99-3.56,6.78-5.57,11.25-5.96l16.97-1.49c.5-.04,1.01-.07,1.51-.07,3.88,0,7.45,1.34,10.6,3.98,3.57,3,5.57,6.78,5.96,11.25l5.08,58.1c.76,8.72,2.56,11.94,3.57,13.08.49.56,1.97,2.25,6.31,2.25.54,0,1.11-.03,1.69-.08,3.72-.32,6.95-2.07,9.89-5.35,2.89-3.22,4.15-6.39,3.86-9.7l-5.29-60.49c-.39-4.47.93-8.54,3.92-12.11s6.78-5.57,11.25-5.96l18.17-1.59c.5-.04,1.01-.07,1.51-.07,3.88,0,7.44,1.34,10.6,3.98,3.57,3,5.57,6.78,5.96,11.25l8.49,97.07c.39,4.47-.93,8.54-3.92,12.11-2.99,3.56-6.77,5.57-11.24,5.96l-16.26,1.42c-.55.05-1.11.07-1.65.07-3.95,0-7.54-1.29-10.65-3.82-2.41-1.96-4.15-4.34-5.21-7.1-8.91,10.72-19.98,16.54-33.68,17.74-2.1.18-4.15.28-6.11.28h-.02Z" style="fill:#e5006a;"/><path d="M649.428,238.975c-13.25,0-23.41-3.03-30.21-8.99-8.33-7.31-13.23-20.49-14.96-40.28l-3.29-37.65-8.49.74c-.51.04-1.01.07-1.51.07-3.88,0-7.45-1.34-10.6-3.99-3.56-2.99-5.57-6.77-5.96-11.24l-.33-3.83c-.39-4.47.93-8.54,3.92-12.11,2.99-3.56,6.78-5.57,11.24-5.96l8.49-.74-2.52-28.81c-.39-4.47.93-8.54,3.92-12.11s6.78-5.57,11.25-5.96l18.17-1.59c.51-.04,1.01-.07,1.51-.07,3.88,0,7.44,1.34,10.6,3.98,3.57,3,5.57,6.78,5.96,11.24l2.52,28.81,20.44-1.78c.51-.04,1.01-.07,1.51-.07,3.88,0,7.44,1.34,10.6,3.98,3.57,3,5.57,6.78,5.96,11.24l.33,3.83c.39,4.47-.93,8.55-3.92,12.11-2.99,3.56-6.77,5.57-11.24,5.96l-20.44,1.79,2.87,32.88c1.06,12.13,2.67,15.31,3.31,16.11.85,1.06,2.96,1.65,5.93,1.65.78,0,1.64-.04,2.54-.12,2.07-.18,4.63-.64,7.63-1.36,1.2-.28,2.37-.42,3.51-.42,2.86,0,5.62.84,8.23,2.51,3.79,2.43,5.9,5.84,6.28,10.15l.54,6.21c.41,4.66-.69,8.99-3.26,12.88-2.64,3.99-6.29,6.5-10.84,7.48-5.58,1.3-12.54,2.33-20.59,3.03-3.18.28-6.24.42-9.1.42v.01Z" style="fill:#e5006a;"/><path d="M64.118,284.895c-10.12,0-18.64-2.98-26.03-9.12-8.51-7.06-13.17-16.46-14.25-28.72-1.34-15.34,3.51-27.55,14.43-36.29,10.55-8.45,27.07-13.72,49.09-15.64l6.57-.57c-.77-6.78-4.39-9.68-11.98-9.68-.85,0-1.76.04-2.71.12-9.33.81-21.48,3.32-36.13,7.44-1.33.38-2.67.57-3.98.57-2.72,0-5.33-.82-7.77-2.43-3.68-2.43-5.75-5.92-6.14-10.37l-.33-3.83c-.41-4.64.68-9.01,3.23-12.97,2.6-4.04,6.21-6.68,10.71-7.84,15.57-4.26,28.91-6.91,39.56-7.84,4.54-.4,8.88-.6,12.92-.6,15.28,0,27.29,2.89,35.69,8.58,10.81,7.33,17.06,19.89,18.59,37.33l5.71,65.27c.39,4.47-.93,8.54-3.92,12.11-2.99,3.57-6.78,5.57-11.25,5.96l-15.06,1.32c-.55.05-1.11.07-1.65.07-3.96,0-7.54-1.29-10.66-3.82-2.44-1.98-4.19-4.39-5.24-7.19-9.2,10.8-20.66,16.69-34.85,17.93-1.54.13-3.08.2-4.57.2l.02.01ZM90.068,226.205c-7.38.65-12.81,2.19-16.12,4.59-2.89,2.09-4.13,4.9-3.81,8.59.43,4.95,2.79,7.07,7.87,7.07.56,0,1.15-.03,1.77-.08,5.47-.48,9.69-2.5,12.91-6.19,3.19-3.65,4.5-8.22,4-13.96l-.05-.6-6.57.58h0Z" style="fill:#e5006a;"/><path d="M185.048,272.035c-3.88,0-7.45-1.34-10.6-3.99-3.56-2.98-5.57-6.77-5.96-11.24l-13.3-152.06c-.39-4.47.93-8.54,3.92-12.11s6.78-5.57,11.25-5.96l18.17-1.59c.5-.04,1.01-.07,1.51-.07,3.88,0,7.45,1.34,10.6,3.99,3.57,3,5.57,6.78,5.96,11.24l4.15,47.38c9.41-8.45,20.11-13.24,31.88-14.27,1.71-.15,3.4-.22,5.03-.22,13.54,0,24.59,4.82,33.79,14.73,10,10.78,16.02,27.13,17.89,48.59,1.84,21-1.47,38.05-9.83,50.68-8.51,12.85-20.3,20.02-35.06,21.31-1.72.15-3.44.23-5.12.23-12.3,0-22.92-3.86-32.32-11.76-.56,2.91-1.86,5.56-3.89,7.91-3,3.47-6.86,5.43-11.47,5.83l-15.06,1.32c-.51.04-1.01.07-1.51.07l-.03-.01ZM231.208,174.185c-.61,0-1.24.03-1.88.08-4.7.41-8.56,2.31-11.81,5.8-3.17,3.4-4.54,6.89-4.21,10.66l2.3,26.3c.33,3.77,2.29,6.97,6,9.76,3.33,2.52,6.89,3.74,10.88,3.74.57,0,1.16-.03,1.75-.08,5.31-.46,9.06-2.88,11.82-7.59,2.84-4.86,3.9-12.47,3.06-22.02-2.33-26.66-14.05-26.66-17.91-26.66v.01Z" style="fill:#e5006a;"/><path d="M368.688,258.055c-17.05,0-31.29-4.72-42.31-14.03-12.88-10.88-20.34-27.03-22.18-48-1.83-20.97,2.71-38.17,13.51-51.12,10.8-12.97,27-20.48,48.13-22.33,3.06-.27,6.08-.4,8.96-.4,17.05,0,31.29,4.72,42.31,14.03,12.88,10.89,20.35,27.04,22.18,48,1.83,20.97-2.71,38.17-13.51,51.13-10.8,12.96-27,20.48-48.13,22.33-3.07.27-6.09.4-8.97.4l.01-.01ZM370.958,159.545c-.61,0-1.24.03-1.88.08-5.71.5-9.36,2.77-11.5,7.14-2.33,4.76-3,13.09-1.98,24.76s3.12,19.75,6.25,24.04c2.55,3.49,5.94,5.12,10.68,5.12.61,0,1.24-.03,1.88-.08,5.7-.5,9.35-2.77,11.5-7.14,2.33-4.77,3-13.1,1.98-24.76-1.02-11.66-3.12-19.75-6.25-24.04-2.55-3.49-5.94-5.12-10.67-5.12h-.01Z" style="fill:#e5006a;"/><path d="M490.938,247.485c-11.92,0-21.21-3.46-27.61-10.28-7.36-7.84-11.8-21.54-13.58-41.87l-5.29-60.49c-.39-4.47.93-8.54,3.92-12.11,2.99-3.56,6.78-5.57,11.25-5.96l16.97-1.49c.5-.04,1.01-.07,1.51-.07,3.88,0,7.45,1.34,10.6,3.98,3.57,3,5.57,6.78,5.96,11.24l5.08,58.1c.76,8.72,2.56,11.94,3.57,13.08.49.56,1.97,2.25,6.31,2.25.54,0,1.11-.03,1.69-.08,3.72-.32,6.95-2.07,9.89-5.35,2.89-3.22,4.15-6.39,3.86-9.7l-5.29-60.49c-.39-4.47.93-8.54,3.92-12.11s6.78-5.57,11.25-5.96l18.17-1.59c.5-.04,1.01-.07,1.51-.07,3.88,0,7.44,1.34,10.6,3.98,3.57,3,5.57,6.78,5.96,11.25l8.49,97.07c.39,4.47-.93,8.54-3.92,12.11-2.99,3.56-6.77,5.57-11.24,5.96l-16.26,1.42c-.55.05-1.11.07-1.65.07-3.95,0-7.54-1.29-10.65-3.82-2.41-1.96-4.15-4.34-5.21-7.1-8.91,10.72-19.98,16.54-33.68,17.74-2.1.18-4.15.28-6.11.28l-.02.01Z" style="fill:#e5006a;"/><path d="M655.428,232.975c-13.25,0-23.41-3.03-30.21-8.99-8.33-7.31-13.23-20.49-14.96-40.28l-3.29-37.65-8.49.74c-.51.04-1.01.07-1.51.07-3.88,0-7.45-1.34-10.6-3.99-3.56-2.99-5.57-6.77-5.96-11.24l-.33-3.83c-.39-4.47.93-8.54,3.92-12.11,2.99-3.56,6.78-5.57,11.24-5.96l8.49-.74-2.52-28.81c-.39-4.47.93-8.54,3.92-12.11s6.78-5.57,11.25-5.96l18.17-1.59c.51-.04,1.01-.07,1.51-.07,3.88,0,7.44,1.34,10.6,3.98,3.57,3,5.57,6.78,5.96,11.24l2.52,28.81,20.44-1.78c.51-.04,1.01-.07,1.51-.07,3.88,0,7.44,1.34,10.6,3.98,3.57,3,5.57,6.78,5.96,11.24l.33,3.83c.39,4.47-.93,8.55-3.92,12.11s-6.77,5.57-11.24,5.96l-20.44,1.79,2.87,32.88c1.06,12.13,2.67,15.31,3.31,16.11.85,1.06,2.96,1.65,5.93,1.65.78,0,1.64-.04,2.54-.12,2.07-.18,4.63-.64,7.63-1.36,1.2-.28,2.37-.42,3.51-.42,2.86,0,5.62.84,8.23,2.51,3.79,2.43,5.9,5.84,6.28,10.15l.54,6.21c.41,4.66-.69,8.99-3.26,12.88-2.64,3.99-6.29,6.5-10.84,7.48-5.58,1.3-12.54,2.33-20.59,3.03-3.18.28-6.24.42-9.1.42v.01Z" style="fill:#e5006a;"/><path d="M61.118,290.895c-10.7,0-20.11-3.3-27.95-9.81-9.04-7.49-14.19-17.85-15.32-30.77-1.43-16.4,3.79-29.49,15.54-38.89,11.18-8.95,27.76-14.28,50.7-16.29l3.12-.27c-1.19-2.86-3.71-3.99-8.27-3.99-.77,0-1.59.04-2.44.11-9.15.8-21.12,3.27-35.58,7.34-1.6.45-3.21.68-4.79.68-3.32,0-6.49-.98-9.43-2.93-4.42-2.92-7.01-7.29-7.48-12.62l-.33-3.82c-.47-5.32.78-10.32,3.7-14.85,3.03-4.7,7.23-7.77,12.49-9.12,15.72-4.3,29.22-6.98,40.05-7.92,4.62-.4,9.06-.61,13.18-.61,15.89,0,28.46,3.06,37.38,9.1,11.59,7.86,18.29,21.17,19.9,39.55l5.71,65.27c.46,5.22-1.14,10.16-4.61,14.3-3.47,4.14-8.07,6.57-13.28,7.02l-15.06,1.32c-.64.06-1.28.08-1.91.08-4.66,0-8.89-1.51-12.55-4.5-1.6-1.3-2.95-2.75-4.04-4.36-9.21,9.31-20.58,14.6-33.89,15.76-1.63.14-3.25.21-4.83.21l-.01.01ZM87.338,232.185c-8.51.74-12.65,2.6-14.62,4.03-2.07,1.5-2.82,3.21-2.58,5.9.32,3.67,1.56,4.33,4.89,4.33h0c.47,0,.98-.02,1.51-.07,4.66-.41,8.23-2.1,10.91-5.18,2.18-2.5,3.29-5.56,3.36-9.32l-3.46.3-.01.01Z" style="fill:#e5006a;"/><path d="M182.048,278.035c-4.61,0-8.82-1.58-12.53-4.69-4.13-3.46-6.56-8.06-7.02-13.28l-13.3-152.06c-.46-5.22,1.14-10.16,4.61-14.3s8.06-6.57,13.28-7.02l18.17-1.59c.59-.05,1.19-.08,1.77-.08,4.6,0,8.82,1.58,12.53,4.69,4.14,3.48,6.57,8.07,7.02,13.28l3.65,41.7c8.78-6.6,18.54-10.4,29.12-11.32,1.79-.16,3.57-.24,5.29-.24,14.22,0,26.33,5.28,35.99,15.69,10.46,11.28,16.75,28.23,18.68,50.37,1.9,21.69-1.57,39.38-10.32,52.59-9.04,13.65-21.59,21.27-37.3,22.64-1.81.16-3.63.24-5.39.24-11.37,0-21.68-3.29-30.77-9.78-.79,1.73-1.85,3.37-3.17,4.9-3.53,4.08-8.06,6.38-13.47,6.86l-15.06,1.32c-.59.05-1.19.08-1.78.08h0ZM228.208,180.185c-.52,0-1.07.02-1.62.07-3.92.34-7.15,1.93-9.88,4.86-3.4,3.66-3.58,6.52-3.42,8.35l2.3,26.3c.16,1.83.83,4.62,4.82,7.63,2.79,2.11,5.76,3.13,9.08,3.13.49,0,.99-.02,1.49-.07,4.25-.37,7.27-2.32,9.49-6.12,2.56-4.38,3.46-11.19,2.66-20.24-2.09-23.92-11.41-23.92-14.92-23.92v.01Z" style="fill:#e5006a;"/><path d="M365.688,264.055c-17.78,0-32.67-4.96-44.24-14.74-13.51-11.41-21.32-28.25-23.23-50.03s2.87-39.72,14.19-53.31c11.33-13.6,28.21-21.47,50.17-23.4,3.14-.28,6.25-.42,9.22-.42,17.78,0,32.67,4.96,44.25,14.74,13.51,11.42,21.33,28.25,23.23,50.03,1.91,21.78-2.87,39.72-14.19,53.31-11.33,13.6-28.21,21.47-50.17,23.39-3.15.28-6.25.42-9.23.42v.01ZM367.958,165.545c-.52,0-1.06.03-1.62.07-5.91.52-7.95,3.19-9.06,5.47-1.44,2.93-2.9,9.34-1.68,23.18,1.21,13.84,3.76,19.89,5.68,22.53,1.96,2.69,4.5,3.89,8.25,3.89h0c.52,0,1.06-.03,1.62-.07,5.91-.52,7.95-3.2,9.06-5.47,1.44-2.93,2.89-9.34,1.68-23.17-1.21-13.84-3.76-19.89-5.68-22.54-1.96-2.68-4.5-3.88-8.25-3.88v-.01Z" style="fill:#e5006a;"/><path d="M487.938,253.485c-12.79,0-22.81-3.78-29.79-11.23-7.84-8.35-12.54-22.63-14.38-43.66l-5.29-60.49c-.46-5.29,1.09-10.1,4.61-14.3,3.47-4.14,8.06-6.56,13.28-7.02l16.97-1.49c.59-.05,1.19-.08,1.77-.08,4.6,0,8.82,1.58,12.53,4.68,4.14,3.48,6.57,8.07,7.03,13.28l5.08,58.1c.73,8.39,2.35,10.82,2.83,11.36.72.82,2.08,1.23,4.05,1.23.45,0,.93-.02,1.44-.07,2.92-.25,5.5-1.68,7.91-4.37,2.3-2.57,3.32-5,3.1-7.44l-5.29-60.49c-.46-5.29,1.09-10.1,4.61-14.3,3.47-4.14,8.07-6.57,13.28-7.02l18.17-1.59c.59-.05,1.19-.08,1.77-.08,4.6,0,8.82,1.58,12.53,4.68,4.14,3.48,6.57,8.07,7.03,13.28l8.49,97.07c.46,5.22-1.14,10.16-4.61,14.3s-8.06,6.57-13.28,7.02l-16.26,1.42c-.64.06-1.28.08-1.91.08-4.66,0-8.88-1.51-12.55-4.49-1.56-1.27-2.88-2.68-3.96-4.24-8.91,9.2-19.9,14.42-32.78,15.54-2.19.19-4.33.29-6.38.29v.03Z" style="fill:#e5006a;"/><path d="M652.428,238.975c-14,0-24.83-3.28-32.19-9.74-8.94-7.84-14.17-21.67-15.97-42.28l-3.03-34.67-5.5.48c-.59.05-1.19.08-1.77.08-4.61,0-8.82-1.58-12.53-4.69-4.13-3.46-6.56-8.06-7.02-13.28l-.33-3.83c-.46-5.29,1.09-10.1,4.61-14.3,3.47-4.14,8.06-6.56,13.28-7.02l5.5-.48-2.26-25.82c-.46-5.22,1.14-10.16,4.61-14.3s8.07-6.57,13.28-7.02l18.17-1.59c.59-.05,1.19-.08,1.77-.08,4.6,0,8.82,1.58,12.52,4.68,4.14,3.48,6.57,8.07,7.03,13.28l2.26,25.82,17.45-1.53c.59-.05,1.19-.08,1.77-.08,4.6,0,8.81,1.58,12.52,4.68,4.14,3.48,6.57,8.07,7.03,13.28l.33,3.82c.46,5.22-1.14,10.16-4.61,14.3s-8.06,6.56-13.28,7.02l-17.46,1.53,2.62,29.89c.96,10.99,2.33,13.91,2.65,14.46.21.12,1.15.56,3.6.56.7,0,1.46-.04,2.28-.11,1.92-.17,4.34-.6,7.19-1.28,1.43-.33,2.84-.5,4.21-.5,3.44,0,6.75,1,9.84,2.98,4.55,2.92,7.19,7.21,7.65,12.41l.54,6.22c.47,5.35-.79,10.33-3.75,14.8-3.08,4.65-7.34,7.59-12.66,8.75-5.77,1.34-12.83,2.38-21.01,3.1-3.26.29-6.41.43-9.36.43l.02.03Z" style="fill:#e5006a;"/><path d="M61.118,290.895c-10.7,0-20.11-3.3-27.95-9.81-9.04-7.49-14.19-17.85-15.32-30.77-1.43-16.4,3.79-29.49,15.54-38.89,11.18-8.95,27.76-14.28,50.7-16.29l3.12-.27c-1.19-2.86-3.71-3.99-8.27-3.99-.77,0-1.59.04-2.44.11-9.15.8-21.12,3.27-35.58,7.34-1.6.45-3.21.68-4.79.68-3.32,0-6.49-.98-9.43-2.93-4.42-2.92-7.01-7.29-7.48-12.62l-.33-3.82c-.47-5.32.78-10.32,3.7-14.85,3.03-4.7,7.23-7.77,12.49-9.12,15.72-4.3,29.22-6.98,40.05-7.92,4.62-.4,9.06-.61,13.18-.61,15.89,0,28.46,3.06,37.38,9.1,11.59,7.86,18.29,21.17,19.9,39.55l5.71,65.27c.46,5.22-1.14,10.16-4.61,14.3-3.47,4.14-8.07,6.57-13.28,7.02l-15.06,1.32c-.64.06-1.28.08-1.91.08-4.66,0-8.89-1.51-12.55-4.5-1.6-1.3-2.95-2.75-4.04-4.36-9.21,9.31-20.58,14.6-33.89,15.76-1.63.14-3.25.21-4.83.21l-.01.01ZM87.338,232.185c-8.51.74-12.65,2.6-14.62,4.03-2.07,1.5-2.82,3.21-2.58,5.9.32,3.67,1.56,4.33,4.89,4.33h0c.47,0,.98-.02,1.51-.07,4.66-.41,8.23-2.1,10.91-5.18,2.18-2.5,3.29-5.56,3.36-9.32l-3.46.3-.01.01Z" style="fill:#e5006a;"/><path d="M182.048,278.035c-4.61,0-8.82-1.58-12.53-4.69-4.13-3.46-6.56-8.06-7.02-13.28l-13.3-152.06c-.46-5.22,1.14-10.16,4.61-14.3s8.06-6.57,13.28-7.02l18.17-1.59c.59-.05,1.19-.08,1.77-.08,4.6,0,8.82,1.58,12.53,4.69,4.14,3.48,6.57,8.07,7.02,13.28l3.65,41.7c8.78-6.6,18.54-10.4,29.12-11.32,1.79-.16,3.57-.24,5.29-.24,14.22,0,26.33,5.28,35.99,15.69,10.46,11.28,16.75,28.23,18.68,50.37,1.9,21.69-1.57,39.38-10.32,52.59-9.04,13.65-21.59,21.27-37.3,22.64-1.81.16-3.63.24-5.39.24-11.37,0-21.68-3.29-30.77-9.78-.79,1.73-1.85,3.37-3.17,4.9-3.53,4.08-8.06,6.38-13.47,6.86l-15.06,1.32c-.59.05-1.19.08-1.78.08h0ZM228.208,180.185c-.52,0-1.07.02-1.62.07-3.92.34-7.15,1.93-9.88,4.86-3.4,3.66-3.58,6.52-3.42,8.35l2.3,26.3c.16,1.83.83,4.62,4.82,7.63,2.79,2.11,5.76,3.13,9.08,3.13.49,0,.99-.02,1.49-.07,4.25-.37,7.27-2.32,9.49-6.12,2.56-4.38,3.46-11.19,2.66-20.24-2.09-23.92-11.41-23.92-14.92-23.92v.01Z" style="fill:#e5006a;"/><path d="M365.688,264.055c-17.78,0-32.67-4.96-44.24-14.74-13.51-11.41-21.32-28.25-23.23-50.03s2.87-39.72,14.19-53.31c11.33-13.6,28.21-21.47,50.17-23.4,3.14-.28,6.25-.42,9.22-.42,17.78,0,32.67,4.96,44.25,14.74,13.51,11.42,21.33,28.25,23.23,50.03,1.91,21.78-2.87,39.72-14.19,53.31-11.33,13.6-28.21,21.47-50.17,23.39-3.15.28-6.25.42-9.23.42v.01ZM367.958,165.545c-.52,0-1.06.03-1.62.07-5.91.52-7.95,3.19-9.06,5.47-1.44,2.93-2.9,9.34-1.68,23.18,1.21,13.84,3.76,19.89,5.68,22.53,1.96,2.69,4.5,3.89,8.25,3.89h0c.52,0,1.06-.03,1.62-.07,5.91-.52,7.95-3.2,9.06-5.47,1.44-2.93,2.89-9.34,1.68-23.17-1.21-13.84-3.76-19.89-5.68-22.54-1.96-2.68-4.5-3.88-8.25-3.88v-.01Z" style="fill:#e5006a;"/><path d="M487.938,253.485c-12.79,0-22.81-3.78-29.79-11.23-7.84-8.35-12.54-22.63-14.38-43.66l-5.29-60.49c-.46-5.29,1.09-10.1,4.61-14.3,3.47-4.14,8.06-6.56,13.28-7.02l16.97-1.49c.59-.05,1.19-.08,1.77-.08,4.6,0,8.82,1.58,12.53,4.68,4.14,3.48,6.57,8.07,7.03,13.28l5.08,58.1c.73,8.39,2.35,10.82,2.83,11.36.72.82,2.08,1.23,4.05,1.23.45,0,.93-.02,1.44-.07,2.92-.25,5.5-1.68,7.91-4.37,2.3-2.57,3.32-5,3.1-7.44l-5.29-60.49c-.46-5.29,1.09-10.1,4.61-14.3,3.47-4.14,8.07-6.57,13.28-7.02l18.17-1.59c.59-.05,1.19-.08,1.77-.08,4.6,0,8.82,1.58,12.53,4.68,4.14,3.48,6.57,8.07,7.03,13.28l8.49,97.07c.46,5.22-1.14,10.16-4.61,14.3s-8.06,6.57-13.28,7.02l-16.26,1.42c-.64.06-1.28.08-1.91.08-4.66,0-8.88-1.51-12.55-4.49-1.56-1.27-2.88-2.68-3.96-4.24-8.91,9.2-19.9,14.42-32.78,15.54-2.19.19-4.33.29-6.38.29v.03Z" style="fill:#e5006a;"/><path d="M652.428,238.975c-14,0-24.83-3.28-32.19-9.74-8.94-7.84-14.17-21.67-15.97-42.28l-3.03-34.67-5.5.48c-.59.05-1.19.08-1.77.08-4.61,0-8.82-1.58-12.53-4.69-4.13-3.46-6.56-8.06-7.02-13.28l-.33-3.83c-.46-5.29,1.09-10.1,4.61-14.3,3.47-4.14,8.06-6.56,13.28-7.02l5.5-.48-2.26-25.82c-.46-5.22,1.14-10.16,4.61-14.3s8.07-6.57,13.28-7.02l18.17-1.59c.59-.05,1.19-.08,1.77-.08,4.6,0,8.82,1.58,12.52,4.68,4.14,3.48,6.57,8.07,7.03,13.28l2.26,25.82,17.45-1.53c.59-.05,1.19-.08,1.77-.08,4.6,0,8.81,1.58,12.52,4.68,4.14,3.48,6.57,8.07,7.03,13.28l.33,3.82c.46,5.22-1.14,10.16-4.61,14.3s-8.06,6.56-13.28,7.02l-17.46,1.53,2.62,29.89c.96,10.99,2.33,13.91,2.65,14.46.21.12,1.15.56,3.6.56.7,0,1.46-.04,2.28-.11,1.92-.17,4.34-.6,7.19-1.28,1.43-.33,2.84-.5,4.21-.5,3.44,0,6.75,1,9.84,2.98,4.55,2.92,7.19,7.21,7.65,12.41l.54,6.22c.47,5.35-.79,10.33-3.75,14.8-3.08,4.65-7.34,7.59-12.66,8.75-5.77,1.34-12.83,2.38-21.01,3.1-3.26.29-6.41.43-9.36.43l.02.03Z" style="fill:#e5006a;"/><path d="M329.218,488.905c-1.02,0-2.06-.05-3.08-.14l-21.99-1.92c-9.4-.82-17.54-5.17-23.55-12.56-5.86-7.2-8.54-15.84-7.74-24.99l8.8-100.53-10.4-.91c-9.28-.81-17.39-5.08-23.47-12.33-6.08-7.24-8.87-15.97-8.05-25.24l1.07-12.19c.81-9.27,5.07-17.38,12.32-23.46,6.39-5.36,14.06-8.2,22.17-8.2,1.02,0,2.06.05,3.09.14l111.41,9.75c9.26.81,17.38,5.07,23.46,12.32,6.09,7.26,8.87,15.99,8.07,25.25l-1.07,12.2c-.81,9.27-5.07,17.38-12.32,23.46-6.39,5.36-14.05,8.2-22.17,8.2-1.01,0-2.05-.04-3.08-.13l-10.41-.91-8.79,100.54c-.8,9.16-4.94,17.2-11.97,23.28-6.35,5.5-14.06,8.4-22.28,8.4l-.02-.03Z" style="fill:#e5006a;"/><path d="M419.348,496.795c-1.01,0-2.05-.04-3.08-.13l-19.37-1.69c-9.28-.81-17.4-5.08-23.47-12.34-6.08-7.23-8.86-15.96-8.05-25.24l8.49-97.07c.81-9.27,5.07-17.38,12.32-23.46,6.39-5.36,14.06-8.2,22.17-8.2,1.02,0,2.06.05,3.09.14l18.17,1.59c8.96.78,16.85,4.8,22.87,11.63,8.98-3.8,18.83-5.95,29.35-6.4.5-.02.98-.03,1.46-.03,9.65,0,18.46,4.15,24.79,11.68,6.09,7.27,8.88,16.09,8.05,25.5l-.54,6.21c-.8,9.14-4.89,17.14-11.81,23.15-6.4,5.53-14.33,8.62-22.95,8.94-7.52.32-13.3,2.3-17.63,6.06-3.85,3.34-5.78,7.23-6.25,12.61l-3.1,35.38c-.81,9.27-5.07,17.38-12.33,23.47-6.39,5.36-14.05,8.19-22.17,8.19h0l-.01.01Z" style="fill:#e5006a;"/><path d="M601.048,512.685c-1.01,0-2.05-.05-3.08-.13l-15.06-1.32c-7.12-.62-13.59-3.22-18.96-7.57-8.53,3.75-17.69,5.65-27.32,5.65-2.15,0-4.34-.1-6.53-.29-16.81-1.47-30.51-8.32-40.74-20.38-10.29-12.11-14.74-26.91-13.25-43.97,1.52-17.38,8.74-31.66,20.95-41.54-5.95-6.57-8.77-15.02-7.98-24.06l.33-3.82c.75-8.6,4.26-16.5,10.15-22.87,6.32-6.82,14.47-10.83,23.57-11.57,10.41-.96,19.97-1.46,28.35-1.46,5.41,0,10.49.2,15.09.61,26.24,2.3,45.03,9.27,57.45,21.32,13.45,13.05,19.25,31.38,17.23,54.48l-5.71,65.27c-.81,9.27-5.07,17.38-12.32,23.46-6.39,5.36-14.06,8.2-22.17,8.2h0v-.01Z" style="fill:#e5006a;"/><path d="M745.598,525.335c-1.01,0-2.05-.04-3.08-.13l-16.98-1.49c-9.28-.81-17.4-5.08-23.47-12.34-1.94-2.31-3.54-4.76-4.8-7.34-1.69,2.33-3.7,4.47-6.01,6.41-6.38,5.36-14.05,8.19-22.16,8.19-1.01,0-2.05-.04-3.08-.13l-18.17-1.59c-9.28-.81-17.39-5.08-23.47-12.33-6.08-7.23-8.87-15.96-8.05-25.24l8.49-97.07c.81-9.27,5.07-17.38,12.32-23.47,6.39-5.36,14.06-8.2,22.17-8.2,1.02,0,2.06.05,3.09.14l16.25,1.42c7.01.61,13.42,3.15,18.76,7.41,8.31-3.7,17.24-5.58,26.61-5.58,2.06,0,4.16.09,6.25.28,21.32,1.86,36.81,10.24,46.04,24.88,8.16,12.96,11.07,31.41,8.88,56.42l-5.08,58.1c-.81,9.27-5.08,17.39-12.33,23.47-6.38,5.36-14.05,8.19-22.16,8.19h-.02Z" style="fill:#e5006a;"/><path d="M839.848,535.615c-3.86,0-7.94-.19-12.14-.55-14.33-1.25-28.8-3.95-43.04-8l-.3-.09c-8.54-2.57-15.64-7.95-20.53-15.56-4.69-7.27-6.76-15.75-6-24.51l.54-6.21c.89-10.17,6.2-18.6,14.96-23.76-8.26-11.2-11.9-24.96-10.57-40.17,1.66-18.91,10.87-33.85,26.66-43.22,11-6.52,25.16-9.83,42.09-9.83,4.28,0,8.83.21,13.54.62,13.39,1.17,25.95,3.16,37.33,5.91l.2.05c8.89,2.23,16.31,7.38,21.42,14.89,4.92,7.24,7.12,15.71,6.35,24.49l-.44,5.02c-.84,9.62-5.76,17.88-13.87,23.32,9.25,11.49,13.17,26,11.66,43.22-1.68,19.18-10.66,34.38-25.97,43.95-11.06,6.92-25.16,10.43-41.89,10.43h0Z" style="fill:#e5006a;"/><path d="M329.218,479.905c-.75,0-1.53-.03-2.29-.1l-22-1.92c-6.91-.61-12.91-3.81-17.35-9.28-4.35-5.35-6.34-11.75-5.75-18.53l9.58-109.5-19.36-1.69c-6.85-.6-12.85-3.76-17.36-9.15-4.51-5.37-6.58-11.83-5.99-18.67l1.07-12.19c.6-6.84,3.76-12.84,9.14-17.35,4.82-4.04,10.33-6.09,16.38-6.09.76,0,1.53.03,2.29.1l111.42,9.75c6.83.6,12.83,3.76,17.35,9.14,4.52,5.39,6.59,11.85,5.99,18.68l-1.07,12.19c-.6,6.84-3.76,12.84-9.14,17.35-4.81,4.04-10.32,6.09-16.38,6.09-.76,0-1.53-.03-2.29-.1l-19.37-1.7-9.58,109.5c-.59,6.77-3.67,12.74-8.89,17.25-4.76,4.12-10.28,6.21-16.4,6.21v.01Z" style="fill:#e5006a;"/><path d="M419.348,487.795c-.76,0-1.53-.03-2.29-.1l-19.37-1.69c-6.84-.6-12.85-3.76-17.36-9.15-4.51-5.37-6.58-11.83-5.98-18.67l8.49-97.07c.6-6.83,3.76-12.84,9.14-17.35,4.82-4.04,10.33-6.09,16.38-6.09.76,0,1.53.03,2.3.1l18.17,1.59c6.83.6,12.83,3.76,17.35,9.14,1.31,1.57,2.43,3.25,3.33,5.01,9.71-5.39,20.68-8.38,32.71-8.89.37-.02.72-.02,1.07-.02,6.95,0,13.3,3.01,17.9,8.47,4.52,5.4,6.59,11.94,5.98,18.93l-.54,6.22c-.59,6.76-3.62,12.68-8.75,17.13-4.89,4.23-10.74,6.5-17.39,6.75-9.66.41-17.26,3.11-23.2,8.25-5.68,4.92-8.64,10.84-9.32,18.63l-3.1,35.38c-.6,6.84-3.76,12.84-9.14,17.36-4.82,4.04-10.33,6.09-16.38,6.09h0v-.02Z" style="fill:#e5006a;"/><path d="M601.048,503.685c-.75,0-1.53-.03-2.29-.1l-15.06-1.32c-6.93-.61-12.98-3.69-17.49-8.91-.18-.21-.36-.42-.54-.64-8.91,5.04-18.65,7.59-29.04,7.59-1.9,0-3.82-.08-5.75-.25-14.37-1.26-26.03-7.06-34.67-17.24-8.67-10.21-12.42-22.79-11.15-37.37,1.43-16.31,8.25-28.87,20.26-37.31,2.44-1.71,5.09-3.24,7.95-4.58-3-1.07-5.78-2.79-8.23-5.12-5.15-4.87-7.64-11.48-7.02-18.6l.33-3.82c.59-6.68,3.21-12.58,7.79-17.54,4.85-5.24,10.85-8.18,17.82-8.72,10.08-.94,19.36-1.42,27.5-1.42,5.14,0,9.96.19,14.31.57,24.09,2.11,41.09,8.26,51.97,18.81,11.41,11.08,16.3,26.97,14.53,47.24l-5.71,65.27c-.6,6.84-3.76,12.84-9.14,17.35-4.82,4.04-10.33,6.09-16.38,6.09h0l.01.02ZM553.968,446.125c-.62.07-1.15.15-1.6.24.57-.04,1.1-.12,1.6-.24Z" style="fill:#e5006a;"/><path d="M745.598,516.335c-.75,0-1.53-.03-2.29-.1l-16.98-1.49c-6.84-.6-12.85-3.76-17.36-9.15-4.51-5.37-6.58-11.83-5.98-18.67l5.08-58.1c.33-3.72.2-5.93.04-7.12-.43-.09-1.02-.19-1.8-.26-.14-.01-.28-.02-.41-.02-.75,0-1.98.17-3.91,1.69-.74.58-2,1.69-2.08,2.59l-5.29,60.48c-.6,6.84-3.76,12.84-9.15,17.36-4.81,4.04-10.32,6.09-16.38,6.09-.76,0-1.53-.03-2.29-.1l-18.17-1.59c-6.85-.6-12.85-3.76-17.36-9.15-4.51-5.37-6.58-11.83-5.99-18.67l8.49-97.07c.6-6.83,3.76-12.84,9.14-17.35,4.82-4.04,10.33-6.09,16.38-6.09.76,0,1.53.03,2.29.1l16.26,1.42c6.92.6,12.96,3.68,17.48,8.9.14.16.28.33.42.49,8.67-5,18.15-7.53,28.25-7.53,1.79,0,3.63.08,5.46.24,18.37,1.61,31.56,8.58,39.22,20.72,7.07,11.23,9.53,27.86,7.52,50.83l-5.08,58.1c-.6,6.84-3.76,12.84-9.15,17.36-4.81,4.04-10.32,6.09-16.38,6.09h.02Z" style="fill:#e5006a;"/><path d="M839.848,526.615c-3.6,0-7.42-.17-11.35-.52-13.76-1.2-27.67-3.79-41.36-7.69-6.7-2.02-11.96-6-15.73-11.86-3.65-5.66-5.2-12.01-4.6-18.86l.54-6.22c.63-7.23,4.42-13.22,10.67-16.86,3.6-2.1,7.44-3.16,11.42-3.16.29,0,.59,0,.89.02-2.21-1.71-4.2-3.51-6-5.41-9.7-10.26-13.94-23.23-12.6-38.53,1.41-16.13,8.91-28.33,22.29-36.26,9.59-5.69,22.2-8.57,37.5-8.57,4.02,0,8.31.2,12.75.58,12.95,1.13,25.06,3.05,36,5.69,6.93,1.74,12.39,5.52,16.3,11.26,3.79,5.58,5.42,11.85,4.82,18.64l-.44,5.02c-.62,7.03-4.3,13.04-10.39,16.94-3.53,2.26-7.31,3.53-11.25,3.78,2.74,1.93,5.16,4.01,7.26,6.23,9.49,10.02,13.58,23.34,12.16,39.6-1.44,16.49-8.77,28.97-21.77,37.1-9.61,6.01-22.1,9.06-37.12,9.06l.01.02Z" style="fill:#e5006a;"/><path d="M326.218,473.905c-.5,0-1-.02-1.51-.07l-21.99-1.92c-4.49-.39-8.24-2.41-11.16-5.99-2.89-3.55-4.16-7.61-3.77-12.06l10.37-118.46-28.33-2.48c-4.48-.39-8.26-2.4-11.25-5.96s-4.31-7.64-3.92-12.11l1.07-12.19c.39-4.47,2.4-8.25,5.96-11.25,3.15-2.64,6.72-3.99,10.6-3.99.5,0,1,.02,1.51.07l111.41,9.75c4.47.39,8.25,2.4,11.24,5.96,2.99,3.57,4.31,7.64,3.92,12.11l-1.07,12.19c-.39,4.47-2.4,8.25-5.96,11.25-3.15,2.64-6.71,3.99-10.6,3.99-.49,0-.99-.02-1.5-.07l-28.34-2.48-10.37,118.47c-.39,4.46-2.34,8.23-5.81,11.23-3.08,2.67-6.62,4.02-10.51,4.02l.01-.01Z" style="fill:#e5006a;"/><path d="M416.348,481.795c-.49,0-.99-.02-1.5-.07l-19.38-1.7c-4.48-.39-8.26-2.4-11.25-5.96-2.99-3.55-4.31-7.63-3.92-12.11l8.49-97.07c.39-4.47,2.4-8.25,5.96-11.25,3.15-2.64,6.71-3.98,10.6-3.98.5,0,1,.02,1.51.07l18.17,1.59c4.47.39,8.25,2.4,11.24,5.96,2.99,3.57,4.31,7.64,3.92,12.11l-.24,2.74c10.86-9.64,24.16-14.86,39.63-15.53.24,0,.46-.01.69-.01,4.37,0,8.07,1.77,11.01,5.27,2.99,3.57,4.3,7.73,3.9,12.35l-.54,6.22c-.39,4.45-2.3,8.19-5.67,11.11-3.3,2.86-7.28,4.39-11.83,4.56-11.64.49-21.33,4-28.76,10.44-7.35,6.37-11.52,14.66-12.39,24.65l-3.1,35.38c-.39,4.47-2.4,8.25-5.96,11.25-3.15,2.64-6.71,3.98-10.6,3.99h0l.02-.01Z" style="fill:#e5006a;"/><path d="M598.048,497.685c-.49,0-.99-.02-1.5-.07l-15.08-1.32c-4.61-.4-8.47-2.37-11.47-5.83-2.06-2.38-3.37-5.06-3.91-8.01-9.61,7.87-20.5,11.85-32.47,11.85-1.64,0-3.3-.07-4.96-.22-12.09-1.06-21.44-5.67-28.59-14.09-7.16-8.43-10.12-18.49-9.04-30.76,2.37-27.06,21.6-40.78,57.15-40.78,4.51,0,9.36.22,14.42.67l6.57.58c.21-3.6-.59-6.27-2.44-8.16-2.02-2.07-5.61-3.38-10.36-3.79-3.26-.29-6.93-.43-10.91-.43-7.39,0-16.13.5-25.97,1.49-.51.05-1.05.08-1.57.08-3.66,0-6.91-1.33-9.68-3.96-3.21-3.03-4.63-6.83-4.25-11.28l.33-3.82c.41-4.65,2.24-8.75,5.43-12.21,3.27-3.53,7.28-5.5,11.92-5.86,9.89-.92,18.94-1.39,26.8-1.39,4.88,0,9.43.18,13.52.54,21.64,1.89,37.28,7.38,46.49,16.31,9.37,9.1,13.35,22.55,11.83,39.99l-5.71,65.27c-.39,4.47-2.4,8.25-5.96,11.24-3.15,2.64-6.72,3.98-10.6,3.99h0l.01-.03ZM554.428,439.955c-15.6,0-16.22,7.11-16.45,9.78-.35,4.05,1.03,5.54,1.49,6.02,1.63,1.74,4.59,2.34,6.8,2.53.73.07,1.46.1,2.17.1,4.52,0,8.32-1.29,11.62-3.95,3.78-3.04,5.86-7.31,6.36-13.05l.05-.6-6.57-.58c-1.94-.17-3.77-.26-5.46-.26l-.01.01Z" style="fill:#e5006a;"/><path d="M742.598,510.335c-.49,0-.99-.02-1.5-.07l-16.99-1.49c-4.48-.39-8.26-2.4-11.25-5.96-2.99-3.55-4.31-7.63-3.92-12.11l5.08-58.1c.76-8.68-.51-12.17-1.34-13.47-1.3-2.04-4.2-3.28-8.61-3.66-.4-.04-.8-.05-1.2-.05-3.23,0-6.41,1.21-9.46,3.61-3.4,2.67-5.2,5.57-5.49,8.89l-5.29,60.49c-.39,4.48-2.4,8.26-5.96,11.25-3.15,2.64-6.71,3.98-10.59,3.98-.5,0-1-.02-1.5-.07l-18.18-1.59c-4.47-.39-8.26-2.4-11.25-5.96s-4.31-7.63-3.92-12.11l8.49-97.07c.39-4.47,2.4-8.25,5.96-11.25,3.15-2.64,6.72-3.98,10.6-3.98.5,0,1,.02,1.51.07l16.26,1.42c4.61.4,8.46,2.36,11.46,5.83,2.03,2.35,3.33,5,3.89,7.9,9.38-7.95,19.76-11.83,31.58-11.83,1.53,0,3.11.07,4.67.21,15.42,1.35,26.32,6.92,32.39,16.55,5.99,9.5,8,24.3,6.17,45.25l-5.08,58.1c-.39,4.47-2.4,8.26-5.96,11.25-3.15,2.64-6.71,3.98-10.59,3.99h0l.02-.02Z" style="fill:#e5006a;"/><path d="M836.848,520.615c-3.34,0-6.89-.16-10.57-.48-13.19-1.15-26.54-3.64-39.67-7.38-4.5-1.36-8.05-4.06-10.62-8.07-2.55-3.95-3.63-8.4-3.21-13.21l.54-6.22c.38-4.3,2.53-7.71,6.24-9.87,2.21-1.29,4.53-1.94,6.9-1.94,1.51,0,3.05.27,4.58.79,11.39,3.81,22.38,6.21,32.62,7.1,1.06.09,2.05.14,2.96.14,7.26,0,7.51-2.84,7.6-3.91.12-1.41-.13-2.42-.75-2.99-.42-.39-1.97-1.45-7.03-2.66-17.98-4.55-30.92-10.95-38.56-19.04-7.86-8.32-11.28-18.94-10.18-31.57,1.14-13.07,7.17-22.93,17.91-29.31,8.18-4.85,19.25-7.31,32.9-7.31,3.76,0,7.78.19,11.96.55,12.5,1.09,24.17,2.94,34.67,5.48,4.67,1.17,8.35,3.72,10.97,7.57,2.59,3.82,3.7,8.12,3.3,12.79l-.44,5.02c-.38,4.3-2.49,7.72-6.28,10.15-2.49,1.59-5.12,2.4-7.84,2.4-1.32,0-2.66-.19-4-.57-9.35-2.7-19.12-4.51-29.08-5.38-1.64-.14-3.14-.22-4.44-.22-3.02,0-4.53.38-5.26.69-.96.42-1.64,1.04-1.79,2.73-.12,1.35-.39,4.5,7.63,6.11.04,0,.08.02.12.03,18.43,4.08,31.55,10.14,39,17.99,7.75,8.18,10.93,18.85,9.73,32.62-1.18,13.52-7.1,23.71-17.58,30.26-8.16,5.11-19.04,7.7-32.35,7.7l.02.01Z" style="fill:#e5006a;"/><path d="M332.218,467.905c-.5,0-1-.02-1.51-.07l-21.99-1.92c-4.49-.39-8.24-2.41-11.16-5.99-2.89-3.55-4.16-7.61-3.77-12.06l10.37-118.46-28.33-2.48c-4.48-.39-8.26-2.4-11.25-5.96s-4.31-7.64-3.92-12.11l1.07-12.19c.39-4.47,2.4-8.25,5.96-11.25,3.15-2.64,6.72-3.99,10.6-3.99.5,0,1,.02,1.51.07l111.41,9.75c4.47.39,8.25,2.4,11.24,5.96,2.99,3.57,4.31,7.64,3.92,12.11l-1.07,12.19c-.39,4.47-2.4,8.25-5.96,11.25-3.15,2.64-6.71,3.99-10.6,3.99-.49,0-.99-.02-1.5-.07l-28.34-2.48-10.37,118.47c-.39,4.46-2.34,8.23-5.81,11.23-3.08,2.67-6.62,4.02-10.51,4.02l.01-.01Z" style="fill:#e5006a;"/><path d="M422.348,475.795c-.49,0-.99-.02-1.5-.07l-19.38-1.7c-4.48-.39-8.26-2.4-11.25-5.96-2.99-3.55-4.31-7.63-3.92-12.11l8.49-97.07c.39-4.47,2.4-8.25,5.96-11.25,3.15-2.64,6.71-3.98,10.6-3.98.5,0,1,.02,1.51.07l18.17,1.59c4.47.39,8.25,2.4,11.24,5.96,2.99,3.57,4.31,7.64,3.92,12.11l-.24,2.74c10.86-9.64,24.16-14.86,39.63-15.53.24,0,.46-.01.69-.01,4.37,0,8.07,1.77,11.01,5.27,2.99,3.57,4.3,7.73,3.9,12.35l-.54,6.22c-.39,4.45-2.3,8.19-5.67,11.11-3.3,2.86-7.28,4.39-11.83,4.56-11.64.49-21.33,4-28.76,10.44-7.35,6.37-11.52,14.66-12.39,24.65l-3.1,35.38c-.39,4.47-2.4,8.25-5.96,11.25-3.15,2.64-6.71,3.98-10.6,3.99h0l.02-.01Z" style="fill:#e5006a;"/><path d="M604.048,491.685c-.49,0-.99-.02-1.5-.07l-15.08-1.32c-4.61-.4-8.47-2.37-11.47-5.83-2.06-2.38-3.37-5.06-3.91-8.01-9.61,7.87-20.5,11.85-32.47,11.85-1.64,0-3.3-.07-4.96-.22-12.09-1.06-21.44-5.67-28.59-14.09-7.16-8.43-10.12-18.49-9.04-30.76,2.37-27.06,21.6-40.78,57.15-40.78,4.51,0,9.36.22,14.42.67l6.57.58c.21-3.6-.59-6.27-2.44-8.16-2.02-2.07-5.61-3.38-10.36-3.79-3.26-.29-6.93-.43-10.91-.43-7.39,0-16.13.5-25.97,1.49-.51.05-1.05.08-1.57.08-3.66,0-6.91-1.33-9.68-3.96-3.21-3.03-4.63-6.83-4.25-11.28l.33-3.82c.41-4.65,2.24-8.75,5.43-12.21,3.27-3.53,7.28-5.5,11.92-5.86,9.89-.92,18.94-1.39,26.8-1.39,4.88,0,9.43.18,13.52.54,21.64,1.89,37.28,7.38,46.49,16.31,9.37,9.1,13.35,22.55,11.83,39.99l-5.71,65.27c-.39,4.47-2.4,8.25-5.96,11.24-3.15,2.64-6.72,3.98-10.6,3.99h0l.01-.03ZM560.428,433.955c-15.6,0-16.22,7.11-16.45,9.78-.35,4.05,1.03,5.54,1.49,6.02,1.63,1.74,4.59,2.34,6.8,2.53.73.07,1.46.1,2.17.1,4.52,0,8.32-1.29,11.62-3.95,3.78-3.04,5.86-7.31,6.36-13.05l.05-.6-6.57-.58c-1.94-.17-3.77-.26-5.46-.26l-.01.01Z" style="fill:#e5006a;"/><path d="M748.598,504.335c-.49,0-.99-.02-1.5-.07l-16.99-1.49c-4.48-.39-8.26-2.4-11.25-5.96-2.99-3.55-4.31-7.63-3.92-12.11l5.08-58.1c.76-8.68-.51-12.17-1.34-13.47-1.3-2.04-4.2-3.28-8.61-3.66-.4-.04-.8-.05-1.2-.05-3.23,0-6.41,1.21-9.46,3.61-3.4,2.67-5.2,5.57-5.49,8.89l-5.29,60.49c-.39,4.48-2.4,8.26-5.96,11.25-3.15,2.64-6.71,3.98-10.59,3.98-.5,0-1-.02-1.5-.07l-18.18-1.59c-4.47-.39-8.26-2.4-11.25-5.96s-4.31-7.63-3.92-12.11l8.49-97.07c.39-4.47,2.4-8.25,5.96-11.25,3.15-2.64,6.72-3.98,10.6-3.98.5,0,1,.02,1.51.07l16.26,1.42c4.61.4,8.46,2.36,11.46,5.83,2.03,2.35,3.33,5,3.89,7.9,9.38-7.95,19.76-11.83,31.58-11.83,1.53,0,3.11.07,4.67.21,15.42,1.35,26.32,6.92,32.39,16.55,5.99,9.5,8,24.3,6.17,45.25l-5.08,58.1c-.39,4.47-2.4,8.26-5.96,11.25-3.15,2.64-6.71,3.98-10.59,3.99h0l.02-.02Z" style="fill:#e5006a;"/><path d="M842.848,514.615c-3.34,0-6.89-.16-10.57-.48-13.19-1.15-26.54-3.64-39.67-7.38-4.5-1.36-8.05-4.06-10.62-8.07-2.55-3.95-3.63-8.4-3.21-13.21l.54-6.22c.38-4.3,2.53-7.71,6.24-9.87,2.21-1.29,4.53-1.94,6.9-1.94,1.51,0,3.05.27,4.58.79,11.39,3.81,22.38,6.21,32.62,7.1,1.06.09,2.05.14,2.96.14,7.26,0,7.51-2.84,7.6-3.91.12-1.41-.13-2.42-.75-2.99-.42-.39-1.97-1.45-7.03-2.66-17.98-4.55-30.92-10.95-38.56-19.04-7.86-8.32-11.28-18.94-10.18-31.57,1.14-13.07,7.17-22.93,17.91-29.31,8.18-4.85,19.25-7.31,32.9-7.31,3.76,0,7.78.19,11.96.55,12.5,1.09,24.17,2.94,34.67,5.48,4.67,1.17,8.35,3.72,10.97,7.57,2.59,3.82,3.7,8.12,3.3,12.79l-.44,5.02c-.38,4.3-2.49,7.72-6.28,10.15-2.49,1.59-5.12,2.4-7.84,2.4-1.32,0-2.66-.19-4-.57-9.35-2.7-19.12-4.51-29.08-5.38-1.64-.14-3.14-.22-4.44-.22-3.02,0-4.53.38-5.26.69-.96.42-1.64,1.04-1.79,2.73-.12,1.35-.39,4.5,7.63,6.11.04,0,.08.02.12.03,18.43,4.08,31.55,10.14,39,17.99,7.75,8.18,10.93,18.85,9.73,32.62-1.18,13.52-7.1,23.71-17.58,30.26-8.16,5.11-19.04,7.7-32.35,7.7l.02.01Z" style="fill:#e5006a;"/><path d="M329.218,473.905c-.58,0-1.18-.03-1.77-.08l-21.99-1.92c-5.26-.46-9.83-2.91-13.22-7.08-3.4-4.17-4.89-8.96-4.43-14.22l10.1-115.48-25.34-2.22c-5.22-.46-9.82-2.89-13.29-7.03-3.47-4.13-5.06-9.08-4.61-14.3l1.07-12.19c.46-5.22,2.88-9.81,7.02-13.28,3.71-3.11,7.92-4.69,12.53-4.69.58,0,1.18.03,1.77.08l111.41,9.75c5.21.46,9.81,2.88,13.28,7.02,3.47,4.14,5.07,9.09,4.61,14.3l-1.07,12.19c-.46,5.22-2.89,9.81-7.02,13.28-3.7,3.11-7.92,4.69-12.53,4.69-.58,0-1.18-.03-1.77-.08l-25.34-2.22-10.1,115.48c-.46,5.26-2.76,9.71-6.84,13.23-3.64,3.15-7.84,4.75-12.47,4.75v.02Z" style="fill:#e5006a;"/><path d="M419.348,481.795c-.58,0-1.18-.03-1.77-.08l-19.37-1.69c-5.22-.46-9.82-2.89-13.28-7.03-3.47-4.13-5.06-9.07-4.61-14.3l8.49-97.07c.46-5.22,2.88-9.81,7.02-13.28,3.71-3.11,7.92-4.69,12.53-4.69.58,0,1.18.03,1.77.08l18.17,1.59c5.21.46,9.8,2.88,13.28,7.02,2.59,3.09,4.13,6.62,4.56,10.38,10.34-7.47,22.51-11.54,36.33-12.13.28-.01.55-.02.82-.02,5.22,0,9.82,2.19,13.3,6.33,3.48,4.15,5.06,9.17,4.59,14.54l-.54,6.22c-.46,5.25-2.71,9.66-6.7,13.12-3.83,3.32-8.43,5.09-13.68,5.29-11.09.47-19.9,3.64-26.9,9.71-6.83,5.92-10.55,13.33-11.37,22.64l-3.1,35.38c-.46,5.22-2.89,9.81-7.02,13.28-3.71,3.11-7.92,4.69-12.53,4.69l.01.02Z" style="fill:#e5006a;"/><path d="M601.048,497.685c-.58,0-1.18-.03-1.77-.08l-15.06-1.32c-5.42-.47-9.95-2.78-13.47-6.86-1.35-1.56-2.42-3.22-3.22-4.99-9.27,6.55-19.62,9.87-30.89,9.87-1.71,0-3.47-.08-5.22-.23-12.73-1.11-23.04-6.21-30.62-15.14-7.6-8.95-10.88-20.04-9.75-32.96,1.27-14.47,7.23-25.54,17.73-32.92,10.01-7.03,24.28-10.6,42.4-10.6,4.6,0,9.54.23,14.68.68l3.12.27c-.36-1.71-1.09-2.46-1.41-2.78-1.52-1.55-4.45-2.55-8.47-2.9-3.17-.28-6.76-.42-10.65-.42-7.3,0-15.93.5-25.67,1.47-.62.06-1.25.1-1.87.1-4.39,0-8.45-1.65-11.74-4.78-3.85-3.64-5.64-8.39-5.17-13.72l.33-3.82c.47-5.33,2.56-10.03,6.22-13.99,3.8-4.1,8.47-6.39,13.88-6.82,9.96-.93,19.08-1.4,27.03-1.4,4.97,0,9.61.19,13.79.55,22.66,1.98,38.47,7.59,48.32,17.14,10.05,9.76,14.34,24.02,12.73,42.41l-5.71,65.27c-.46,5.22-2.88,9.81-7.02,13.28-3.71,3.11-7.92,4.69-12.53,4.69h.01ZM557.428,439.955c-12.85,0-13.28,4.93-13.47,7.04-.11,1.24-.08,2.89.69,3.72.44.47,1.66,1.31,4.87,1.59.65.06,1.29.09,1.91.09,3.81,0,6.99-1.08,9.74-3.29,2.58-2.08,4.2-4.91,4.92-8.6l-3.46-.3c-1.85-.16-3.59-.24-5.2-.24v-.01Z" style="fill:#e5006a;"/><path d="M745.598,510.335c-.58,0-1.18-.03-1.77-.08l-16.98-1.49c-5.22-.46-9.82-2.89-13.28-7.03-3.47-4.13-5.06-9.07-4.61-14.3l5.08-58.1c.73-8.32-.49-10.98-.88-11.6-.74-1.16-3.05-1.99-6.33-2.28-.31-.03-.62-.04-.93-.04-2.58,0-5.07.97-7.61,2.97-2.71,2.13-4.14,4.35-4.35,6.79l-5.29,60.49c-.46,5.22-2.89,9.81-7.02,13.28-3.7,3.11-7.92,4.68-12.52,4.69-.58,0-1.18-.03-1.77-.08l-18.17-1.59c-5.22-.46-9.82-2.89-13.28-7.03-3.47-4.13-5.06-9.07-4.61-14.3l8.49-97.07c.46-5.22,2.88-9.81,7.02-13.28,3.71-3.11,7.92-4.69,12.53-4.69.58,0,1.18.03,1.77.08l16.26,1.42c5.41.47,9.94,2.78,13.47,6.85,1.32,1.52,2.37,3.15,3.16,4.87,9.03-6.53,19.09-9.83,30.04-9.83,1.62,0,3.28.07,4.94.22,16.4,1.43,28.06,7.47,34.67,17.94,6.35,10.08,8.51,25.49,6.62,47.11l-5.08,58.1c-.46,5.22-2.89,9.81-7.02,13.28-3.7,3.11-7.92,4.69-12.53,4.69l-.02.01Z" style="fill:#e5006a;"/><path d="M839.848,520.615c-3.43,0-7.07-.17-10.83-.5-13.38-1.17-26.91-3.69-40.23-7.48-5.24-1.58-9.35-4.71-12.33-9.33-2.92-4.52-4.15-9.6-3.67-15.09l.54-6.22c.46-5.31,3.13-9.53,7.71-12.2,2.67-1.55,5.5-2.34,8.41-2.34,1.84,0,3.71.32,5.56.96,11.15,3.73,21.9,6.07,31.9,6.95.97.08,1.88.13,2.7.13,3.48,0,4.46-.73,4.56-.81,0-.01.04-.12.06-.36.03-.3.02-.51.01-.65-.48-.27-1.95-.98-5.5-1.83-18.82-4.77-31.9-11.27-40.04-19.9-8.47-8.96-12.17-20.37-10.98-33.89,1.23-14.09,7.75-24.73,19.37-31.63,8.65-5.13,20.23-7.73,34.44-7.73,3.84,0,7.96.19,12.23.56,12.65,1.11,24.46,2.97,35.11,5.55,5.42,1.36,9.7,4.32,12.75,8.8,3,4.41,4.27,9.37,3.8,14.74l-.44,5.02c-.46,5.21-3.1,9.5-7.65,12.41-2.98,1.91-6.16,2.87-9.46,2.87-1.59,0-3.21-.23-4.82-.68-9.17-2.65-18.75-4.42-28.52-5.28-1.55-.14-2.95-.21-4.17-.21-2.67,0-3.77.33-4.02.43-.01.06-.03.15-.03.26-.13,1.51,2.77,2.41,5.23,2.9.04,0,.08.02.12.03,19.33,4.28,32.61,10.46,40.58,18.86,8.26,8.71,11.8,20.47,10.54,34.94-1.27,14.51-7.65,25.46-18.98,32.54-8.64,5.41-20.06,8.15-33.94,8.15l-.01.03Z" style="fill:#e5006a;"/><path d="M329.218,473.905c-.58,0-1.18-.03-1.77-.08l-21.99-1.92c-5.26-.46-9.83-2.91-13.22-7.08-3.4-4.17-4.89-8.96-4.43-14.22l10.1-115.48-25.34-2.22c-5.22-.46-9.82-2.89-13.29-7.03-3.47-4.13-5.06-9.08-4.61-14.3l1.07-12.19c.46-5.22,2.88-9.81,7.02-13.28,3.71-3.11,7.92-4.69,12.53-4.69.58,0,1.18.03,1.77.08l111.41,9.75c5.21.46,9.81,2.88,13.28,7.02,3.47,4.14,5.07,9.09,4.61,14.3l-1.07,12.19c-.46,5.22-2.89,9.81-7.02,13.28-3.7,3.11-7.92,4.69-12.53,4.69-.58,0-1.18-.03-1.77-.08l-25.34-2.22-10.1,115.48c-.46,5.26-2.76,9.71-6.84,13.23-3.64,3.15-7.84,4.75-12.47,4.75v.02Z" style="fill:#e5006a;"/><path d="M419.348,481.795c-.58,0-1.18-.03-1.77-.08l-19.37-1.69c-5.22-.46-9.82-2.89-13.28-7.03-3.47-4.13-5.06-9.07-4.61-14.3l8.49-97.07c.46-5.22,2.88-9.81,7.02-13.28,3.71-3.11,7.92-4.69,12.53-4.69.58,0,1.18.03,1.77.08l18.17,1.59c5.21.46,9.8,2.88,13.28,7.02,2.59,3.09,4.13,6.62,4.56,10.38,10.34-7.47,22.51-11.54,36.33-12.13.28-.01.55-.02.82-.02,5.22,0,9.82,2.19,13.3,6.33,3.48,4.15,5.06,9.17,4.59,14.54l-.54,6.22c-.46,5.25-2.71,9.66-6.7,13.12-3.83,3.32-8.43,5.09-13.68,5.29-11.09.47-19.9,3.64-26.9,9.71-6.83,5.92-10.55,13.33-11.37,22.64l-3.1,35.38c-.46,5.22-2.89,9.81-7.02,13.28-3.71,3.11-7.92,4.69-12.53,4.69l.01.02Z" style="fill:#e5006a;"/><path d="M601.048,497.685c-.58,0-1.18-.03-1.77-.08l-15.06-1.32c-5.42-.47-9.95-2.78-13.47-6.86-1.35-1.56-2.42-3.22-3.22-4.99-9.27,6.55-19.62,9.87-30.89,9.87-1.71,0-3.47-.08-5.22-.23-12.73-1.11-23.04-6.21-30.62-15.14-7.6-8.95-10.88-20.04-9.75-32.96,1.27-14.47,7.23-25.54,17.73-32.92,10.01-7.03,24.28-10.6,42.4-10.6,4.6,0,9.54.23,14.68.68l3.12.27c-.36-1.71-1.09-2.46-1.41-2.78-1.52-1.55-4.45-2.55-8.47-2.9-3.17-.28-6.76-.42-10.65-.42-7.3,0-15.93.5-25.67,1.47-.62.06-1.25.1-1.87.1-4.39,0-8.45-1.65-11.74-4.78-3.85-3.64-5.64-8.39-5.17-13.72l.33-3.82c.47-5.33,2.56-10.03,6.22-13.99,3.8-4.1,8.47-6.39,13.88-6.82,9.96-.93,19.08-1.4,27.03-1.4,4.97,0,9.61.19,13.79.55,22.66,1.98,38.47,7.59,48.32,17.14,10.05,9.76,14.34,24.02,12.73,42.41l-5.71,65.27c-.46,5.22-2.88,9.81-7.02,13.28-3.71,3.11-7.92,4.69-12.53,4.69h.01ZM557.428,439.955c-12.85,0-13.28,4.93-13.47,7.04-.11,1.24-.08,2.89.69,3.72.44.47,1.66,1.31,4.87,1.59.65.06,1.29.09,1.91.09,3.81,0,6.99-1.08,9.74-3.29,2.58-2.08,4.2-4.91,4.92-8.6l-3.46-.3c-1.85-.16-3.59-.24-5.2-.24v-.01Z" style="fill:#e5006a;"/><path d="M745.598,510.335c-.58,0-1.18-.03-1.77-.08l-16.98-1.49c-5.22-.46-9.82-2.89-13.28-7.03-3.47-4.13-5.06-9.07-4.61-14.3l5.08-58.1c.73-8.32-.49-10.98-.88-11.6-.74-1.16-3.05-1.99-6.33-2.28-.31-.03-.62-.04-.93-.04-2.58,0-5.07.97-7.61,2.97-2.71,2.13-4.14,4.35-4.35,6.79l-5.29,60.49c-.46,5.22-2.89,9.81-7.02,13.28-3.7,3.11-7.92,4.68-12.52,4.69-.58,0-1.18-.03-1.77-.08l-18.17-1.59c-5.22-.46-9.82-2.89-13.28-7.03-3.47-4.13-5.06-9.07-4.61-14.3l8.49-97.07c.46-5.22,2.88-9.81,7.02-13.28,3.71-3.11,7.92-4.69,12.53-4.69.58,0,1.18.03,1.77.08l16.26,1.42c5.41.47,9.94,2.78,13.47,6.85,1.32,1.52,2.37,3.15,3.16,4.87,9.03-6.53,19.09-9.83,30.04-9.83,1.62,0,3.28.07,4.94.22,16.4,1.43,28.06,7.47,34.67,17.94,6.35,10.08,8.51,25.49,6.62,47.11l-5.08,58.1c-.46,5.22-2.89,9.81-7.02,13.28-3.7,3.11-7.92,4.69-12.53,4.69l-.02.01Z" style="fill:#e5006a;"/><path d="M839.848,520.615c-3.43,0-7.07-.17-10.83-.5-13.38-1.17-26.91-3.69-40.23-7.48-5.24-1.58-9.35-4.71-12.33-9.33-2.92-4.52-4.15-9.6-3.67-15.09l.54-6.22c.46-5.31,3.13-9.53,7.71-12.2,2.67-1.55,5.5-2.34,8.41-2.34,1.84,0,3.71.32,5.56.96,11.15,3.73,21.9,6.07,31.9,6.95.97.08,1.88.13,2.7.13,3.48,0,4.46-.73,4.56-.81,0-.01.04-.12.06-.36.03-.3.02-.51.01-.65-.48-.27-1.95-.98-5.5-1.83-18.82-4.77-31.9-11.27-40.04-19.9-8.47-8.96-12.17-20.37-10.98-33.89,1.23-14.09,7.75-24.73,19.37-31.63,8.65-5.13,20.23-7.73,34.44-7.73,3.84,0,7.96.19,12.23.56,12.65,1.11,24.46,2.97,35.11,5.55,5.42,1.36,9.7,4.32,12.75,8.8,3,4.41,4.27,9.37,3.8,14.74l-.44,5.02c-.46,5.21-3.1,9.5-7.65,12.41-2.98,1.91-6.16,2.87-9.46,2.87-1.59,0-3.21-.23-4.82-.68-9.17-2.65-18.75-4.42-28.52-5.28-1.55-.14-2.95-.21-4.17-.21-2.67,0-3.77.33-4.02.43-.01.06-.03.15-.03.26-.13,1.51,2.77,2.41,5.23,2.9.04,0,.08.02.12.03,19.33,4.28,32.61,10.46,40.58,18.86,8.26,8.71,11.8,20.47,10.54,34.94-1.27,14.51-7.65,25.46-18.98,32.54-8.64,5.41-20.06,8.15-33.94,8.15l-.01.03Z" style="fill:#e5006a;"/><path d="M55.118,293.895c-12.86,0-24.2-4-33.7-11.88-10.95-9.09-17.19-21.5-18.54-36.91-1.62-18.47,4.29-34.06,17.1-45.22-1.46-.63-2.88-1.4-4.24-2.3-6.7-4.42-10.78-11.29-11.48-19.34l-.33-3.82c-.64-7.26,1.13-14.35,5.1-20.51,4.21-6.53,10.32-11,17.68-12.93,16.51-4.52,30.13-7.2,41.64-8.21,4.88-.43,9.58-.64,13.97-.64,17.97,0,31.85,3.48,42.43,10.65,13.95,9.46,21.96,25,23.81,46.21l5.71,65.27c.67,7.65-1.64,14.86-6.68,20.87-5.04,6.01-11.75,9.53-19.39,10.2l-15.06,1.32c-.9.08-1.81.12-2.69.12-6.16,0-11.98-1.91-16.95-5.53-9.36,7.16-20.31,11.32-32.74,12.4-1.89.17-3.78.25-5.61.25h-.03Z" style="fill:#e5006a;"/><path d="M176.048,281.035c-6.69,0-13.02-2.35-18.31-6.8-6-5.02-9.53-11.73-10.2-19.38l-13.3-152.06c-.67-7.64,1.64-14.86,6.68-20.87s11.74-9.53,19.39-10.2l18.17-1.59c.85-.07,1.71-.11,2.55-.11,6.68,0,13.01,2.35,18.31,6.79,6.01,5.05,9.54,11.75,10.21,19.4l2.41,27.5c6.5-2.9,13.38-4.67,20.62-5.3,2.04-.18,4.09-.27,6.07-.27,16.83,0,31.16,6.25,42.59,18.57,11.85,12.78,18.94,31.52,21.05,55.7,2.08,23.77-1.88,43.4-11.78,58.35-10.48,15.83-25.7,25.04-44.03,26.64-2.07.18-4.15.27-6.17.27-10.21,0-19.67-2.25-28.31-6.72-4.9,5.05-11.2,8.03-18.33,8.66l-15.06,1.32c-.85.08-1.71.11-2.56.11v-.01ZM218.558,212.975s.26.47,1.28,1.23c1.24.94,2.3,1.32,3.66,1.32.23,0,.46-.01.71-.03,1.21-.11,1.66-.26,2.5-1.69.73-1.24,2.32-5.18,1.47-14.92-.84-9.6-2.93-13.46-3.79-14.67-.6-.84-.79-1.04-2.16-1.04-.26,0-.54.01-.84.04-1.72.15-2.86.72-4.07,2.02-.89.96-1.05,1.47-1.06,1.47l2.31,26.26h0l-.01.01Z" style="fill:#e5006a;"/><path d="M359.688,267.055c-19.97,0-36.81-5.68-50.05-16.87-15.39-13-24.27-31.88-26.39-56.12-2.12-24.24,3.34-44.37,16.24-59.85,12.93-15.51,31.87-24.46,56.3-26.6,3.41-.3,6.77-.45,10.01-.45,19.97,0,36.81,5.67,50.06,16.87,15.39,13.01,24.27,31.89,26.39,56.12,2.12,24.24-3.34,44.37-16.24,59.85-12.93,15.51-31.87,24.46-56.3,26.6-3.41.3-6.78.45-10.01.45h-.01ZM362.638,205.605c.14.03.42.07.89.07.26,0,.54-.01.84-.04.91-.08,1.46-.24,1.69-.33.02-.04.04-.08.07-.14.21-.42,2.01-4.58.8-18.43-1.21-13.85-3.71-17.63-3.99-18.02-.03-.04-.06-.08-.08-.11-.14-.03-.42-.07-.89-.07-.26,0-.54.01-.84.04-.91.08-1.46.24-1.69.33-.02.03-.04.08-.07.13-.21.43-2.01,4.58-.8,18.44,1.21,13.85,3.71,17.63,3.99,18.01.04.05.07.09.09.12h-.01Z" style="fill:#e5006a;"/><path d="M481.938,256.485c-15.37,0-27.61-4.74-36.36-14.08-9.27-9.88-14.76-25.92-16.78-49.03l-5.29-60.49c-.67-7.65,1.64-14.86,6.68-20.87,5.04-6,11.74-9.53,19.39-10.2l16.98-1.49c.85-.07,1.71-.11,2.55-.11,6.68,0,13.01,2.35,18.31,6.79,6.02,5.06,9.54,11.76,10.21,19.4l5.08,58.1c.11,1.24.23,2.28.36,3.15.07-.07.13-.14.2-.22.45-.5.69-.86.8-1.06l-5.26-60.08c-.67-7.65,1.64-14.86,6.68-20.87,5.04-6.01,11.75-9.54,19.4-10.2l18.17-1.59c.85-.07,1.71-.11,2.55-.11,6.68,0,13.01,2.35,18.31,6.78,6.02,5.06,9.54,11.76,10.21,19.4l8.49,97.07c.67,7.65-1.64,14.86-6.68,20.87s-11.75,9.53-19.39,10.2l-16.26,1.42c-.9.08-1.81.12-2.7.12-6.1,0-11.89-1.88-16.83-5.44-9.12,7.02-19.82,11.18-31.67,12.22-2.45.21-4.86.32-7.16.32h.01Z" style="fill:#e5006a;"/><path d="M646.428,241.975c-16.25,0-29.08-4.03-38.13-11.97-10.77-9.44-16.98-25.23-19-48.25l-2.27-25.91c-6.34-.21-12.34-2.54-17.39-6.78-6-5.03-9.53-11.73-10.2-19.39l-.33-3.83c-.67-7.64,1.64-14.86,6.68-20.87,4.27-5.08,9.73-8.39,15.94-9.69l-1.49-17.06c-.67-7.64,1.64-14.86,6.68-20.87s11.75-9.53,19.39-10.2l18.17-1.59c.85-.07,1.71-.11,2.55-.11,6.68,0,13.01,2.35,18.31,6.79,6.02,5.05,9.54,11.76,10.21,19.4l1.47,16.85,8.49-.74c.85-.07,1.71-.11,2.56-.11,6.68,0,13.01,2.35,18.3,6.78,6.02,5.06,9.54,11.76,10.21,19.4l.33,3.82c.67,7.65-1.64,14.87-6.68,20.87-5.04,6.01-11.75,9.53-19.39,10.2l-8.49.74,1.83,20.92c.24,2.73.5,4.85.74,6.47,1-.17,2.29-.42,3.91-.81,2.16-.5,4.25-.75,6.32-.75,5.19,0,10.13,1.48,14.7,4.41,6.89,4.42,11.06,11.23,11.76,19.21l.54,6.22c.64,7.32-1.16,14.42-5.21,20.54-4.35,6.57-10.63,10.91-18.19,12.57-6.17,1.43-13.63,2.53-22.2,3.28-3.52.31-6.93.46-10.14.46h.02Z" style="fill:#e5006a;"/><path d="M55.118,284.895c-10.7,0-20.11-3.3-27.95-9.81-9.04-7.49-14.19-17.85-15.32-30.77-1.43-16.4,3.79-29.49,15.54-38.89,11.18-8.95,27.76-14.28,50.7-16.29l3.12-.27c-1.19-2.86-3.71-3.99-8.27-3.99-.77,0-1.59.04-2.44.11-9.15.8-21.12,3.27-35.58,7.34-1.6.45-3.21.68-4.79.68-3.32,0-6.49-.98-9.43-2.93-4.42-2.92-7.01-7.29-7.48-12.62l-.33-3.82c-.47-5.32.78-10.32,3.7-14.85,3.03-4.7,7.23-7.77,12.49-9.12,15.72-4.3,29.22-6.98,40.05-7.92,4.62-.4,9.06-.61,13.18-.61,15.89,0,28.46,3.06,37.38,9.1,11.59,7.86,18.29,21.17,19.9,39.55l5.71,65.27c.46,5.22-1.14,10.16-4.61,14.3s-8.07,6.57-13.28,7.02l-15.06,1.32c-.64.06-1.28.08-1.91.08-4.66,0-8.89-1.51-12.55-4.5-1.6-1.3-2.95-2.75-4.04-4.36-9.21,9.31-20.58,14.6-33.89,15.76-1.63.14-3.25.21-4.83.21l-.01.01ZM81.338,226.185c-8.51.74-12.65,2.6-14.62,4.03-2.07,1.5-2.82,3.21-2.58,5.9.32,3.67,1.56,4.33,4.89,4.33h0c.47,0,.98-.02,1.51-.07,4.66-.41,8.23-2.1,10.91-5.18,2.18-2.5,3.29-5.56,3.36-9.32l-3.46.3-.01.01Z" style="fill:#fff;"/><path d="M176.048,272.035c-4.61,0-8.82-1.58-12.53-4.69-4.13-3.46-6.56-8.06-7.02-13.28l-13.3-152.06c-.46-5.22,1.14-10.16,4.61-14.3s8.06-6.57,13.28-7.02l18.17-1.59c.59-.05,1.19-.08,1.77-.08,4.6,0,8.82,1.58,12.53,4.69,4.14,3.48,6.57,8.07,7.02,13.28l3.65,41.7c8.78-6.6,18.54-10.4,29.12-11.32,1.79-.16,3.57-.24,5.29-.24,14.22,0,26.33,5.28,35.99,15.69,10.46,11.28,16.75,28.23,18.68,50.37,1.9,21.69-1.57,39.38-10.32,52.59-9.04,13.65-21.59,21.27-37.3,22.64-1.81.16-3.63.24-5.39.24-11.37,0-21.68-3.29-30.77-9.78-.79,1.73-1.85,3.37-3.17,4.9-3.53,4.08-8.06,6.38-13.47,6.86l-15.06,1.32c-.59.05-1.19.08-1.78.08h0ZM222.208,174.185c-.52,0-1.07.02-1.62.07-3.92.34-7.15,1.93-9.88,4.86-3.4,3.66-3.58,6.52-3.42,8.35l2.3,26.3c.16,1.83.83,4.62,4.82,7.63,2.79,2.11,5.76,3.13,9.08,3.13.49,0,.99-.02,1.49-.07,4.25-.37,7.27-2.32,9.49-6.12,2.56-4.38,3.46-11.19,2.66-20.24-2.09-23.92-11.41-23.92-14.92-23.92v.01Z" style="fill:#fff;"/><path d="M359.688,258.055c-17.78,0-32.67-4.96-44.24-14.74-13.51-11.41-21.32-28.25-23.23-50.03s2.87-39.72,14.19-53.31c11.33-13.6,28.21-21.47,50.17-23.4,3.14-.28,6.25-.42,9.22-.42,17.78,0,32.67,4.96,44.25,14.74,13.51,11.42,21.33,28.25,23.23,50.03,1.91,21.78-2.87,39.72-14.19,53.31-11.33,13.6-28.21,21.47-50.17,23.39-3.15.28-6.25.42-9.23.42v.01ZM361.958,159.545c-.52,0-1.06.03-1.62.07-5.91.52-7.95,3.19-9.06,5.47-1.44,2.93-2.9,9.34-1.68,23.18,1.21,13.84,3.76,19.89,5.68,22.53,1.96,2.69,4.5,3.89,8.25,3.89h0c.52,0,1.06-.03,1.62-.07,5.91-.52,7.95-3.2,9.06-5.47,1.44-2.93,2.89-9.34,1.68-23.17-1.21-13.84-3.76-19.89-5.68-22.54-1.96-2.68-4.5-3.88-8.25-3.88v-.01Z" style="fill:#fff;"/><path d="M481.938,247.485c-12.79,0-22.81-3.78-29.79-11.23-7.84-8.35-12.54-22.63-14.38-43.66l-5.29-60.49c-.46-5.29,1.09-10.1,4.61-14.3,3.47-4.14,8.06-6.56,13.28-7.02l16.97-1.49c.59-.05,1.19-.08,1.77-.08,4.6,0,8.82,1.58,12.53,4.68,4.14,3.48,6.57,8.07,7.03,13.28l5.08,58.1c.73,8.39,2.35,10.82,2.83,11.36.72.82,2.08,1.23,4.05,1.23.45,0,.93-.02,1.44-.07,2.92-.25,5.5-1.68,7.91-4.37,2.3-2.57,3.32-5,3.1-7.44l-5.29-60.49c-.46-5.29,1.09-10.1,4.61-14.3,3.47-4.14,8.07-6.57,13.28-7.02l18.17-1.59c.59-.05,1.19-.08,1.77-.08,4.6,0,8.82,1.58,12.53,4.68,4.14,3.48,6.57,8.07,7.03,13.28l8.49,97.07c.46,5.22-1.14,10.16-4.61,14.3s-8.06,6.57-13.28,7.02l-16.26,1.42c-.64.06-1.28.08-1.91.08-4.66,0-8.88-1.51-12.55-4.49-1.56-1.27-2.88-2.68-3.96-4.24-8.91,9.2-19.9,14.42-32.78,15.54-2.19.19-4.33.29-6.38.29v.03Z" style="fill:#fff;"/><path d="M646.428,232.975c-14,0-24.83-3.28-32.19-9.74-8.94-7.84-14.17-21.67-15.97-42.28l-3.03-34.67-5.5.48c-.59.05-1.19.08-1.77.08-4.61,0-8.82-1.58-12.53-4.69-4.13-3.46-6.56-8.06-7.02-13.28l-.33-3.83c-.46-5.29,1.09-10.1,4.61-14.3,3.47-4.14,8.06-6.56,13.28-7.02l5.5-.48-2.26-25.82c-.46-5.22,1.14-10.16,4.61-14.3s8.07-6.57,13.28-7.02l18.17-1.59c.59-.05,1.19-.08,1.77-.08,4.6,0,8.82,1.58,12.52,4.68,4.14,3.48,6.57,8.07,7.03,13.28l2.26,25.82,17.45-1.53c.59-.05,1.19-.08,1.77-.08,4.6,0,8.81,1.58,12.52,4.68,4.14,3.48,6.57,8.07,7.03,13.28l.33,3.82c.46,5.22-1.14,10.16-4.61,14.3s-8.06,6.56-13.28,7.02l-17.46,1.53,2.62,29.89c.96,10.99,2.33,13.91,2.65,14.46.21.12,1.15.56,3.6.56.7,0,1.46-.04,2.28-.11,1.92-.17,4.34-.6,7.19-1.28,1.43-.33,2.84-.5,4.21-.5,3.44,0,6.75,1,9.84,2.98,4.55,2.92,7.19,7.21,7.65,12.41l.54,6.22c.47,5.35-.79,10.33-3.75,14.8-3.08,4.65-7.34,7.59-12.66,8.75-5.77,1.34-12.83,2.38-21.01,3.1-3.26.29-6.41.43-9.36.43l.02.03Z" style="fill:#fff;"/><path d="M52.118,278.895c-8.67,0-15.93-2.53-22.2-7.73-7.22-5.99-11.18-14.04-12.1-24.63-1.17-13.4,2.82-23.57,12.2-31.08,9.61-7.7,25.04-12.53,45.86-14.35l7.41-.65c1.91-.17,3.01-1.04,3.6-1.74.59-.7,1.25-1.94,1.09-3.85l-.02-.25c-.9-10.3-7.13-15.75-18.01-15.75-1.03,0-2.11.05-3.23.15-9.7.85-22.23,3.42-37.23,7.65-.81.23-1.6.34-2.35.34-1.54,0-3-.47-4.46-1.44-2.14-1.41-3.24-3.29-3.47-5.89l-.33-3.83c-.29-3.33.46-6.34,2.3-9.2,1.78-2.77,4.13-4.5,7.17-5.28,15.33-4.2,28.29-6.77,38.58-7.67,4.36-.38,8.53-.57,12.4-.57,14.06,0,24.93,2.54,32.33,7.55,9.24,6.27,14.62,17.33,15.98,32.88l5.71,65.27c.25,2.87-.58,5.39-2.54,7.73-1.96,2.33-4.31,3.59-7.17,3.84l-15.06,1.32c-.38.03-.75.05-1.12.05-2.58,0-4.82-.81-6.87-2.47-2.33-1.9-3.66-4.29-4.06-7.3l-.16-1.85c-.15-1.69-1.53-2.96-3.21-2.96-.09,0-.21,0-.29.01-.95.08-1.84.56-2.49,1.34-.05.06-.1.12-.15.19-8.7,12.21-19.83,18.75-34.02,19.99-1.37.12-2.73.18-4.04.18h-.05ZM85.558,219.545c-.19,0-.39,0-.6.03l-7.41.65c-8.6.75-14.86,2.62-19.12,5.71-4.6,3.34-6.77,8.17-6.26,13.97.71,8.09,5.63,12.54,13.85,12.54h0c.73,0,1.5-.04,2.29-.1,6.99-.61,12.68-3.38,16.91-8.22,4.26-4.88,6.1-11.08,5.46-18.43l-.13-1.44c-.25-2.86-2.21-4.72-4.99-4.72v.01Z" style="fill:#f9d2d4;"/><path d="M173.048,266.035c-2.47,0-4.67-.84-6.74-2.58-2.33-1.96-3.59-4.3-3.84-7.17l-13.3-152.06c-.25-2.87.58-5.39,2.54-7.73,1.96-2.33,4.3-3.59,7.17-3.84l18.17-1.59c.33-.03.66-.04.98-.04,2.47,0,4.67.84,6.74,2.58,2.33,1.96,3.59,4.31,3.84,7.17l4.64,53.08c.14,1.68,1.52,2.96,3.21,2.96.08,0,.21,0,.29-.01.92-.08,1.77-.52,2.42-1.25,9.28-9.72,20.03-15.17,31.96-16.22,1.53-.13,3.04-.2,4.51-.2,11.78,0,21.39,4.19,29.39,12.82,9.07,9.78,14.56,24.93,16.31,45.03,1.72,19.61-1.26,35.37-8.86,46.84-7.55,11.41-17.56,17.51-30.58,18.65-1.55.14-3.1.2-4.61.21-12.51,0-23.09-4.56-32.34-13.95-.08-.08-.16-.15-.24-.22-.89-.72-1.77-.87-2.36-.87-.09,0-.21,0-.3.01-1.81.16-3.1,1.71-2.95,3.51l.16,1.85c.12,3.04-.77,5.63-2.73,7.9-1.97,2.27-4.41,3.51-7.45,3.78l-15.06,1.32c-.33.03-.66.04-.99.04l.02-.02ZM219.208,168.185c-.78,0-1.59.04-2.41.11-6.15.54-11.43,3.12-15.68,7.69-4.33,4.65-6.28,9.79-5.8,15.27l2.3,26.3c.48,5.49,3.29,10.21,8.37,14.03,4.35,3.28,9.22,4.95,14.5,4.95.75,0,1.51-.03,2.28-.1,7.21-.63,12.75-4.18,16.47-10.54,3.52-6.02,4.81-14.62,3.86-25.57-1.87-21.33-9.9-32.14-23.88-32.14h-.01Z" style="fill:#f9d2d4;"/><path d="M356.688,252.055c-15.6,0-28.53-4.25-38.43-12.62-11.63-9.82-18.38-24.61-20.08-43.95-1.69-19.33,2.39-35.06,12.14-46.76,9.74-11.69,24.56-18.49,44.04-20.19,2.88-.25,5.72-.38,8.44-.38,15.6,0,28.53,4.24,38.44,12.62,11.63,9.83,18.38,24.62,20.08,43.94,1.69,19.33-2.39,35.06-12.14,46.76-9.74,11.69-24.56,18.48-44.04,20.19-2.89.25-5.73.38-8.44.38l-.01.01ZM358.958,153.545c-.78,0-1.59.04-2.41.11-7.79.68-13.29,4.21-16.36,10.48-2.86,5.84-3.7,14.97-2.57,27.92s3.55,21.8,7.38,27.05c3.67,5.03,8.89,7.58,15.52,7.58h0c.78,0,1.59-.04,2.41-.11,7.78-.68,13.28-4.21,16.36-10.48,2.86-5.84,3.7-14.98,2.57-27.92s-3.54-21.79-7.38-27.05c-3.67-5.03-8.89-7.58-15.52-7.58h0Z" style="fill:#f9d2d4;"/><path d="M478.938,241.485c-10.2,0-18.01-2.82-23.23-8.39-6.32-6.73-10.35-19.62-11.98-38.29l-5.29-60.49c-.25-2.87.58-5.4,2.54-7.73,1.96-2.33,4.3-3.59,7.17-3.84l16.97-1.49c.33-.03.66-.04.98-.04,2.47,0,4.67.85,6.75,2.58,2.33,1.96,3.59,4.3,3.84,7.17l5.08,58.1c.71,8.07,2.36,13.47,5.04,16.52,2.49,2.84,6.13,4.28,10.81,4.28h0c.71,0,1.46-.03,2.22-.1,5.23-.46,9.88-2.92,13.82-7.32,4-4.46,5.81-9.25,5.37-14.23l-5.29-60.49c-.25-2.87.58-5.4,2.54-7.73,1.96-2.33,4.3-3.59,7.17-3.84l18.17-1.59c.33-.03.66-.04.98-.04,2.47,0,4.67.84,6.75,2.58,2.33,1.96,3.59,4.31,3.84,7.17l8.49,97.07c.25,2.87-.58,5.39-2.54,7.73-1.96,2.33-4.3,3.59-7.17,3.84l-16.26,1.42c-.38.03-.76.05-1.13.05-2.57,0-4.82-.81-6.87-2.47-2.33-1.89-3.66-4.28-4.06-7.31l-.16-1.85c-.15-1.69-1.53-2.96-3.21-2.96-.09,0-.21,0-.29.01-1.28.11-2.04.71-2.45,1.2-.18.22-.33.45-.45.7-8.35,11.94-19.01,18.32-32.57,19.51-1.93.17-3.81.25-5.59.25l.01.02Z" style="fill:#f9d2d4;"/><path d="M643.428,226.975c-11.75,0-20.58-2.52-26.25-7.5-7.02-6.16-11.37-18.37-12.94-36.3l-3.37-38.49c-.25-2.86-2.21-4.72-4.99-4.72-.19,0-.39,0-.6.03l-9.32.82c-.33.03-.66.04-.99.04-2.47,0-4.67-.84-6.74-2.58-2.33-1.96-3.59-4.3-3.84-7.17l-.33-3.82c-.25-2.87.58-5.4,2.54-7.73,1.96-2.33,4.3-3.59,7.17-3.84l9.33-.82c3.07-.27,4.96-2.52,4.69-5.59l-2.59-29.65c-.25-2.87.58-5.4,2.54-7.73,1.96-2.33,4.3-3.59,7.17-3.84l18.17-1.59c.33-.03.66-.04.99-.04,2.46,0,4.67.84,6.74,2.58,2.33,1.96,3.59,4.31,3.84,7.17l2.59,29.65c.25,2.87,2.21,4.72,4.99,4.72.19,0,.39,0,.6-.03l21.28-1.86c.33-.03.66-.04.99-.04,2.46,0,4.67.84,6.74,2.58,2.33,1.96,3.59,4.31,3.84,7.17l.33,3.83c.25,2.87-.58,5.4-2.54,7.73-1.96,2.33-4.3,3.59-7.17,3.84l-21.28,1.86c-3.08.27-4.96,2.52-4.69,5.59l2.95,33.71c1.18,13.52,3.08,17.43,4.61,19.34,2.07,2.59,5.64,3.9,10.61,3.9.96,0,1.99-.05,3.07-.14,2.36-.21,5.22-.71,8.5-1.5.71-.16,1.42-.25,2.11-.25,1.72,0,3.35.51,4.99,1.56,2.2,1.41,3.32,3.2,3.54,5.62l.54,6.22c.29,3.32-.46,6.28-2.29,9.05-1.77,2.67-4.09,4.28-7.1,4.93-5.41,1.26-12.07,2.24-19.85,2.92-3,.26-5.88.4-8.57.4l-.01-.03Z" style="fill:#f9d2d4;"/><path d="M58.118,272.895c-8.67,0-15.93-2.53-22.2-7.73-7.22-5.99-11.18-14.04-12.1-24.63-1.17-13.4,2.82-23.57,12.2-31.08,9.61-7.7,25.04-12.53,45.86-14.35l7.41-.65c1.91-.17,3.01-1.04,3.6-1.74.59-.7,1.25-1.94,1.09-3.85l-.02-.25c-.9-10.3-7.13-15.75-18.01-15.75-1.03,0-2.11.05-3.23.15-9.7.85-22.23,3.42-37.23,7.65-.81.23-1.6.34-2.35.34-1.54,0-3-.47-4.46-1.44-2.14-1.41-3.24-3.29-3.47-5.89l-.33-3.83c-.29-3.33.46-6.34,2.3-9.2,1.78-2.77,4.13-4.5,7.17-5.28,15.33-4.2,28.29-6.77,38.58-7.67,4.36-.38,8.53-.57,12.4-.57,14.06,0,24.93,2.54,32.33,7.55,9.24,6.27,14.62,17.33,15.98,32.88l5.71,65.27c.25,2.87-.58,5.39-2.54,7.73-1.96,2.33-4.31,3.59-7.17,3.84l-15.06,1.32c-.38.03-.75.05-1.12.05-2.58,0-4.82-.81-6.87-2.47-2.33-1.9-3.66-4.29-4.06-7.3l-.16-1.85c-.15-1.69-1.53-2.96-3.21-2.96-.09,0-.21,0-.29.01-.95.08-1.84.56-2.49,1.34-.05.06-.1.12-.15.19-8.7,12.21-19.83,18.75-34.02,19.99-1.37.12-2.73.18-4.04.18h-.05ZM91.558,213.545c-.19,0-.39,0-.6.03l-7.41.65c-8.6.75-14.86,2.62-19.12,5.71-4.6,3.34-6.77,8.17-6.26,13.97.71,8.09,5.63,12.54,13.85,12.54h0c.73,0,1.5-.04,2.29-.1,6.99-.61,12.68-3.38,16.91-8.22,4.26-4.88,6.1-11.08,5.46-18.43l-.13-1.44c-.25-2.86-2.21-4.72-4.99-4.72v.01Z" style="fill:#fff;"/><path d="M179.048,260.035c-2.47,0-4.67-.84-6.74-2.58-2.33-1.96-3.59-4.3-3.84-7.17l-13.3-152.06c-.25-2.87.58-5.39,2.54-7.73,1.96-2.33,4.3-3.59,7.17-3.84l18.17-1.59c.33-.03.66-.04.98-.04,2.47,0,4.67.84,6.74,2.58,2.33,1.96,3.59,4.31,3.84,7.17l4.64,53.08c.14,1.68,1.52,2.96,3.21,2.96.08,0,.21,0,.29-.01.92-.08,1.77-.52,2.42-1.25,9.28-9.72,20.03-15.17,31.96-16.22,1.53-.13,3.04-.2,4.51-.2,11.78,0,21.39,4.19,29.39,12.82,9.07,9.78,14.56,24.93,16.31,45.03,1.72,19.61-1.26,35.37-8.86,46.84-7.55,11.41-17.56,17.51-30.58,18.65-1.55.14-3.1.2-4.61.21-12.51,0-23.09-4.56-32.34-13.95-.08-.08-.16-.15-.24-.22-.89-.72-1.77-.87-2.36-.87-.09,0-.21,0-.3.01-1.81.16-3.1,1.71-2.95,3.51l.16,1.85c.12,3.04-.77,5.63-2.73,7.9-1.97,2.27-4.41,3.51-7.45,3.78l-15.06,1.32c-.33.03-.66.04-.99.04l.02-.02ZM225.208,162.185c-.78,0-1.59.04-2.41.11-6.15.54-11.43,3.12-15.68,7.69-4.33,4.65-6.28,9.79-5.8,15.27l2.3,26.3c.48,5.49,3.29,10.21,8.37,14.03,4.35,3.28,9.22,4.95,14.5,4.95.75,0,1.51-.03,2.28-.1,7.21-.63,12.75-4.18,16.47-10.54,3.52-6.02,4.81-14.62,3.86-25.57-1.87-21.33-9.9-32.14-23.88-32.14h-.01Z" style="fill:#fff;"/><path d="M362.688,246.055c-15.6,0-28.53-4.25-38.43-12.62-11.63-9.82-18.38-24.61-20.08-43.95-1.69-19.33,2.39-35.06,12.14-46.76,9.74-11.69,24.56-18.49,44.04-20.19,2.88-.25,5.72-.38,8.44-.38,15.6,0,28.53,4.24,38.44,12.62,11.63,9.83,18.38,24.62,20.08,43.94,1.69,19.33-2.39,35.06-12.14,46.76-9.74,11.69-24.56,18.48-44.04,20.19-2.89.25-5.73.38-8.44.38l-.01.01ZM364.958,147.545c-.78,0-1.59.04-2.41.11-7.79.68-13.29,4.21-16.36,10.48-2.86,5.84-3.7,14.97-2.57,27.92s3.55,21.8,7.38,27.05c3.67,5.03,8.89,7.58,15.52,7.58h0c.78,0,1.59-.04,2.41-.11,7.78-.68,13.28-4.21,16.36-10.48,2.86-5.84,3.7-14.98,2.57-27.92s-3.54-21.79-7.38-27.05c-3.67-5.03-8.89-7.58-15.52-7.58h0Z" style="fill:#fff;"/><path d="M484.938,235.485c-10.2,0-18.01-2.82-23.23-8.39-6.32-6.73-10.35-19.62-11.98-38.29l-5.29-60.49c-.25-2.87.58-5.4,2.54-7.73,1.96-2.33,4.3-3.59,7.17-3.84l16.97-1.49c.33-.03.66-.04.98-.04,2.47,0,4.67.85,6.75,2.58,2.33,1.96,3.59,4.3,3.84,7.17l5.08,58.1c.71,8.07,2.36,13.47,5.04,16.52,2.49,2.84,6.13,4.28,10.81,4.28h0c.71,0,1.46-.03,2.22-.1,5.23-.46,9.88-2.92,13.82-7.32,4-4.46,5.81-9.25,5.37-14.23l-5.29-60.49c-.25-2.87.58-5.4,2.54-7.73,1.96-2.33,4.3-3.59,7.17-3.84l18.17-1.59c.33-.03.66-.04.98-.04,2.47,0,4.67.84,6.75,2.58,2.33,1.96,3.59,4.31,3.84,7.17l8.49,97.07c.25,2.87-.58,5.39-2.54,7.73-1.96,2.33-4.3,3.59-7.17,3.84l-16.26,1.42c-.38.03-.76.05-1.13.05-2.57,0-4.82-.81-6.87-2.47-2.33-1.89-3.66-4.28-4.06-7.31l-.16-1.85c-.15-1.69-1.53-2.96-3.21-2.96-.09,0-.21,0-.29.01-1.28.11-2.04.71-2.45,1.2-.18.22-.33.45-.45.7-8.35,11.94-19.01,18.32-32.57,19.51-1.93.17-3.81.25-5.59.25l.01.02Z" style="fill:#fff;"/><path d="M649.428,220.975c-11.75,0-20.58-2.52-26.25-7.5-7.02-6.16-11.37-18.37-12.94-36.3l-3.37-38.49c-.25-2.86-2.21-4.72-4.99-4.72-.19,0-.39,0-.6.03l-9.32.82c-.33.03-.66.04-.99.04-2.47,0-4.67-.84-6.74-2.58-2.33-1.96-3.59-4.3-3.84-7.17l-.33-3.82c-.25-2.87.58-5.4,2.54-7.73,1.96-2.33,4.3-3.59,7.17-3.84l9.33-.82c3.07-.27,4.96-2.52,4.69-5.59l-2.59-29.65c-.25-2.87.58-5.4,2.54-7.73,1.96-2.33,4.3-3.59,7.17-3.84l18.17-1.59c.33-.03.66-.04.99-.04,2.46,0,4.67.84,6.74,2.58,2.33,1.96,3.59,4.31,3.84,7.17l2.59,29.65c.25,2.87,2.21,4.72,4.99,4.72.19,0,.39,0,.6-.03l21.28-1.86c.33-.03.66-.04.99-.04,2.46,0,4.67.84,6.74,2.58,2.33,1.96,3.59,4.31,3.84,7.17l.33,3.83c.25,2.87-.58,5.4-2.54,7.73-1.96,2.33-4.3,3.59-7.17,3.84l-21.28,1.86c-3.08.27-4.96,2.52-4.69,5.59l2.95,33.71c1.18,13.52,3.08,17.43,4.61,19.34,2.07,2.59,5.64,3.9,10.61,3.9.96,0,1.99-.05,3.07-.14,2.36-.21,5.22-.71,8.5-1.5.71-.16,1.42-.25,2.11-.25,1.72,0,3.35.51,4.99,1.56,2.2,1.41,3.32,3.2,3.54,5.62l.54,6.22c.29,3.32-.46,6.28-2.29,9.05-1.77,2.67-4.09,4.28-7.1,4.93-5.41,1.26-12.07,2.24-19.85,2.92-3,.26-5.88.4-8.57.4l-.01-.03Z" style="fill:#fff;"/><path d="M323.218,476.905c-.84,0-1.7-.04-2.56-.11l-21.99-1.92c-7.74-.68-14.46-4.26-19.42-10.37-4.86-5.96-7.08-13.12-6.41-20.68l9.32-106.51-16.38-1.43c-7.65-.67-14.36-4.2-19.4-10.21-5.03-5.99-7.34-13.21-6.67-20.86l1.07-12.19c.67-7.64,4.2-14.35,10.2-19.39,5.3-4.45,11.63-6.79,18.31-6.79.84,0,1.71.04,2.56.11l111.41,9.75c7.64.67,14.35,4.2,19.39,10.2,5.04,6.02,7.35,13.23,6.68,20.87l-1.07,12.19c-.67,7.65-4.2,14.35-10.2,19.39-5.29,4.44-11.62,6.79-18.31,6.79-.84,0-1.7-.04-2.56-.11l-16.38-1.43-9.32,106.51c-.66,7.57-4.09,14.23-9.92,19.26-5.24,4.54-11.6,6.94-18.36,6.94l.01-.01Z" style="fill:#e5006a;"/><path d="M413.348,484.795c-.84,0-1.7-.04-2.56-.11l-19.37-1.69c-7.66-.67-14.36-4.2-19.4-10.21-5.03-5.99-7.34-13.21-6.67-20.86l8.49-97.07c.67-7.64,4.2-14.35,10.2-19.39,5.3-4.44,11.63-6.79,18.31-6.79.84,0,1.71.04,2.56.11l18.17,1.59c7.64.67,14.34,4.19,19.38,10.19.79.94,1.51,1.92,2.17,2.92,9.42-4.74,19.93-7.37,31.44-7.87.41-.02.81-.03,1.2-.03,7.85,0,15.02,3.39,20.19,9.54,5.05,6.03,7.35,13.32,6.67,21.12l-.54,6.22c-.66,7.55-4.04,14.17-9.77,19.13-5.35,4.63-12,7.21-19.24,7.48-8.93.38-15.94,2.84-21.34,7.52-5.05,4.38-7.69,9.66-8.3,16.62l-3.1,35.38c-.67,7.65-4.2,14.35-10.2,19.39-5.29,4.44-11.63,6.79-18.31,6.79l.02.02Z" style="fill:#e5006a;"/><path d="M595.048,500.685c-.84,0-1.7-.04-2.55-.11l-15.06-1.32c-7.18-.63-13.52-3.65-18.42-8.75-8.74,4.52-18.23,6.8-28.38,6.81-1.97,0-3.99-.09-6.01-.27-15.18-1.33-27.52-7.48-36.69-18.28-9.21-10.85-13.2-24.16-11.85-39.57,1.49-16.99,8.93-30.65,21.53-39.5,1.02-.72,2.07-1.4,3.16-2.06-1.32-.87-2.58-1.88-3.77-3.01-5.82-5.51-8.65-12.99-7.94-21.04l.33-3.82c.64-7.26,3.6-13.94,8.58-19.32,5.28-5.7,12.08-9.04,19.66-9.67,10.29-.95,19.66-1.44,27.86-1.44,5.24,0,10.14.2,14.57.58,24.81,2.17,42.4,8.6,53.8,19.65,12.09,11.73,17.28,28.44,15.43,49.65l-5.71,65.27c-.67,7.65-4.2,14.35-10.2,19.39-5.3,4.44-11.63,6.79-18.31,6.79l-.03.02Z" style="fill:#e5006a;"/><path d="M739.598,513.335c-.84,0-1.7-.04-2.55-.11l-16.98-1.49c-7.66-.67-14.36-4.2-19.4-10.21-5.03-5.98-7.34-13.2-6.67-20.86l5.08-58.1c.15-1.66.19-2.97.19-3.99-.52.22-1.09.62-1.44.9-.53.42-.82.72-.97.9l-5.26,60.08c-.67,7.65-4.2,14.36-10.21,19.39-5.29,4.44-11.62,6.79-18.31,6.79-.84,0-1.7-.04-2.56-.11l-18.17-1.59c-7.65-.67-14.36-4.2-19.4-10.21-5.03-5.99-7.34-13.21-6.67-20.86l8.49-97.07c.67-7.65,4.2-14.35,10.2-19.39,5.29-4.44,11.63-6.79,18.31-6.79.84,0,1.71.04,2.56.11l16.26,1.42c7.1.62,13.38,3.58,18.26,8.59,8.51-4.48,17.75-6.74,27.63-6.74,1.88,0,3.8.08,5.72.25,19.35,1.69,33.31,9.13,41.49,22.1,7.44,11.81,10.04,29.04,7.97,52.69l-5.08,58.1c-.67,7.65-4.2,14.36-10.21,19.39-5.29,4.44-11.62,6.79-18.31,6.79l.03.02Z" style="fill:#e5006a;"/><path d="M833.848,523.615c-3.69,0-7.6-.18-11.61-.53-13.94-1.22-28.05-3.84-41.92-7.79-.07-.02-.14-.04-.21-.06-7.16-2.16-13.11-6.67-17.22-13.06-3.96-6.14-5.72-13.32-5.07-20.74l.54-6.21c.72-8.23,5.04-15.05,12.15-19.19,2.16-1.26,4.41-2.19,6.72-2.78-.37-.37-.73-.74-1.08-1.11-10.17-10.76-14.8-24.89-13.4-40.85,1.48-16.9,9.69-30.24,23.74-38.58,10.06-5.96,23.19-8.99,39.03-8.99,4.11,0,8.48.2,13.01.6,13.09,1.14,25.35,3.08,36.44,5.77.04,0,.08.02.13.03,7.47,1.88,13.68,6.18,17.95,12.45,4.14,6.09,5.98,13.2,5.33,20.59l-.44,5.02c-.7,7.97-4.87,14.79-11.75,19.2-1.93,1.24-3.93,2.21-5.99,2.91.9.81,1.75,1.65,2.56,2.5,10.11,10.67,14.47,24.77,12.97,41.92-1.51,17.23-9.52,30.85-23.17,39.39-10.09,6.32-23.12,9.52-38.71,9.52v-.01Z" style="fill:#e5006a;"/><path d="M323.218,467.905c-.58,0-1.18-.03-1.77-.08l-21.99-1.92c-5.26-.46-9.83-2.91-13.22-7.08-3.4-4.17-4.89-8.96-4.43-14.22l10.1-115.48-25.34-2.22c-5.22-.46-9.82-2.89-13.29-7.03-3.47-4.13-5.06-9.08-4.61-14.3l1.07-12.19c.46-5.22,2.88-9.81,7.02-13.28,3.71-3.11,7.92-4.69,12.53-4.69.58,0,1.18.03,1.77.08l111.41,9.75c5.21.46,9.81,2.88,13.28,7.02,3.47,4.14,5.07,9.09,4.61,14.3l-1.07,12.19c-.46,5.22-2.89,9.81-7.02,13.28-3.7,3.11-7.92,4.69-12.53,4.69-.58,0-1.18-.03-1.77-.08l-25.34-2.22-10.1,115.48c-.46,5.26-2.76,9.71-6.84,13.23-3.64,3.15-7.84,4.75-12.47,4.75v.02Z" style="fill:#fff;"/><path d="M413.348,475.795c-.58,0-1.18-.03-1.77-.08l-19.37-1.69c-5.22-.46-9.82-2.89-13.28-7.03-3.47-4.13-5.06-9.07-4.61-14.3l8.49-97.07c.46-5.22,2.88-9.81,7.02-13.28,3.71-3.11,7.92-4.69,12.53-4.69.58,0,1.18.03,1.77.08l18.17,1.59c5.21.46,9.8,2.88,13.28,7.02,2.59,3.09,4.13,6.62,4.56,10.38,10.34-7.47,22.51-11.54,36.33-12.13.28-.01.55-.02.82-.02,5.22,0,9.82,2.19,13.3,6.33,3.48,4.15,5.06,9.17,4.59,14.54l-.54,6.22c-.46,5.25-2.71,9.66-6.7,13.12-3.83,3.32-8.43,5.09-13.68,5.29-11.09.47-19.9,3.64-26.9,9.71-6.83,5.92-10.55,13.33-11.37,22.64l-3.1,35.38c-.46,5.22-2.89,9.81-7.02,13.28-3.71,3.11-7.92,4.69-12.53,4.69l.01.02Z" style="fill:#fff;"/><path d="M595.048,491.685c-.58,0-1.18-.03-1.77-.08l-15.06-1.32c-5.42-.47-9.95-2.78-13.47-6.86-1.35-1.56-2.42-3.22-3.22-4.99-9.27,6.55-19.62,9.87-30.89,9.87-1.71,0-3.47-.08-5.22-.23-12.73-1.11-23.04-6.21-30.62-15.14-7.6-8.95-10.88-20.04-9.75-32.96,1.27-14.47,7.23-25.54,17.73-32.92,10.01-7.03,24.28-10.6,42.4-10.6,4.6,0,9.54.23,14.68.68l3.12.27c-.36-1.71-1.09-2.46-1.41-2.78-1.52-1.55-4.45-2.55-8.47-2.9-3.17-.28-6.76-.42-10.65-.42-7.3,0-15.93.5-25.67,1.47-.62.06-1.25.1-1.87.1-4.39,0-8.45-1.65-11.74-4.78-3.85-3.64-5.64-8.39-5.17-13.72l.33-3.82c.47-5.33,2.56-10.03,6.22-13.99,3.8-4.1,8.47-6.39,13.88-6.82,9.96-.93,19.08-1.4,27.03-1.4,4.97,0,9.61.19,13.79.55,22.66,1.98,38.47,7.59,48.32,17.14,10.05,9.76,14.34,24.02,12.73,42.41l-5.71,65.27c-.46,5.22-2.88,9.81-7.02,13.28-3.71,3.11-7.92,4.69-12.53,4.69h.01ZM551.428,433.955c-12.85,0-13.28,4.93-13.47,7.04-.11,1.24-.08,2.89.69,3.72.44.47,1.66,1.31,4.87,1.59.65.06,1.29.09,1.91.09,3.81,0,6.99-1.08,9.74-3.29,2.58-2.08,4.2-4.91,4.92-8.6l-3.46-.3c-1.85-.16-3.59-.24-5.2-.24v-.01Z" style="fill:#fff;"/><path d="M739.598,504.335c-.58,0-1.18-.03-1.77-.08l-16.98-1.49c-5.22-.46-9.82-2.89-13.28-7.03-3.47-4.13-5.06-9.07-4.61-14.3l5.08-58.1c.73-8.32-.49-10.98-.88-11.6-.74-1.16-3.05-1.99-6.33-2.28-.31-.03-.62-.04-.93-.04-2.58,0-5.07.97-7.61,2.97-2.71,2.13-4.14,4.35-4.35,6.79l-5.29,60.49c-.46,5.22-2.89,9.81-7.02,13.28-3.7,3.11-7.92,4.68-12.52,4.69-.58,0-1.18-.03-1.77-.08l-18.17-1.59c-5.22-.46-9.82-2.89-13.28-7.03-3.47-4.13-5.06-9.07-4.61-14.3l8.49-97.07c.46-5.22,2.88-9.81,7.02-13.28,3.71-3.11,7.92-4.69,12.53-4.69.58,0,1.18.03,1.77.08l16.26,1.42c5.41.47,9.94,2.78,13.47,6.85,1.32,1.52,2.37,3.15,3.16,4.87,9.03-6.53,19.09-9.83,30.04-9.83,1.62,0,3.28.07,4.94.22,16.4,1.43,28.06,7.47,34.67,17.94,6.35,10.08,8.51,25.49,6.62,47.11l-5.08,58.1c-.46,5.22-2.89,9.81-7.02,13.28-3.7,3.11-7.92,4.69-12.53,4.69l-.02.01Z" style="fill:#fff;"/><path d="M833.848,514.615c-3.43,0-7.07-.17-10.83-.5-13.38-1.17-26.91-3.69-40.23-7.48-5.24-1.58-9.35-4.71-12.33-9.33-2.92-4.52-4.15-9.6-3.67-15.09l.54-6.22c.46-5.31,3.13-9.53,7.71-12.2,2.67-1.55,5.5-2.34,8.41-2.34,1.84,0,3.71.32,5.56.96,11.15,3.73,21.9,6.07,31.9,6.95.97.08,1.88.13,2.7.13,3.48,0,4.46-.73,4.56-.81,0-.01.04-.12.06-.36.03-.3.02-.51.01-.65-.48-.27-1.95-.98-5.5-1.83-18.82-4.77-31.9-11.27-40.04-19.9-8.47-8.96-12.17-20.37-10.98-33.89,1.23-14.09,7.75-24.73,19.37-31.63,8.65-5.13,20.23-7.73,34.44-7.73,3.84,0,7.96.19,12.23.56,12.65,1.11,24.46,2.97,35.11,5.55,5.42,1.36,9.7,4.32,12.75,8.8,3,4.41,4.27,9.37,3.8,14.74l-.44,5.02c-.46,5.21-3.1,9.5-7.65,12.41-2.98,1.91-6.16,2.87-9.46,2.87-1.59,0-3.21-.23-4.82-.68-9.17-2.65-18.75-4.42-28.52-5.28-1.55-.14-2.95-.21-4.17-.21-2.67,0-3.77.33-4.02.43-.01.06-.03.15-.03.26-.13,1.51,2.77,2.41,5.23,2.9.04,0,.08.02.12.03,19.33,4.28,32.61,10.46,40.58,18.86,8.26,8.71,11.8,20.47,10.54,34.94-1.27,14.51-7.65,25.46-18.98,32.54-8.64,5.41-20.06,8.15-33.94,8.15l-.01.03Z" style="fill:#fff;"/><path d="M320.218,461.905c-.32,0-.65-.01-.98-.04l-22-1.92c-2.85-.25-5.15-1.49-7.02-3.79-1.9-2.33-2.7-4.87-2.45-7.75l10.44-119.3c.27-3.08-1.62-5.32-4.69-5.59l-29.17-2.55c-2.87-.25-5.22-1.51-7.17-3.84-1.96-2.33-2.79-4.86-2.54-7.73l1.07-12.19c.25-2.87,1.51-5.21,3.84-7.17,2.07-1.74,4.28-2.58,6.74-2.58.33,0,.66.01.99.04l111.41,9.75c2.87.25,5.21,1.51,7.17,3.84,1.96,2.33,2.79,4.86,2.54,7.73l-1.07,12.19c-.25,2.87-1.51,5.21-3.84,7.17-2.07,1.74-4.27,2.58-6.74,2.58-.33,0-.65-.02-.99-.04l-29.17-2.55c-.21-.02-.41-.03-.6-.03-2.78,0-4.75,1.85-4.99,4.72l-10.44,119.3c-.25,2.89-1.48,5.25-3.75,7.21-1.99,1.73-4.15,2.56-6.59,2.56v-.02Z" style="fill:#f9d2d4;"/><path d="M410.348,469.795c-.33,0-.65-.02-.99-.04l-19.37-1.69c-2.87-.25-5.22-1.51-7.17-3.84-1.96-2.33-2.79-4.86-2.54-7.73l8.49-97.07c.25-2.87,1.51-5.21,3.84-7.17,2.07-1.74,4.27-2.58,6.74-2.58.33,0,.66.01.99.04l18.17,1.59c2.87.25,5.21,1.51,7.17,3.84,1.96,2.33,2.79,4.86,2.54,7.73l-.88,10.04c-.15,1.81,1.14,3.35,2.93,3.51.09,0,.22.01.31.01h0c.6,0,1.5-.16,2.38-.9.1-.09.2-.18.3-.28,10.59-11.68,24.24-17.95,40.58-18.65h.43c2.58,0,4.62.99,6.42,3.13,1.96,2.33,2.78,4.94,2.52,7.97l-.54,6.22c-.25,2.88-1.44,5.21-3.63,7.1-2.27,1.96-4.92,2.97-8.12,3.09-13.07.55-23.98,4.55-32.46,11.91-8.57,7.42-13.42,17.07-14.44,28.66l-3.1,35.38c-.25,2.87-1.51,5.21-3.84,7.17-2.07,1.74-4.28,2.58-6.74,2.58l.01-.02Z" style="fill:#f9d2d4;"/><path d="M592.048,485.685c-.33,0-.65-.02-.99-.04l-15.06-1.32c-3.05-.27-5.48-1.5-7.45-3.78-1.97-2.27-2.86-4.86-2.73-7.9l.16-1.85c.08-.87-.18-1.71-.73-2.37s-1.34-1.07-2.22-1.14c-.09,0-.21-.01-.3-.01-.86,0-1.69.31-2.39.91-.06.05-.11.1-.17.15-9.43,9.27-20.38,13.97-32.54,13.97-1.45,0-2.94-.07-4.44-.2-10.44-.91-18.46-4.84-24.54-12-6.07-7.15-8.57-15.77-7.64-26.35,2.08-23.76,18.82-35.3,51.17-35.3,4.34,0,9.01.22,13.9.64l7.41.65c.21.02.41.03.6.03,2.78,0,4.74-1.85,4.99-4.72l.02-.25c.5-5.67-.88-10.2-4.09-13.48-3.08-3.15-7.83-5.02-14.12-5.57-3.43-.3-7.28-.45-11.43-.45-7.6,0-16.53.51-26.56,1.52-.33.03-.65.05-.97.05-2.1,0-3.91-.75-5.55-2.31-1.87-1.76-2.63-3.8-2.4-6.4l.33-3.83c.29-3.33,1.55-6.17,3.86-8.66,2.24-2.42,4.85-3.71,7.98-3.96,9.81-.91,18.66-1.37,26.33-1.37,4.71,0,9.09.17,13,.52,20.23,1.77,34.65,6.7,42.83,14.64,8.01,7.78,11.39,19.61,10.03,35.16l-5.71,65.27c-.25,2.87-1.51,5.21-3.84,7.17-2.07,1.74-4.28,2.58-6.74,2.58h0ZM548.428,427.955c-17.44,0-21.82,8.3-22.43,15.26-.39,4.45.64,8.03,3.08,10.64,2.35,2.52,5.94,4,10.66,4.42.91.08,1.82.12,2.69.12,5.86,0,11.04-1.78,15.38-5.28,5.04-4.06,7.93-9.85,8.57-17.2l.13-1.43c.27-3.08-1.62-5.32-4.69-5.59l-7.41-.65c-2.11-.18-4.12-.28-5.98-.28v-.01Z" style="fill:#f9d2d4;"/><path d="M736.598,498.335c-.33,0-.65-.02-.99-.04l-16.97-1.49c-2.87-.25-5.22-1.51-7.17-3.84-1.96-2.33-2.79-4.86-2.54-7.73l5.08-58.1c.71-8.07-.03-13.7-2.24-17.2-2.36-3.71-6.79-5.87-13.16-6.43-.57-.05-1.15-.08-1.72-.08-4.6,0-9.03,1.64-13.17,4.89-4.71,3.7-7.32,8.1-7.76,13.08l-5.29,60.49c-.25,2.87-1.51,5.21-3.84,7.17-2.07,1.74-4.27,2.58-6.74,2.58-.33,0-.66-.02-.99-.04l-18.17-1.59c-2.87-.25-5.22-1.51-7.17-3.84-1.96-2.33-2.79-4.86-2.54-7.73l8.49-97.07c.25-2.87,1.51-5.21,3.84-7.17,2.07-1.74,4.27-2.58,6.74-2.58.33,0,.66.01.99.04l16.26,1.42c3.04.27,5.48,1.5,7.45,3.78,1.96,2.27,2.85,4.85,2.73,7.9l-.16,1.85c-.15,1.82,1.14,3.36,2.95,3.51.13.01.27.02.39.02,1.28,0,2.22-.58,2.78-1.38,9.23-9.25,19.48-13.75,31.32-13.75,1.36,0,2.75.06,4.15.18,13.45,1.18,22.82,5.81,27.84,13.77,5.19,8.23,6.96,22.2,5.27,41.52l-5.08,58.1c-.25,2.87-1.51,5.21-3.84,7.17-2.07,1.74-4.28,2.58-6.74,2.58v.01Z" style="fill:#f9d2d4;"/><path d="M830.848,508.615c-3.17,0-6.55-.16-10.04-.46-12.81-1.12-25.78-3.53-38.55-7.17-3.04-.92-5.41-2.73-7.22-5.54-1.84-2.85-2.59-5.94-2.28-9.44l.54-6.22c.21-2.37,1.25-4.02,3.28-5.2,1.3-.75,2.57-1.12,3.88-1.12.84,0,1.73.16,2.63.47,11.89,3.98,23.34,6.47,34.05,7.41,1.23.11,2.4.16,3.49.16,11.1,0,13.28-5.88,13.58-9.39.37-4.17-1.23-6.6-2.64-7.91-1.77-1.64-4.85-2.94-9.72-4.1-16.76-4.25-28.75-10.08-35.59-17.32-6.72-7.12-9.52-15.92-8.56-26.93.98-11.19,5.88-19.26,15-24.67,7.24-4.29,17.28-6.47,29.84-6.47,3.58,0,7.43.18,11.44.53,12.2,1.07,23.56,2.86,33.78,5.33,3.19.8,5.63,2.48,7.43,5.12,1.82,2.68,2.57,5.59,2.28,8.89l-.44,5.02c-.21,2.42-1.34,4.21-3.54,5.62-1.52.97-3.03,1.45-4.6,1.45-.76,0-1.56-.12-2.37-.34-9.68-2.8-19.84-4.68-30.19-5.58-1.81-.16-3.48-.24-4.96-.24-3.29,0-5.78.39-7.63,1.18-3.21,1.38-5.07,4.05-5.39,7.72-.39,4.49,1.44,10.31,12.42,12.51,17.22,3.82,29.34,9.29,35.94,16.26,6.5,6.86,9.15,16,8.1,27.97-1.02,11.71-5.86,20.12-14.78,25.69-7.19,4.5-17.01,6.78-29.17,6.78l-.01-.01Z" style="fill:#f9d2d4;"/><path d="M326.218,455.905c-.32,0-.65-.01-.98-.04l-22-1.92c-2.85-.25-5.15-1.49-7.02-3.79-1.9-2.33-2.7-4.87-2.45-7.75l10.44-119.3c.27-3.08-1.62-5.32-4.69-5.59l-29.17-2.55c-2.87-.25-5.22-1.51-7.17-3.84-1.96-2.33-2.79-4.86-2.54-7.73l1.07-12.19c.25-2.87,1.51-5.21,3.84-7.17,2.07-1.74,4.28-2.58,6.74-2.58.33,0,.66.01.99.04l111.41,9.75c2.87.25,5.21,1.51,7.17,3.84,1.96,2.33,2.79,4.86,2.54,7.73l-1.07,12.19c-.25,2.87-1.51,5.21-3.84,7.17-2.07,1.74-4.27,2.58-6.74,2.58-.33,0-.65-.02-.99-.04l-29.17-2.55c-.21-.02-.41-.03-.6-.03-2.78,0-4.75,1.85-4.99,4.72l-10.44,119.3c-.25,2.89-1.48,5.25-3.75,7.21-1.99,1.73-4.15,2.56-6.59,2.56v-.02Z" style="fill:#fff;"/><path d="M416.348,463.795c-.33,0-.65-.02-.99-.04l-19.37-1.69c-2.87-.25-5.22-1.51-7.17-3.84-1.96-2.33-2.79-4.86-2.54-7.73l8.49-97.07c.25-2.87,1.51-5.21,3.84-7.17,2.07-1.74,4.27-2.58,6.74-2.58.33,0,.66.01.99.04l18.17,1.59c2.87.25,5.21,1.51,7.17,3.84,1.96,2.33,2.79,4.86,2.54,7.73l-.88,10.04c-.15,1.81,1.14,3.35,2.93,3.51.09,0,.22.01.31.01h0c.6,0,1.5-.16,2.38-.9.1-.09.2-.18.3-.28,10.59-11.68,24.24-17.95,40.58-18.65h.43c2.58,0,4.62.99,6.42,3.13,1.96,2.33,2.78,4.94,2.52,7.97l-.54,6.22c-.25,2.88-1.44,5.21-3.63,7.1-2.27,1.96-4.92,2.97-8.12,3.09-13.07.55-23.98,4.55-32.46,11.91-8.57,7.42-13.42,17.07-14.44,28.66l-3.1,35.38c-.25,2.87-1.51,5.21-3.84,7.17-2.07,1.74-4.28,2.58-6.74,2.58l.01-.02Z" style="fill:#fff;"/><path d="M598.048,479.685c-.33,0-.65-.02-.99-.04l-15.06-1.32c-3.05-.27-5.48-1.5-7.45-3.78-1.97-2.27-2.86-4.86-2.73-7.9l.16-1.85c.08-.87-.18-1.71-.73-2.37s-1.34-1.07-2.22-1.14c-.09,0-.21-.01-.3-.01-.86,0-1.69.31-2.39.91-.06.05-.11.1-.17.15-9.43,9.27-20.38,13.97-32.54,13.97-1.45,0-2.94-.07-4.44-.2-10.44-.91-18.46-4.84-24.54-12-6.07-7.15-8.57-15.77-7.64-26.35,2.08-23.76,18.82-35.3,51.17-35.3,4.34,0,9.01.22,13.9.64l7.41.65c.21.02.41.03.6.03,2.78,0,4.74-1.85,4.99-4.72l.02-.25c.5-5.67-.88-10.2-4.09-13.48-3.08-3.15-7.83-5.02-14.12-5.57-3.43-.3-7.28-.45-11.43-.45-7.6,0-16.53.51-26.56,1.52-.33.03-.65.05-.97.05-2.1,0-3.91-.75-5.55-2.31-1.87-1.76-2.63-3.8-2.4-6.4l.33-3.83c.29-3.33,1.55-6.17,3.86-8.66,2.24-2.42,4.85-3.71,7.98-3.96,9.81-.91,18.66-1.37,26.33-1.37,4.71,0,9.09.17,13,.52,20.23,1.77,34.65,6.7,42.83,14.64,8.01,7.78,11.39,19.61,10.03,35.16l-5.71,65.27c-.25,2.87-1.51,5.21-3.84,7.17-2.07,1.74-4.28,2.58-6.74,2.58h0ZM554.428,421.955c-17.44,0-21.82,8.3-22.43,15.26-.39,4.45.64,8.03,3.08,10.64,2.35,2.52,5.94,4,10.66,4.42.91.08,1.82.12,2.69.12,5.86,0,11.04-1.78,15.38-5.28,5.04-4.06,7.93-9.85,8.57-17.2l.13-1.43c.27-3.08-1.62-5.32-4.69-5.59l-7.41-.65c-2.11-.18-4.12-.28-5.98-.28v-.01Z" style="fill:#fff;"/><path d="M742.598,492.335c-.33,0-.65-.02-.99-.04l-16.97-1.49c-2.87-.25-5.22-1.51-7.17-3.84-1.96-2.33-2.79-4.86-2.54-7.73l5.08-58.1c.71-8.07-.03-13.7-2.24-17.2-2.36-3.71-6.79-5.87-13.16-6.43-.57-.05-1.15-.08-1.72-.08-4.6,0-9.03,1.64-13.17,4.89-4.71,3.7-7.32,8.1-7.76,13.08l-5.29,60.49c-.25,2.87-1.51,5.21-3.84,7.17-2.07,1.74-4.27,2.58-6.74,2.58-.33,0-.66-.02-.99-.04l-18.17-1.59c-2.87-.25-5.22-1.51-7.17-3.84-1.96-2.33-2.79-4.86-2.54-7.73l8.49-97.07c.25-2.87,1.51-5.21,3.84-7.17,2.07-1.74,4.27-2.58,6.74-2.58.33,0,.66.01.99.04l16.26,1.42c3.04.27,5.48,1.5,7.45,3.78,1.96,2.27,2.85,4.85,2.73,7.9l-.16,1.85c-.15,1.82,1.14,3.36,2.95,3.51.13.01.27.02.39.02,1.28,0,2.22-.58,2.78-1.38,9.23-9.25,19.48-13.75,31.32-13.75,1.36,0,2.75.06,4.15.18,13.45,1.18,22.82,5.81,27.84,13.77,5.19,8.23,6.96,22.2,5.27,41.52l-5.08,58.1c-.25,2.87-1.51,5.21-3.84,7.17-2.07,1.74-4.28,2.58-6.74,2.58v.01Z" style="fill:#fff;"/><path d="M836.848,502.615c-3.17,0-6.55-.16-10.04-.46-12.81-1.12-25.78-3.53-38.55-7.17-3.04-.92-5.41-2.73-7.22-5.54-1.84-2.85-2.59-5.94-2.28-9.44l.54-6.22c.21-2.37,1.25-4.02,3.28-5.2,1.3-.75,2.57-1.12,3.88-1.12.84,0,1.73.16,2.63.47,11.89,3.98,23.34,6.47,34.05,7.41,1.23.11,2.4.16,3.49.16,11.1,0,13.28-5.88,13.58-9.39.37-4.17-1.23-6.6-2.64-7.91-1.77-1.64-4.85-2.94-9.72-4.1-16.76-4.25-28.75-10.08-35.59-17.32-6.72-7.12-9.52-15.92-8.56-26.93.98-11.19,5.88-19.26,15-24.67,7.24-4.29,17.28-6.47,29.84-6.47,3.58,0,7.43.18,11.44.53,12.2,1.07,23.56,2.86,33.78,5.33,3.19.8,5.63,2.48,7.43,5.12,1.82,2.68,2.57,5.59,2.28,8.89l-.44,5.02c-.21,2.42-1.34,4.21-3.54,5.62-1.52.97-3.03,1.45-4.6,1.45-.76,0-1.56-.12-2.37-.34-9.68-2.8-19.84-4.68-30.19-5.58-1.81-.16-3.48-.24-4.96-.24-3.29,0-5.78.39-7.63,1.18-3.21,1.38-5.07,4.05-5.39,7.72-.39,4.49,1.44,10.31,12.42,12.51,17.22,3.82,29.34,9.29,35.94,16.26,6.5,6.86,9.15,16,8.1,27.97-1.02,11.71-5.86,20.12-14.78,25.69-7.19,4.5-17.01,6.78-29.17,6.78l-.01-.01Z" style="fill:#fff;"/></g></svg>