<?xml version="1.0" encoding="UTF-8"?>
<svg id="uuid-f4e58019-84f3-4380-a292-c949ba99726a" data-name="图层 2" xmlns="http://www.w3.org/2000/svg" viewBox="0 0 879.94 553.39">
  <defs>
    <style>
      .uuid-0af6ae3c-11c3-44a6-8a3b-83643cbdd874 {
        fill: #f9d2d4;
      }

      .uuid-45d99d9c-3896-49d7-81fc-8efc1a93953e {
        fill: #fff;
      }

      .uuid-eee0abd8-4782-406f-86a2-ac03328a78be {
        fill: #e5006a;
      }
    </style>
  </defs>
  <g id="uuid-4e3e989b-330d-4392-bc6b-765e85b9696b" data-name="text">
    <g>
      <g>
        <g>
          <g>
            <path class="uuid-eee0abd8-4782-406f-86a2-ac03328a78be" d="M330.28,452.32c-.96,0-1.94-.04-2.92-.13l-20.93-1.83c-8.94-.78-16.68-4.92-22.4-11.95-5.57-6.85-8.12-15.07-7.36-23.77l8.37-95.64-9.89-.87c-8.83-.77-16.55-4.83-22.33-11.73-5.78-6.88-8.43-15.19-7.66-24.01l1.01-11.6c.77-8.81,4.82-16.53,11.72-22.32,6.08-5.1,13.37-7.8,21.09-7.8.97,0,1.96.04,2.93.13l105.99,9.27c8.81.77,16.53,4.82,22.32,11.71,5.79,6.91,8.45,15.22,7.68,24.03l-1.01,11.6c-.77,8.82-4.83,16.54-11.73,22.32-6.08,5.1-13.37,7.8-21.09,7.8-.96,0-1.95-.04-2.92-.13l-9.9-.87-8.37,95.64c-.76,8.71-4.7,16.36-11.39,22.15-6.04,5.23-13.37,7.99-21.2,7.99Z"/>
            <path class="uuid-eee0abd8-4782-406f-86a2-ac03328a78be" d="M416.03,459.82c-.96,0-1.95-.04-2.92-.13l-18.43-1.61c-8.82-.77-16.54-4.83-22.33-11.73-5.78-6.88-8.43-15.18-7.66-24l8.08-92.35c.77-8.82,4.83-16.54,11.73-22.33,6.07-5.1,13.37-7.79,21.08-7.79.96,0,1.95.04,2.92.13l17.29,1.51c8.53.75,16.03,4.57,21.76,11.07,8.55-3.62,17.91-5.66,27.92-6.09.47-.02.93-.03,1.39-.03,9.19,0,17.56,3.95,23.58,11.12,5.79,6.91,8.44,15.3,7.66,24.25l-.52,5.92c-.76,8.69-4.65,16.3-11.24,22.02-6.08,5.26-13.63,8.2-21.83,8.51-7.15.3-12.65,2.19-16.78,5.76-3.66,3.17-5.49,6.87-5.94,12l-2.95,33.66c-.77,8.82-4.83,16.54-11.73,22.33-6.08,5.1-13.37,7.79-21.08,7.79Z"/>
            <path class="uuid-eee0abd8-4782-406f-86a2-ac03328a78be" d="M588.88,474.95c-.97,0-1.96-.04-2.94-.13l-14.32-1.25c-6.77-.59-12.93-3.06-18.04-7.2-8.11,3.57-16.84,5.37-25.99,5.37-2.04,0-4.13-.09-6.21-.27-15.99-1.4-29.04-7.92-38.76-19.39-9.78-11.52-14.03-25.6-12.61-41.83,1.45-16.54,8.31-30.12,19.93-39.52-5.66-6.25-8.34-14.29-7.59-22.89l.32-3.64c.71-8.18,4.06-15.7,9.66-21.76,6-6.49,13.75-10.29,22.42-11,9.89-.92,18.99-1.38,26.97-1.38,5.15,0,9.98.19,14.36.58,24.96,2.18,42.84,8.82,54.65,20.28,12.8,12.41,18.31,29.85,16.39,51.83l-5.43,62.09c-.77,8.81-4.82,16.53-11.72,22.32-6.08,5.1-13.37,7.8-21.09,7.8Z"/>
            <path class="uuid-eee0abd8-4782-406f-86a2-ac03328a78be" d="M726.39,486.98c-.96,0-1.95-.04-2.92-.13l-16.15-1.41c-8.83-.77-16.55-4.83-22.33-11.74-1.84-2.19-3.37-4.53-4.57-6.99-1.61,2.21-3.52,4.25-5.72,6.1-6.08,5.1-13.37,7.79-21.09,7.79-.96,0-1.95-.04-2.92-.13l-17.29-1.51c-8.83-.77-16.55-4.83-22.33-11.73-5.78-6.88-8.43-15.18-7.66-24.01l8.08-92.35c.77-8.82,4.83-16.54,11.73-22.33,6.08-5.1,13.37-7.79,21.08-7.79.96,0,1.95.04,2.93.13l15.47,1.35c6.68.58,12.77,3,17.84,7.05,7.91-3.52,16.4-5.31,25.32-5.31,1.95,0,3.95.09,5.94.26,20.28,1.77,35.02,9.74,43.8,23.67,7.77,12.33,10.53,29.88,8.45,53.67l-4.84,55.27c-.77,8.82-4.83,16.54-11.73,22.33-6.08,5.1-13.37,7.79-21.09,7.79Z"/>
            <path class="uuid-eee0abd8-4782-406f-86a2-ac03328a78be" d="M816.05,496.76c-3.67,0-7.55-.18-11.55-.53-13.62-1.19-27.4-3.75-40.94-7.61l-.25-.07c-8.16-2.46-14.91-7.57-19.56-14.8-4.47-6.93-6.44-15-5.71-23.33l.52-5.91c.85-9.68,5.9-17.7,14.23-22.61-7.86-10.66-11.32-23.74-10.06-38.22,1.58-17.99,10.35-32.21,25.36-41.12,10.46-6.2,23.93-9.35,40.04-9.35,4.06,0,8.39.2,12.87.59,12.75,1.12,24.69,3.01,35.51,5.62l.2.05c8.46,2.13,15.51,7.03,20.37,14.16,4.68,6.9,6.77,14.95,6.04,23.3l-.42,4.78c-.8,9.15-5.48,17-13.2,22.19,8.8,10.93,12.53,24.74,11.09,41.11-1.6,18.25-10.14,32.71-24.7,41.81-10.52,6.59-23.93,9.93-39.85,9.93Z"/>
          </g>
          <g>
            <path class="uuid-eee0abd8-4782-406f-86a2-ac03328a78be" d="M330.28,443.76c-.71,0-1.44-.03-2.17-.1l-20.93-1.83c-6.58-.58-12.28-3.63-16.51-8.82-4.14-5.09-6.04-11.18-5.47-17.62l9.12-104.17-18.42-1.61c-6.51-.57-12.22-3.58-16.51-8.7-4.29-5.11-6.26-11.25-5.69-17.76l1.01-11.6c.57-6.5,3.58-12.21,8.7-16.51,4.58-3.84,9.83-5.79,15.58-5.79.71,0,1.45.03,2.18.1l105.99,9.27c6.5.57,12.21,3.57,16.51,8.69,4.3,5.13,6.27,11.27,5.7,17.77l-1.01,11.6c-.57,6.5-3.58,12.21-8.7,16.51-4.58,3.84-9.83,5.79-15.59,5.79-.71,0-1.45-.03-2.18-.1l-18.43-1.61-9.11,104.17c-.56,6.44-3.49,12.12-8.46,16.41-4.53,3.92-9.78,5.91-15.6,5.91h0Z"/>
            <path class="uuid-eee0abd8-4782-406f-86a2-ac03328a78be" d="M416.03,451.26c-.71,0-1.45-.03-2.18-.1l-18.43-1.61c-6.51-.57-12.22-3.58-16.51-8.7-4.29-5.11-6.26-11.25-5.69-17.76l8.08-92.34c.57-6.51,3.58-12.22,8.7-16.51,4.58-3.84,9.82-5.79,15.58-5.79.71,0,1.45.03,2.18.1l17.29,1.51c6.5.57,12.21,3.57,16.5,8.69,1.25,1.49,2.31,3.09,3.17,4.77,9.24-5.13,19.67-7.97,31.11-8.46.35-.01.69-.02,1.02-.02,6.61,0,12.66,2.86,17.03,8.07,4.3,5.13,6.26,11.35,5.68,18l-.52,5.92c-.56,6.43-3.44,12.07-8.32,16.3-4.66,4.03-10.22,6.19-16.54,6.42-9.19.39-16.42,2.95-22.07,7.85-5.4,4.68-8.22,10.31-8.86,17.72l-2.95,33.66c-.57,6.51-3.58,12.22-8.7,16.51-4.58,3.84-9.82,5.79-15.58,5.79Z"/>
            <path class="uuid-eee0abd8-4782-406f-86a2-ac03328a78be" d="M588.88,466.39c-.71,0-1.45-.03-2.18-.1l-14.33-1.25c-6.59-.58-12.34-3.51-16.64-8.48-.17-.2-.34-.4-.51-.61-8.47,4.8-17.74,7.22-27.62,7.22-1.79,0-3.63-.08-5.46-.24-13.67-1.2-24.76-6.71-32.98-16.4-8.25-9.72-11.82-21.68-10.61-35.55,1.64-18.79,10.98-32.29,27.02-39.79-2.92-1.01-5.62-2.67-8-4.93-4.9-4.64-7.27-10.92-6.68-17.69l.32-3.64c.56-6.36,3.05-11.97,7.42-16.69,4.62-4.99,10.32-7.78,16.95-8.3,9.59-.89,18.42-1.35,26.16-1.35,4.9,0,9.48.18,13.62.54,22.92,2.01,39.09,7.86,49.44,17.9,10.86,10.53,15.51,25.65,13.82,44.94l-5.43,62.09c-.57,6.5-3.58,12.21-8.7,16.51-4.58,3.85-9.83,5.79-15.58,5.79ZM544.09,411.62c-.59.06-1.09.14-1.52.22.54-.04,1.04-.11,1.52-.22Z"/>
            <path class="uuid-eee0abd8-4782-406f-86a2-ac03328a78be" d="M726.39,478.42c-.71,0-1.45-.03-2.18-.1l-16.15-1.41c-6.51-.57-12.22-3.58-16.51-8.7-4.29-5.11-6.26-11.25-5.69-17.76l4.84-55.27c.31-3.54.19-5.65.04-6.78-.41-.09-.97-.18-1.72-.25-.13-.01-.26-.02-.39-.02-.72,0-1.88.17-3.72,1.61-.71.55-1.9,1.61-1.97,2.46l-5.04,57.55c-.57,6.51-3.58,12.21-8.7,16.51-4.58,3.84-9.82,5.79-15.58,5.79-.71,0-1.45-.03-2.18-.1l-17.29-1.51c-6.51-.57-12.22-3.58-16.51-8.7-4.29-5.11-6.26-11.25-5.69-17.76l8.08-92.34c.57-6.51,3.58-12.22,8.7-16.51,4.58-3.84,9.82-5.79,15.58-5.79.71,0,1.45.03,2.18.1l15.47,1.35c6.58.58,12.34,3.51,16.63,8.47.13.15.27.31.4.47,8.25-4.76,17.26-7.16,26.88-7.16,1.71,0,3.46.08,5.19.23,17.47,1.53,30.02,8.16,37.31,19.71,6.73,10.68,9.07,26.5,7.16,48.36l-4.84,55.27c-.57,6.51-3.58,12.22-8.7,16.51-4.58,3.84-9.82,5.79-15.58,5.79Z"/>
            <path class="uuid-eee0abd8-4782-406f-86a2-ac03328a78be" d="M816.05,488.2c-3.43,0-7.06-.17-10.8-.49-13.09-1.15-26.33-3.61-39.34-7.32-6.37-1.91-11.37-5.7-14.96-11.27-3.48-5.4-4.95-11.44-4.38-17.94l.52-5.91c.6-6.88,4.21-12.58,10.16-16.04,3.42-1.99,7.07-3,10.86-3,.28,0,.56,0,.84.02-2.1-1.62-4-3.34-5.7-5.14-9.22-9.77-13.25-22.1-11.98-36.66,1.34-15.34,8.48-26.95,21.2-34.5,9.12-5.41,21.12-8.15,35.67-8.15,3.81,0,7.89.19,12.12.56,12.32,1.08,23.84,2.9,34.24,5.42,6.59,1.66,11.79,5.25,15.5,10.71,3.61,5.32,5.15,11.28,4.59,17.74l-.42,4.78c-.58,6.68-4.09,12.4-9.87,16.11-3.37,2.15-6.96,3.36-10.71,3.6,2.6,1.84,4.9,3.81,6.91,5.93,9.03,9.53,12.92,22.2,11.57,37.67-1.37,15.68-8.34,27.56-20.71,35.3-9.14,5.72-21.03,8.62-35.31,8.62Z"/>
          </g>
          <g>
            <path class="uuid-eee0abd8-4782-406f-86a2-ac03328a78be" d="M327.42,438.05c-.47,0-.94-.02-1.43-.06l-20.93-1.83c-4.27-.38-7.84-2.29-10.61-5.7-2.75-3.38-3.96-7.24-3.59-11.48l9.86-112.7-26.95-2.36c-4.26-.37-7.85-2.28-10.7-5.67-2.84-3.39-4.1-7.26-3.73-11.52l1.01-11.6c.37-4.25,2.28-7.85,5.67-10.7,3-2.51,6.39-3.79,10.08-3.79.47,0,.95.02,1.43.06l106,9.27c4.25.37,7.85,2.28,10.7,5.67,2.85,3.39,4.1,7.27,3.73,11.52l-1.01,11.6c-.37,4.25-2.28,7.85-5.67,10.7-3,2.51-6.39,3.79-10.08,3.79-.47,0-.95-.02-1.43-.06l-26.96-2.36-9.86,112.7c-.37,4.24-2.23,7.83-5.53,10.68-2.93,2.54-6.3,3.83-10,3.83Z"/>
            <path class="uuid-eee0abd8-4782-406f-86a2-ac03328a78be" d="M413.17,445.55c-.47,0-.95-.02-1.43-.06l-18.43-1.61c-4.25-.37-7.85-2.28-10.7-5.67-2.84-3.38-4.1-7.26-3.73-11.52l8.08-92.34c.37-4.25,2.28-7.85,5.67-10.7,3-2.51,6.39-3.79,10.08-3.79.47,0,.95.02,1.43.06l17.29,1.51c4.25.37,7.85,2.28,10.7,5.67,2.85,3.39,4.1,7.27,3.73,11.52l-.23,2.61c10.34-9.18,22.99-14.14,37.7-14.78.22,0,.44-.01.66-.01,4.16,0,7.68,1.69,10.47,5.01,2.85,3.4,4.09,7.35,3.71,11.75l-.52,5.92c-.37,4.23-2.19,7.79-5.4,10.57-3.14,2.72-6.93,4.17-11.25,4.34-11.07.46-20.29,3.81-27.36,9.93-6.99,6.06-10.96,13.95-11.79,23.45l-2.95,33.66c-.37,4.25-2.28,7.85-5.67,10.7-3,2.51-6.39,3.79-10.08,3.79Z"/>
            <path class="uuid-eee0abd8-4782-406f-86a2-ac03328a78be" d="M586.03,460.68c-.47,0-.95-.02-1.43-.06l-14.34-1.25c-4.39-.38-8.06-2.25-10.91-5.55-1.96-2.26-3.2-4.81-3.72-7.61-9.17,7.56-19.32,11.26-30.89,11.26-1.55,0-3.13-.07-4.72-.21-11.5-1.01-20.4-5.39-27.2-13.41-6.81-8.02-9.62-17.59-8.6-29.26,2.25-25.74,20.54-38.8,54.37-38.8,4.29,0,8.91.21,13.72.63l6.25.55c.25-3.28.14-10.3-12.18-11.38-3.1-.27-6.58-.41-10.37-.41-7.04,0-15.35.48-24.71,1.42-.5.05-1,.08-1.49.08-3.48,0-6.57-1.27-9.21-3.76-3.05-2.89-4.41-6.5-4.04-10.73l.32-3.64c.39-4.42,2.13-8.33,5.17-11.62,3.11-3.36,6.92-5.23,11.33-5.58,9.41-.88,18.01-1.32,25.49-1.32,4.64,0,8.97.17,12.87.51,20.59,1.8,35.47,7.02,44.22,15.51,8.92,8.65,12.7,21.45,11.25,38.04l-5.43,62.09c-.37,4.25-2.28,7.85-5.67,10.7-3,2.52-6.39,3.79-10.08,3.79ZM544.53,405.75c-14.84,0-15.43,6.76-15.65,9.3-.34,3.84.39,7.48,7.88,8.14.7.06,1.39.09,2.07.09,4.3,0,7.91-1.23,11.05-3.76,3.59-2.89,5.57-6.96,6.05-12.42l.05-.57-6.25-.55c-1.84-.16-3.58-.24-5.19-.24Z"/>
            <path class="uuid-eee0abd8-4782-406f-86a2-ac03328a78be" d="M723.54,472.71c-.47,0-.95-.02-1.43-.06l-16.16-1.41c-4.26-.37-7.86-2.28-10.7-5.67-2.84-3.38-4.1-7.26-3.73-11.52l4.84-55.27c.72-8.26-.48-11.57-1.27-12.81-1.24-1.94-3.99-3.12-8.19-3.48-.38-.03-.76-.05-1.14-.05-3.07,0-6.1,1.15-9,3.43-3.24,2.54-4.94,5.3-5.22,8.45l-5.04,57.54c-.37,4.25-2.28,7.85-5.67,10.7-3,2.51-6.39,3.79-10.08,3.79-.47,0-.95-.02-1.43-.06l-17.29-1.51c-4.25-.37-7.85-2.28-10.7-5.67-2.84-3.38-4.1-7.26-3.73-11.52l8.08-92.34c.37-4.26,2.28-7.85,5.67-10.7,3-2.51,6.39-3.79,10.08-3.79.47,0,.95.02,1.43.06l15.47,1.35c4.39.38,8.06,2.25,10.91,5.54,1.93,2.24,3.17,4.75,3.7,7.52,8.93-7.56,18.8-11.25,30.04-11.25,1.46,0,2.96.07,4.45.2,14.66,1.28,25.03,6.58,30.81,15.75,5.69,9.04,7.61,23.12,5.87,43.04l-4.84,55.27c-.37,4.25-2.28,7.85-5.67,10.7-3,2.51-6.39,3.79-10.08,3.79Z"/>
            <path class="uuid-eee0abd8-4782-406f-86a2-ac03328a78be" d="M813.2,482.49c-3.18,0-6.56-.16-10.05-.46-12.55-1.1-25.25-3.46-37.74-7.02-4.28-1.29-7.65-3.86-10.1-7.67-2.43-3.76-3.45-7.99-3.05-12.56l.52-5.92c.36-4.09,2.41-7.33,5.93-9.38,2.1-1.22,4.31-1.84,6.56-1.84,1.43,0,2.9.25,4.36.76,10.84,3.62,21.29,5.9,31.03,6.75,1,.09,1.95.13,2.82.13,6.91,0,7.14-2.7,7.23-3.72.12-1.34-.12-2.3-.71-2.84-.41-.38-1.88-1.39-6.69-2.54-17.1-4.33-29.42-10.42-36.68-18.11-7.47-7.91-10.73-18.02-9.68-30.03,1.09-12.44,6.82-21.82,17.04-27.88,7.78-4.61,18.31-6.95,31.3-6.95,3.57,0,7.4.18,11.38.52,11.9,1.04,22.99,2.79,32.98,5.21,4.45,1.12,7.94,3.54,10.44,7.2,2.47,3.64,3.52,7.73,3.14,12.17l-.42,4.78c-.36,4.09-2.37,7.34-5.97,9.65-2.37,1.51-4.88,2.28-7.46,2.28-1.25,0-2.54-.18-3.81-.54-8.89-2.57-18.19-4.29-27.66-5.12-1.55-.14-2.97-.21-4.22-.21-2.87,0-4.31.36-5.01.66-.92.39-1.56.99-1.7,2.6-.11,1.28-.37,4.28,7.26,5.81.04,0,.08.02.11.02,17.53,3.89,30.02,9.64,37.1,17.11,7.37,7.78,10.4,17.93,9.25,31.03-1.13,12.87-6.75,22.55-16.72,28.79-7.76,4.86-18.12,7.32-30.77,7.32Z"/>
          </g>
          <g>
            <path class="uuid-eee0abd8-4782-406f-86a2-ac03328a78be" d="M333.13,432.34c-.47,0-.94-.02-1.43-.06l-20.93-1.83c-4.27-.38-7.84-2.29-10.61-5.7-2.75-3.38-3.96-7.24-3.59-11.48l9.86-112.7-26.95-2.36c-4.26-.37-7.85-2.28-10.7-5.67-2.84-3.39-4.1-7.26-3.73-11.52l1.01-11.6c.37-4.25,2.28-7.85,5.67-10.7,3-2.51,6.39-3.79,10.08-3.79.47,0,.95.02,1.43.06l106,9.27c4.25.37,7.85,2.28,10.7,5.67,2.85,3.39,4.1,7.27,3.73,11.52l-1.01,11.6c-.37,4.25-2.28,7.85-5.67,10.7-3,2.51-6.39,3.79-10.08,3.79-.47,0-.95-.02-1.43-.06l-26.96-2.36-9.86,112.7c-.37,4.24-2.23,7.83-5.53,10.68-2.93,2.54-6.3,3.83-10,3.83Z"/>
            <path class="uuid-eee0abd8-4782-406f-86a2-ac03328a78be" d="M418.88,439.85c-.47,0-.95-.02-1.43-.06l-18.43-1.61c-4.25-.37-7.85-2.28-10.7-5.67-2.84-3.38-4.1-7.26-3.73-11.52l8.08-92.34c.37-4.25,2.28-7.85,5.67-10.7,3-2.51,6.39-3.79,10.08-3.79.47,0,.95.02,1.43.06l17.29,1.51c4.25.37,7.85,2.28,10.7,5.67,2.85,3.39,4.1,7.27,3.73,11.52l-.23,2.61c10.34-9.18,22.99-14.14,37.7-14.78.22,0,.44-.01.66-.01,4.16,0,7.68,1.69,10.47,5.01,2.85,3.4,4.09,7.35,3.71,11.75l-.52,5.92c-.37,4.23-2.19,7.79-5.4,10.57-3.14,2.72-6.93,4.17-11.25,4.34-11.07.46-20.29,3.81-27.36,9.93-6.99,6.06-10.96,13.95-11.79,23.45l-2.95,33.66c-.37,4.25-2.28,7.85-5.67,10.7-3,2.51-6.39,3.79-10.08,3.79Z"/>
            <path class="uuid-eee0abd8-4782-406f-86a2-ac03328a78be" d="M591.74,454.97c-.47,0-.95-.02-1.43-.06l-14.34-1.25c-4.39-.38-8.06-2.25-10.91-5.55-1.96-2.26-3.2-4.81-3.72-7.61-9.17,7.56-19.32,11.26-30.89,11.26-1.55,0-3.13-.07-4.72-.21-11.5-1.01-20.4-5.39-27.2-13.41-6.81-8.02-9.62-17.59-8.6-29.26,2.25-25.74,20.54-38.8,54.37-38.8,4.29,0,8.91.21,13.72.63l6.25.55c.25-3.28.14-10.3-12.18-11.38-3.1-.27-6.58-.41-10.37-.41-7.04,0-15.35.48-24.71,1.42-.5.05-1,.08-1.49.08-3.48,0-6.57-1.27-9.21-3.76-3.05-2.89-4.41-6.5-4.04-10.73l.32-3.64c.39-4.42,2.13-8.33,5.17-11.62,3.11-3.36,6.92-5.23,11.33-5.58,9.41-.88,18.01-1.32,25.49-1.32,4.64,0,8.97.17,12.87.51,20.59,1.8,35.47,7.02,44.22,15.51,8.92,8.65,12.7,21.45,11.25,38.04l-5.43,62.09c-.37,4.25-2.28,7.85-5.67,10.7-3,2.52-6.39,3.79-10.08,3.79ZM550.23,400.05c-14.84,0-15.43,6.76-15.65,9.3-.34,3.84.39,7.48,7.88,8.14.7.06,1.39.09,2.07.09,4.3,0,7.91-1.23,11.05-3.76,3.59-2.89,5.57-6.96,6.05-12.42l.05-.57-6.25-.55c-1.84-.16-3.58-.24-5.19-.24Z"/>
            <path class="uuid-eee0abd8-4782-406f-86a2-ac03328a78be" d="M729.25,467c-.47,0-.95-.02-1.43-.06l-16.16-1.41c-4.26-.37-7.86-2.28-10.7-5.67-2.84-3.38-4.1-7.26-3.73-11.52l4.84-55.27c.72-8.26-.48-11.57-1.27-12.81-1.24-1.94-3.99-3.12-8.19-3.48-.38-.03-.76-.05-1.14-.05-3.07,0-6.1,1.15-9,3.43-3.24,2.54-4.94,5.3-5.22,8.45l-5.04,57.54c-.37,4.25-2.28,7.85-5.67,10.7-3,2.51-6.39,3.79-10.08,3.79-.47,0-.95-.02-1.43-.06l-17.29-1.51c-4.25-.37-7.85-2.28-10.7-5.67-2.84-3.38-4.1-7.26-3.73-11.52l8.08-92.34c.37-4.26,2.28-7.85,5.67-10.7,3-2.51,6.39-3.79,10.08-3.79.47,0,.95.02,1.43.06l15.47,1.35c4.39.38,8.06,2.25,10.91,5.54,1.93,2.24,3.17,4.75,3.7,7.52,8.93-7.56,18.8-11.25,30.04-11.25,1.46,0,2.96.07,4.45.2,14.66,1.28,25.03,6.58,30.81,15.75,5.69,9.04,7.61,23.12,5.87,43.04l-4.84,55.27c-.37,4.25-2.28,7.85-5.67,10.7-3,2.51-6.39,3.79-10.08,3.79Z"/>
            <path class="uuid-eee0abd8-4782-406f-86a2-ac03328a78be" d="M818.91,476.78c-3.18,0-6.56-.16-10.05-.46-12.55-1.1-25.25-3.46-37.74-7.02-4.28-1.29-7.65-3.86-10.1-7.67-2.43-3.76-3.45-7.99-3.05-12.56l.52-5.92c.36-4.09,2.41-7.33,5.93-9.38,2.1-1.22,4.31-1.84,6.56-1.84,1.43,0,2.9.25,4.36.76,10.84,3.62,21.29,5.9,31.03,6.75,1,.09,1.95.13,2.82.13,6.91,0,7.14-2.7,7.23-3.72.12-1.34-.12-2.3-.71-2.84-.41-.38-1.88-1.39-6.69-2.54-17.1-4.33-29.42-10.42-36.68-18.11-7.47-7.91-10.73-18.02-9.68-30.03,1.09-12.44,6.82-21.82,17.04-27.88,7.78-4.61,18.31-6.95,31.3-6.95,3.57,0,7.4.18,11.38.52,11.9,1.04,22.99,2.79,32.98,5.21,4.45,1.12,7.94,3.54,10.44,7.2,2.47,3.64,3.52,7.73,3.14,12.17l-.42,4.78c-.36,4.09-2.37,7.34-5.97,9.65-2.37,1.51-4.88,2.28-7.46,2.28-1.25,0-2.54-.18-3.81-.54-8.89-2.57-18.19-4.29-27.66-5.12-1.55-.14-2.97-.21-4.22-.21-2.87,0-4.31.36-5.01.66-.92.39-1.56.99-1.7,2.6-.11,1.28-.37,4.28,7.26,5.81.04,0,.08.02.11.02,17.53,3.89,30.02,9.64,37.1,17.11,7.37,7.78,10.4,17.93,9.25,31.03-1.13,12.87-6.75,22.55-16.72,28.79-7.76,4.86-18.12,7.32-30.77,7.32Z"/>
          </g>
          <g>
            <path class="uuid-eee0abd8-4782-406f-86a2-ac03328a78be" d="M330.28,438.05c-.55,0-1.12-.03-1.68-.07l-20.93-1.83c-5-.44-9.35-2.77-12.58-6.74-3.23-3.97-4.65-8.52-4.22-13.52l9.61-109.86-24.11-2.11c-4.97-.44-9.34-2.75-12.64-6.68-3.3-3.93-4.82-8.63-4.38-13.6l1.01-11.6c.43-4.96,2.74-9.33,6.68-12.63,3.53-2.96,7.54-4.46,11.92-4.46.56,0,1.12.03,1.69.07l105.99,9.27c4.96.43,9.33,2.74,12.63,6.68,3.31,3.94,4.82,8.65,4.39,13.6l-1.01,11.6c-.43,4.96-2.75,9.33-6.68,12.64-3.53,2.96-7.54,4.46-11.92,4.46-.55,0-1.12-.03-1.68-.07l-24.11-2.11-9.61,109.85c-.44,5-2.62,9.24-6.5,12.59-3.46,3-7.46,4.52-11.87,4.52Z"/>
            <path class="uuid-eee0abd8-4782-406f-86a2-ac03328a78be" d="M416.03,445.55c-.55,0-1.12-.03-1.68-.07l-18.42-1.61c-4.97-.43-9.34-2.75-12.64-6.68-3.3-3.93-4.82-8.63-4.38-13.6l8.08-92.34c.44-5.04,2.69-9.29,6.68-12.64,3.52-2.96,7.53-4.46,11.92-4.46.55,0,1.12.03,1.68.07l17.29,1.51c4.96.43,9.33,2.74,12.63,6.68,2.46,2.94,3.93,6.3,4.34,9.88,9.84-7.1,21.41-10.97,34.56-11.54.26-.01.52-.02.78-.02,4.97,0,9.34,2.08,12.66,6.03,3.31,3.94,4.81,8.73,4.37,13.83l-.52,5.91c-.44,5-2.58,9.19-6.37,12.48-3.65,3.15-8.02,4.85-13.01,5.03-10.55.44-18.93,3.46-25.59,9.24-6.5,5.63-10.04,12.68-10.81,21.54l-2.95,33.66c-.43,4.96-2.74,9.33-6.68,12.64-3.52,2.96-7.53,4.46-11.92,4.46Z"/>
            <path class="uuid-eee0abd8-4782-406f-86a2-ac03328a78be" d="M588.88,460.68c-.56,0-1.12-.03-1.69-.07l-14.33-1.25c-5.15-.45-9.47-2.65-12.82-6.52-1.28-1.48-2.3-3.07-3.06-4.75-8.82,6.24-18.67,9.39-29.39,9.39-1.63,0-3.3-.07-4.96-.22-12.12-1.06-21.92-5.91-29.13-14.4-7.23-8.51-10.35-19.06-9.27-31.36,3-34.22,32.76-41.4,57.21-41.4,4.38,0,9.08.22,13.97.64l3.01.26c-.58-2.65-2.76-4.83-9.44-5.41-3.02-.26-6.42-.4-10.12-.4-6.94,0-15.16.47-24.43,1.4-.59.06-1.19.09-1.78.09-4.17,0-8.04-1.57-11.17-4.54-3.66-3.46-5.36-7.98-4.92-13.05l.32-3.64c.44-5.07,2.43-9.54,5.92-13.31,3.61-3.9,8.05-6.08,13.21-6.48,9.47-.88,18.15-1.33,25.71-1.33,4.73,0,9.15.18,13.12.52,21.56,1.89,36.59,7.22,45.96,16.31,9.56,9.28,13.64,22.85,12.11,40.34l-5.43,62.09c-.43,4.96-2.74,9.33-6.68,12.63-3.53,2.96-7.53,4.46-11.92,4.46ZM547.38,405.75c-12.22,0-12.64,4.7-12.81,6.7-.21,2.44-.4,4.55,5.29,5.05.62.05,1.23.08,1.82.08,3.62,0,6.65-1.02,9.26-3.13,2.46-1.98,4-4.67,4.68-8.18l-3.3-.29c-1.76-.15-3.42-.23-4.94-.23Z"/>
            <path class="uuid-eee0abd8-4782-406f-86a2-ac03328a78be" d="M726.39,472.71c-.55,0-1.12-.03-1.68-.07l-16.15-1.41c-4.97-.44-9.34-2.75-12.64-6.68-3.3-3.93-4.82-8.63-4.38-13.6l4.84-55.27c.69-7.92-.47-10.45-.84-11.04-.7-1.1-2.9-1.89-6.03-2.17-.3-.03-.6-.04-.89-.04-2.45,0-4.82.92-7.24,2.82-2.58,2.02-3.93,4.13-4.14,6.46l-5.04,57.54c-.43,4.96-2.74,9.33-6.68,12.63-3.52,2.96-7.53,4.46-11.92,4.46-.55,0-1.12-.03-1.68-.07l-17.29-1.51c-4.97-.44-9.34-2.75-12.64-6.68-3.3-3.93-4.82-8.63-4.38-13.6l8.08-92.34c.43-4.97,2.74-9.33,6.68-12.64,3.53-2.96,7.53-4.46,11.91-4.46.56,0,1.12.03,1.69.07l15.47,1.35c5.15.45,9.46,2.64,12.82,6.52,1.25,1.45,2.25,3,3.01,4.63,8.58-6.21,18.16-9.36,28.58-9.36,1.54,0,3.12.07,4.69.21,15.6,1.37,26.7,7.11,32.98,17.07,6.04,9.59,8.1,24.25,6.3,44.81l-4.84,55.27c-.43,4.96-2.74,9.33-6.68,12.64-3.52,2.96-7.53,4.46-11.92,4.46Z"/>
            <path class="uuid-eee0abd8-4782-406f-86a2-ac03328a78be" d="M816.05,482.49c-3.26,0-6.73-.16-10.3-.47-12.73-1.11-25.61-3.51-38.28-7.12-4.98-1.5-8.89-4.47-11.72-8.87-2.78-4.31-3.95-9.14-3.5-14.36l.52-5.91c.44-5.05,2.98-9.07,7.34-11.6,2.54-1.48,5.23-2.23,8-2.23,1.75,0,3.53.31,5.29.91,10.61,3.55,20.83,5.78,30.35,6.61.92.08,1.79.12,2.57.12,3.31,0,4.25-.7,4.34-.77,0-.01.03-.12.05-.34.03-.28.02-.48.01-.61-.46-.26-1.86-.93-5.23-1.74-17.91-4.54-30.34-10.72-38.09-18.93-8.06-8.53-11.57-19.38-10.45-32.24,1.17-13.41,7.37-23.53,18.43-30.09,8.23-4.88,19.25-7.35,32.76-7.35,3.66,0,7.57.18,11.63.54,12.04,1.05,23.28,2.83,33.4,5.28,5.16,1.3,9.23,4.11,12.13,8.37,2.85,4.2,4.07,8.91,3.62,14.03l-.42,4.78c-.43,4.95-2.95,9.03-7.27,11.8-2.84,1.82-5.86,2.73-9,2.73-1.51,0-3.06-.22-4.58-.65-8.73-2.52-17.85-4.21-27.13-5.02-1.48-.13-2.81-.2-3.97-.2-2.55,0-3.58.32-3.83.41-.01.06-.02.14-.03.25-.12,1.43,2.64,2.29,4.98,2.76.04,0,.08.02.11.02,18.39,4.08,31.02,9.95,38.61,17.95,7.86,8.29,11.23,19.47,10.02,33.24-1.21,13.8-7.28,24.22-18.05,30.96-8.22,5.14-19.09,7.75-32.29,7.75Z"/>
          </g>
          <g>
            <path class="uuid-eee0abd8-4782-406f-86a2-ac03328a78be" d="M330.28,438.05c-.55,0-1.12-.03-1.68-.07l-20.93-1.83c-5-.44-9.35-2.77-12.58-6.74-3.23-3.97-4.65-8.52-4.22-13.52l9.61-109.86-24.11-2.11c-4.97-.44-9.34-2.75-12.64-6.68-3.3-3.93-4.82-8.63-4.38-13.6l1.01-11.6c.43-4.96,2.74-9.33,6.68-12.63,3.53-2.96,7.54-4.46,11.92-4.46.56,0,1.12.03,1.69.07l105.99,9.27c4.96.43,9.33,2.74,12.63,6.68,3.31,3.94,4.82,8.65,4.39,13.6l-1.01,11.6c-.43,4.96-2.75,9.33-6.68,12.64-3.53,2.96-7.54,4.46-11.92,4.46-.55,0-1.12-.03-1.68-.07l-24.11-2.11-9.61,109.85c-.44,5-2.62,9.24-6.5,12.59-3.46,3-7.46,4.52-11.87,4.52Z"/>
            <path class="uuid-eee0abd8-4782-406f-86a2-ac03328a78be" d="M416.03,445.55c-.55,0-1.12-.03-1.68-.07l-18.42-1.61c-4.97-.43-9.34-2.75-12.64-6.68-3.3-3.93-4.82-8.63-4.38-13.6l8.08-92.34c.44-5.04,2.69-9.29,6.68-12.64,3.52-2.96,7.53-4.46,11.92-4.46.55,0,1.12.03,1.68.07l17.29,1.51c4.96.43,9.33,2.74,12.63,6.68,2.46,2.94,3.93,6.3,4.34,9.88,9.84-7.1,21.41-10.97,34.56-11.54.26-.01.52-.02.78-.02,4.97,0,9.34,2.08,12.66,6.03,3.31,3.94,4.81,8.73,4.37,13.83l-.52,5.91c-.44,5-2.58,9.19-6.37,12.48-3.65,3.15-8.02,4.85-13.01,5.03-10.55.44-18.93,3.46-25.59,9.24-6.5,5.63-10.04,12.68-10.81,21.54l-2.95,33.66c-.43,4.96-2.74,9.33-6.68,12.64-3.52,2.96-7.53,4.46-11.92,4.46Z"/>
            <path class="uuid-eee0abd8-4782-406f-86a2-ac03328a78be" d="M588.88,460.68c-.56,0-1.12-.03-1.69-.07l-14.33-1.25c-5.15-.45-9.47-2.65-12.82-6.52-1.28-1.48-2.3-3.07-3.06-4.75-8.82,6.24-18.67,9.39-29.39,9.39-1.63,0-3.3-.07-4.96-.22-12.12-1.06-21.92-5.91-29.13-14.4-7.23-8.51-10.35-19.06-9.27-31.36,3-34.22,32.76-41.4,57.21-41.4,4.38,0,9.08.22,13.97.64l3.01.26c-.58-2.65-2.76-4.83-9.44-5.41-3.02-.26-6.42-.4-10.12-.4-6.94,0-15.16.47-24.43,1.4-.59.06-1.19.09-1.78.09-4.17,0-8.04-1.57-11.17-4.54-3.66-3.46-5.36-7.98-4.92-13.05l.32-3.64c.44-5.07,2.43-9.54,5.92-13.31,3.61-3.9,8.05-6.08,13.21-6.48,9.47-.88,18.15-1.33,25.71-1.33,4.73,0,9.15.18,13.12.52,21.56,1.89,36.59,7.22,45.96,16.31,9.56,9.28,13.64,22.85,12.11,40.34l-5.43,62.09c-.43,4.96-2.74,9.33-6.68,12.63-3.53,2.96-7.53,4.46-11.92,4.46ZM547.38,405.75c-12.22,0-12.64,4.7-12.81,6.7-.21,2.44-.4,4.55,5.29,5.05.62.05,1.23.08,1.82.08,3.62,0,6.65-1.02,9.26-3.13,2.46-1.98,4-4.67,4.68-8.18l-3.3-.29c-1.76-.15-3.42-.23-4.94-.23Z"/>
            <path class="uuid-eee0abd8-4782-406f-86a2-ac03328a78be" d="M726.39,472.71c-.55,0-1.12-.03-1.68-.07l-16.15-1.41c-4.97-.44-9.34-2.75-12.64-6.68-3.3-3.93-4.82-8.63-4.38-13.6l4.84-55.27c.69-7.92-.47-10.45-.84-11.04-.7-1.1-2.9-1.89-6.03-2.17-.3-.03-.6-.04-.89-.04-2.45,0-4.82.92-7.24,2.82-2.58,2.02-3.93,4.13-4.14,6.46l-5.04,57.54c-.43,4.96-2.74,9.33-6.68,12.63-3.52,2.96-7.53,4.46-11.92,4.46-.55,0-1.12-.03-1.68-.07l-17.29-1.51c-4.97-.44-9.34-2.75-12.64-6.68-3.3-3.93-4.82-8.63-4.38-13.6l8.08-92.34c.43-4.97,2.74-9.33,6.68-12.64,3.53-2.96,7.53-4.46,11.91-4.46.56,0,1.12.03,1.69.07l15.47,1.35c5.15.45,9.46,2.64,12.82,6.52,1.25,1.45,2.25,3,3.01,4.63,8.58-6.21,18.16-9.36,28.58-9.36,1.54,0,3.12.07,4.69.21,15.6,1.37,26.7,7.11,32.98,17.07,6.04,9.59,8.1,24.25,6.3,44.81l-4.84,55.27c-.43,4.96-2.74,9.33-6.68,12.64-3.52,2.96-7.53,4.46-11.92,4.46Z"/>
            <path class="uuid-eee0abd8-4782-406f-86a2-ac03328a78be" d="M816.05,482.49c-3.26,0-6.73-.16-10.3-.47-12.73-1.11-25.61-3.51-38.28-7.12-4.98-1.5-8.89-4.47-11.72-8.87-2.78-4.31-3.95-9.14-3.5-14.36l.52-5.91c.44-5.05,2.98-9.07,7.34-11.6,2.54-1.48,5.23-2.23,8-2.23,1.75,0,3.53.31,5.29.91,10.61,3.55,20.83,5.78,30.35,6.61.92.08,1.79.12,2.57.12,3.31,0,4.25-.7,4.34-.77,0-.01.03-.12.05-.34.03-.28.02-.48.01-.61-.46-.26-1.86-.93-5.23-1.74-17.91-4.54-30.34-10.72-38.09-18.93-8.06-8.53-11.57-19.38-10.45-32.24,1.17-13.41,7.37-23.53,18.43-30.09,8.23-4.88,19.25-7.35,32.76-7.35,3.66,0,7.57.18,11.63.54,12.04,1.05,23.28,2.83,33.4,5.28,5.16,1.3,9.23,4.11,12.13,8.37,2.85,4.2,4.07,8.91,3.62,14.03l-.42,4.78c-.43,4.95-2.95,9.03-7.27,11.8-2.84,1.82-5.86,2.73-9,2.73-1.51,0-3.06-.22-4.58-.65-8.73-2.52-17.85-4.21-27.13-5.02-1.48-.13-2.81-.2-3.97-.2-2.55,0-3.58.32-3.83.41-.01.06-.02.14-.03.25-.12,1.43,2.64,2.29,4.98,2.76.04,0,.08.02.11.02,18.39,4.08,31.02,9.95,38.61,17.95,7.86,8.29,11.23,19.47,10.02,33.24-1.21,13.8-7.28,24.22-18.05,30.96-8.22,5.14-19.09,7.75-32.29,7.75Z"/>
          </g>
        </g>
        <g>
          <g>
            <path class="uuid-eee0abd8-4782-406f-86a2-ac03328a78be" d="M63.95,277.58c-13.6,0-25.61-4.25-35.7-12.62-11.63-9.65-18.26-22.77-19.68-39-1.45-16.62,2.94-31.11,12.76-42.38-6.66-5.18-10.7-12.63-11.45-21.22l-.32-3.64c-.71-8.18,1.27-16.17,5.74-23.11,4.78-7.42,11.75-12.52,20.17-14.73,15.98-4.37,29.26-6.98,40.56-7.97,4.81-.42,9.45-.63,13.79-.63,18.28,0,32.52,3.63,43.56,11.11,14.76,10.01,23.21,26.22,25.14,48.2l5.43,62.09c.77,8.81-1.88,17.12-7.67,24.02-5.79,6.9-13.51,10.96-22.33,11.73l-14.33,1.25c-1.03.09-2.06.13-3.06.13-5.63,0-11.07-1.4-15.93-4.09-9.02,6.04-19.38,9.6-30.85,10.61-1.96.17-3.92.26-5.84.26h0Z"/>
            <path class="uuid-eee0abd8-4782-406f-86a2-ac03328a78be" d="M179,265.34c-7.72,0-15.02-2.7-21.1-7.8-6.89-5.77-10.94-13.49-11.71-22.31l-12.66-144.66c-.77-8.82,1.88-17.12,7.67-24.02,5.79-6.9,13.51-10.95,22.32-11.72l17.28-1.51c.98-.09,1.97-.13,2.93-.13,7.71,0,15,2.69,21.08,7.79,6.91,5.8,10.96,13.52,11.74,22.33l1.63,18.68c4.55-1.41,9.26-2.33,14.08-2.75,2.11-.18,4.22-.28,6.28-.28,17.66,0,32.7,6.56,44.7,19.5,12.16,13.11,19.4,32.08,21.53,56.37,2.09,23.93-1.99,43.83-12.14,59.16-10.96,16.56-26.92,26.2-46.14,27.88-2.15.19-4.29.28-6.37.28-9.19,0-17.89-1.78-25.93-5.3-5.09,4.09-11.22,6.54-17.94,7.12l-14.33,1.25c-.99.08-1.97.13-2.93.13Z"/>
            <path class="uuid-eee0abd8-4782-406f-86a2-ac03328a78be" d="M353.7,252.05c-20.38,0-37.65-5.85-51.3-17.4-15.83-13.37-24.95-32.64-27.11-57.25-2.15-24.61,3.48-45.16,16.75-61.09,13.3-15.97,32.63-25.16,57.44-27.33,3.4-.3,6.77-.45,10.02-.45,20.38,0,37.64,5.85,51.3,17.39,15.83,13.39,24.96,32.65,27.11,57.26,2.15,24.61-3.48,45.17-16.75,61.09-13.3,15.97-32.63,25.17-57.44,27.34-3.41.3-6.78.45-10.02.45Z"/>
            <path class="uuid-eee0abd8-4782-406f-86a2-ac03328a78be" d="M469.99,241.99c-16.26,0-29.3-5.11-38.75-15.2-9.72-10.36-15.44-26.73-17.49-50.04l-5.03-57.55c-.77-8.82,1.88-17.12,7.67-24.02,5.78-6.89,13.5-10.95,22.31-11.72l16.15-1.41c.98-.08,1.97-.13,2.93-.13,7.71,0,15,2.69,21.08,7.79,1.92,1.61,3.61,3.37,5.08,5.25,1.12-2.11,2.48-4.13,4.09-6.05,5.78-6.9,13.5-10.95,22.32-11.72l17.29-1.51c.98-.08,1.97-.13,2.93-.13,7.71,0,15,2.69,21.08,7.79,6.91,5.8,10.96,13.52,11.73,22.33l8.08,92.34c.77,8.81-1.88,17.12-7.67,24.02-5.8,6.9-13.51,10.96-22.33,11.73l-15.46,1.35c-1.03.09-2.06.13-3.06.13-5.58,0-10.96-1.38-15.79-4.01-8.84,5.96-18.87,9.47-29.85,10.43-2.5.22-4.96.33-7.31.33h0Z"/>
            <path class="uuid-eee0abd8-4782-406f-86a2-ac03328a78be" d="M626.48,228.19c-16.88,0-30.35-4.31-40.04-12.81-11.4-10-17.94-26.26-19.99-49.7l-1.75-20.01c-5.43-1.05-10.52-3.5-14.94-7.22-6.89-5.78-10.94-13.49-11.71-22.31l-.32-3.64c-.77-8.81,1.88-17.12,7.67-24.01,3.72-4.43,8.3-7.72,13.45-9.7l-1.01-11.6c-.77-8.81,1.88-17.12,7.67-24.02,5.78-6.9,13.5-10.95,22.32-11.72l17.29-1.51c.98-.09,1.96-.13,2.93-.13,7.71,0,15,2.69,21.08,7.79,6.91,5.8,10.96,13.52,11.73,22.32l.91,10.35,2.39-.21c.98-.08,1.96-.13,2.93-.13,7.71,0,15,2.69,21.08,7.79,6.91,5.8,10.96,13.52,11.73,22.33l.32,3.64c.77,8.81-1.88,17.12-7.66,24.01-5.79,6.9-13.51,10.95-22.32,11.73l-2.39.21,1.23,14.04c1.59-.24,3.18-.37,4.76-.37,6.04,0,11.79,1.71,17.06,5.09,8.08,5.18,12.98,13.2,13.8,22.58l.52,5.91c.72,8.26-1.31,16.27-5.87,23.18-4.97,7.51-12.18,12.48-20.85,14.39-6.05,1.4-13.43,2.5-21.85,3.23-3.52.31-6.93.46-10.14.46Z"/>
          </g>
          <g>
            <path class="uuid-eee0abd8-4782-406f-86a2-ac03328a78be" d="M63.96,269.02c-11.55,0-21.72-3.58-30.24-10.65-9.81-8.13-15.4-19.29-16.62-33.16-1.54-17.62,4.15-31.74,16.9-41.95.84-.67,1.7-1.32,2.59-1.95-2.99-.51-5.84-1.66-8.53-3.43-5.63-3.72-9.06-9.49-9.65-16.26l-.32-3.64c-.55-6.36.93-12.32,4.41-17.72,3.67-5.71,8.81-9.45,15.25-11.11,15.22-4.17,28.38-6.76,39.03-7.7,4.57-.4,8.95-.6,13.04-.6,16.28,0,29.32,3.24,38.76,9.64,12.52,8.49,19.72,22.57,21.41,41.86l5.43,62.09c.57,6.5-1.4,12.64-5.7,17.77-4.3,5.12-10.01,8.13-16.51,8.7l-14.33,1.25c-.78.07-1.56.1-2.32.1-5.78,0-11.01-1.87-15.54-5.56-.21-.17-.41-.33-.6-.51-8.88,7.33-19.41,11.57-31.38,12.62-1.71.15-3.42.23-5.09.23ZM81.69,214.47c-.5.15-.94.29-1.31.44.47-.12.9-.26,1.31-.44Z"/>
            <path class="uuid-eee0abd8-4782-406f-86a2-ac03328a78be" d="M179,256.78c-5.76,0-11.01-1.95-15.59-5.8-5.11-4.29-8.12-10-8.69-16.5l-12.66-144.66c-.57-6.51,1.4-12.65,5.7-17.77,4.3-5.12,10.01-8.13,16.51-8.7l17.28-1.51c.74-.06,1.47-.1,2.18-.1,5.75,0,11,1.95,15.58,5.79,5.13,4.31,8.14,10.02,8.71,16.52l2.65,30.31c6.97-3.7,14.45-5.91,22.34-6.6,1.86-.16,3.72-.25,5.53-.25,15.18,0,28.11,5.64,38.42,16.76,10.83,11.68,17.32,28.94,19.28,51.29,1.92,21.95-1.7,40.01-10.75,53.68-9.61,14.51-22.98,22.61-39.75,24.08-1.89.16-3.78.25-5.62.25-9.95,0-19.19-2.4-27.54-7.14-.14.17-.29.35-.44.52-4.29,4.97-10.05,7.9-16.64,8.48l-14.33,1.25c-.74.06-1.47.1-2.19.1ZM222.92,163.7c-.33,0-.68.02-1.04.05-2.33.2-4.09,1.07-5.72,2.82-1.88,2.02-1.79,3.06-1.75,3.56l2.19,25.02c.04.5.13,1.54,2.34,3.2,1.67,1.26,3.28,1.83,5.2,1.83.3,0,.61-.01.92-.04,2.21-.19,3.41-.98,4.59-3.01,1.26-2.15,2.58-6.65,1.78-15.88-.96-10.95-3.49-14.94-4.92-16.35-1.16-1.14-2.12-1.2-3.59-1.2Z"/>
            <path class="uuid-eee0abd8-4782-406f-86a2-ac03328a78be" d="M353.7,243.49c-18.3,0-33.7-5.17-45.77-15.37-14.04-11.86-22.15-29.18-24.1-51.46-1.95-22.28,3.03-40.74,14.8-54.86,11.79-14.15,29.16-22.32,51.61-24.29,3.16-.28,6.28-.42,9.27-.42,18.3,0,33.7,5.17,45.78,15.37,14.04,11.87,22.15,29.19,24.11,51.46,1.95,22.28-3.03,40.74-14.8,54.86-11.79,14.15-29.16,22.32-51.61,24.29-3.16.28-6.28.42-9.28.42ZM355.86,149.77c-.33,0-.68.02-1.04.05-3.14.27-3.59,1.2-4,2.02-.54,1.1-2.21,5.73-1.04,19.04,1.16,13.31,3.61,17.58,4.33,18.57.6.82,1.14,1.35,3.24,1.35.33,0,.68-.02,1.04-.05,3.14-.27,3.59-1.21,4-2.03.54-1.1,2.21-5.73,1.04-19.04-1.17-13.31-3.61-17.58-4.33-18.57-.59-.81-1.14-1.35-3.23-1.35Z"/>
            <path class="uuid-eee0abd8-4782-406f-86a2-ac03328a78be" d="M470,233.43c-13.8,0-24.74-4.2-32.51-12.49-8.36-8.92-13.34-23.61-15.2-44.94l-5.03-57.55c-.57-6.51,1.4-12.65,5.7-17.77,4.29-5.12,10-8.12,16.5-8.7l16.15-1.41c.73-.06,1.47-.1,2.18-.1,5.75,0,11,1.95,15.58,5.79,5.13,4.31,8.13,10.02,8.7,16.51l4.84,55.27c.31,3.55.79,5.64,1.13,6.76.19,0,.4-.02.6-.04.88-.08,2.09-.4,3.77-2.28.6-.67,1.59-1.91,1.52-2.77l-5.04-57.55c-.57-6.5,1.4-12.65,5.7-17.77,4.29-5.12,10-8.13,16.51-8.7l17.29-1.51c.74-.06,1.47-.1,2.18-.1,5.75,0,11,1.95,15.58,5.79,5.13,4.31,8.13,10.02,8.7,16.51l8.08,92.34c.57,6.5-1.4,12.64-5.7,17.77-4.3,5.12-10.01,8.13-16.51,8.7l-15.46,1.35c-.78.07-1.56.1-2.32.1-5.78,0-11.01-1.87-15.54-5.56-.16-.13-.31-.25-.46-.38-8.6,7.22-18.8,11.38-30.38,12.4-2.25.2-4.46.3-6.56.3Z"/>
            <path class="uuid-eee0abd8-4782-406f-86a2-ac03328a78be" d="M626.48,219.63c-14.74,0-26.31-3.59-34.38-10.68-9.67-8.47-15.26-22.87-17.11-44.01l-2.39-27.3c-.58.04-1.16.06-1.73.06-5.77,0-11.01-1.95-15.59-5.8-5.11-4.29-8.12-10-8.69-16.5l-.32-3.64c-.57-6.5,1.4-12.64,5.7-17.76,4.2-5,9.75-7.99,16.06-8.66l-1.65-18.88c-.57-6.5,1.4-12.65,5.7-17.77,4.29-5.12,10-8.13,16.51-8.7l17.29-1.51c.73-.06,1.46-.1,2.18-.1,5.76,0,11,1.95,15.58,5.79,5.12,4.31,8.13,10.01,8.7,16.51l1.65,18.88,10.92-.96c.73-.06,1.47-.1,2.18-.1,5.76,0,11,1.95,15.58,5.79,5.13,4.31,8.13,10.02,8.7,16.51l.32,3.64c.57,6.5-1.4,12.65-5.7,17.77-4.3,5.12-10.01,8.13-16.51,8.7l-10.92.95,1.99,22.74c.39,4.45.84,7.29,1.2,9.05.24-.01.48-.03.73-.05,1.54-.13,3.56-.5,6-1.09,1.82-.42,3.6-.63,5.34-.63,4.38,0,8.57,1.26,12.45,3.74,5.79,3.71,9.3,9.43,9.88,16.12l.52,5.91c.56,6.4-.95,12.36-4.49,17.72-3.74,5.65-9.16,9.37-15.66,10.77-5.59,1.3-12.57,2.33-20.64,3.04-3.27.29-6.43.43-9.4.43h0Z"/>
          </g>
          <g>
            <path class="uuid-eee0abd8-4782-406f-86a2-ac03328a78be" d="M61.11,263.31c-9.63,0-17.73-2.84-24.77-8.67-8.1-6.71-12.53-15.65-13.55-27.32-2.54-29.05,17.79-45.67,60.42-49.41l6.25-.55c-.74-6.45-4.17-9.21-11.39-9.21-.81,0-1.67.04-2.57.12-8.88.78-20.44,3.16-34.37,7.08-1.27.36-2.55.54-3.79.54-2.58,0-5.07-.78-7.39-2.31-3.51-2.32-5.47-5.64-5.84-9.87l-.32-3.64c-.39-4.42.65-8.57,3.08-12.34,2.47-3.85,5.91-6.36,10.19-7.46,14.81-4.05,27.5-6.57,37.63-7.46,4.32-.38,8.46-.57,12.29-.57,14.53,0,25.96,2.75,33.95,8.17,10.28,6.97,16.23,18.92,17.69,35.51l5.43,62.09c.37,4.25-.88,8.13-3.73,11.52-2.85,3.39-6.44,5.3-10.7,5.67l-14.33,1.25c-.54.05-1.06.07-1.57.07-3.76,0-7.17-1.22-10.14-3.64-2.32-1.88-3.99-4.18-4.98-6.84-8.78,10.29-19.67,15.88-33.15,17.06-1.48.13-2.94.19-4.34.19ZM85.79,207.48c-7.02.61-12.18,2.08-15.33,4.37-2.75,1.99-3.93,4.67-3.62,8.17.41,4.71,2.65,6.72,7.49,6.72.53,0,1.1-.03,1.68-.08,5.2-.45,9.22-2.38,12.29-5.89,3.04-3.48,4.28-7.82,3.8-13.28l-.05-.57-6.25.55Z"/>
            <path class="uuid-eee0abd8-4782-406f-86a2-ac03328a78be" d="M176.15,251.07c-3.7,0-7.09-1.28-10.08-3.79-3.39-2.84-5.3-6.44-5.67-10.7l-12.66-144.66c-.37-4.25.88-8.13,3.73-11.52,2.85-3.39,6.45-5.3,10.7-5.67l17.29-1.51c.48-.04.96-.06,1.43-.06,3.69,0,7.08,1.28,10.08,3.79,3.4,2.85,5.3,6.45,5.67,10.7l3.94,45.07c8.95-8.03,19.13-12.59,30.33-13.57,1.62-.14,3.23-.21,4.79-.21,12.88,0,23.4,4.58,32.15,14.02,9.51,10.26,15.24,25.81,17.02,46.22,1.75,19.97-1.4,36.2-9.36,48.21-8.09,12.22-19.32,19.04-33.36,20.27-1.64.14-3.29.22-4.88.22-11.7,0-21.8-3.67-30.75-11.19-.53,2.77-1.77,5.29-3.7,7.53-2.85,3.3-6.52,5.16-10.91,5.55l-14.33,1.25c-.49.04-.97.06-1.44.06ZM220.06,157.99c-.58,0-1.18.03-1.79.08-4.47.39-8.14,2.2-11.24,5.52-3.01,3.24-4.33,6.55-4.01,10.14l2.19,25.02c.31,3.59,2.18,6.63,5.71,9.29,3.17,2.39,6.55,3.55,10.35,3.55.54,0,1.11-.02,1.67-.07,5.05-.44,8.62-2.74,11.24-7.22,2.7-4.62,3.71-11.87,2.91-20.94-2.22-25.36-13.37-25.36-17.04-25.36Z"/>
            <path class="uuid-eee0abd8-4782-406f-86a2-ac03328a78be" d="M350.85,237.78c-16.22,0-29.77-4.49-40.25-13.35-12.25-10.35-19.35-25.72-21.1-45.67-1.75-19.94,2.58-36.31,12.85-48.64,10.28-12.33,25.68-19.48,45.78-21.24,2.9-.25,5.77-.38,8.52-.38,16.22,0,29.77,4.49,40.25,13.35,12.26,10.36,19.35,25.72,21.1,45.67,1.74,19.95-2.58,36.31-12.85,48.63-10.28,12.33-25.68,19.48-45.78,21.24-2.91.25-5.78.38-8.53.38ZM353.01,144.06c-.58,0-1.18.03-1.79.08-5.43.47-8.9,2.63-10.94,6.79-2.22,4.53-2.85,12.46-1.88,23.55.97,11.1,2.97,18.79,5.94,22.87,2.42,3.32,5.65,4.87,10.16,4.87.58,0,1.18-.03,1.79-.08,5.42-.47,8.9-2.63,10.94-6.79,2.22-4.53,2.85-12.46,1.88-23.55-.97-11.09-2.97-18.79-5.94-22.87-2.42-3.32-5.65-4.87-10.15-4.87Z"/>
            <path class="uuid-eee0abd8-4782-406f-86a2-ac03328a78be" d="M467.14,227.72c-11.34,0-20.18-3.29-26.26-9.78-7-7.46-11.23-20.49-12.92-39.83l-5.03-57.54c-.37-4.25.88-8.13,3.73-11.52,2.84-3.39,6.44-5.3,10.69-5.67l16.15-1.41c.49-.04.96-.06,1.43-.06,3.69,0,7.08,1.28,10.08,3.79,3.4,2.85,5.3,6.45,5.67,10.7l4.84,55.27c.72,8.29,2.44,11.35,3.39,12.44.47.53,1.88,2.14,6,2.14.51,0,1.05-.02,1.61-.07,3.53-.31,6.61-1.97,9.4-5.09,2.75-3.06,3.95-6.08,3.67-9.23l-5.03-57.55c-.37-4.25.88-8.13,3.73-11.52,2.84-3.39,6.44-5.3,10.69-5.67l17.29-1.51c.49-.04.96-.06,1.43-.06,3.69,0,7.08,1.28,10.08,3.79,3.4,2.85,5.3,6.45,5.67,10.7l8.08,92.34c.37,4.25-.88,8.13-3.73,11.52-2.85,3.39-6.45,5.3-10.7,5.67l-15.46,1.35c-.54.05-1.06.07-1.57.07-3.76,0-7.17-1.22-10.14-3.64-2.29-1.87-3.95-4.13-4.95-6.76-8.47,10.2-19,15.74-32.05,16.88-2.01.17-3.96.26-5.82.26Z"/>
            <path class="uuid-eee0abd8-4782-406f-86a2-ac03328a78be" d="M623.63,213.92c-12.6,0-22.27-2.88-28.74-8.55-7.93-6.95-12.58-19.49-14.23-38.32l-3.13-35.82-8.07.7c-.49.04-.97.06-1.44.06-3.7,0-7.09-1.28-10.08-3.79-3.39-2.84-5.3-6.44-5.67-10.7l-.32-3.64c-.37-4.25.88-8.12,3.73-11.52,2.85-3.39,6.45-5.3,10.7-5.67l8.07-.71-2.39-27.41c-.37-4.25.88-8.13,3.73-11.52,2.84-3.39,6.44-5.3,10.7-5.67l17.28-1.51c.48-.04.96-.06,1.43-.06,3.69,0,7.08,1.27,10.08,3.79,3.39,2.85,5.3,6.45,5.67,10.7l2.4,27.41,19.45-1.7c.49-.04.97-.06,1.44-.06,3.69,0,7.08,1.28,10.08,3.79,3.39,2.85,5.3,6.45,5.67,10.7l.32,3.64c.37,4.25-.88,8.13-3.73,11.52-2.85,3.39-6.45,5.3-10.7,5.67l-19.44,1.7,2.73,31.27c1.01,11.54,2.54,14.56,3.15,15.32.8,1,2.85,1.57,5.64,1.57.74,0,1.56-.04,2.42-.11,1.97-.17,4.41-.61,7.25-1.29,1.14-.26,2.25-.39,3.34-.39,2.72,0,5.35.8,7.83,2.39,3.61,2.31,5.61,5.56,5.97,9.65l.52,5.92c.39,4.43-.66,8.55-3.1,12.25-2.51,3.8-5.99,6.19-10.32,7.12-5.3,1.23-11.92,2.21-19.58,2.88-3.02.26-5.93.4-8.65.4Z"/>
          </g>
          <g>
            <path class="uuid-eee0abd8-4782-406f-86a2-ac03328a78be" d="M66.81,257.6c-9.63,0-17.73-2.84-24.77-8.67-8.1-6.71-12.53-15.65-13.55-27.32-2.54-29.05,17.79-45.67,60.42-49.41l6.25-.55c-.74-6.45-4.17-9.21-11.39-9.21-.81,0-1.67.04-2.57.12-8.88.78-20.44,3.16-34.37,7.08-1.27.36-2.55.54-3.79.54-2.58,0-5.07-.78-7.39-2.31-3.51-2.32-5.47-5.64-5.84-9.87l-.32-3.64c-.39-4.42.65-8.57,3.08-12.34,2.47-3.85,5.91-6.36,10.19-7.46,14.81-4.05,27.5-6.57,37.63-7.46,4.32-.38,8.46-.57,12.29-.57,14.53,0,25.96,2.75,33.95,8.17,10.28,6.97,16.23,18.92,17.69,35.51l5.43,62.09c.37,4.25-.88,8.13-3.73,11.52-2.85,3.39-6.44,5.3-10.7,5.67l-14.33,1.25c-.54.05-1.06.07-1.57.07-3.76,0-7.17-1.22-10.14-3.64-2.32-1.88-3.99-4.18-4.98-6.84-8.78,10.29-19.67,15.88-33.15,17.06-1.48.13-2.94.19-4.34.19ZM91.5,201.77c-7.02.61-12.18,2.08-15.33,4.37-2.75,1.99-3.93,4.67-3.62,8.17.41,4.71,2.65,6.72,7.49,6.72.53,0,1.1-.03,1.68-.08,5.2-.45,9.22-2.38,12.29-5.89,3.04-3.48,4.28-7.82,3.8-13.28l-.05-.57-6.25.55Z"/>
            <path class="uuid-eee0abd8-4782-406f-86a2-ac03328a78be" d="M181.85,245.37c-3.7,0-7.09-1.28-10.08-3.79-3.39-2.84-5.3-6.44-5.67-10.7l-12.66-144.66c-.37-4.25.88-8.13,3.73-11.52,2.85-3.39,6.45-5.3,10.7-5.67l17.29-1.51c.48-.04.96-.06,1.43-.06,3.69,0,7.08,1.28,10.08,3.79,3.4,2.85,5.3,6.45,5.67,10.7l3.94,45.07c8.95-8.03,19.13-12.59,30.33-13.57,1.62-.14,3.23-.21,4.79-.21,12.88,0,23.4,4.58,32.15,14.02,9.51,10.26,15.24,25.81,17.02,46.22,1.75,19.97-1.4,36.2-9.36,48.21-8.09,12.22-19.32,19.04-33.36,20.27-1.64.14-3.29.22-4.88.22-11.7,0-21.8-3.67-30.75-11.19-.53,2.77-1.77,5.29-3.7,7.53-2.85,3.3-6.52,5.16-10.91,5.55l-14.33,1.25c-.49.04-.97.06-1.44.06ZM225.77,152.28c-.58,0-1.18.03-1.79.08-4.47.39-8.14,2.2-11.24,5.52-3.01,3.24-4.33,6.55-4.01,10.14l2.19,25.02c.31,3.59,2.18,6.63,5.71,9.29,3.17,2.39,6.55,3.55,10.35,3.55.54,0,1.11-.02,1.67-.07,5.05-.44,8.62-2.74,11.24-7.22,2.7-4.62,3.71-11.87,2.91-20.94-2.22-25.36-13.37-25.36-17.04-25.36Z"/>
            <path class="uuid-eee0abd8-4782-406f-86a2-ac03328a78be" d="M356.55,232.08c-16.22,0-29.77-4.49-40.25-13.35-12.25-10.35-19.35-25.72-21.1-45.67-1.75-19.94,2.58-36.31,12.85-48.64,10.28-12.33,25.68-19.48,45.78-21.24,2.9-.25,5.77-.38,8.52-.38,16.22,0,29.77,4.49,40.25,13.35,12.26,10.36,19.35,25.72,21.1,45.67,1.74,19.95-2.58,36.31-12.85,48.63-10.28,12.33-25.68,19.48-45.78,21.24-2.91.25-5.78.38-8.53.38ZM358.71,138.36c-.58,0-1.18.03-1.79.08-5.43.47-8.9,2.63-10.94,6.79-2.22,4.53-2.85,12.46-1.88,23.55.97,11.1,2.97,18.79,5.94,22.87,2.42,3.32,5.65,4.87,10.16,4.87.58,0,1.18-.03,1.79-.08,5.42-.47,8.9-2.63,10.94-6.79,2.22-4.53,2.85-12.46,1.88-23.55-.97-11.09-2.97-18.79-5.94-22.87-2.42-3.32-5.65-4.87-10.15-4.87Z"/>
            <path class="uuid-eee0abd8-4782-406f-86a2-ac03328a78be" d="M472.85,222.02c-11.34,0-20.18-3.29-26.26-9.78-7-7.46-11.23-20.49-12.92-39.83l-5.03-57.54c-.37-4.25.88-8.13,3.73-11.52,2.84-3.39,6.44-5.3,10.69-5.67l16.15-1.41c.49-.04.96-.06,1.43-.06,3.69,0,7.08,1.28,10.08,3.79,3.4,2.85,5.3,6.45,5.67,10.7l4.84,55.27c.72,8.29,2.44,11.35,3.39,12.44.47.53,1.88,2.14,6,2.14.51,0,1.05-.02,1.61-.07,3.53-.31,6.61-1.97,9.4-5.09,2.75-3.06,3.95-6.08,3.67-9.23l-5.03-57.55c-.37-4.25.88-8.13,3.73-11.52,2.84-3.39,6.44-5.3,10.69-5.67l17.29-1.51c.49-.04.96-.06,1.43-.06,3.69,0,7.08,1.28,10.08,3.79,3.4,2.85,5.3,6.45,5.67,10.7l8.08,92.34c.37,4.25-.88,8.13-3.73,11.52-2.85,3.39-6.45,5.3-10.7,5.67l-15.46,1.35c-.54.05-1.06.07-1.57.07-3.76,0-7.17-1.22-10.14-3.64-2.29-1.87-3.95-4.13-4.95-6.76-8.47,10.2-19,15.74-32.05,16.88-2.01.17-3.96.26-5.82.26Z"/>
            <path class="uuid-eee0abd8-4782-406f-86a2-ac03328a78be" d="M629.33,208.21c-12.6,0-22.27-2.88-28.74-8.55-7.93-6.95-12.58-19.49-14.23-38.32l-3.13-35.82-8.07.7c-.49.04-.97.06-1.44.06-3.7,0-7.09-1.28-10.08-3.79-3.39-2.84-5.3-6.44-5.67-10.7l-.32-3.64c-.37-4.25.88-8.12,3.73-11.52,2.85-3.39,6.45-5.3,10.7-5.67l8.07-.71-2.39-27.41c-.37-4.25.88-8.13,3.73-11.52,2.84-3.39,6.44-5.3,10.7-5.67l17.29-1.51c.48-.04.96-.06,1.43-.06,3.69,0,7.08,1.28,10.08,3.79,3.39,2.85,5.3,6.45,5.67,10.7l2.4,27.41,19.45-1.7c.49-.04.97-.06,1.44-.06,3.69,0,7.08,1.28,10.08,3.79,3.39,2.85,5.3,6.45,5.67,10.7l.32,3.64c.37,4.25-.88,8.13-3.73,11.52-2.85,3.39-6.45,5.3-10.7,5.67l-19.44,1.7,2.73,31.27c1.01,11.54,2.54,14.56,3.15,15.32.8,1,2.85,1.57,5.64,1.57.74,0,1.56-.04,2.42-.11,1.97-.17,4.41-.61,7.25-1.29,1.14-.26,2.25-.39,3.34-.39,2.72,0,5.35.8,7.83,2.39,3.61,2.31,5.61,5.56,5.97,9.65l.52,5.92c.39,4.43-.66,8.55-3.1,12.25-2.51,3.8-5.99,6.19-10.32,7.12-5.3,1.23-11.92,2.21-19.58,2.88-3.02.26-5.93.4-8.65.4Z"/>
          </g>
          <g>
            <path class="uuid-eee0abd8-4782-406f-86a2-ac03328a78be" d="M63.96,263.31c-10.18,0-19.13-3.14-26.59-9.33-8.59-7.12-13.5-16.97-14.58-29.27-1.36-15.6,3.61-28.05,14.78-37,10.64-8.52,26.41-13.59,48.23-15.5l2.97-.26c-1.13-2.72-3.53-3.8-7.86-3.8-.73,0-1.51.04-2.32.11-8.7.76-20.09,3.11-33.85,6.99-1.52.43-3.05.65-4.56.65-3.15,0-6.17-.94-8.97-2.79-4.21-2.78-6.67-6.93-7.11-12l-.32-3.64c-.44-5.07.74-9.82,3.52-14.13,2.87-4.46,6.87-7.39,11.88-8.68,14.95-4.09,27.79-6.63,38.1-7.54,4.4-.38,8.62-.58,12.54-.58,15.12,0,27.08,2.91,35.55,8.66,11.03,7.48,17.4,20.14,18.93,37.63l5.43,62.09c.43,4.96-1.08,9.66-4.38,13.6-3.3,3.94-7.67,6.25-12.63,6.68l-14.33,1.25c-.61.05-1.22.08-1.82.08-4.44,0-8.45-1.44-11.94-4.28-1.52-1.24-2.8-2.62-3.84-4.14-8.77,8.85-19.57,13.89-32.24,15-1.55.14-3.1.2-4.59.2ZM88.9,207.46c-8.1.71-12.03,2.48-13.91,3.84-1.97,1.43-2.68,3.06-2.46,5.62.27,3.04,1.01,4.12,4.65,4.12h0c.45,0,.93-.02,1.44-.07,4.43-.39,7.83-2,10.38-4.92,2.07-2.37,3.13-5.29,3.19-8.87l-3.29.29Z"/>
            <path class="uuid-eee0abd8-4782-406f-86a2-ac03328a78be" d="M179,251.08c-4.38,0-8.4-1.5-11.92-4.46-3.93-3.29-6.24-7.66-6.68-12.63l-12.66-144.66c-.43-4.96,1.08-9.67,4.38-13.6,3.3-3.94,7.67-6.25,12.64-6.68l17.28-1.51c.56-.05,1.13-.07,1.68-.07,4.38,0,8.39,1.5,11.92,4.46,3.94,3.31,6.25,7.68,6.68,12.64l3.47,39.67c8.35-6.27,17.63-9.89,27.71-10.77,1.7-.15,3.39-.22,5.03-.22,13.53,0,25.05,5.02,34.24,14.93,9.95,10.73,15.93,26.85,17.77,47.91,1.8,20.63-1.5,37.47-9.82,50.04-8.6,12.98-20.54,20.23-35.49,21.54-1.73.15-3.45.23-5.13.23-10.81,0-20.62-3.12-29.27-9.31-.75,1.65-1.76,3.21-3.02,4.66-3.35,3.88-7.66,6.07-12.82,6.52l-14.33,1.25c-.56.05-1.13.07-1.69.07ZM222.92,157.99c-.5,0-1.02.02-1.54.07-3.73.33-6.8,1.84-9.39,4.62-3.24,3.48-3.41,6.2-3.26,7.95l2.19,25.02c.15,1.75.79,4.4,4.59,7.26,2.65,2,5.48,2.98,8.63,2.98.46,0,.94-.02,1.42-.06,4.04-.35,6.91-2.2,9.02-5.82,2.43-4.17,3.29-10.65,2.53-19.26-1.99-22.76-10.86-22.76-14.19-22.76Z"/>
            <path class="uuid-eee0abd8-4782-406f-86a2-ac03328a78be" d="M353.7,237.78c-16.92,0-31.08-4.72-42.09-14.02-12.85-10.86-20.29-26.87-22.1-47.6-1.81-20.72,2.73-37.78,13.5-50.71,10.78-12.94,26.84-20.43,47.73-22.25,2.99-.26,5.94-.39,8.77-.39,16.92,0,31.08,4.72,42.09,14.02,12.85,10.87,20.29,26.88,22.1,47.6,1.81,20.72-2.73,37.79-13.5,50.71-10.78,12.94-26.84,20.43-47.73,22.26-2.99.26-5.95.39-8.78.39ZM355.86,144.06c-.49,0-1.01.02-1.54.07-5.62.49-7.56,3.04-8.62,5.2-1.37,2.79-2.75,8.88-1.6,22.05,1.15,13.17,3.58,18.92,5.41,21.43,1.86,2.56,4.28,3.7,7.85,3.7h0c.49,0,1.01-.02,1.54-.07,5.62-.49,7.56-3.04,8.62-5.21,1.37-2.79,2.75-8.88,1.6-22.05-1.15-13.16-3.58-18.92-5.41-21.43-1.86-2.56-4.29-3.7-7.85-3.7Z"/>
            <path class="uuid-eee0abd8-4782-406f-86a2-ac03328a78be" d="M470,227.72c-12.16,0-21.7-3.59-28.34-10.69-7.46-7.95-11.93-21.53-13.68-41.53l-5.03-57.54c-.43-4.96,1.08-9.67,4.39-13.6,3.3-3.93,7.67-6.24,12.63-6.68l16.15-1.41c.56-.05,1.13-.07,1.68-.07,4.38,0,8.39,1.5,11.92,4.46,3.94,3.31,6.25,7.68,6.68,12.64l4.84,55.27c.7,7.98,2.24,10.29,2.69,10.8.68.78,1.98,1.17,3.86,1.17.43,0,.89-.02,1.36-.06,2.77-.24,5.23-1.6,7.52-4.15,2.19-2.44,3.16-4.76,2.95-7.08l-5.03-57.54c-.43-4.96,1.08-9.67,4.39-13.6,3.3-3.94,7.67-6.25,12.63-6.68l17.29-1.51c.56-.05,1.13-.07,1.68-.07,4.38,0,8.39,1.5,11.92,4.46,3.94,3.31,6.25,7.68,6.68,12.64l8.08,92.34c.43,4.96-1.08,9.66-4.38,13.6-3.31,3.94-7.67,6.25-12.63,6.68l-15.46,1.35c-.61.05-1.22.08-1.82.08-4.43,0-8.45-1.44-11.94-4.28-1.48-1.21-2.74-2.55-3.76-4.03-8.47,8.75-18.93,13.71-31.18,14.79-2.08.18-4.12.27-6.06.27Z"/>
            <path class="uuid-eee0abd8-4782-406f-86a2-ac03328a78be" d="M626.48,213.92c-13.32,0-23.62-3.12-30.62-9.26-8.51-7.46-13.48-20.62-15.19-40.22l-2.89-32.98-5.23.46c-.57.05-1.13.07-1.69.07-4.39,0-8.4-1.5-11.92-4.46-3.93-3.3-6.24-7.67-6.68-12.63l-.32-3.64c-.43-4.96,1.08-9.66,4.38-13.6,3.31-3.94,7.67-6.25,12.64-6.68l5.23-.46-2.15-24.57c-.43-4.96,1.08-9.66,4.38-13.6,3.3-3.93,7.67-6.25,12.63-6.68l17.29-1.51c.56-.05,1.13-.07,1.68-.07,4.38,0,8.39,1.5,11.92,4.46,3.94,3.31,6.25,7.68,6.68,12.63l2.15,24.57,16.6-1.45c.56-.05,1.13-.07,1.68-.07,4.38,0,8.39,1.5,11.92,4.46,3.94,3.31,6.25,7.68,6.68,12.64l.32,3.64c.43,4.96-1.08,9.67-4.38,13.6-3.3,3.94-7.67,6.25-12.64,6.68l-16.6,1.45,2.49,28.43c.92,10.46,2.22,13.24,2.52,13.75.2.11,1.09.54,3.43.54.66,0,1.39-.03,2.17-.1,1.83-.16,4.13-.57,6.83-1.22,1.36-.32,2.7-.47,4.01-.47,3.27,0,6.43.96,9.37,2.84,4.33,2.77,6.84,6.86,7.28,11.81l.52,5.91c.45,5.09-.75,9.82-3.56,14.07-2.94,4.44-7.01,7.24-12.1,8.34-5.4,1.26-12.13,2.25-19.94,2.94-3.1.27-6.09.41-8.9.41Z"/>
          </g>
          <g>
            <path class="uuid-eee0abd8-4782-406f-86a2-ac03328a78be" d="M63.96,263.31c-10.18,0-19.13-3.14-26.59-9.33-8.59-7.12-13.5-16.97-14.58-29.27-1.36-15.6,3.61-28.05,14.78-37,10.64-8.52,26.41-13.59,48.23-15.5l2.97-.26c-1.13-2.72-3.53-3.8-7.86-3.8-.73,0-1.51.04-2.32.11-8.7.76-20.09,3.11-33.85,6.99-1.52.43-3.05.65-4.56.65-3.15,0-6.17-.94-8.97-2.79-4.21-2.78-6.67-6.93-7.11-12l-.32-3.64c-.44-5.07.74-9.82,3.52-14.13,2.87-4.46,6.87-7.39,11.88-8.68,14.95-4.09,27.79-6.63,38.1-7.54,4.4-.38,8.62-.58,12.54-.58,15.12,0,27.08,2.91,35.55,8.66,11.03,7.48,17.4,20.14,18.93,37.63l5.43,62.09c.43,4.96-1.08,9.66-4.38,13.6-3.3,3.94-7.67,6.25-12.63,6.68l-14.33,1.25c-.61.05-1.22.08-1.82.08-4.44,0-8.45-1.44-11.94-4.28-1.52-1.24-2.8-2.62-3.84-4.14-8.77,8.85-19.57,13.89-32.24,15-1.55.14-3.1.2-4.59.2ZM88.9,207.46c-8.1.71-12.03,2.48-13.91,3.84-1.97,1.43-2.68,3.06-2.46,5.62.27,3.04,1.01,4.12,4.65,4.12h0c.45,0,.93-.02,1.44-.07,4.43-.39,7.83-2,10.38-4.92,2.07-2.37,3.13-5.29,3.19-8.87l-3.29.29Z"/>
            <path class="uuid-eee0abd8-4782-406f-86a2-ac03328a78be" d="M179,251.08c-4.38,0-8.4-1.5-11.92-4.46-3.93-3.29-6.24-7.66-6.68-12.63l-12.66-144.66c-.43-4.96,1.08-9.67,4.38-13.6,3.3-3.94,7.67-6.25,12.64-6.68l17.28-1.51c.56-.05,1.13-.07,1.68-.07,4.38,0,8.39,1.5,11.92,4.46,3.94,3.31,6.25,7.68,6.68,12.64l3.47,39.67c8.35-6.27,17.63-9.89,27.71-10.77,1.7-.15,3.39-.22,5.03-.22,13.53,0,25.05,5.02,34.24,14.93,9.95,10.73,15.93,26.85,17.77,47.91,1.8,20.63-1.5,37.47-9.82,50.04-8.6,12.98-20.54,20.23-35.49,21.54-1.73.15-3.45.23-5.13.23-10.81,0-20.62-3.12-29.27-9.31-.75,1.65-1.76,3.21-3.02,4.66-3.35,3.88-7.66,6.07-12.82,6.52l-14.33,1.25c-.56.05-1.13.07-1.69.07ZM222.92,157.99c-.5,0-1.02.02-1.54.07-3.73.33-6.8,1.84-9.39,4.62-3.24,3.48-3.41,6.2-3.26,7.95l2.19,25.02c.15,1.75.79,4.4,4.59,7.26,2.65,2,5.48,2.98,8.63,2.98.46,0,.94-.02,1.42-.06,4.04-.35,6.91-2.2,9.02-5.82,2.43-4.17,3.29-10.65,2.53-19.26-1.99-22.76-10.86-22.76-14.19-22.76Z"/>
            <path class="uuid-eee0abd8-4782-406f-86a2-ac03328a78be" d="M353.7,237.78c-16.92,0-31.08-4.72-42.09-14.02-12.85-10.86-20.29-26.87-22.1-47.6-1.81-20.72,2.73-37.78,13.5-50.71,10.78-12.94,26.84-20.43,47.73-22.25,2.99-.26,5.94-.39,8.77-.39,16.92,0,31.08,4.72,42.09,14.02,12.85,10.87,20.29,26.88,22.1,47.6,1.81,20.72-2.73,37.79-13.5,50.71-10.78,12.94-26.84,20.43-47.73,22.26-2.99.26-5.95.39-8.78.39ZM355.86,144.06c-.49,0-1.01.02-1.54.07-5.62.49-7.56,3.04-8.62,5.2-1.37,2.79-2.75,8.88-1.6,22.05,1.15,13.17,3.58,18.92,5.41,21.43,1.86,2.56,4.28,3.7,7.85,3.7h0c.49,0,1.01-.02,1.54-.07,5.62-.49,7.56-3.04,8.62-5.21,1.37-2.79,2.75-8.88,1.6-22.05-1.15-13.16-3.58-18.92-5.41-21.43-1.86-2.56-4.29-3.7-7.85-3.7Z"/>
            <path class="uuid-eee0abd8-4782-406f-86a2-ac03328a78be" d="M470,227.72c-12.16,0-21.7-3.59-28.34-10.69-7.46-7.95-11.93-21.53-13.68-41.53l-5.03-57.54c-.43-4.96,1.08-9.67,4.39-13.6,3.3-3.93,7.67-6.24,12.63-6.68l16.15-1.41c.56-.05,1.13-.07,1.68-.07,4.38,0,8.39,1.5,11.92,4.46,3.94,3.31,6.25,7.68,6.68,12.64l4.84,55.27c.7,7.98,2.24,10.29,2.69,10.8.68.78,1.98,1.17,3.86,1.17.43,0,.89-.02,1.36-.06,2.77-.24,5.23-1.6,7.52-4.15,2.19-2.44,3.16-4.76,2.95-7.08l-5.03-57.54c-.43-4.96,1.08-9.67,4.39-13.6,3.3-3.94,7.67-6.25,12.63-6.68l17.29-1.51c.56-.05,1.13-.07,1.68-.07,4.38,0,8.39,1.5,11.92,4.46,3.94,3.31,6.25,7.68,6.68,12.64l8.08,92.34c.43,4.96-1.08,9.66-4.38,13.6-3.31,3.94-7.67,6.25-12.63,6.68l-15.46,1.35c-.61.05-1.22.08-1.82.08-4.43,0-8.45-1.44-11.94-4.28-1.48-1.21-2.74-2.55-3.76-4.03-8.47,8.75-18.93,13.71-31.18,14.79-2.08.18-4.12.27-6.06.27Z"/>
            <path class="uuid-eee0abd8-4782-406f-86a2-ac03328a78be" d="M626.48,213.92c-13.32,0-23.62-3.12-30.62-9.26-8.51-7.46-13.48-20.62-15.19-40.22l-2.89-32.98-5.23.46c-.57.05-1.13.07-1.69.07-4.39,0-8.4-1.5-11.92-4.46-3.93-3.3-6.24-7.67-6.68-12.63l-.32-3.64c-.43-4.96,1.08-9.66,4.38-13.6,3.31-3.94,7.67-6.25,12.64-6.68l5.23-.46-2.15-24.57c-.43-4.96,1.08-9.66,4.38-13.6,3.3-3.93,7.67-6.25,12.63-6.68l17.29-1.51c.56-.05,1.13-.07,1.68-.07,4.38,0,8.39,1.5,11.92,4.46,3.94,3.31,6.25,7.68,6.68,12.63l2.15,24.57,16.6-1.45c.56-.05,1.13-.07,1.68-.07,4.38,0,8.39,1.5,11.92,4.46,3.94,3.31,6.25,7.68,6.68,12.64l.32,3.64c.43,4.96-1.08,9.67-4.38,13.6-3.3,3.94-7.67,6.25-12.64,6.68l-16.6,1.45,2.49,28.43c.92,10.46,2.22,13.24,2.52,13.75.2.11,1.09.54,3.43.54.66,0,1.39-.03,2.17-.1,1.83-.16,4.13-.57,6.83-1.22,1.36-.32,2.7-.47,4.01-.47,3.27,0,6.43.96,9.37,2.84,4.33,2.77,6.84,6.86,7.28,11.81l.52,5.91c.45,5.09-.75,9.82-3.56,14.07-2.94,4.44-7.01,7.24-12.1,8.34-5.4,1.26-12.13,2.25-19.94,2.94-3.1.27-6.09.41-8.9.41Z"/>
          </g>
        </g>
      </g>
      <g>
        <g>
          <g>
            <path class="uuid-eee0abd8-4782-406f-86a2-ac03328a78be" d="M324.57,440.91c-.8,0-1.62-.04-2.43-.11l-20.93-1.83c-7.36-.65-13.75-4.06-18.47-9.86-4.62-5.67-6.73-12.48-6.1-19.67l8.87-101.33-15.58-1.36c-7.28-.64-13.66-4-18.45-9.71-4.79-5.7-6.99-12.57-6.35-19.85l1.01-11.6c.64-7.27,3.99-13.65,9.71-18.45,5.04-4.23,11.06-6.46,17.42-6.46.8,0,1.62.04,2.43.11l105.99,9.27c7.27.64,13.65,3.99,18.44,9.7,4.8,5.73,7,12.59,6.36,19.86l-1.01,11.6c-.64,7.28-3.99,13.65-9.71,18.45-5.04,4.23-11.06,6.46-17.42,6.46-.8,0-1.62-.04-2.43-.11l-15.58-1.36-8.87,101.33c-.63,7.2-3.89,13.53-9.44,18.32-4.99,4.32-11.03,6.61-17.47,6.61Z"/>
            <path class="uuid-eee0abd8-4782-406f-86a2-ac03328a78be" d="M410.32,448.41c-.8,0-1.62-.04-2.43-.11l-18.42-1.61c-7.28-.64-13.66-4-18.45-9.71-4.78-5.69-6.98-12.56-6.35-19.84l8.08-92.34c.64-7.28,3.99-13.66,9.71-18.45,5.03-4.22,11.06-6.46,17.42-6.46.8,0,1.62.04,2.43.11l17.29,1.51c7.27.64,13.64,3.99,18.44,9.7.75.9,1.44,1.82,2.06,2.77,8.97-4.51,18.96-7.01,29.91-7.48.39-.02.77-.02,1.15-.02,7.47,0,14.29,3.23,19.21,9.08,4.8,5.73,6.99,12.67,6.34,20.08l-.52,5.91c-.63,7.18-3.84,13.48-9.29,18.2-5.09,4.4-11.42,6.86-18.3,7.12-8.5.36-15.16,2.7-20.3,7.15-4.8,4.16-7.31,9.19-7.89,15.82l-2.95,33.66c-.64,7.27-3.99,13.66-9.71,18.45-5.04,4.22-11.06,6.46-17.42,6.46Z"/>
            <path class="uuid-eee0abd8-4782-406f-86a2-ac03328a78be" d="M583.18,463.53c-.8,0-1.62-.04-2.44-.11l-14.33-1.25c-6.83-.6-12.86-3.47-17.52-8.33-8.32,4.3-17.35,6.47-27,6.47-1.88,0-3.8-.08-5.71-.25-14.44-1.26-26.19-7.12-34.91-17.39-8.76-10.32-12.55-22.98-11.27-37.64,1.42-16.17,8.5-29.16,20.48-37.58.97-.68,1.97-1.34,3-1.96-1.25-.83-2.45-1.78-3.59-2.86-5.54-5.24-8.23-12.35-7.56-20.01l.32-3.64c.6-6.9,3.43-13.26,8.17-18.38,5.02-5.42,11.48-8.6,18.7-9.19,9.78-.91,18.7-1.37,26.5-1.37,4.98,0,9.65.19,13.86.56,23.6,2.07,40.34,8.18,51.18,18.69,11.5,11.16,16.44,27.05,14.67,47.23l-5.43,62.09c-.63,7.27-3.99,13.65-9.7,18.45-5.04,4.23-11.06,6.46-17.42,6.46ZM533.93,403.11h0Z"/>
            <path class="uuid-eee0abd8-4782-406f-86a2-ac03328a78be" d="M720.68,475.56c-.8,0-1.62-.04-2.43-.11l-16.15-1.41c-7.28-.64-13.66-4-18.45-9.71-4.78-5.69-6.98-12.56-6.35-19.84l4.84-55.27c.14-1.58.19-2.82.18-3.79-.5.21-1.03.59-1.37.85-.5.39-.78.69-.93.86l-5,57.15c-.64,7.27-3.99,13.66-9.71,18.45-5.04,4.22-11.06,6.46-17.42,6.46-.8,0-1.62-.04-2.43-.11l-17.29-1.51c-7.28-.64-13.66-4-18.45-9.71-4.79-5.69-6.99-12.56-6.35-19.84l8.08-92.34c.64-7.28,3.99-13.66,9.71-18.45,5.04-4.22,11.06-6.46,17.42-6.46.8,0,1.62.04,2.43.11l15.46,1.35c6.76.59,12.73,3.41,17.37,8.17,8.1-4.26,16.89-6.41,26.29-6.41,1.79,0,3.62.08,5.44.24,18.41,1.61,31.69,8.68,39.47,21.03,7.08,11.23,9.56,27.63,7.59,50.13l-4.84,55.27c-.64,7.27-3.99,13.66-9.71,18.45-5.04,4.22-11.06,6.46-17.42,6.46Z"/>
            <path class="uuid-eee0abd8-4782-406f-86a2-ac03328a78be" d="M810.34,485.34c-3.51,0-7.23-.17-11.05-.5-13.27-1.16-26.68-3.66-39.88-7.42-.07-.02-.13-.04-.2-.06-6.8-2.05-12.47-6.34-16.38-12.42-3.77-5.86-5.44-12.68-4.82-19.74l.52-5.91c.69-7.83,4.79-14.32,11.57-18.26,2.05-1.2,4.19-2.08,6.39-2.65-.35-.35-.69-.7-1.03-1.06-9.67-10.24-14.08-23.68-12.75-38.86,1.41-16.08,9.22-28.77,22.59-36.7,9.57-5.67,22.06-8.55,37.13-8.55,3.91,0,8.07.19,12.38.57,12.46,1.09,24.13,2.94,34.66,5.49.04.01.08.02.13.03,7.1,1.79,13.01,5.88,17.07,11.84,3.94,5.8,5.69,12.57,5.07,19.59l-.42,4.78c-.66,7.58-4.63,14.07-11.18,18.26-1.84,1.18-3.75,2.1-5.7,2.77.85.77,1.66,1.57,2.44,2.38,9.62,10.15,13.77,23.56,12.34,39.88-1.43,16.39-9.06,29.35-22.04,37.47-9.6,6.01-21.99,9.06-36.83,9.06Z"/>
          </g>
          <g>
            <path class="uuid-45d99d9c-3896-49d7-81fc-8efc1a93953e" d="M324.57,432.34c-.55,0-1.12-.03-1.68-.07l-20.93-1.83c-5-.44-9.35-2.77-12.58-6.74-3.23-3.97-4.65-8.52-4.22-13.52l9.61-109.86-24.11-2.11c-4.97-.44-9.34-2.75-12.64-6.68-3.3-3.93-4.82-8.63-4.38-13.6l1.01-11.6c.43-4.96,2.74-9.33,6.68-12.63,3.53-2.96,7.54-4.46,11.92-4.46.56,0,1.12.03,1.69.07l105.99,9.27c4.96.43,9.33,2.74,12.63,6.68,3.31,3.94,4.82,8.65,4.39,13.6l-1.01,11.6c-.43,4.96-2.75,9.33-6.68,12.64-3.53,2.96-7.54,4.46-11.92,4.46-.55,0-1.12-.03-1.68-.07l-24.11-2.11-9.61,109.85c-.44,5-2.62,9.24-6.5,12.59-3.46,3-7.46,4.52-11.87,4.52Z"/>
            <path class="uuid-45d99d9c-3896-49d7-81fc-8efc1a93953e" d="M410.32,439.85c-.55,0-1.12-.03-1.68-.07l-18.42-1.61c-4.97-.43-9.34-2.75-12.64-6.68-3.3-3.93-4.82-8.63-4.38-13.6l8.08-92.34c.44-5.04,2.69-9.29,6.68-12.64,3.52-2.96,7.53-4.46,11.92-4.46.55,0,1.12.03,1.68.07l17.29,1.51c4.96.43,9.33,2.74,12.63,6.68,2.46,2.94,3.93,6.3,4.34,9.88,9.84-7.1,21.41-10.97,34.56-11.54.26-.01.52-.02.78-.02,4.97,0,9.34,2.08,12.66,6.03,3.31,3.94,4.81,8.73,4.37,13.83l-.52,5.91c-.44,5-2.58,9.19-6.37,12.48-3.65,3.15-8.02,4.85-13.01,5.03-10.55.44-18.93,3.46-25.59,9.24-6.5,5.63-10.04,12.68-10.81,21.54l-2.95,33.66c-.43,4.96-2.74,9.33-6.68,12.64-3.52,2.96-7.53,4.46-11.92,4.46Z"/>
            <path class="uuid-45d99d9c-3896-49d7-81fc-8efc1a93953e" d="M583.18,454.97c-.56,0-1.12-.03-1.69-.07l-14.33-1.25c-5.15-.45-9.47-2.65-12.82-6.52-1.28-1.48-2.3-3.07-3.06-4.75-8.82,6.24-18.67,9.39-29.39,9.39-1.63,0-3.3-.07-4.96-.22-12.12-1.06-21.92-5.91-29.13-14.4-7.23-8.51-10.35-19.06-9.27-31.36,3-34.22,32.76-41.4,57.21-41.4,4.38,0,9.08.22,13.97.64l3.01.26c-.58-2.65-2.76-4.83-9.44-5.41-3.02-.26-6.42-.4-10.12-.4-6.94,0-15.16.47-24.43,1.4-.59.06-1.19.09-1.78.09-4.17,0-8.04-1.57-11.17-4.54-3.66-3.46-5.36-7.98-4.92-13.05l.32-3.64c.44-5.07,2.43-9.54,5.92-13.31,3.61-3.9,8.05-6.08,13.21-6.48,9.47-.88,18.15-1.33,25.71-1.33,4.73,0,9.15.18,13.12.52,21.56,1.89,36.59,7.22,45.96,16.31,9.56,9.28,13.64,22.85,12.11,40.34l-5.43,62.09c-.43,4.96-2.74,9.33-6.68,12.63-3.53,2.96-7.53,4.46-11.92,4.46ZM541.67,400.05c-12.22,0-12.64,4.7-12.81,6.7-.21,2.44-.4,4.55,5.29,5.05.62.05,1.23.08,1.82.08,3.62,0,6.65-1.02,9.26-3.13,2.46-1.98,4-4.67,4.68-8.18l-3.3-.29c-1.76-.15-3.42-.23-4.94-.23Z"/>
            <path class="uuid-45d99d9c-3896-49d7-81fc-8efc1a93953e" d="M720.68,467c-.55,0-1.12-.03-1.68-.07l-16.15-1.41c-4.97-.44-9.34-2.75-12.64-6.68-3.3-3.93-4.82-8.63-4.38-13.6l4.84-55.27c.69-7.92-.47-10.45-.84-11.04-.7-1.1-2.9-1.89-6.03-2.17-.3-.03-.6-.04-.89-.04-2.45,0-4.82.92-7.24,2.82-2.58,2.02-3.93,4.13-4.14,6.46l-5.04,57.54c-.43,4.96-2.74,9.33-6.68,12.63-3.52,2.96-7.53,4.46-11.92,4.46-.55,0-1.12-.03-1.68-.07l-17.29-1.51c-4.97-.44-9.34-2.75-12.64-6.68-3.3-3.93-4.82-8.63-4.38-13.6l8.08-92.34c.43-4.97,2.74-9.33,6.68-12.64,3.53-2.96,7.53-4.46,11.91-4.46.56,0,1.12.03,1.69.07l15.47,1.35c5.15.45,9.46,2.64,12.82,6.52,1.25,1.45,2.25,3,3.01,4.63,8.58-6.21,18.16-9.36,28.58-9.36,1.54,0,3.12.07,4.69.21,15.6,1.37,26.7,7.11,32.98,17.07,6.04,9.59,8.1,24.25,6.3,44.81l-4.84,55.27c-.43,4.96-2.74,9.33-6.68,12.64-3.52,2.96-7.53,4.46-11.92,4.46Z"/>
            <path class="uuid-45d99d9c-3896-49d7-81fc-8efc1a93953e" d="M810.34,476.78c-3.26,0-6.73-.16-10.3-.47-12.73-1.11-25.61-3.51-38.28-7.12-4.98-1.5-8.89-4.47-11.72-8.87-2.78-4.31-3.95-9.14-3.5-14.36l.52-5.91c.44-5.05,2.98-9.07,7.34-11.6,2.54-1.48,5.23-2.23,8-2.23,1.75,0,3.53.31,5.29.91,10.61,3.55,20.83,5.78,30.35,6.61.92.08,1.79.12,2.57.12,3.31,0,4.25-.7,4.34-.77,0-.01.03-.12.05-.34.03-.28.02-.48.01-.61-.46-.26-1.86-.93-5.23-1.74-17.91-4.54-30.34-10.72-38.09-18.93-8.06-8.53-11.57-19.38-10.45-32.24,1.17-13.41,7.37-23.53,18.43-30.09,8.23-4.88,19.25-7.35,32.76-7.35,3.66,0,7.57.18,11.63.54,12.04,1.05,23.28,2.83,33.4,5.28,5.16,1.3,9.23,4.11,12.13,8.37,2.85,4.2,4.07,8.91,3.62,14.03l-.42,4.78c-.43,4.95-2.95,9.03-7.27,11.8-2.84,1.82-5.86,2.73-9,2.73-1.51,0-3.06-.22-4.58-.65-8.73-2.52-17.85-4.21-27.13-5.02-1.48-.13-2.81-.2-3.97-.2-2.55,0-3.58.32-3.83.41-.01.06-.02.14-.03.25-.12,1.43,2.64,2.29,4.98,2.76.04,0,.08.02.11.02,18.39,4.08,31.02,9.95,38.61,17.95,7.86,8.29,11.23,19.47,10.02,33.24-1.21,13.8-7.28,24.22-18.05,30.96-8.22,5.14-19.09,7.75-32.29,7.75Z"/>
          </g>
          <g>
            <path class="uuid-0af6ae3c-11c3-44a6-8a3b-83643cbdd874" d="M321.72,426.64c-.31,0-.62-.01-.94-.04l-20.92-1.83c-2.71-.24-4.9-1.42-6.68-3.61-1.81-2.22-2.57-4.63-2.33-7.38l9.93-113.49c.16-1.82-.47-3-1.03-3.66s-1.61-1.5-3.43-1.65l-27.75-2.43c-2.73-.24-4.96-1.43-6.82-3.65-1.86-2.22-2.65-4.62-2.42-7.35l1.01-11.6c.24-2.73,1.43-4.96,3.66-6.82,1.97-1.65,4.07-2.46,6.41-2.46.31,0,.62.01.94.04l105.99,9.27c2.73.24,4.96,1.43,6.82,3.66,1.86,2.22,2.65,4.63,2.41,7.35l-1.01,11.6c-.24,2.73-1.43,4.96-3.66,6.82-1.97,1.65-4.07,2.46-6.41,2.46-.31,0-.62-.01-.94-.04l-27.75-2.43c-.2-.02-.39-.03-.57-.03-2.65,0-4.51,1.76-4.75,4.49l-9.93,113.49c-.24,2.75-1.41,4.99-3.57,6.86-1.9,1.64-3.95,2.44-6.27,2.44Z"/>
            <path class="uuid-0af6ae3c-11c3-44a6-8a3b-83643cbdd874" d="M407.47,434.14c-.31,0-.62-.01-.94-.04l-18.42-1.61c-2.73-.24-4.96-1.43-6.82-3.65-1.87-2.22-2.65-4.62-2.42-7.36l8.08-92.34c.24-2.73,1.43-4.96,3.65-6.82,1.97-1.65,4.07-2.46,6.41-2.46.31,0,.62.01.94.04l17.29,1.51c2.73.24,4.96,1.43,6.82,3.66,1.86,2.22,2.65,4.62,2.41,7.35l-.83,9.55c-.07.83.17,1.64.7,2.26.53.63,1.28,1.01,2.12,1.08.08,0,.2.01.28.01h0c.57,0,1.42-.15,2.26-.85.1-.08.2-.17.28-.27,10.07-11.11,23.06-17.08,38.6-17.74.14,0,.28,0,.41,0,2.46,0,4.4.94,6.1,2.97,1.86,2.22,2.65,4.7,2.39,7.58l-.52,5.91c-.24,2.74-1.37,4.95-3.45,6.76-2.16,1.87-4.69,2.83-7.72,2.94-12.43.52-22.81,4.33-30.88,11.33-8.15,7.06-12.77,16.23-13.73,27.26l-2.95,33.66c-.24,2.73-1.43,4.96-3.65,6.82-1.97,1.65-4.07,2.46-6.41,2.46Z"/>
            <path class="uuid-0af6ae3c-11c3-44a6-8a3b-83643cbdd874" d="M580.32,449.26c-.31,0-.62-.01-.94-.04l-14.33-1.25c-2.9-.25-5.22-1.43-7.09-3.59-1.87-2.16-2.72-4.62-2.6-7.52l.15-1.76c.08-.82-.17-1.63-.7-2.26s-1.28-1.01-2.11-1.08c-.08,0-.2-.01-.28-.01-.57,0-1.42.15-2.27.86-.06.05-.11.1-.17.15-9.1,8.95-19.22,13.29-30.96,13.29-1.38,0-2.8-.06-4.22-.19-9.93-.87-17.56-4.6-23.34-11.41-5.77-6.8-8.15-15-7.27-25.07,1.98-22.6,17.9-33.59,48.68-33.59,4.13,0,8.58.21,13.22.61l7.05.62c.2.02.38.03.57.03,2.65,0,4.51-1.76,4.75-4.49l.02-.23c1.25-14.34-10.31-17.51-17.32-18.13-3.26-.29-6.92-.43-10.87-.43-7.23,0-15.73.49-25.28,1.44-.32.03-.62.05-.92.05-1.99,0-3.72-.72-5.28-2.2-1.77-1.68-2.5-3.61-2.28-6.09l.32-3.64c.28-3.17,1.48-5.87,3.67-8.24,2.13-2.3,4.61-3.53,7.59-3.76,9.33-.87,17.75-1.3,25.04-1.3,4.48,0,8.65.17,12.37.49,19.25,1.68,32.96,6.37,40.75,13.92,7.62,7.4,10.83,18.65,9.54,33.45l-5.43,62.09c-.24,2.73-1.43,4.96-3.65,6.82-1.97,1.65-4.07,2.46-6.41,2.46ZM538.82,394.34c-16.59,0-20.76,7.89-21.34,14.51-.74,8.43,3.9,13.52,13.07,14.32.87.08,1.73.11,2.56.11,5.57,0,10.5-1.69,14.63-5.02,4.8-3.87,7.54-9.37,8.15-16.36l.12-1.37c.16-1.82-.47-3-1.03-3.66s-1.61-1.5-3.43-1.65l-7.05-.62c-2-.18-3.92-.26-5.69-.26Z"/>
            <path class="uuid-0af6ae3c-11c3-44a6-8a3b-83643cbdd874" d="M717.83,461.29c-.31,0-.62-.01-.94-.04l-16.15-1.41c-2.73-.24-4.96-1.43-6.82-3.65-1.87-2.22-2.65-4.62-2.42-7.36l4.84-55.27c.67-7.68-.03-13.03-2.13-16.36-2.25-3.53-6.46-5.59-12.52-6.12-.54-.05-1.09-.07-1.64-.07-4.38,0-8.59,1.56-12.52,4.65-4.48,3.52-6.97,7.7-7.38,12.45l-5.04,57.54c-.24,2.73-1.43,4.96-3.65,6.82-1.97,1.65-4.07,2.46-6.41,2.46-.31,0-.62-.01-.94-.04l-17.29-1.51c-2.73-.24-4.96-1.43-6.82-3.65-1.87-2.22-2.65-4.62-2.42-7.36l8.08-92.34c.24-2.73,1.43-4.96,3.65-6.82,1.97-1.65,4.07-2.46,6.41-2.46.31,0,.62.01.94.04l15.47,1.35c2.9.25,5.22,1.43,7.09,3.59,1.87,2.16,2.72,4.62,2.6,7.52l-.15,1.75c-.14,1.74,1.09,3.2,2.81,3.34.12.01.25.02.36.02,1.21,0,2.11-.55,2.64-1.31,8.78-8.8,18.53-13.09,29.8-13.09,1.29,0,2.62.06,3.95.17,12.79,1.12,21.7,5.53,26.48,13.1,4.93,7.83,6.62,21.12,5.01,39.5l-4.84,55.27c-.24,2.73-1.43,4.96-3.65,6.82-1.97,1.65-4.07,2.46-6.41,2.46Z"/>
            <path class="uuid-0af6ae3c-11c3-44a6-8a3b-83643cbdd874" d="M807.49,471.07c-3.01,0-6.23-.15-9.56-.44-12.19-1.07-24.53-3.36-36.68-6.83-2.89-.87-5.15-2.6-6.87-5.27-1.75-2.72-2.46-5.65-2.17-8.98l.52-5.91c.2-2.25,1.19-3.83,3.12-4.95,1.24-.72,2.44-1.07,3.69-1.07.8,0,1.64.15,2.5.45,11.32,3.79,22.21,6.15,32.39,7.04,1.17.1,2.29.15,3.32.15,10.56,0,12.63-5.6,12.92-8.93.35-3.97-1.17-6.28-2.51-7.52-1.68-1.56-4.61-2.8-9.25-3.9-15.95-4.04-27.35-9.59-33.86-16.48-6.39-6.77-9.06-15.15-8.14-25.62.93-10.65,5.6-18.33,14.27-23.47,6.89-4.08,16.44-6.15,28.39-6.15,3.41,0,7.07.17,10.88.5,11.61,1.02,22.42,2.72,32.13,5.07,3.04.76,5.35,2.36,7.07,4.87,1.73,2.55,2.44,5.32,2.17,8.46l-.42,4.77c-.2,2.3-1.27,4-3.37,5.35-1.45.93-2.88,1.38-4.38,1.38-.73,0-1.48-.11-2.25-.33-9.21-2.66-18.88-4.45-28.72-5.31-1.72-.15-3.31-.23-4.72-.23-3.13,0-5.5.37-7.26,1.12-3.05,1.31-4.82,3.85-5.13,7.34-.37,4.28,1.37,9.81,11.82,11.91,16.38,3.63,27.91,8.84,34.19,15.47,6.18,6.52,8.7,15.22,7.71,26.6-.97,11.14-5.57,19.14-14.06,24.44-6.84,4.28-16.18,6.45-27.75,6.45Z"/>
          </g>
          <g>
            <path class="uuid-45d99d9c-3896-49d7-81fc-8efc1a93953e" d="M327.42,420.93c-.31,0-.62-.01-.94-.04l-20.92-1.83c-2.71-.24-4.9-1.42-6.68-3.61-1.81-2.22-2.57-4.63-2.33-7.38l9.93-113.49c.16-1.82-.47-3-1.03-3.66s-1.61-1.5-3.43-1.65l-27.75-2.43c-2.73-.24-4.96-1.43-6.82-3.65-1.86-2.22-2.65-4.62-2.42-7.35l1.01-11.6c.24-2.73,1.43-4.96,3.66-6.82,1.97-1.65,4.07-2.46,6.41-2.46.31,0,.62.01.94.04l105.99,9.27c2.73.24,4.96,1.43,6.82,3.66,1.86,2.22,2.65,4.63,2.41,7.35l-1.01,11.6c-.24,2.73-1.43,4.96-3.66,6.82-1.97,1.65-4.07,2.46-6.41,2.46-.31,0-.62-.01-.94-.04l-27.75-2.43c-.2-.02-.39-.03-.57-.03-2.65,0-4.51,1.76-4.75,4.49l-9.93,113.49c-.24,2.75-1.41,4.99-3.57,6.86-1.9,1.64-3.95,2.44-6.27,2.44Z"/>
            <path class="uuid-45d99d9c-3896-49d7-81fc-8efc1a93953e" d="M413.17,428.43c-.31,0-.62-.01-.94-.04l-18.42-1.61c-2.73-.24-4.96-1.43-6.82-3.65-1.87-2.22-2.65-4.62-2.42-7.36l8.08-92.34c.24-2.73,1.43-4.96,3.65-6.82,1.97-1.65,4.07-2.46,6.41-2.46.31,0,.62.01.94.04l17.29,1.51c2.73.24,4.96,1.43,6.82,3.66,1.86,2.22,2.65,4.62,2.41,7.35l-.83,9.55c-.07.83.17,1.64.7,2.26.53.63,1.28,1.01,2.12,1.08.08,0,.2.01.28.01h0c.57,0,1.42-.15,2.26-.85.1-.08.2-.17.28-.27,10.07-11.11,23.06-17.08,38.6-17.74.14,0,.28,0,.41,0,2.46,0,4.4.94,6.1,2.97,1.86,2.22,2.65,4.7,2.39,7.58l-.52,5.91c-.24,2.74-1.37,4.95-3.45,6.76-2.16,1.87-4.69,2.83-7.72,2.94-12.43.52-22.81,4.33-30.88,11.33-8.15,7.06-12.77,16.23-13.73,27.26l-2.95,33.66c-.24,2.73-1.43,4.96-3.65,6.82-1.97,1.65-4.07,2.46-6.41,2.46Z"/>
            <path class="uuid-45d99d9c-3896-49d7-81fc-8efc1a93953e" d="M586.03,443.55c-.31,0-.62-.01-.94-.04l-14.33-1.25c-2.9-.25-5.22-1.43-7.09-3.59-1.87-2.16-2.72-4.62-2.6-7.52l.15-1.76c.08-.82-.17-1.63-.7-2.26s-1.28-1.01-2.11-1.08c-.08,0-.2-.01-.28-.01-.57,0-1.42.15-2.27.86-.06.05-.11.1-.17.15-9.1,8.95-19.22,13.29-30.96,13.29-1.38,0-2.8-.06-4.22-.19-9.93-.87-17.56-4.6-23.34-11.41-5.77-6.8-8.15-15-7.27-25.07,1.98-22.6,17.9-33.59,48.68-33.59,4.13,0,8.58.21,13.22.61l7.05.62c.2.02.38.03.57.03,2.65,0,4.51-1.76,4.75-4.49l.02-.23c1.25-14.34-10.31-17.51-17.32-18.13-3.26-.29-6.92-.43-10.87-.43-7.23,0-15.73.49-25.28,1.44-.32.03-.62.05-.92.05-1.99,0-3.72-.72-5.28-2.2-1.77-1.68-2.5-3.61-2.28-6.09l.32-3.64c.28-3.17,1.48-5.87,3.67-8.24,2.13-2.3,4.61-3.53,7.59-3.76,9.33-.87,17.75-1.3,25.04-1.3,4.48,0,8.65.17,12.37.49,19.25,1.68,32.96,6.37,40.75,13.92,7.62,7.4,10.83,18.65,9.54,33.45l-5.43,62.09c-.24,2.73-1.43,4.96-3.65,6.82-1.97,1.65-4.07,2.46-6.41,2.46ZM544.53,388.63c-16.59,0-20.76,7.89-21.34,14.51-.74,8.43,3.9,13.52,13.07,14.32.87.08,1.73.11,2.56.11,5.57,0,10.5-1.69,14.63-5.02,4.8-3.87,7.54-9.37,8.15-16.36l.12-1.37c.16-1.82-.47-3-1.03-3.66s-1.61-1.5-3.43-1.65l-7.05-.62c-2-.18-3.92-.26-5.69-.26Z"/>
            <path class="uuid-45d99d9c-3896-49d7-81fc-8efc1a93953e" d="M723.54,455.59c-.31,0-.62-.01-.94-.04l-16.15-1.41c-2.73-.24-4.96-1.43-6.82-3.65-1.87-2.22-2.65-4.62-2.42-7.36l4.84-55.27c.67-7.68-.03-13.03-2.13-16.36-2.25-3.53-6.46-5.59-12.52-6.12-.54-.05-1.09-.07-1.64-.07-4.38,0-8.59,1.56-12.52,4.65-4.48,3.52-6.97,7.7-7.38,12.45l-5.04,57.54c-.24,2.73-1.43,4.96-3.65,6.82-1.97,1.65-4.07,2.46-6.41,2.46-.31,0-.62-.01-.94-.04l-17.29-1.51c-2.73-.24-4.96-1.43-6.82-3.65-1.87-2.22-2.65-4.62-2.42-7.36l8.08-92.34c.24-2.73,1.43-4.96,3.65-6.82,1.97-1.65,4.07-2.46,6.41-2.46.31,0,.62.01.94.04l15.47,1.35c2.9.25,5.22,1.43,7.09,3.59,1.87,2.16,2.72,4.62,2.6,7.52l-.15,1.75c-.14,1.74,1.09,3.2,2.81,3.34.12.01.25.02.36.02,1.21,0,2.11-.55,2.64-1.31,8.78-8.8,18.53-13.09,29.8-13.09,1.29,0,2.62.06,3.95.17,12.79,1.12,21.7,5.53,26.48,13.1,4.93,7.83,6.62,21.12,5.01,39.5l-4.84,55.27c-.24,2.73-1.43,4.96-3.65,6.82-1.97,1.65-4.07,2.46-6.41,2.46Z"/>
            <path class="uuid-45d99d9c-3896-49d7-81fc-8efc1a93953e" d="M813.2,465.36c-3.01,0-6.23-.15-9.56-.44-12.19-1.07-24.53-3.36-36.68-6.83-2.89-.87-5.15-2.6-6.87-5.27-1.75-2.72-2.46-5.65-2.17-8.98l.52-5.91c.2-2.25,1.19-3.83,3.12-4.95,1.24-.72,2.44-1.07,3.69-1.07.8,0,1.64.15,2.5.45,11.32,3.79,22.21,6.15,32.39,7.04,1.17.1,2.29.15,3.32.15,10.56,0,12.63-5.6,12.92-8.93.35-3.97-1.17-6.28-2.51-7.52-1.68-1.56-4.61-2.8-9.25-3.9-15.95-4.04-27.35-9.59-33.86-16.48-6.39-6.77-9.06-15.15-8.14-25.62.93-10.65,5.6-18.33,14.27-23.47,6.89-4.08,16.44-6.15,28.39-6.15,3.41,0,7.07.17,10.88.5,11.61,1.02,22.42,2.72,32.13,5.07,3.04.76,5.35,2.36,7.07,4.87,1.73,2.55,2.44,5.32,2.17,8.46l-.42,4.77c-.2,2.3-1.27,4-3.37,5.35-1.45.93-2.88,1.38-4.38,1.38-.73,0-1.48-.11-2.25-.33-9.21-2.66-18.88-4.45-28.72-5.31-1.72-.15-3.31-.23-4.72-.23-3.13,0-5.5.37-7.26,1.12-3.05,1.31-4.82,3.85-5.13,7.34-.37,4.28,1.37,9.81,11.82,11.91,16.38,3.63,27.91,8.84,34.19,15.47,6.18,6.52,8.7,15.22,7.71,26.6-.97,11.14-5.57,19.14-14.06,24.44-6.84,4.28-16.18,6.45-27.75,6.45Z"/>
          </g>
        </g>
        <g>
          <g>
            <path class="uuid-eee0abd8-4782-406f-86a2-ac03328a78be" d="M58.25,266.16c-12.23,0-23.02-3.8-32.06-11.3-10.42-8.64-16.35-20.45-17.64-35.11-1.54-17.57,4.08-32.4,16.27-43.02-1.39-.6-2.74-1.33-4.04-2.19-6.37-4.21-10.25-10.74-10.92-18.4l-.32-3.64c-.6-6.91,1.08-13.66,4.85-19.52,3.99-6.21,9.81-10.46,16.82-12.3,15.7-4.29,28.66-6.85,39.61-7.81,4.64-.41,9.11-.61,13.29-.61,17.1,0,30.3,3.31,40.36,10.13,13.27,9,20.89,23.79,22.65,43.97l5.43,62.09c.64,7.27-1.56,14.14-6.35,19.85-4.8,5.72-11.18,9.07-18.45,9.71l-14.33,1.25c-.86.07-1.72.11-2.56.11-5.85,0-11.4-1.81-16.12-5.26-8.9,6.81-19.32,10.76-31.15,11.8-1.8.16-3.59.24-5.34.24Z"/>
            <path class="uuid-eee0abd8-4782-406f-86a2-ac03328a78be" d="M173.29,253.93c-6.36,0-12.39-2.24-17.43-6.47-5.7-4.78-9.06-11.16-9.7-18.44l-12.66-144.66c-.64-7.28,1.56-14.14,6.36-19.85,4.8-5.71,11.17-9.07,18.45-9.7l17.28-1.51c.81-.07,1.63-.11,2.43-.11,6.35,0,12.38,2.23,17.42,6.46,5.72,4.81,9.08,11.18,9.71,18.46l2.29,26.16c6.18-2.76,12.73-4.44,19.61-5.05,1.95-.17,3.89-.26,5.78-.26,16.01,0,29.64,5.94,40.52,17.67,11.28,12.16,18.01,29.99,20.03,52.99,1.98,22.61-1.79,41.29-11.21,55.51-9.97,15.05-24.45,23.82-41.88,25.34-1.97.17-3.95.26-5.88.26-9.71,0-18.71-2.14-26.93-6.39-4.65,4.8-10.64,7.64-17.43,8.24l-14.33,1.25c-.81.07-1.63.11-2.43.11ZM213.73,189.19s.25.44,1.22,1.17c1.18.89,2.18,1.25,3.48,1.25h0c.21,0,.44-.01.67-.03,1.15-.1,1.58-.25,2.38-1.61.69-1.18,2.21-4.93,1.4-14.19-.8-9.13-2.79-12.8-3.61-13.95-.57-.8-.75-.99-2.05-.99-.25,0-.52.01-.8.04-1.63.14-2.72.68-3.87,1.92-.85.91-1,1.4-1.01,1.4l2.2,24.99h0Z"/>
            <path class="uuid-eee0abd8-4782-406f-86a2-ac03328a78be" d="M347.99,240.64c-19,0-35.02-5.4-47.62-16.05-14.64-12.37-23.09-30.33-25.1-53.39-2.02-23.05,3.18-42.21,15.45-56.94,12.3-14.76,30.32-23.27,53.56-25.3,3.24-.28,6.44-.43,9.52-.43,18.99,0,35.01,5.4,47.62,16.04,14.64,12.38,23.09,30.34,25.11,53.39,2.02,23.06-3.18,42.21-15.45,56.94-12.29,14.76-30.31,23.27-53.56,25.3-3.24.28-6.45.43-9.52.43ZM350.8,182.18c.13.03.4.07.85.07h0c.24,0,.51-.01.79-.04.87-.08,1.39-.23,1.61-.31.02-.03.04-.08.07-.13.2-.4,1.91-4.36.76-17.53-1.15-13.17-3.53-16.77-3.8-17.14-.03-.04-.06-.08-.08-.11-.13-.03-.4-.07-.84-.07-.25,0-.51.01-.79.04-.87.08-1.39.23-1.61.31-.02.03-.04.07-.06.12-.2.41-1.92,4.36-.76,17.54,1.15,13.18,3.53,16.77,3.79,17.14.03.04.06.08.08.11Z"/>
            <path class="uuid-eee0abd8-4782-406f-86a2-ac03328a78be" d="M464.29,230.58c-14.62,0-26.26-4.51-34.59-13.39-8.82-9.4-14.04-24.65-15.96-46.64l-5.03-57.54c-.64-7.28,1.56-14.14,6.36-19.85,4.79-5.71,11.17-9.07,18.44-9.7l16.15-1.41c.81-.07,1.63-.11,2.43-.11,6.35,0,12.38,2.23,17.42,6.46,5.72,4.81,9.08,11.18,9.71,18.45l4.84,55.27c.1,1.17.22,2.17.35,3,.06-.07.12-.13.19-.21.43-.48.65-.81.76-1l-5-57.16c-.64-7.27,1.56-14.14,6.36-19.85,4.79-5.71,11.17-9.07,18.44-9.71l17.29-1.51c.81-.07,1.63-.11,2.43-.11,6.35,0,12.38,2.23,17.42,6.46,5.73,4.81,9.08,11.19,9.71,18.45l8.08,92.34c.64,7.27-1.56,14.14-6.35,19.85-4.8,5.72-11.18,9.07-18.45,9.71l-15.46,1.35c-.86.07-1.72.11-2.56.11-5.81,0-11.31-1.79-16.01-5.18-8.67,6.68-18.85,10.63-30.12,11.62-2.33.2-4.62.31-6.81.31Z"/>
            <path class="uuid-eee0abd8-4782-406f-86a2-ac03328a78be" d="M620.77,216.77c-15.46,0-27.66-3.83-36.27-11.39-10.24-8.98-16.16-24-18.07-45.91l-2.16-24.65c-6.04-.2-11.74-2.42-16.54-6.45-5.7-4.78-9.06-11.16-9.7-18.44l-.32-3.64c-.64-7.27,1.56-14.13,6.35-19.85,4.06-4.84,9.26-7.99,15.17-9.23l-1.42-16.23c-.64-7.27,1.56-14.14,6.36-19.85,4.79-5.71,11.17-9.07,18.44-9.71l17.29-1.51c.81-.07,1.63-.11,2.43-.11,6.36,0,12.38,2.23,17.42,6.46,5.72,4.81,9.07,11.18,9.71,18.45l1.4,16.04,8.07-.71c.81-.07,1.63-.11,2.43-.11,6.35,0,12.37,2.23,17.41,6.46,5.72,4.81,9.08,11.19,9.71,18.45l.32,3.64c.64,7.27-1.56,14.14-6.35,19.85-4.8,5.71-11.17,9.07-18.45,9.71l-8.08.71,1.74,19.9c.23,2.6.47,4.61.7,6.16.95-.16,2.17-.4,3.71-.77.03,0,.07-.02.1-.02,1.96-.46,3.95-.69,5.91-.69,4.94,0,9.64,1.41,13.99,4.19,6.55,4.2,10.53,10.69,11.19,18.27l.52,5.91c.61,6.96-1.1,13.72-4.95,19.54-4.14,6.25-10.12,10.38-17.31,11.96-5.86,1.36-12.97,2.41-21.12,3.12-3.35.29-6.59.44-9.65.44Z"/>
          </g>
          <g>
            <path class="uuid-45d99d9c-3896-49d7-81fc-8efc1a93953e" d="M58.25,257.6c-10.18,0-19.13-3.14-26.59-9.33-8.59-7.12-13.5-16.97-14.58-29.27-1.36-15.6,3.61-28.05,14.78-37,10.64-8.52,26.41-13.59,48.23-15.5l2.97-.26c-1.13-2.72-3.53-3.8-7.86-3.8-.73,0-1.51.04-2.32.11-8.7.76-20.09,3.11-33.85,6.99-1.52.43-3.05.65-4.56.65-3.15,0-6.17-.94-8.97-2.79-4.21-2.78-6.67-6.93-7.11-12l-.32-3.64c-.44-5.07.74-9.82,3.52-14.13,2.87-4.46,6.87-7.39,11.88-8.68,14.95-4.09,27.79-6.63,38.1-7.54,4.4-.38,8.62-.58,12.54-.58,15.12,0,27.08,2.91,35.55,8.66,11.03,7.48,17.4,20.14,18.93,37.63l5.43,62.09c.43,4.96-1.08,9.66-4.38,13.6-3.3,3.94-7.67,6.25-12.63,6.68l-14.33,1.25c-.61.05-1.22.08-1.82.08-4.44,0-8.45-1.44-11.94-4.28-1.52-1.24-2.8-2.62-3.84-4.14-8.77,8.85-19.57,13.89-32.24,15-1.55.14-3.1.2-4.59.2ZM83.19,201.76c-8.1.71-12.03,2.48-13.91,3.84-1.97,1.43-2.68,3.06-2.46,5.62.27,3.04,1.01,4.12,4.65,4.12h0c.45,0,.93-.02,1.44-.07,4.43-.39,7.83-2,10.38-4.92,2.07-2.37,3.13-5.29,3.19-8.87l-3.29.29Z"/>
            <path class="uuid-45d99d9c-3896-49d7-81fc-8efc1a93953e" d="M173.29,245.37c-4.38,0-8.4-1.5-11.92-4.46-3.93-3.29-6.24-7.66-6.68-12.63l-12.66-144.66c-.43-4.96,1.08-9.67,4.38-13.6,3.3-3.94,7.67-6.25,12.64-6.68l17.28-1.51c.56-.05,1.13-.07,1.68-.07,4.38,0,8.39,1.5,11.92,4.46,3.94,3.31,6.25,7.68,6.68,12.64l3.47,39.67c8.35-6.27,17.63-9.89,27.71-10.77,1.7-.15,3.39-.22,5.03-.22,13.53,0,25.05,5.02,34.24,14.93,9.95,10.73,15.93,26.85,17.77,47.91,1.8,20.63-1.5,37.47-9.82,50.04-8.6,12.98-20.54,20.23-35.49,21.54-1.73.15-3.45.23-5.13.23-10.81,0-20.62-3.12-29.27-9.31-.75,1.65-1.76,3.21-3.02,4.66-3.35,3.88-7.66,6.07-12.82,6.52l-14.33,1.25c-.56.05-1.13.07-1.69.07ZM217.21,152.28c-.5,0-1.02.02-1.54.07-3.73.33-6.8,1.84-9.39,4.62-3.24,3.48-3.41,6.2-3.26,7.95l2.19,25.02c.15,1.75.79,4.4,4.59,7.26,2.65,2,5.48,2.98,8.63,2.98.46,0,.94-.02,1.42-.06,4.04-.35,6.91-2.2,9.02-5.82,2.43-4.17,3.29-10.65,2.53-19.26-1.99-22.76-10.86-22.76-14.19-22.76Z"/>
            <path class="uuid-45d99d9c-3896-49d7-81fc-8efc1a93953e" d="M347.99,232.07c-16.92,0-31.08-4.72-42.09-14.02-12.85-10.86-20.29-26.87-22.1-47.6-1.81-20.72,2.73-37.78,13.5-50.71,10.78-12.94,26.84-20.43,47.73-22.25,2.99-.26,5.94-.39,8.77-.39,16.92,0,31.08,4.72,42.09,14.02,12.85,10.87,20.29,26.88,22.1,47.6,1.81,20.72-2.73,37.79-13.5,50.71-10.78,12.94-26.84,20.43-47.73,22.26-2.99.26-5.95.39-8.78.39ZM350.15,138.36c-.49,0-1.01.02-1.54.07-5.62.49-7.56,3.04-8.62,5.2-1.37,2.79-2.75,8.88-1.6,22.05,1.15,13.17,3.58,18.92,5.41,21.43,1.86,2.56,4.28,3.7,7.85,3.7h0c.49,0,1.01-.02,1.54-.07,5.62-.49,7.56-3.04,8.62-5.21,1.37-2.79,2.75-8.88,1.6-22.05-1.15-13.16-3.58-18.92-5.41-21.43-1.86-2.56-4.29-3.7-7.85-3.7Z"/>
            <path class="uuid-45d99d9c-3896-49d7-81fc-8efc1a93953e" d="M464.29,222.02c-12.16,0-21.7-3.59-28.34-10.69-7.46-7.95-11.93-21.53-13.68-41.53l-5.03-57.54c-.43-4.96,1.08-9.67,4.39-13.6,3.3-3.93,7.67-6.24,12.63-6.68l16.15-1.41c.56-.05,1.13-.07,1.68-.07,4.38,0,8.39,1.5,11.92,4.46,3.94,3.31,6.25,7.68,6.68,12.64l4.84,55.27c.7,7.98,2.24,10.29,2.69,10.8.68.78,1.98,1.17,3.86,1.17.43,0,.89-.02,1.36-.06,2.77-.24,5.23-1.6,7.52-4.15,2.19-2.44,3.16-4.76,2.95-7.08l-5.03-57.54c-.43-4.96,1.08-9.67,4.39-13.6,3.3-3.94,7.67-6.25,12.63-6.68l17.29-1.51c.56-.05,1.13-.07,1.68-.07,4.38,0,8.39,1.5,11.92,4.46,3.94,3.31,6.25,7.68,6.68,12.64l8.08,92.34c.43,4.96-1.08,9.66-4.38,13.6-3.31,3.94-7.67,6.25-12.63,6.68l-15.46,1.35c-.61.05-1.22.08-1.82.08-4.43,0-8.45-1.44-11.94-4.28-1.48-1.21-2.74-2.55-3.76-4.03-8.47,8.75-18.93,13.71-31.18,14.79-2.08.18-4.12.27-6.06.27Z"/>
            <path class="uuid-45d99d9c-3896-49d7-81fc-8efc1a93953e" d="M620.77,208.21c-13.32,0-23.62-3.12-30.62-9.26-8.51-7.46-13.48-20.62-15.19-40.22l-2.89-32.98-5.23.46c-.57.05-1.13.07-1.69.07-4.39,0-8.4-1.5-11.92-4.46-3.93-3.3-6.24-7.67-6.68-12.63l-.32-3.64c-.43-4.96,1.08-9.66,4.38-13.6,3.31-3.94,7.67-6.25,12.64-6.68l5.23-.46-2.15-24.57c-.43-4.96,1.08-9.66,4.38-13.6,3.3-3.93,7.67-6.25,12.63-6.68l17.29-1.51c.56-.05,1.13-.07,1.68-.07,4.38,0,8.39,1.5,11.92,4.46,3.94,3.31,6.25,7.68,6.68,12.63l2.15,24.57,16.6-1.45c.56-.05,1.13-.07,1.68-.07,4.38,0,8.39,1.5,11.92,4.46,3.94,3.31,6.25,7.68,6.68,12.64l.32,3.64c.43,4.96-1.08,9.67-4.38,13.6-3.3,3.94-7.67,6.25-12.64,6.68l-16.6,1.45,2.49,28.43c.92,10.46,2.22,13.24,2.52,13.75.2.11,1.09.54,3.43.54.66,0,1.39-.03,2.17-.1,1.83-.16,4.13-.57,6.83-1.22,1.36-.32,2.7-.47,4.01-.47,3.27,0,6.43.96,9.37,2.84,4.33,2.77,6.84,6.86,7.28,11.81l.52,5.91c.45,5.09-.75,9.82-3.56,14.07-2.94,4.44-7.01,7.24-12.1,8.34-5.4,1.26-12.13,2.25-19.94,2.94-3.1.27-6.09.41-8.9.41Z"/>
          </g>
          <g>
            <path class="uuid-0af6ae3c-11c3-44a6-8a3b-83643cbdd874" d="M55.4,251.89c-8.25,0-15.16-2.41-21.12-7.36-6.87-5.69-10.63-13.35-11.51-23.43-2.24-25.63,15.83-39.77,55.23-43.22l7.05-.62c1.82-.16,2.87-.99,3.43-1.65.56-.67,1.19-1.84,1.03-3.66l-.02-.24c-.86-9.8-6.78-14.98-17.13-14.98-.98,0-2.01.05-3.07.14-9.23.81-21.15,3.25-35.42,7.27-.77.22-1.52.33-2.24.33-1.47,0-2.86-.45-4.25-1.37-2.04-1.35-3.09-3.13-3.3-5.6l-.32-3.64c-.28-3.17.44-6.04,2.19-8.75,1.7-2.64,3.93-4.28,6.82-5.03,14.57-3.99,26.91-6.44,36.71-7.3,4.15-.36,8.12-.55,11.79-.55,13.37,0,23.72,2.42,30.75,7.18,8.79,5.96,13.91,16.49,15.2,31.29l5.43,62.09c.24,2.73-.55,5.13-2.41,7.35-1.86,2.22-4.09,3.42-6.82,3.65l-14.33,1.25c-.36.03-.72.05-1.07.05-2.45,0-4.58-.77-6.53-2.36-2.22-1.8-3.48-4.08-3.86-6.95l-.15-1.76c-.14-1.6-1.45-2.81-3.06-2.81-.09,0-.21,0-.29.01-.88.07-1.73.52-2.36,1.27-.05.06-.1.12-.14.18-8.28,11.61-18.87,17.83-32.37,19.02-1.3.11-2.6.17-3.85.17ZM87.2,195.44c-.18,0-.37,0-.56.03l-7.05.62c-8.18.71-14.13,2.49-18.19,5.44-4.38,3.18-6.44,7.77-5.96,13.29.67,7.7,5.35,11.93,13.18,11.93h0c.7,0,1.43-.03,2.18-.1,6.65-.58,12.06-3.21,16.08-7.82,4.06-4.64,5.8-10.54,5.19-17.53l-.12-1.36c-.24-2.73-2.1-4.49-4.75-4.49Z"/>
            <path class="uuid-0af6ae3c-11c3-44a6-8a3b-83643cbdd874" d="M170.44,239.66c-2.35,0-4.45-.8-6.41-2.45-2.22-1.86-3.42-4.09-3.66-6.82l-12.66-144.65c-.24-2.73.55-5.13,2.41-7.35,1.87-2.22,4.1-3.42,6.82-3.66l17.29-1.51c.31-.03.63-.04.94-.04,2.35,0,4.45.8,6.42,2.46,2.22,1.86,3.42,4.09,3.65,6.82l4.42,50.49c.14,1.61,1.45,2.81,3.05,2.81.08,0,.21,0,.29-.01.87-.07,1.68-.5,2.29-1.19,8.83-9.24,19.05-14.43,30.4-15.42,1.45-.13,2.89-.19,4.29-.19,11.21,0,20.35,3.99,27.96,12.19,8.63,9.3,13.85,23.72,15.52,42.84,1.63,18.66-1.2,33.65-8.43,44.56-7.18,10.85-16.7,16.65-29.09,17.74-1.48.13-2.95.19-4.38.19-11.9,0-21.97-4.34-30.76-13.27-.07-.08-.15-.15-.23-.21-.84-.68-1.68-.83-2.24-.83-.08,0-.2,0-.28.01-1.73.15-2.96,1.62-2.81,3.33l.15,1.76c.12,2.9-.73,5.36-2.6,7.51-1.87,2.17-4.19,3.34-7.09,3.59l-14.33,1.25c-.32.03-.63.04-.94.04ZM214.35,146.57c-.74,0-1.51.03-2.29.1-5.85.51-10.87,2.97-14.91,7.32-4.12,4.43-5.98,9.31-5.52,14.53l2.19,25.02c.46,5.22,3.13,9.71,7.96,13.35,4.13,3.12,8.78,4.71,13.79,4.71h0c.71,0,1.44-.03,2.17-.1,6.86-.6,12.13-3.97,15.67-10.03,3.35-5.73,4.58-13.91,3.67-24.32-1.77-20.29-9.42-30.57-22.72-30.57Z"/>
            <path class="uuid-0af6ae3c-11c3-44a6-8a3b-83643cbdd874" d="M345.14,226.37c-14.84,0-27.14-4.04-36.56-12-11.06-9.35-17.49-23.41-19.1-41.8-1.61-18.39,2.28-33.36,11.55-44.48,9.27-11.12,23.36-17.58,41.9-19.21,2.75-.24,5.45-.36,8.03-.36,14.84,0,27.14,4.04,36.57,12,11.06,9.35,17.49,23.42,19.1,41.8,1.61,18.39-2.28,33.36-11.55,44.48-9.27,11.12-23.36,17.59-41.9,19.21-2.75.24-5.45.36-8.03.36ZM347.3,132.65c-.74,0-1.51.03-2.29.1-7.41.65-12.64,4-15.56,9.97-2.72,5.55-3.52,14.24-2.44,26.56,1.08,12.32,3.37,20.73,7.02,25.73,3.49,4.79,8.46,7.22,14.77,7.22h0c.74,0,1.51-.03,2.29-.1,7.4-.65,12.64-4,15.56-9.97,2.72-5.56,3.52-14.25,2.44-26.56-1.08-12.31-3.37-20.73-7.02-25.73-3.49-4.79-8.46-7.22-14.77-7.22Z"/>
            <path class="uuid-0af6ae3c-11c3-44a6-8a3b-83643cbdd874" d="M461.43,216.31c-9.7,0-17.13-2.68-22.1-7.98-6.01-6.41-9.84-18.66-11.4-36.42l-5.03-57.54c-.24-2.73.55-5.13,2.41-7.35,1.86-2.22,4.09-3.42,6.82-3.66l16.15-1.41c.32-.03.63-.04.94-.04,2.34,0,4.44.8,6.42,2.46,2.22,1.86,3.42,4.1,3.65,6.82l4.84,55.27c.67,7.67,2.24,12.81,4.8,15.72,2.37,2.7,5.84,4.07,10.29,4.07h0c.67,0,1.38-.03,2.11-.1,4.97-.43,9.4-2.78,13.15-6.97,3.8-4.24,5.52-8.8,5.11-13.54l-5.03-57.54c-.24-2.73.55-5.13,2.42-7.35,1.86-2.22,4.09-3.42,6.82-3.66l17.29-1.51c.32-.03.63-.04.94-.04,2.34,0,4.44.8,6.42,2.46,2.22,1.86,3.41,4.1,3.65,6.82l8.08,92.34c.24,2.73-.55,5.13-2.41,7.35-1.86,2.22-4.09,3.42-6.82,3.65l-15.47,1.35c-.36.03-.72.05-1.07.05-2.45,0-4.58-.77-6.53-2.36-2.22-1.8-3.48-4.08-3.86-6.95l-.15-1.76c-.14-1.6-1.45-2.81-3.05-2.81-.09,0-.21,0-.29.01-1.38.12-2.29.87-2.73,1.78-7.94,11.38-18.09,17.46-31,18.59-1.84.16-3.62.24-5.32.24Z"/>
            <path class="uuid-0af6ae3c-11c3-44a6-8a3b-83643cbdd874" d="M617.92,202.5c-11.18,0-19.58-2.4-24.97-7.14-6.68-5.86-10.82-17.47-12.31-34.53l-3.2-36.62c-.24-2.73-2.1-4.49-4.75-4.49-.18,0-.37,0-.56.03l-8.87.78c-.32.03-.63.04-.94.04-2.35,0-4.45-.8-6.41-2.45-2.22-1.86-3.42-4.09-3.66-6.82l-.32-3.64c-.24-2.73.55-5.13,2.42-7.35,1.86-2.22,4.09-3.42,6.82-3.65l8.87-.78c1.82-.16,2.87-.99,3.43-1.65.56-.67,1.19-1.85,1.03-3.67l-2.47-28.2c-.24-2.73.55-5.13,2.41-7.35,1.86-2.22,4.09-3.42,6.82-3.65l17.29-1.51c.32-.03.63-.04.94-.04,2.35,0,4.45.8,6.42,2.46,2.22,1.86,3.41,4.1,3.65,6.82l2.47,28.2c.24,2.73,2.1,4.49,4.75,4.49h0c.18,0,.37,0,.57-.03l20.24-1.77c.32-.03.63-.04.94-.04,2.34,0,4.44.8,6.42,2.46,2.22,1.86,3.41,4.1,3.65,6.82l.32,3.64c.24,2.73-.55,5.13-2.41,7.35-1.86,2.22-4.09,3.41-6.82,3.65l-20.24,1.77c-2.93.26-4.72,2.39-4.46,5.32l2.81,32.07c1.12,12.86,2.93,16.59,4.38,18.39,1.97,2.46,5.37,3.71,10.09,3.71.91,0,1.89-.05,2.92-.14,2.25-.2,4.97-.68,8.09-1.43.67-.16,1.35-.24,2.01-.24,1.63,0,3.19.49,4.75,1.49,2.09,1.34,3.16,3.04,3.36,5.34l.52,5.91c.28,3.16-.44,5.97-2.18,8.61-1.68,2.54-3.89,4.07-6.75,4.69-5.15,1.2-11.48,2.13-18.88,2.78-2.85.25-5.6.38-8.16.38Z"/>
          </g>
          <g>
            <path class="uuid-45d99d9c-3896-49d7-81fc-8efc1a93953e" d="M61.11,246.18c-8.25,0-15.16-2.41-21.12-7.36-6.87-5.69-10.63-13.35-11.51-23.43-2.24-25.63,15.83-39.77,55.23-43.22l7.05-.62c1.82-.16,2.87-.99,3.43-1.65.56-.67,1.19-1.84,1.03-3.66l-.02-.24c-.86-9.8-6.78-14.98-17.13-14.98-.98,0-2.01.05-3.07.14-9.23.81-21.15,3.25-35.42,7.27-.77.22-1.52.33-2.24.33-1.47,0-2.86-.45-4.25-1.37-2.04-1.35-3.09-3.13-3.3-5.6l-.32-3.64c-.28-3.17.44-6.04,2.19-8.75,1.7-2.64,3.93-4.28,6.82-5.03,14.57-3.99,26.91-6.44,36.71-7.3,4.15-.36,8.12-.55,11.79-.55,13.37,0,23.72,2.42,30.75,7.18,8.79,5.96,13.91,16.49,15.2,31.29l5.43,62.09c.24,2.73-.55,5.13-2.41,7.35-1.86,2.22-4.09,3.42-6.82,3.65l-14.33,1.25c-.36.03-.72.05-1.07.05-2.45,0-4.58-.77-6.53-2.36-2.22-1.8-3.48-4.08-3.86-6.95l-.15-1.76c-.14-1.6-1.45-2.81-3.06-2.81-.09,0-.21,0-.29.01-.88.07-1.73.52-2.36,1.27-.05.06-.1.12-.14.18-8.28,11.61-18.87,17.83-32.37,19.02-1.3.11-2.6.17-3.85.17ZM92.91,189.73c-.18,0-.37,0-.56.03l-7.05.62c-8.18.71-14.13,2.49-18.19,5.44-4.38,3.18-6.44,7.77-5.96,13.29.67,7.7,5.35,11.93,13.18,11.93h0c.7,0,1.43-.03,2.18-.1,6.65-.58,12.06-3.21,16.08-7.82,4.06-4.64,5.8-10.54,5.19-17.53l-.12-1.36c-.24-2.73-2.1-4.49-4.75-4.49Z"/>
            <path class="uuid-45d99d9c-3896-49d7-81fc-8efc1a93953e" d="M176.15,233.95c-2.35,0-4.45-.8-6.41-2.45-2.22-1.86-3.42-4.09-3.66-6.82l-12.66-144.65c-.24-2.73.55-5.13,2.41-7.35,1.87-2.22,4.1-3.42,6.82-3.66l17.29-1.51c.31-.03.63-.04.94-.04,2.35,0,4.45.8,6.42,2.46,2.22,1.86,3.42,4.09,3.65,6.82l4.42,50.49c.14,1.61,1.45,2.81,3.05,2.81.08,0,.21,0,.29-.01.87-.07,1.68-.5,2.29-1.19,8.83-9.24,19.05-14.43,30.4-15.42,1.45-.13,2.89-.19,4.29-.19,11.21,0,20.35,3.99,27.96,12.19,8.63,9.3,13.85,23.72,15.52,42.84,1.63,18.66-1.2,33.65-8.43,44.56-7.18,10.85-16.7,16.65-29.09,17.74-1.48.13-2.95.19-4.38.19-11.9,0-21.97-4.34-30.76-13.27-.07-.08-.15-.15-.23-.21-.84-.68-1.68-.83-2.24-.83-.08,0-.2,0-.28.01-1.73.15-2.96,1.62-2.81,3.33l.15,1.76c.12,2.9-.73,5.36-2.6,7.51-1.87,2.17-4.19,3.34-7.09,3.59l-14.33,1.25c-.32.03-.63.04-.94.04ZM220.06,140.86c-.74,0-1.51.03-2.29.1-5.85.51-10.87,2.97-14.91,7.32-4.12,4.43-5.98,9.31-5.52,14.53l2.19,25.02c.46,5.22,3.13,9.71,7.96,13.35,4.13,3.12,8.78,4.71,13.79,4.71h0c.71,0,1.44-.03,2.17-.1,6.86-.6,12.13-3.97,15.67-10.03,3.35-5.73,4.58-13.91,3.67-24.32-1.77-20.29-9.42-30.57-22.72-30.57Z"/>
            <path class="uuid-45d99d9c-3896-49d7-81fc-8efc1a93953e" d="M350.85,220.66c-14.84,0-27.14-4.04-36.56-12-11.06-9.35-17.49-23.41-19.1-41.8-1.61-18.39,2.28-33.36,11.55-44.48,9.27-11.12,23.36-17.58,41.9-19.21,2.75-.24,5.45-.36,8.03-.36,14.84,0,27.14,4.04,36.57,12,11.06,9.35,17.49,23.42,19.1,41.8,1.61,18.39-2.28,33.36-11.55,44.48-9.27,11.12-23.36,17.59-41.9,19.21-2.75.24-5.45.36-8.03.36ZM353.01,126.94c-.74,0-1.51.03-2.29.1-7.41.65-12.64,4-15.56,9.97-2.72,5.55-3.52,14.24-2.44,26.56,1.08,12.32,3.37,20.73,7.02,25.73,3.49,4.79,8.46,7.22,14.77,7.22h0c.74,0,1.51-.03,2.29-.1,7.4-.65,12.64-4,15.56-9.97,2.72-5.56,3.52-14.25,2.44-26.56-1.08-12.31-3.37-20.73-7.02-25.73-3.49-4.79-8.46-7.22-14.77-7.22Z"/>
            <path class="uuid-45d99d9c-3896-49d7-81fc-8efc1a93953e" d="M467.14,210.6c-9.7,0-17.13-2.68-22.1-7.98-6.01-6.41-9.84-18.66-11.4-36.42l-5.03-57.54c-.24-2.73.55-5.13,2.41-7.35,1.86-2.22,4.09-3.42,6.82-3.66l16.15-1.41c.32-.03.63-.04.94-.04,2.34,0,4.44.8,6.42,2.46,2.22,1.86,3.42,4.1,3.65,6.82l4.84,55.27c.67,7.67,2.24,12.81,4.8,15.72,2.37,2.7,5.84,4.07,10.29,4.07h0c.67,0,1.38-.03,2.11-.1,4.97-.43,9.4-2.78,13.15-6.97,3.8-4.24,5.52-8.8,5.11-13.54l-5.03-57.54c-.24-2.73.55-5.13,2.42-7.35,1.86-2.22,4.09-3.42,6.82-3.66l17.29-1.51c.32-.03.63-.04.94-.04,2.34,0,4.44.8,6.42,2.46,2.22,1.86,3.41,4.1,3.65,6.82l8.08,92.34c.24,2.73-.55,5.13-2.41,7.35-1.86,2.22-4.09,3.42-6.82,3.65l-15.47,1.35c-.36.03-.72.05-1.07.05-2.45,0-4.58-.77-6.53-2.36-2.22-1.8-3.48-4.08-3.86-6.95l-.15-1.76c-.14-1.6-1.45-2.81-3.05-2.81-.09,0-.21,0-.29.01-1.38.12-2.29.87-2.73,1.78-7.94,11.38-18.09,17.46-31,18.59-1.84.16-3.62.24-5.32.24Z"/>
            <path class="uuid-45d99d9c-3896-49d7-81fc-8efc1a93953e" d="M623.63,196.79c-11.18,0-19.58-2.4-24.97-7.14-6.68-5.86-10.82-17.47-12.31-34.53l-3.2-36.62c-.24-2.73-2.1-4.49-4.75-4.49-.18,0-.37,0-.56.03l-8.87.78c-.32.03-.63.04-.94.04-2.35,0-4.45-.8-6.41-2.45-2.22-1.86-3.42-4.09-3.66-6.82l-.32-3.64c-.24-2.73.55-5.13,2.42-7.35,1.86-2.22,4.09-3.42,6.82-3.65l8.87-.78c1.82-.16,2.87-.99,3.43-1.65.56-.67,1.19-1.85,1.03-3.67l-2.47-28.2c-.24-2.73.55-5.13,2.41-7.35,1.86-2.22,4.09-3.42,6.82-3.65l17.29-1.51c.32-.03.63-.04.94-.04,2.35,0,4.45.8,6.42,2.46,2.22,1.86,3.41,4.1,3.65,6.82l2.47,28.2c.24,2.73,2.1,4.49,4.75,4.49h0c.18,0,.37,0,.57-.03l20.24-1.77c.32-.03.63-.04.94-.04,2.34,0,4.44.8,6.42,2.46,2.22,1.86,3.41,4.1,3.65,6.82l.32,3.64c.24,2.73-.55,5.13-2.41,7.35-1.86,2.22-4.09,3.41-6.82,3.65l-20.24,1.77c-2.93.26-4.72,2.39-4.46,5.32l2.81,32.07c1.12,12.86,2.93,16.59,4.38,18.39,1.97,2.46,5.37,3.71,10.09,3.71.91,0,1.89-.05,2.92-.14,2.25-.2,4.97-.68,8.09-1.43.67-.16,1.35-.24,2.01-.24,1.63,0,3.19.49,4.75,1.49,2.09,1.34,3.16,3.04,3.36,5.34l.52,5.91c.28,3.16-.44,5.97-2.18,8.61-1.68,2.54-3.89,4.07-6.75,4.69-5.15,1.2-11.48,2.13-18.88,2.78-2.85.25-5.6.38-8.16.38Z"/>
          </g>
        </g>
      </g>
    </g>
  </g>
</svg>