<?xml version="1.0" encoding="UTF-8"?>
<svg id="uuid-f4e58019-84f3-4380-a292-c949ba99726a" xmlns="http://www.w3.org/2000/svg" version="1.1" viewBox="0 0 879.9 553.4">
  <!-- Generator: Adobe Illustrator 30.2.0, SVG Export Plug-In . SVG Version: 2.1.1 Build 105)  -->
  <g id="uuid-4e3e989b-330d-4392-bc6b-765e85b9696b">
    <g>
      <g>
        <g>
          <g>
            <path d="M324.5,465.7c-1,0-1.9,0-2.9-.1l-20.9-1.8c-8.9-.8-16.7-4.9-22.4-12-5.6-6.9-8.1-15.1-7.4-23.8l8.4-95.6-9.9-.9c-8.8-.8-16.5-4.8-22.3-11.7-5.8-6.9-8.4-15.2-7.7-24l1-11.6c.8-8.8,4.8-16.5,11.7-22.3,6.1-5.1,13.4-7.8,21.1-7.8s2,0,2.9.1l106,9.3c8.8.8,16.5,4.8,22.3,11.7,5.8,6.9,8.5,15.2,7.7,24l-1,11.6c-.8,8.8-4.8,16.5-11.7,22.3-6.1,5.1-13.4,7.8-21.1,7.8s-2,0-2.9-.1l-9.9-.9-8.4,95.6c-.8,8.7-4.7,16.4-11.4,22.1-6,5.2-13.4,8-21.2,8h0Z" fill="#e5006a"/>
            <path d="M410.2,473.2c-1,0-2,0-2.9-.1l-18.4-1.6c-8.8-.8-16.5-4.8-22.3-11.7-5.8-6.9-8.4-15.2-7.7-24l8.1-92.4c.8-8.8,4.8-16.5,11.7-22.3,6.1-5.1,13.4-7.8,21.1-7.8s2,0,2.9.1l17.3,1.5c8.5.8,16,4.6,21.8,11.1,8.5-3.6,17.9-5.7,27.9-6.1h1.4c9.2,0,17.6,4,23.6,11.1,5.8,6.9,8.4,15.3,7.7,24.2l-.5,5.9c-.8,8.7-4.6,16.3-11.2,22-6.1,5.3-13.6,8.2-21.8,8.5-7.1.3-12.6,2.2-16.8,5.8-3.7,3.2-5.5,6.9-5.9,12l-3,33.7c-.8,8.8-4.8,16.5-11.7,22.3-6.1,5.1-13.4,7.8-21.1,7.8h-.2Z" fill="#e5006a"/>
            <path d="M583.1,488.4c-1,0-2,0-2.9-.1l-14.3-1.2c-6.8-.6-12.9-3.1-18-7.2-8.1,3.6-16.8,5.4-26,5.4s-4.1,0-6.2-.3c-16-1.4-29-7.9-38.8-19.4s-14-25.6-12.6-41.8c1.5-16.5,8.3-30.1,19.9-39.5-5.7-6.2-8.3-14.3-7.6-22.9l.3-3.6c.7-8.2,4.1-15.7,9.7-21.8,6-6.5,13.8-10.3,22.4-11,9.9-.9,19-1.4,27-1.4s10,.2,14.4.6c25,2.2,42.8,8.8,54.7,20.3,12.8,12.4,18.3,29.9,16.4,51.8l-5.4,62.1c-.8,8.8-4.8,16.5-11.7,22.3-6.1,5.1-13.4,7.8-21.1,7.8h-.2Z" fill="#e5006a"/>
            <path d="M720.6,500.4c-1,0-2,0-2.9-.1l-16.2-1.4c-8.8-.8-16.5-4.8-22.3-11.7-1.8-2.2-3.4-4.5-4.6-7-1.6,2.2-3.5,4.2-5.7,6.1-6.1,5.1-13.4,7.8-21.1,7.8s-2,0-2.9-.1l-17.3-1.5c-8.8-.8-16.5-4.8-22.3-11.7-5.8-6.9-8.4-15.2-7.7-24l8.1-92.4c.8-8.8,4.8-16.5,11.7-22.3,6.1-5.1,13.4-7.8,21.1-7.8s2,0,2.9.1l15.5,1.4c6.7.6,12.8,3,17.8,7,7.9-3.5,16.4-5.3,25.3-5.3s4,0,5.9.3c20.3,1.8,35,9.7,43.8,23.7,7.8,12.3,10.5,29.9,8.5,53.7l-4.8,55.3c-.8,8.8-4.8,16.5-11.7,22.3-6.1,5.1-13.4,7.8-21.1,7.8h0v-.2Z" fill="#e5006a"/>
            <path d="M810.2,510.2c-3.7,0-7.5-.2-11.5-.5-13.6-1.2-27.4-3.8-40.9-7.6h-.2c-8.2-2.5-14.9-7.6-19.6-14.9-4.5-6.9-6.4-15-5.7-23.3l.5-5.9c.8-9.7,5.9-17.7,14.2-22.6-7.9-10.7-11.3-23.7-10.1-38.2,1.6-18,10.3-32.2,25.4-41.1,10.5-6.2,23.9-9.4,40-9.4s8.4.2,12.9.6c12.8,1.1,24.7,3,35.5,5.6h.2c8.5,2.2,15.5,7.1,20.4,14.2,4.7,6.9,6.8,15,6,23.3l-.4,4.8c-.8,9.1-5.5,17-13.2,22.2,8.8,10.9,12.5,24.7,11.1,41.1-1.6,18.2-10.1,32.7-24.7,41.8-10.5,6.6-23.9,9.9-39.8,9.9h-.1Z" fill="#e5006a"/>
          </g>
          <g>
            <path d="M324.5,457.2c-.7,0-1.4,0-2.2-.1l-20.9-1.8c-6.6-.6-12.3-3.6-16.5-8.8-4.1-5.1-6-11.2-5.5-17.6l9.1-104.2-18.4-1.6c-6.5-.6-12.2-3.6-16.5-8.7-4.3-5.1-6.3-11.2-5.7-17.8l1-11.6c.6-6.5,3.6-12.2,8.7-16.5,4.6-3.8,9.8-5.8,15.6-5.8s1.5,0,2.2.1l106,9.3c6.5.6,12.2,3.6,16.5,8.7s6.3,11.3,5.7,17.8l-1,11.6c-.6,6.5-3.6,12.2-8.7,16.5-4.6,3.8-9.8,5.8-15.6,5.8s-1.5,0-2.2-.1l-18.4-1.6-9.1,104.2c-.6,6.4-3.5,12.1-8.5,16.4-4.5,3.9-9.8,5.9-15.6,5.9h0Z" fill="#e5006a"/>
            <path d="M410.2,464.7c-.7,0-1.5,0-2.2-.1l-18.4-1.6c-6.5-.6-12.2-3.6-16.5-8.7s-6.3-11.2-5.7-17.8l8.1-92.3c.6-6.5,3.6-12.2,8.7-16.5,4.6-3.8,9.8-5.8,15.6-5.8s1.5,0,2.2.1l17.3,1.5c6.5.6,12.2,3.6,16.5,8.7,1.2,1.5,2.3,3.1,3.2,4.8,9.2-5.1,19.7-8,31.1-8.5h1c6.6,0,12.7,2.9,17,8.1,4.3,5.1,6.3,11.4,5.7,18l-.5,5.9c-.6,6.4-3.4,12.1-8.3,16.3-4.7,4-10.2,6.2-16.5,6.4-9.2.4-16.4,3-22.1,7.9-5.4,4.7-8.2,10.3-8.9,17.7l-3,33.7c-.6,6.5-3.6,12.2-8.7,16.5-4.6,3.8-9.8,5.8-15.6,5.8h0Z" fill="#e5006a"/>
            <path d="M583.1,479.8c-.7,0-1.5,0-2.2-.1l-14.3-1.2c-6.6-.6-12.3-3.5-16.6-8.5-.2-.2-.3-.4-.5-.6-8.5,4.8-17.7,7.2-27.6,7.2s-3.6,0-5.5-.2c-13.7-1.2-24.8-6.7-33-16.4-8.2-9.7-11.8-21.7-10.6-35.5,1.6-18.8,11-32.3,27-39.8-2.9-1-5.6-2.7-8-4.9-4.9-4.6-7.3-10.9-6.7-17.7l.3-3.6c.6-6.4,3-12,7.4-16.7,4.6-5,10.3-7.8,16.9-8.3,9.6-.9,18.4-1.4,26.2-1.4s9.5.2,13.6.5c22.9,2,39.1,7.9,49.4,17.9,10.9,10.5,15.5,25.6,13.8,44.9l-5.4,62.1c-.6,6.5-3.6,12.2-8.7,16.5-4.6,3.9-9.8,5.8-15.6,5.8h.1ZM538.3,425c-.6,0-1.1.1-1.5.2.5,0,1-.1,1.5-.2Z" fill="#e5006a"/>
            <path d="M720.6,491.8c-.7,0-1.5,0-2.2-.1l-16.2-1.4c-6.5-.6-12.2-3.6-16.5-8.7s-6.3-11.2-5.7-17.8l4.8-55.3c.3-3.5.2-5.6,0-6.8-.4,0-1-.2-1.7-.2h-.4c-.7,0-1.9.2-3.7,1.6-.7.5-1.9,1.6-2,2.5l-5,57.5c-.6,6.5-3.6,12.2-8.7,16.5-4.6,3.8-9.8,5.8-15.6,5.8s-1.5,0-2.2-.1l-17.3-1.5c-6.5-.6-12.2-3.6-16.5-8.7s-6.3-11.2-5.7-17.8l8.1-92.3c.6-6.5,3.6-12.2,8.7-16.5,4.6-3.8,9.8-5.8,15.6-5.8s1.5,0,2.2.1l15.5,1.4c6.6.6,12.3,3.5,16.6,8.5,0,.1.3.3.4.5,8.2-4.8,17.3-7.2,26.9-7.2s3.5,0,5.2.2c17.5,1.5,30,8.2,37.3,19.7,6.7,10.7,9.1,26.5,7.2,48.4l-4.8,55.3c-.6,6.5-3.6,12.2-8.7,16.5-4.6,3.8-9.8,5.8-15.6,5.8h0Z" fill="#e5006a"/>
            <path d="M810.2,501.6c-3.4,0-7.1-.2-10.8-.5-13.1-1.1-26.3-3.6-39.3-7.3-6.4-1.9-11.4-5.7-15-11.3-3.5-5.4-5-11.4-4.4-17.9l.5-5.9c.6-6.9,4.2-12.6,10.2-16,3.4-2,7.1-3,10.9-3s.6,0,.8,0c-2.1-1.6-4-3.3-5.7-5.1-9.2-9.8-13.2-22.1-12-36.7,1.3-15.3,8.5-27,21.2-34.5,9.1-5.4,21.1-8.1,35.7-8.1s7.9.2,12.1.6c12.3,1.1,23.8,2.9,34.2,5.4,6.6,1.7,11.8,5.2,15.5,10.7,3.6,5.3,5.2,11.3,4.6,17.7l-.4,4.8c-.6,6.7-4.1,12.4-9.9,16.1-3.4,2.1-7,3.4-10.7,3.6,2.6,1.8,4.9,3.8,6.9,5.9,9,9.5,12.9,22.2,11.6,37.7-1.4,15.7-8.3,27.6-20.7,35.3-9.1,5.7-21,8.6-35.3,8.6h0Z" fill="#e5006a"/>
          </g>
          <g>
            <path d="M321.6,451.5h-1.4l-20.9-1.8c-4.3-.4-7.8-2.3-10.6-5.7-2.8-3.4-4-7.2-3.6-11.5l9.9-112.7-27-2.4c-4.3-.4-7.9-2.3-10.7-5.7-2.8-3.4-4.1-7.3-3.7-11.5l1-11.6c.4-4.2,2.3-7.9,5.7-10.7,3-2.5,6.4-3.8,10.1-3.8s1,0,1.4,0l106,9.3c4.2.4,7.9,2.3,10.7,5.7s4.1,7.3,3.7,11.5l-1,11.6c-.4,4.2-2.3,7.9-5.7,10.7-3,2.5-6.4,3.8-10.1,3.8s-1,0-1.4,0l-27-2.4-9.9,112.7c-.4,4.2-2.2,7.8-5.5,10.7-2.9,2.5-6.3,3.8-10,3.8h0Z" fill="#e5006a"/>
            <path d="M407.4,459h-1.4l-18.4-1.6c-4.2-.4-7.9-2.3-10.7-5.7-2.8-3.4-4.1-7.3-3.7-11.5l8.1-92.3c.4-4.2,2.3-7.9,5.7-10.7,3-2.5,6.4-3.8,10.1-3.8s1,0,1.4,0l17.3,1.5c4.2.4,7.9,2.3,10.7,5.7s4.1,7.3,3.7,11.5l-.2,2.6c10.3-9.2,23-14.1,37.7-14.8h.7c4.2,0,7.7,1.7,10.5,5,2.9,3.4,4.1,7.4,3.7,11.8l-.5,5.9c-.4,4.2-2.2,7.8-5.4,10.6-3.1,2.7-6.9,4.2-11.2,4.3-11.1.5-20.3,3.8-27.4,9.9-7,6.1-11,14-11.8,23.5l-3,33.7c-.4,4.2-2.3,7.9-5.7,10.7-3,2.5-6.4,3.8-10.1,3.8h-.1Z" fill="#e5006a"/>
            <path d="M580.2,474.1h-1.4l-14.3-1.2c-4.4-.4-8.1-2.2-10.9-5.5-2-2.3-3.2-4.8-3.7-7.6-9.2,7.6-19.3,11.3-30.9,11.3s-3.1,0-4.7-.2c-11.5-1-20.4-5.4-27.2-13.4-6.8-8-9.6-17.6-8.6-29.3,2.2-25.7,20.5-38.8,54.4-38.8s8.9.2,13.7.6l6.2.5c.2-3.3,0-10.3-12.2-11.4-3.1-.3-6.6-.4-10.4-.4-7,0-15.3.5-24.7,1.4h-1.5c-3.5,0-6.6-1.3-9.2-3.8-3-2.9-4.4-6.5-4-10.7l.3-3.6c.4-4.4,2.1-8.3,5.2-11.6,3.1-3.4,6.9-5.2,11.3-5.6,9.4-.9,18-1.3,25.5-1.3s9,.2,12.9.5c20.6,1.8,35.5,7,44.2,15.5,8.9,8.6,12.7,21.5,11.2,38l-5.4,62.1c-.4,4.2-2.3,7.9-5.7,10.7-3,2.5-6.4,3.8-10.1,3.8h0ZM538.7,419.2c-14.8,0-15.4,6.8-15.7,9.3-.3,3.8.4,7.5,7.9,8.1h2.1c4.3,0,7.9-1.2,11-3.8,3.6-2.9,5.6-7,6-12.4v-.6l-6.2-.5c-1.8-.2-3.6-.2-5.2-.2h.1Z" fill="#e5006a"/>
            <path d="M717.7,486.1h-1.4l-16.2-1.4c-4.3-.4-7.9-2.3-10.7-5.7-2.8-3.4-4.1-7.3-3.7-11.5l4.8-55.3c.7-8.3-.5-11.6-1.3-12.8-1.2-1.9-4-3.1-8.2-3.5h-1.1c-3.1,0-6.1,1.1-9,3.4-3.2,2.5-4.9,5.3-5.2,8.5l-5,57.5c-.4,4.2-2.3,7.9-5.7,10.7-3,2.5-6.4,3.8-10.1,3.8s-1,0-1.4,0l-17.3-1.5c-4.2-.4-7.8-2.3-10.7-5.7-2.8-3.4-4.1-7.3-3.7-11.5l8.1-92.3c.4-4.3,2.3-7.9,5.7-10.7,3-2.5,6.4-3.8,10.1-3.8s1,0,1.4,0l15.5,1.4c4.4.4,8.1,2.2,10.9,5.5,1.9,2.2,3.2,4.8,3.7,7.5,8.9-7.6,18.8-11.2,30-11.2s3,0,4.5.2c14.7,1.3,25,6.6,30.8,15.8,5.7,9,7.6,23.1,5.9,43l-4.8,55.3c-.4,4.2-2.3,7.9-5.7,10.7-3,2.5-6.4,3.8-10.1,3.8h0v-.2Z" fill="#e5006a"/>
            <path d="M807.4,495.9c-3.2,0-6.6-.2-10-.5-12.5-1.1-25.2-3.5-37.7-7-4.3-1.3-7.7-3.9-10.1-7.7-2.4-3.8-3.5-8-3-12.6l.5-5.9c.4-4.1,2.4-7.3,5.9-9.4,2.1-1.2,4.3-1.8,6.6-1.8s2.9.2,4.4.8c10.8,3.6,21.3,5.9,31,6.8,1,0,2,.1,2.8.1,6.9,0,7.1-2.7,7.2-3.7,0-1.3,0-2.3-.7-2.8-.4-.4-1.9-1.4-6.7-2.5-17.1-4.3-29.4-10.4-36.7-18.1-7.5-7.9-10.7-18-9.7-30,1.1-12.4,6.8-21.8,17-27.9,7.8-4.6,18.3-7,31.3-7s7.4.2,11.4.5c11.9,1,23,2.8,33,5.2,4.5,1.1,7.9,3.5,10.4,7.2,2.5,3.6,3.5,7.7,3.1,12.2l-.4,4.8c-.4,4.1-2.4,7.3-6,9.6-2.4,1.5-4.9,2.3-7.5,2.3s-2.5-.2-3.8-.5c-8.9-2.6-18.2-4.3-27.7-5.1-1.5-.1-3-.2-4.2-.2-2.9,0-4.3.4-5,.7-.9.4-1.6,1-1.7,2.6,0,1.3-.4,4.3,7.3,5.8h0c17.5,3.9,30,9.6,37.1,17.1,7.4,7.8,10.4,17.9,9.2,31-1.1,12.9-6.8,22.5-16.7,28.8-7.8,4.9-18.1,7.3-30.8,7.3h.1Z" fill="#e5006a"/>
          </g>
          <g>
            <path d="M327.3,445.8h-1.4l-20.9-1.8c-4.3-.4-7.8-2.3-10.6-5.7-2.8-3.4-4-7.2-3.6-11.5l9.9-112.7-27-2.4c-4.3-.4-7.9-2.3-10.7-5.7-2.8-3.4-4.1-7.3-3.7-11.5l1-11.6c.4-4.2,2.3-7.9,5.7-10.7,3-2.5,6.4-3.8,10.1-3.8s1,0,1.4,0l106,9.3c4.2.4,7.9,2.3,10.7,5.7s4.1,7.3,3.7,11.5l-1,11.6c-.4,4.2-2.3,7.9-5.7,10.7-3,2.5-6.4,3.8-10.1,3.8s-1,0-1.4,0l-27-2.4-9.9,112.7c-.4,4.2-2.2,7.8-5.5,10.7-2.9,2.5-6.3,3.8-10,3.8h0Z" fill="#e5006a"/>
            <path d="M413.1,453.3h-1.4l-18.4-1.6c-4.2-.4-7.9-2.3-10.7-5.7-2.8-3.4-4.1-7.3-3.7-11.5l8.1-92.3c.4-4.2,2.3-7.9,5.7-10.7,3-2.5,6.4-3.8,10.1-3.8s1,0,1.4,0l17.3,1.5c4.2.4,7.9,2.3,10.7,5.7s4.1,7.3,3.7,11.5l-.2,2.6c10.3-9.2,23-14.1,37.7-14.8h.7c4.2,0,7.7,1.7,10.5,5,2.9,3.4,4.1,7.4,3.7,11.8l-.5,5.9c-.4,4.2-2.2,7.8-5.4,10.6-3.1,2.7-6.9,4.2-11.2,4.3-11.1.5-20.3,3.8-27.4,9.9-7,6.1-11,14-11.8,23.5l-3,33.7c-.4,4.2-2.3,7.9-5.7,10.7-3,2.5-6.4,3.8-10.1,3.8h-.1Z" fill="#e5006a"/>
            <path d="M585.9,468.4h-1.4l-14.3-1.2c-4.4-.4-8.1-2.2-10.9-5.5-2-2.3-3.2-4.8-3.7-7.6-9.2,7.6-19.3,11.3-30.9,11.3s-3.1,0-4.7-.2c-11.5-1-20.4-5.4-27.2-13.4-6.8-8-9.6-17.6-8.6-29.3,2.2-25.7,20.5-38.8,54.4-38.8s8.9.2,13.7.6l6.2.5c.2-3.3,0-10.3-12.2-11.4-3.1-.3-6.6-.4-10.4-.4-7,0-15.3.5-24.7,1.4h-1.5c-3.5,0-6.6-1.3-9.2-3.8-3-2.9-4.4-6.5-4-10.7l.3-3.6c.4-4.4,2.1-8.3,5.2-11.6,3.1-3.4,6.9-5.2,11.3-5.6,9.4-.9,18-1.3,25.5-1.3s9,.2,12.9.5c20.6,1.8,35.5,7,44.2,15.5,8.9,8.6,12.7,21.5,11.2,38l-5.4,62.1c-.4,4.2-2.3,7.9-5.7,10.7-3,2.5-6.4,3.8-10.1,3.8h0ZM544.4,413.5c-14.8,0-15.4,6.8-15.7,9.3-.3,3.8.4,7.5,7.9,8.1h2.1c4.3,0,7.9-1.2,11-3.8,3.6-2.9,5.6-7,6-12.4v-.6l-6.2-.5c-1.8-.2-3.6-.2-5.2-.2h.1Z" fill="#e5006a"/>
            <path d="M723.4,480.4h-1.4l-16.2-1.4c-4.3-.4-7.9-2.3-10.7-5.7-2.8-3.4-4.1-7.3-3.7-11.5l4.8-55.3c.7-8.3-.5-11.6-1.3-12.8-1.2-1.9-4-3.1-8.2-3.5h-1.1c-3.1,0-6.1,1.1-9,3.4-3.2,2.5-4.9,5.3-5.2,8.5l-5,57.5c-.4,4.2-2.3,7.9-5.7,10.7-3,2.5-6.4,3.8-10.1,3.8s-1,0-1.4,0l-17.3-1.5c-4.2-.4-7.8-2.3-10.7-5.7-2.8-3.4-4.1-7.3-3.7-11.5l8.1-92.3c.4-4.3,2.3-7.9,5.7-10.7,3-2.5,6.4-3.8,10.1-3.8s1,0,1.4,0l15.5,1.4c4.4.4,8.1,2.2,10.9,5.5,1.9,2.2,3.2,4.8,3.7,7.5,8.9-7.6,18.8-11.2,30-11.2s3,0,4.5.2c14.7,1.3,25,6.6,30.8,15.8,5.7,9,7.6,23.1,5.9,43l-4.8,55.3c-.4,4.2-2.3,7.9-5.7,10.7-3,2.5-6.4,3.8-10.1,3.8h0v-.2Z" fill="#e5006a"/>
            <path d="M813.1,490.2c-3.2,0-6.6-.2-10-.5-12.5-1.1-25.2-3.5-37.7-7-4.3-1.3-7.7-3.9-10.1-7.7-2.4-3.8-3.5-8-3-12.6l.5-5.9c.4-4.1,2.4-7.3,5.9-9.4,2.1-1.2,4.3-1.8,6.6-1.8s2.9.2,4.4.8c10.8,3.6,21.3,5.9,31,6.8,1,0,2,.1,2.8.1,6.9,0,7.1-2.7,7.2-3.7,0-1.3,0-2.3-.7-2.8-.4-.4-1.9-1.4-6.7-2.5-17.1-4.3-29.4-10.4-36.7-18.1-7.5-7.9-10.7-18-9.7-30,1.1-12.4,6.8-21.8,17-27.9,7.8-4.6,18.3-7,31.3-7s7.4.2,11.4.5c11.9,1,23,2.8,33,5.2,4.5,1.1,7.9,3.5,10.4,7.2,2.5,3.6,3.5,7.7,3.1,12.2l-.4,4.8c-.4,4.1-2.4,7.3-6,9.6-2.4,1.5-4.9,2.3-7.5,2.3s-2.5-.2-3.8-.5c-8.9-2.6-18.2-4.3-27.7-5.1-1.5-.1-3-.2-4.2-.2-2.9,0-4.3.4-5,.7-.9.4-1.6,1-1.7,2.6,0,1.3-.4,4.3,7.3,5.8h0c17.5,3.9,30,9.6,37.1,17.1,7.4,7.8,10.4,17.9,9.2,31-1.1,12.9-6.8,22.5-16.7,28.8-7.8,4.9-18.1,7.3-30.8,7.3h.1Z" fill="#e5006a"/>
          </g>
          <g>
            <path d="M324.5,451.5h-1.7l-20.9-1.8c-5-.4-9.4-2.8-12.6-6.7-3.2-4-4.6-8.5-4.2-13.5l9.6-109.9-24.1-2.1c-5-.4-9.3-2.8-12.6-6.7-3.3-3.9-4.8-8.6-4.4-13.6l1-11.6c.4-5,2.7-9.3,6.7-12.6,3.5-3,7.5-4.5,11.9-4.5s1.1,0,1.7,0l106,9.3c5,.4,9.3,2.7,12.6,6.7,3.3,3.9,4.8,8.6,4.4,13.6l-1,11.6c-.4,5-2.8,9.3-6.7,12.6-3.5,3-7.5,4.5-11.9,4.5s-1.1,0-1.7,0l-24.1-2.1-9.6,109.9c-.4,5-2.6,9.2-6.5,12.6-3.5,3-7.5,4.5-11.9,4.5h0v-.2Z" fill="#e5006a"/>
            <path d="M410.2,459h-1.7l-18.4-1.6c-5-.4-9.3-2.8-12.6-6.7-3.3-3.9-4.8-8.6-4.4-13.6l8.1-92.3c.4-5,2.7-9.3,6.7-12.6,3.5-3,7.5-4.5,11.9-4.5s1.1,0,1.7,0l17.3,1.5c5,.4,9.3,2.7,12.6,6.7,2.5,2.9,3.9,6.3,4.3,9.9,9.8-7.1,21.4-11,34.6-11.5h.8c5,0,9.3,2.1,12.7,6,3.3,3.9,4.8,8.7,4.4,13.8l-.5,5.9c-.4,5-2.6,9.2-6.4,12.5-3.6,3.1-8,4.9-13,5-10.5.4-18.9,3.5-25.6,9.2-6.5,5.6-10,12.7-10.8,21.5l-3,33.7c-.4,5-2.7,9.3-6.7,12.6-3.5,3-7.5,4.5-11.9,4.5h-.1Z" fill="#e5006a"/>
            <path d="M583.1,474.1h-1.7l-14.3-1.2c-5.2-.5-9.5-2.6-12.8-6.5-1.3-1.5-2.3-3.1-3.1-4.8-8.8,6.2-18.7,9.4-29.4,9.4s-3.3,0-5-.2c-12.1-1.1-21.9-5.9-29.1-14.4s-10.4-19.1-9.3-31.4c3-34.2,32.8-41.4,57.2-41.4s9.1.2,14,.6l3,.3c-.6-2.6-2.8-4.8-9.4-5.4-3-.3-6.4-.4-10.1-.4-6.9,0-15.2.5-24.4,1.4h-1.8c-4.2,0-8-1.6-11.2-4.5-3.7-3.5-5.4-8-4.9-13l.3-3.6c.4-5.1,2.4-9.5,5.9-13.3,3.6-3.9,8-6.1,13.2-6.5,9.5-.9,18.2-1.3,25.7-1.3s9.2.2,13.1.5c21.6,1.9,36.6,7.2,46,16.3,9.6,9.3,13.6,22.9,12.1,40.3l-5.4,62.1c-.4,5-2.7,9.3-6.7,12.6-3.5,3-7.5,4.5-11.9,4.5h0ZM541.6,419.2c-12.2,0-12.6,4.7-12.8,6.7-.2,2.4-.4,4.5,5.3,5h1.8c3.6,0,6.7-1,9.3-3.1,2.5-2,4-4.7,4.7-8.2l-3.3-.3c-1.8-.1-3.4-.2-4.9-.2h0Z" fill="#e5006a"/>
            <path d="M720.6,486.1h-1.7l-16.2-1.4c-5-.4-9.3-2.8-12.6-6.7s-4.8-8.6-4.4-13.6l4.8-55.3c.7-7.9-.5-10.5-.8-11-.7-1.1-2.9-1.9-6-2.2h-.9c-2.5,0-4.8.9-7.2,2.8-2.6,2-3.9,4.1-4.1,6.5l-5,57.5c-.4,5-2.7,9.3-6.7,12.6-3.5,3-7.5,4.5-11.9,4.5s-1.1,0-1.7,0l-17.3-1.5c-5-.4-9.3-2.8-12.6-6.7s-4.8-8.6-4.4-13.6l8.1-92.3c.4-5,2.7-9.3,6.7-12.6,3.5-3,7.5-4.5,11.9-4.5s1.1,0,1.7,0l15.5,1.4c5.2.5,9.5,2.6,12.8,6.5,1.2,1.5,2.2,3,3,4.6,8.6-6.2,18.2-9.4,28.6-9.4s3.1,0,4.7.2c15.6,1.4,26.7,7.1,33,17.1,6,9.6,8.1,24.2,6.3,44.8l-4.8,55.3c-.4,5-2.7,9.3-6.7,12.6-3.5,3-7.5,4.5-11.9,4.5h-.2Z" fill="#e5006a"/>
            <path d="M810.2,495.9c-3.3,0-6.7-.2-10.3-.5-12.7-1.1-25.6-3.5-38.3-7.1-5-1.5-8.9-4.5-11.7-8.9-2.8-4.3-4-9.1-3.5-14.4l.5-5.9c.4-5,3-9.1,7.3-11.6,2.5-1.5,5.2-2.2,8-2.2s3.5.3,5.3.9c10.6,3.5,20.8,5.8,30.3,6.6.9,0,1.8.1,2.6.1,3.3,0,4.2-.7,4.3-.8v-.9c-.5-.3-1.9-.9-5.2-1.7-17.9-4.5-30.3-10.7-38.1-18.9-8.1-8.5-11.6-19.4-10.5-32.2,1.2-13.4,7.4-23.5,18.4-30.1,8.2-4.9,19.2-7.4,32.8-7.4s7.6.2,11.6.5c12,1,23.3,2.8,33.4,5.3,5.2,1.3,9.2,4.1,12.1,8.4,2.8,4.2,4.1,8.9,3.6,14l-.4,4.8c-.4,5-3,9-7.3,11.8-2.8,1.8-5.9,2.7-9,2.7s-3.1-.2-4.6-.6c-8.7-2.5-17.8-4.2-27.1-5-1.5-.1-2.8-.2-4-.2-2.5,0-3.6.3-3.8.4v.2c0,1.4,2.6,2.3,5,2.8h0c18.4,4.1,31,10,38.6,18,7.9,8.3,11.2,19.5,10,33.2-1.2,13.8-7.3,24.2-18,31-8.2,5.1-19.1,7.8-32.3,7.8h.2Z" fill="#e5006a"/>
          </g>
          <g>
            <path d="M324.5,451.5h-1.7l-20.9-1.8c-5-.4-9.4-2.8-12.6-6.7-3.2-4-4.6-8.5-4.2-13.5l9.6-109.9-24.1-2.1c-5-.4-9.3-2.8-12.6-6.7-3.3-3.9-4.8-8.6-4.4-13.6l1-11.6c.4-5,2.7-9.3,6.7-12.6,3.5-3,7.5-4.5,11.9-4.5s1.1,0,1.7,0l106,9.3c5,.4,9.3,2.7,12.6,6.7,3.3,3.9,4.8,8.6,4.4,13.6l-1,11.6c-.4,5-2.8,9.3-6.7,12.6-3.5,3-7.5,4.5-11.9,4.5s-1.1,0-1.7,0l-24.1-2.1-9.6,109.9c-.4,5-2.6,9.2-6.5,12.6-3.5,3-7.5,4.5-11.9,4.5h0v-.2Z" fill="#e5006a"/>
            <path d="M410.2,459h-1.7l-18.4-1.6c-5-.4-9.3-2.8-12.6-6.7-3.3-3.9-4.8-8.6-4.4-13.6l8.1-92.3c.4-5,2.7-9.3,6.7-12.6,3.5-3,7.5-4.5,11.9-4.5s1.1,0,1.7,0l17.3,1.5c5,.4,9.3,2.7,12.6,6.7,2.5,2.9,3.9,6.3,4.3,9.9,9.8-7.1,21.4-11,34.6-11.5h.8c5,0,9.3,2.1,12.7,6,3.3,3.9,4.8,8.7,4.4,13.8l-.5,5.9c-.4,5-2.6,9.2-6.4,12.5-3.6,3.1-8,4.9-13,5-10.5.4-18.9,3.5-25.6,9.2-6.5,5.6-10,12.7-10.8,21.5l-3,33.7c-.4,5-2.7,9.3-6.7,12.6-3.5,3-7.5,4.5-11.9,4.5h-.1Z" fill="#e5006a"/>
            <path d="M583.1,474.1h-1.7l-14.3-1.2c-5.2-.5-9.5-2.6-12.8-6.5-1.3-1.5-2.3-3.1-3.1-4.8-8.8,6.2-18.7,9.4-29.4,9.4s-3.3,0-5-.2c-12.1-1.1-21.9-5.9-29.1-14.4s-10.4-19.1-9.3-31.4c3-34.2,32.8-41.4,57.2-41.4s9.1.2,14,.6l3,.3c-.6-2.6-2.8-4.8-9.4-5.4-3-.3-6.4-.4-10.1-.4-6.9,0-15.2.5-24.4,1.4h-1.8c-4.2,0-8-1.6-11.2-4.5-3.7-3.5-5.4-8-4.9-13l.3-3.6c.4-5.1,2.4-9.5,5.9-13.3,3.6-3.9,8-6.1,13.2-6.5,9.5-.9,18.2-1.3,25.7-1.3s9.2.2,13.1.5c21.6,1.9,36.6,7.2,46,16.3,9.6,9.3,13.6,22.9,12.1,40.3l-5.4,62.1c-.4,5-2.7,9.3-6.7,12.6-3.5,3-7.5,4.5-11.9,4.5h0ZM541.6,419.2c-12.2,0-12.6,4.7-12.8,6.7-.2,2.4-.4,4.5,5.3,5h1.8c3.6,0,6.7-1,9.3-3.1,2.5-2,4-4.7,4.7-8.2l-3.3-.3c-1.8-.1-3.4-.2-4.9-.2h0Z" fill="#e5006a"/>
            <path d="M720.6,486.1h-1.7l-16.2-1.4c-5-.4-9.3-2.8-12.6-6.7s-4.8-8.6-4.4-13.6l4.8-55.3c.7-7.9-.5-10.5-.8-11-.7-1.1-2.9-1.9-6-2.2h-.9c-2.5,0-4.8.9-7.2,2.8-2.6,2-3.9,4.1-4.1,6.5l-5,57.5c-.4,5-2.7,9.3-6.7,12.6-3.5,3-7.5,4.5-11.9,4.5s-1.1,0-1.7,0l-17.3-1.5c-5-.4-9.3-2.8-12.6-6.7s-4.8-8.6-4.4-13.6l8.1-92.3c.4-5,2.7-9.3,6.7-12.6,3.5-3,7.5-4.5,11.9-4.5s1.1,0,1.7,0l15.5,1.4c5.2.5,9.5,2.6,12.8,6.5,1.2,1.5,2.2,3,3,4.6,8.6-6.2,18.2-9.4,28.6-9.4s3.1,0,4.7.2c15.6,1.4,26.7,7.1,33,17.1,6,9.6,8.1,24.2,6.3,44.8l-4.8,55.3c-.4,5-2.7,9.3-6.7,12.6-3.5,3-7.5,4.5-11.9,4.5h-.2Z" fill="#e5006a"/>
            <path d="M810.2,495.9c-3.3,0-6.7-.2-10.3-.5-12.7-1.1-25.6-3.5-38.3-7.1-5-1.5-8.9-4.5-11.7-8.9-2.8-4.3-4-9.1-3.5-14.4l.5-5.9c.4-5,3-9.1,7.3-11.6,2.5-1.5,5.2-2.2,8-2.2s3.5.3,5.3.9c10.6,3.5,20.8,5.8,30.3,6.6.9,0,1.8.1,2.6.1,3.3,0,4.2-.7,4.3-.8v-.9c-.5-.3-1.9-.9-5.2-1.7-17.9-4.5-30.3-10.7-38.1-18.9-8.1-8.5-11.6-19.4-10.5-32.2,1.2-13.4,7.4-23.5,18.4-30.1,8.2-4.9,19.2-7.4,32.8-7.4s7.6.2,11.6.5c12,1,23.3,2.8,33.4,5.3,5.2,1.3,9.2,4.1,12.1,8.4,2.8,4.2,4.1,8.9,3.6,14l-.4,4.8c-.4,5-3,9-7.3,11.8-2.8,1.8-5.9,2.7-9,2.7s-3.1-.2-4.6-.6c-8.7-2.5-17.8-4.2-27.1-5-1.5-.1-2.8-.2-4-.2-2.5,0-3.6.3-3.8.4v.2c0,1.4,2.6,2.3,5,2.8h0c18.4,4.1,31,10,38.6,18,7.9,8.3,11.2,19.5,10,33.2-1.2,13.8-7.3,24.2-18,31-8.2,5.1-19.1,7.8-32.3,7.8h.2Z" fill="#e5006a"/>
          </g>
        </g>
        <g>
          <g>
            <path d="M58.1,291c-13.6,0-25.6-4.2-35.7-12.6-11.6-9.6-18.3-22.8-19.7-39-1.4-16.6,2.9-31.1,12.8-42.4-6.7-5.2-10.7-12.6-11.4-21.2l-.3-3.6c-.7-8.2,1.3-16.2,5.7-23.1,4.8-7.4,11.7-12.5,20.2-14.7,16-4.4,29.3-7,40.6-8,4.8-.4,9.4-.6,13.8-.6,18.3,0,32.5,3.6,43.6,11.1,14.8,10,23.2,26.2,25.1,48.2l5.4,62.1c.8,8.8-1.9,17.1-7.7,24s-13.5,11-22.3,11.7l-14.3,1.2c-1,0-2.1.1-3.1.1-5.6,0-11.1-1.4-15.9-4.1-9,6-19.4,9.6-30.8,10.6-2,.2-3.9.3-5.8.3h-.2Z" fill="#e5006a"/>
            <path d="M173.2,278.8c-7.7,0-15-2.7-21.1-7.8-6.9-5.8-10.9-13.5-11.7-22.3l-12.7-144.7c-.8-8.8,1.9-17.1,7.7-24s13.5-11,22.3-11.7l17.3-1.5c1,0,2,0,2.9,0,7.7,0,15,2.7,21.1,7.8,6.9,5.8,11,13.5,11.7,22.3l1.6,18.7c4.6-1.4,9.3-2.3,14.1-2.8,2.1-.2,4.2-.3,6.3-.3,17.7,0,32.7,6.6,44.7,19.5,12.2,13.1,19.4,32.1,21.5,56.4,2.1,23.9-2,43.8-12.1,59.2-11,16.6-26.9,26.2-46.1,27.9-2.1.2-4.3.3-6.4.3-9.2,0-17.9-1.8-25.9-5.3-5.1,4.1-11.2,6.5-17.9,7.1l-14.3,1.2c-1,0-2,.1-2.9.1h-.1Z" fill="#e5006a"/>
            <path d="M347.9,265.5c-20.4,0-37.6-5.9-51.3-17.4-15.8-13.4-25-32.6-27.1-57.2-2.1-24.6,3.5-45.2,16.8-61.1,13.3-16,32.6-25.2,57.4-27.3,3.4-.3,6.8-.4,10-.4,20.4,0,37.6,5.8,51.3,17.4,15.8,13.4,25,32.6,27.1,57.3,2.1,24.6-3.5,45.2-16.8,61.1-13.3,16-32.6,25.2-57.4,27.3-3.4.3-6.8.4-10,.4h0Z" fill="#e5006a"/>
            <path d="M464.2,255.4c-16.3,0-29.3-5.1-38.8-15.2-9.7-10.4-15.4-26.7-17.5-50l-5-57.6c-.8-8.8,1.9-17.1,7.7-24,5.8-6.9,13.5-10.9,22.3-11.7l16.1-1.4c1,0,2,0,2.9,0,7.7,0,15,2.7,21.1,7.8,1.9,1.6,3.6,3.4,5.1,5.2,1.1-2.1,2.5-4.1,4.1-6.1,5.8-6.9,13.5-10.9,22.3-11.7l17.3-1.5c1,0,2,0,2.9,0,7.7,0,15,2.7,21.1,7.8,6.9,5.8,11,13.5,11.7,22.3l8.1,92.3c.8,8.8-1.9,17.1-7.7,24s-13.5,11-22.3,11.7l-15.5,1.4c-1,0-2.1.1-3.1.1-5.6,0-11-1.4-15.8-4-8.8,6-18.9,9.5-29.9,10.4-2.5.2-5,.3-7.3.3h.2Z" fill="#e5006a"/>
            <path d="M620.7,241.6c-16.9,0-30.3-4.3-40-12.8-11.4-10-17.9-26.3-20-49.7l-1.8-20c-5.4-1.1-10.5-3.5-14.9-7.2-6.9-5.8-10.9-13.5-11.7-22.3l-.3-3.6c-.8-8.8,1.9-17.1,7.7-24,3.7-4.4,8.3-7.7,13.5-9.7l-1-11.6c-.8-8.8,1.9-17.1,7.7-24s13.5-11,22.3-11.7l17.3-1.5c1,0,2,0,2.9,0,7.7,0,15,2.7,21.1,7.8,6.9,5.8,11,13.5,11.7,22.3l.9,10.4,2.4-.2c1,0,2,0,2.9,0,7.7,0,15,2.7,21.1,7.8,6.9,5.8,11,13.5,11.7,22.3l.3,3.6c.8,8.8-1.9,17.1-7.7,24s-13.5,10.9-22.3,11.7l-2.4.2,1.2,14c1.6-.2,3.2-.4,4.8-.4,6,0,11.8,1.7,17.1,5.1,8.1,5.2,13,13.2,13.8,22.6l.5,5.9c.7,8.3-1.3,16.3-5.9,23.2-5,7.5-12.2,12.5-20.8,14.4-6,1.4-13.4,2.5-21.8,3.2-3.5.3-6.9.5-10.1.5h-.2Z" fill="#e5006a"/>
          </g>
          <g>
            <path d="M58.1,282.4c-11.5,0-21.7-3.6-30.2-10.6-9.8-8.1-15.4-19.3-16.6-33.2-1.5-17.6,4.1-31.7,16.9-41.9.8-.7,1.7-1.3,2.6-1.9-3-.5-5.8-1.7-8.5-3.4-5.6-3.7-9.1-9.5-9.6-16.3l-.3-3.6c-.5-6.4.9-12.3,4.4-17.7,3.7-5.7,8.8-9.4,15.2-11.1,15.2-4.2,28.4-6.8,39-7.7,4.6-.4,8.9-.6,13-.6,16.3,0,29.3,3.2,38.8,9.6,12.5,8.5,19.7,22.6,21.4,41.9l5.4,62.1c.6,6.5-1.4,12.6-5.7,17.8-4.3,5.1-10,8.1-16.5,8.7l-14.3,1.2c-.8,0-1.6.1-2.3.1-5.8,0-11-1.9-15.5-5.6-.2-.2-.4-.3-.6-.5-8.9,7.3-19.4,11.6-31.4,12.6-1.7.1-3.4.2-5.1.2h0ZM75.9,227.9c-.5.1-.9.3-1.3.4.5-.1.9-.3,1.3-.4Z" fill="#e5006a"/>
            <path d="M173.2,270.2c-5.8,0-11-1.9-15.6-5.8-5.1-4.3-8.1-10-8.7-16.5l-12.7-144.7c-.6-6.5,1.4-12.7,5.7-17.8s10-8.1,16.5-8.7l17.3-1.5h2.2c5.8,0,11,2,15.6,5.8,5.1,4.3,8.1,10,8.7,16.5l2.6,30.3c7-3.7,14.4-5.9,22.3-6.6,1.9-.2,3.7-.2,5.5-.2,15.2,0,28.1,5.6,38.4,16.8,10.8,11.7,17.3,28.9,19.3,51.3,1.9,21.9-1.7,40-10.8,53.7-9.6,14.5-23,22.6-39.8,24.1-1.9.2-3.8.2-5.6.2-9.9,0-19.2-2.4-27.5-7.1-.1.2-.3.4-.4.5-4.3,5-10.1,7.9-16.6,8.5l-14.3,1.2c-.7,0-1.5.1-2.2.1h.1ZM217.1,177.1h-1c-2.3.2-4.1,1.1-5.7,2.8-1.9,2-1.8,3.1-1.8,3.6l2.2,25c0,.5.1,1.5,2.3,3.2,1.7,1.3,3.3,1.8,5.2,1.8s.6,0,.9,0c2.2-.2,3.4-1,4.6-3,1.3-2.1,2.6-6.6,1.8-15.9-1-10.9-3.5-14.9-4.9-16.4-1.2-1.1-2.1-1.2-3.6-1.2h0Z" fill="#e5006a"/>
            <path d="M347.9,256.9c-18.3,0-33.7-5.2-45.8-15.4-14-11.9-22.1-29.2-24.1-51.5s3-40.7,14.8-54.9,29.2-22.3,51.6-24.3c3.2-.3,6.3-.4,9.3-.4,18.3,0,33.7,5.2,45.8,15.4,14,11.9,22.1,29.2,24.1,51.5s-3,40.7-14.8,54.9c-11.8,14.1-29.2,22.3-51.6,24.3-3.2.3-6.3.4-9.3.4h0ZM350,163.2h-1c-3.1.3-3.6,1.2-4,2-.5,1.1-2.2,5.7-1,19s3.6,17.6,4.3,18.6c.6.8,1.1,1.4,3.2,1.4s.7,0,1,0c3.1-.3,3.6-1.2,4-2,.5-1.1,2.2-5.7,1-19s-3.6-17.6-4.3-18.6c-.6-.8-1.1-1.4-3.2-1.4h0Z" fill="#e5006a"/>
            <path d="M464.2,246.8c-13.8,0-24.7-4.2-32.5-12.5-8.4-8.9-13.3-23.6-15.2-44.9l-5-57.6c-.6-6.5,1.4-12.7,5.7-17.8,4.3-5.1,10-8.1,16.5-8.7l16.1-1.4h2.2c5.8,0,11,1.9,15.6,5.8,5.1,4.3,8.1,10,8.7,16.5l4.8,55.3c.3,3.6.8,5.6,1.1,6.8h.6c.9,0,2.1-.4,3.8-2.3.6-.7,1.6-1.9,1.5-2.8l-5-57.6c-.6-6.5,1.4-12.7,5.7-17.8,4.3-5.1,10-8.1,16.5-8.7l17.3-1.5h2.2c5.8,0,11,1.9,15.6,5.8,5.1,4.3,8.1,10,8.7,16.5l8.1,92.3c.6,6.5-1.4,12.6-5.7,17.8-4.3,5.1-10,8.1-16.5,8.7l-15.5,1.4c-.8,0-1.6.1-2.3.1-5.8,0-11-1.9-15.5-5.6-.2-.1-.3-.2-.5-.4-8.6,7.2-18.8,11.4-30.4,12.4-2.2.2-4.5.3-6.6.3h0Z" fill="#e5006a"/>
            <path d="M620.7,233c-14.7,0-26.3-3.6-34.4-10.7-9.7-8.5-15.3-22.9-17.1-44l-2.4-27.3h-1.7c-5.8,0-11-1.9-15.6-5.8-5.1-4.3-8.1-10-8.7-16.5l-.3-3.6c-.6-6.5,1.4-12.6,5.7-17.8,4.2-5,9.8-8,16.1-8.7l-1.7-18.9c-.6-6.5,1.4-12.7,5.7-17.8,4.3-5.1,10-8.1,16.5-8.7l17.3-1.5h2.2c5.8,0,11,2,15.6,5.8,5.1,4.3,8.1,10,8.7,16.5l1.7,18.9,10.9-1h2.2c5.8,0,11,1.9,15.6,5.8,5.1,4.3,8.1,10,8.7,16.5l.3,3.6c.6,6.5-1.4,12.7-5.7,17.8s-10,8.1-16.5,8.7l-10.9.9,2,22.7c.4,4.4.8,7.3,1.2,9.1h.7c1.5-.1,3.6-.5,6-1.1,1.8-.4,3.6-.6,5.3-.6,4.4,0,8.6,1.3,12.5,3.7,5.8,3.7,9.3,9.4,9.9,16.1l.5,5.9c.6,6.4-1,12.4-4.5,17.7-3.7,5.6-9.2,9.4-15.7,10.8-5.6,1.3-12.6,2.3-20.6,3-3.3.3-6.4.4-9.4.4h0Z" fill="#e5006a"/>
          </g>
          <g>
            <path d="M55.3,276.7c-9.6,0-17.7-2.8-24.8-8.7-8.1-6.7-12.5-15.6-13.5-27.3-2.5-29.1,17.8-45.7,60.4-49.4l6.2-.6c-.7-6.4-4.2-9.2-11.4-9.2s-1.7,0-2.6.1c-8.9.8-20.4,3.2-34.4,7.1-1.3.4-2.5.5-3.8.5-2.6,0-5.1-.8-7.4-2.3-3.5-2.3-5.5-5.6-5.8-9.9l-.3-3.6c-.4-4.4.6-8.6,3.1-12.3,2.5-3.9,5.9-6.4,10.2-7.5,14.8-4.1,27.5-6.6,37.6-7.5,4.3-.4,8.5-.6,12.3-.6,14.5,0,26,2.8,34,8.2,10.3,7,16.2,18.9,17.7,35.5l5.4,62.1c.4,4.2-.9,8.1-3.7,11.5-2.9,3.4-6.4,5.3-10.7,5.7l-14.3,1.2h-1.6c-3.8,0-7.2-1.2-10.1-3.6-2.3-1.9-4-4.2-5-6.8-8.8,10.3-19.7,15.9-33.2,17.1-1.5.1-2.9.2-4.3.2h0ZM80,220.9c-7,.6-12.2,2.1-15.3,4.4-2.8,2-3.9,4.7-3.6,8.2.4,4.7,2.7,6.7,7.5,6.7s1.1,0,1.7,0c5.2-.4,9.2-2.4,12.3-5.9,3-3.5,4.3-7.8,3.8-13.3v-.6l-6.3.6h0Z" fill="#e5006a"/>
            <path d="M170.3,264.5c-3.7,0-7.1-1.3-10.1-3.8-3.4-2.8-5.3-6.4-5.7-10.7l-12.7-144.7c-.4-4.2.9-8.1,3.7-11.5,2.9-3.4,6.4-5.3,10.7-5.7l17.3-1.5h1.4c3.7,0,7.1,1.3,10.1,3.8,3.4,2.8,5.3,6.4,5.7,10.7l3.9,45.1c8.9-8,19.1-12.6,30.3-13.6,1.6-.1,3.2-.2,4.8-.2,12.9,0,23.4,4.6,32.1,14,9.5,10.3,15.2,25.8,17,46.2,1.8,20-1.4,36.2-9.4,48.2-8.1,12.2-19.3,19-33.4,20.3-1.6.1-3.3.2-4.9.2-11.7,0-21.8-3.7-30.8-11.2-.5,2.8-1.8,5.3-3.7,7.5-2.9,3.3-6.5,5.2-10.9,5.6l-14.3,1.2h-1.4.3ZM214.2,171.4h-1.8c-4.5.4-8.1,2.2-11.2,5.5-3,3.2-4.3,6.6-4,10.1l2.2,25c.3,3.6,2.2,6.6,5.7,9.3,3.2,2.4,6.6,3.6,10.4,3.6s1.1,0,1.7,0c5.1-.4,8.6-2.7,11.2-7.2,2.7-4.6,3.7-11.9,2.9-20.9-2.2-25.4-13.4-25.4-17-25.4h0Z" fill="#e5006a"/>
            <path d="M345,251.2c-16.2,0-29.8-4.5-40.2-13.4-12.2-10.4-19.4-25.7-21.1-45.7-1.8-19.9,2.6-36.3,12.9-48.6s25.7-19.5,45.8-21.2c2.9-.2,5.8-.4,8.5-.4,16.2,0,29.8,4.5,40.2,13.3,12.3,10.4,19.4,25.7,21.1,45.7,1.7,19.9-2.6,36.3-12.9,48.6s-25.7,19.5-45.8,21.2c-2.9.2-5.8.4-8.5.4h0ZM347.2,157.5h-1.8c-5.4.5-8.9,2.6-10.9,6.8-2.2,4.5-2.9,12.5-1.9,23.6s3,18.8,5.9,22.9c2.4,3.3,5.6,4.9,10.2,4.9s1.2,0,1.8,0c5.4-.5,8.9-2.6,10.9-6.8,2.2-4.5,2.9-12.5,1.9-23.6s-3-18.8-5.9-22.9c-2.4-3.3-5.6-4.9-10.1-4.9h-.1Z" fill="#e5006a"/>
            <path d="M461.3,241.1c-11.3,0-20.2-3.3-26.3-9.8-7-7.5-11.2-20.5-12.9-39.8l-5-57.5c-.4-4.2.9-8.1,3.7-11.5,2.8-3.4,6.4-5.3,10.7-5.7l16.1-1.4h1.4c3.7,0,7.1,1.3,10.1,3.8,3.4,2.8,5.3,6.4,5.7,10.7l4.8,55.3c.7,8.3,2.4,11.4,3.4,12.4s1.9,2.1,6,2.1,1,0,1.6,0c3.5-.3,6.6-2,9.4-5.1s4-6.1,3.7-9.2l-5-57.6c-.4-4.2.9-8.1,3.7-11.5,2.8-3.4,6.4-5.3,10.7-5.7l17.3-1.5h1.4c3.7,0,7.1,1.3,10.1,3.8,3.4,2.8,5.3,6.4,5.7,10.7l8.1,92.3c.4,4.2-.9,8.1-3.7,11.5s-6.5,5.3-10.7,5.7l-15.5,1.4h-1.6c-3.8,0-7.2-1.2-10.1-3.6-2.3-1.9-4-4.1-5-6.8-8.5,10.2-19,15.7-32,16.9-2,.2-4,.3-5.8.3h0v-.2Z" fill="#e5006a"/>
            <path d="M617.8,227.3c-12.6,0-22.3-2.9-28.7-8.6-7.9-6.9-12.6-19.5-14.2-38.3l-3.1-35.8-8.1.7h-1.4c-3.7,0-7.1-1.3-10.1-3.8-3.4-2.8-5.3-6.4-5.7-10.7l-.3-3.6c-.4-4.2.9-8.1,3.7-11.5s6.5-5.3,10.7-5.7l8.1-.7-2.4-27.4c-.4-4.2.9-8.1,3.7-11.5s6.4-5.3,10.7-5.7l17.3-1.5h1.4c3.7,0,7.1,1.3,10.1,3.8,3.4,2.8,5.3,6.5,5.7,10.7l2.4,27.4,19.5-1.7h1.4c3.7,0,7.1,1.3,10.1,3.8,3.4,2.8,5.3,6.4,5.7,10.7l.3,3.6c.4,4.2-.9,8.1-3.7,11.5s-6.5,5.3-10.7,5.7l-19.4,1.7,2.7,31.3c1,11.5,2.5,14.6,3.2,15.3.8,1,2.8,1.6,5.6,1.6s1.6,0,2.4-.1c2-.2,4.4-.6,7.2-1.3,1.1-.3,2.2-.4,3.3-.4,2.7,0,5.3.8,7.8,2.4,3.6,2.3,5.6,5.6,6,9.6l.5,5.9c.4,4.4-.7,8.6-3.1,12.2-2.5,3.8-6,6.2-10.3,7.1-5.3,1.2-11.9,2.2-19.6,2.9-3,.3-5.9.4-8.7.4h0Z" fill="#e5006a"/>
          </g>
          <g>
            <path d="M61,271c-9.6,0-17.7-2.8-24.8-8.7-8.1-6.7-12.5-15.6-13.5-27.3-2.5-29.1,17.8-45.7,60.4-49.4l6.2-.6c-.7-6.4-4.2-9.2-11.4-9.2s-1.7,0-2.6.1c-8.9.8-20.4,3.2-34.4,7.1-1.3.4-2.5.5-3.8.5-2.6,0-5.1-.8-7.4-2.3-3.5-2.3-5.5-5.6-5.8-9.9l-.3-3.6c-.4-4.4.6-8.6,3.1-12.3,2.5-3.9,5.9-6.4,10.2-7.5,14.8-4.1,27.5-6.6,37.6-7.5,4.3-.4,8.5-.6,12.3-.6,14.5,0,26,2.8,34,8.2,10.3,7,16.2,18.9,17.7,35.5l5.4,62.1c.4,4.2-.9,8.1-3.7,11.5-2.9,3.4-6.4,5.3-10.7,5.7l-14.3,1.2h-1.6c-3.8,0-7.2-1.2-10.1-3.6-2.3-1.9-4-4.2-5-6.8-8.8,10.3-19.7,15.9-33.2,17.1-1.5.1-2.9.2-4.3.2h0ZM85.7,215.2c-7,.6-12.2,2.1-15.3,4.4-2.8,2-3.9,4.7-3.6,8.2.4,4.7,2.7,6.7,7.5,6.7s1.1,0,1.7,0c5.2-.4,9.2-2.4,12.3-5.9,3-3.5,4.3-7.8,3.8-13.3v-.6l-6.3.6h0Z" fill="#e5006a"/>
            <path d="M176,258.8c-3.7,0-7.1-1.3-10.1-3.8-3.4-2.8-5.3-6.4-5.7-10.7l-12.7-144.7c-.4-4.2.9-8.1,3.7-11.5,2.9-3.4,6.4-5.3,10.7-5.7l17.3-1.5h1.4c3.7,0,7.1,1.3,10.1,3.8,3.4,2.8,5.3,6.4,5.7,10.7l3.9,45.1c8.9-8,19.1-12.6,30.3-13.6,1.6,0,3.2-.2,4.8-.2,12.9,0,23.4,4.6,32.1,14,9.5,10.3,15.2,25.8,17,46.2,1.8,20-1.4,36.2-9.4,48.2-8.1,12.2-19.3,19-33.4,20.3-1.6.1-3.3.2-4.9.2-11.7,0-21.8-3.7-30.8-11.2-.5,2.8-1.8,5.3-3.7,7.5-2.9,3.3-6.5,5.2-10.9,5.6l-14.3,1.2h-1.4.3ZM220,165.7h-1.8c-4.5.4-8.1,2.2-11.2,5.5-3,3.2-4.3,6.6-4,10.1l2.2,25c.3,3.6,2.2,6.6,5.7,9.3,3.2,2.4,6.6,3.6,10.4,3.6s1.1,0,1.7,0c5.1-.4,8.6-2.7,11.2-7.2,2.7-4.6,3.7-11.9,2.9-20.9-2.2-25.4-13.4-25.4-17-25.4h0Z" fill="#e5006a"/>
            <path d="M350.7,245.5c-16.2,0-29.8-4.5-40.2-13.4-12.2-10.4-19.4-25.7-21.1-45.7-1.8-19.9,2.6-36.3,12.9-48.6,10.3-12.3,25.7-19.5,45.8-21.2,2.9-.2,5.8-.4,8.5-.4,16.2,0,29.8,4.5,40.2,13.3,12.3,10.4,19.4,25.7,21.1,45.7,1.7,19.9-2.6,36.3-12.9,48.6s-25.7,19.5-45.8,21.2c-2.9.2-5.8.4-8.5.4h0ZM352.9,151.8h-1.8c-5.4.5-8.9,2.6-10.9,6.8-2.2,4.5-2.9,12.5-1.9,23.6s3,18.8,5.9,22.9c2.4,3.3,5.6,4.9,10.2,4.9s1.2,0,1.8,0c5.4-.5,8.9-2.6,10.9-6.8,2.2-4.5,2.9-12.5,1.9-23.6s-3-18.8-5.9-22.9c-2.4-3.3-5.6-4.9-10.1-4.9h-.1Z" fill="#e5006a"/>
            <path d="M467,235.4c-11.3,0-20.2-3.3-26.3-9.8-7-7.5-11.2-20.5-12.9-39.8l-5-57.5c-.4-4.2.9-8.1,3.7-11.5,2.8-3.4,6.4-5.3,10.7-5.7l16.1-1.4h1.4c3.7,0,7.1,1.3,10.1,3.8,3.4,2.8,5.3,6.4,5.7,10.7l4.8,55.3c.7,8.3,2.4,11.4,3.4,12.4s1.9,2.1,6,2.1,1,0,1.6,0c3.5-.3,6.6-2,9.4-5.1s4-6.1,3.7-9.2l-5-57.6c-.4-4.2.9-8.1,3.7-11.5,2.8-3.4,6.4-5.3,10.7-5.7l17.3-1.5h1.4c3.7,0,7.1,1.3,10.1,3.8,3.4,2.8,5.3,6.4,5.7,10.7l8.1,92.3c.4,4.2-.9,8.1-3.7,11.5s-6.5,5.3-10.7,5.7l-15.5,1.4h-1.6c-3.8,0-7.2-1.2-10.1-3.6-2.3-1.9-4-4.1-5-6.8-8.5,10.2-19,15.7-32,16.9-2,.2-4,.3-5.8.3h0v-.2Z" fill="#e5006a"/>
            <path d="M623.5,221.6c-12.6,0-22.3-2.9-28.7-8.6-7.9-6.9-12.6-19.5-14.2-38.3l-3.1-35.8-8.1.7h-1.4c-3.7,0-7.1-1.3-10.1-3.8-3.4-2.8-5.3-6.4-5.7-10.7l-.3-3.6c-.4-4.2.9-8.1,3.7-11.5s6.5-5.3,10.7-5.7l8.1-.7-2.4-27.4c-.4-4.2.9-8.1,3.7-11.5s6.4-5.3,10.7-5.7l17.3-1.5h1.4c3.7,0,7.1,1.3,10.1,3.8,3.4,2.8,5.3,6.5,5.7,10.7l2.4,27.4,19.5-1.7h1.4c3.7,0,7.1,1.3,10.1,3.8,3.4,2.8,5.3,6.4,5.7,10.7l.3,3.6c.4,4.2-.9,8.1-3.7,11.5s-6.5,5.3-10.7,5.7l-19.4,1.7,2.7,31.3c1,11.5,2.5,14.6,3.2,15.3.8,1,2.8,1.6,5.6,1.6s1.6,0,2.4-.1c2-.2,4.4-.6,7.2-1.3,1.1-.3,2.2-.4,3.3-.4,2.7,0,5.3.8,7.8,2.4,3.6,2.3,5.6,5.6,6,9.6l.5,5.9c.4,4.4-.7,8.6-3.1,12.2-2.5,3.8-6,6.2-10.3,7.1-5.3,1.2-11.9,2.2-19.6,2.9-3,.3-5.9.4-8.7.4h0Z" fill="#e5006a"/>
          </g>
          <g>
            <path d="M58.1,276.7c-10.2,0-19.1-3.1-26.6-9.3-8.6-7.1-13.5-17-14.6-29.3-1.4-15.6,3.6-28.1,14.8-37,10.6-8.5,26.4-13.6,48.2-15.5l3-.3c-1.1-2.7-3.5-3.8-7.9-3.8s-1.5,0-2.3.1c-8.7.8-20.1,3.1-33.8,7-1.5.4-3,.6-4.6.6-3.2,0-6.2-.9-9-2.8-4.2-2.8-6.7-6.9-7.1-12l-.3-3.6c-.4-5.1.7-9.8,3.5-14.1,2.9-4.5,6.9-7.4,11.9-8.7,15-4.1,27.8-6.6,38.1-7.5,4.4-.4,8.6-.6,12.5-.6,15.1,0,27.1,2.9,35.5,8.7,11,7.5,17.4,20.1,18.9,37.6l5.4,62.1c.4,5-1.1,9.7-4.4,13.6s-7.7,6.2-12.6,6.7l-14.3,1.3h-1.8c-4.4,0-8.4-1.4-11.9-4.3-1.5-1.2-2.8-2.6-3.8-4.1-8.8,8.8-19.6,13.9-32.2,15-1.6.1-3.1.2-4.6.2h0ZM83.1,220.9c-8.1.7-12,2.5-13.9,3.8-2,1.4-2.7,3.1-2.5,5.6.3,3,1,4.1,4.7,4.1h1.4c4.4-.4,7.8-2,10.4-4.9,2.1-2.4,3.1-5.3,3.2-8.9l-3.3.3h0Z" fill="#e5006a"/>
            <path d="M173.2,264.5c-4.4,0-8.4-1.5-11.9-4.5-3.9-3.3-6.2-7.7-6.7-12.6l-12.7-144.7c-.4-5,1.1-9.7,4.4-13.6,3.3-3.9,7.7-6.2,12.6-6.7l17.3-1.5h1.7c4.4,0,8.4,1.5,11.9,4.5,3.9,3.3,6.2,7.7,6.7,12.6l3.5,39.7c8.4-6.3,17.6-9.9,27.7-10.8,1.7-.2,3.4-.2,5-.2,13.5,0,25,5,34.2,14.9,10,10.7,15.9,26.9,17.8,47.9,1.8,20.6-1.5,37.5-9.8,50-8.6,13-20.5,20.2-35.5,21.5-1.7.1-3.4.2-5.1.2-10.8,0-20.6-3.1-29.3-9.3-.8,1.6-1.8,3.2-3,4.7-3.4,3.9-7.7,6.1-12.8,6.5l-14.3,1.2h-1.7v.2ZM217.1,171.4h-1.5c-3.7.3-6.8,1.8-9.4,4.6-3.2,3.5-3.4,6.2-3.3,7.9l2.2,25c.1,1.8.8,4.4,4.6,7.3,2.6,2,5.5,3,8.6,3s.9,0,1.4,0c4-.4,6.9-2.2,9-5.8,2.4-4.2,3.3-10.6,2.5-19.3-2-22.8-10.9-22.8-14.2-22.8h0Z" fill="#e5006a"/>
            <path d="M347.9,251.2c-16.9,0-31.1-4.7-42.1-14-12.9-10.9-20.3-26.9-22.1-47.6-1.8-20.7,2.7-37.8,13.5-50.7,10.8-12.9,26.8-20.4,47.7-22.2,3-.3,5.9-.4,8.8-.4,16.9,0,31.1,4.7,42.1,14,12.9,10.9,20.3,26.9,22.1,47.6,1.8,20.7-2.7,37.8-13.5,50.7s-26.8,20.4-47.7,22.3c-3,.3-6,.4-8.8.4h0ZM350,157.5h-1.5c-5.6.5-7.6,3-8.6,5.2-1.4,2.8-2.8,8.9-1.6,22.1s3.6,18.9,5.4,21.4c1.9,2.6,4.3,3.7,7.9,3.7h1.5c5.6-.5,7.6-3,8.6-5.2,1.4-2.8,2.8-8.9,1.6-22.1-1.1-13.2-3.6-18.9-5.4-21.4-1.9-2.6-4.3-3.7-7.9-3.7h0Z" fill="#e5006a"/>
            <path d="M464.2,241.1c-12.2,0-21.7-3.6-28.3-10.7-7.5-7.9-11.9-21.5-13.7-41.5l-5-57.5c-.4-5,1.1-9.7,4.4-13.6s7.7-6.2,12.6-6.7l16.1-1.4h1.7c4.4,0,8.4,1.5,11.9,4.5,3.9,3.3,6.2,7.7,6.7,12.6l4.8,55.3c.7,8,2.2,10.3,2.7,10.8.7.8,2,1.2,3.9,1.2s.9,0,1.4,0c2.8-.2,5.2-1.6,7.5-4.1,2.2-2.4,3.2-4.8,3-7.1l-5-57.5c-.4-5,1.1-9.7,4.4-13.6s7.7-6.2,12.6-6.7l17.3-1.5h1.7c4.4,0,8.4,1.5,11.9,4.5,3.9,3.3,6.2,7.7,6.7,12.6l8.1,92.3c.4,5-1.1,9.7-4.4,13.6-3.3,3.9-7.7,6.2-12.6,6.7l-15.5,1.4h-1.8c-4.4,0-8.5-1.4-11.9-4.3-1.5-1.2-2.7-2.6-3.8-4-8.5,8.8-18.9,13.7-31.2,14.8-2.1.2-4.1.3-6.1.3h0v-.4Z" fill="#e5006a"/>
            <path d="M620.7,227.3c-13.3,0-23.6-3.1-30.6-9.3-8.5-7.5-13.5-20.6-15.2-40.2l-2.9-33-5.2.5h-1.7c-4.4,0-8.4-1.5-11.9-4.5-3.9-3.3-6.2-7.7-6.7-12.6l-.3-3.6c-.4-5,1.1-9.7,4.4-13.6,3.3-3.9,7.7-6.2,12.6-6.7l5.2-.5-2.2-24.6c-.4-5,1.1-9.7,4.4-13.6,3.3-3.9,7.7-6.2,12.6-6.7l17.3-1.5h1.7c4.4,0,8.4,1.5,11.9,4.5,3.9,3.3,6.2,7.7,6.7,12.6l2.2,24.6,16.6-1.4h1.7c4.4,0,8.4,1.5,11.9,4.5,3.9,3.3,6.2,7.7,6.7,12.6l.3,3.6c.4,5-1.1,9.7-4.4,13.6-3.3,3.9-7.7,6.2-12.6,6.7l-16.6,1.4,2.5,28.4c.9,10.5,2.2,13.2,2.5,13.8.2.1,1.1.5,3.4.5s1.4,0,2.2-.1c1.8-.2,4.1-.6,6.8-1.2,1.4-.3,2.7-.5,4-.5,3.3,0,6.4,1,9.4,2.8,4.3,2.8,6.8,6.9,7.3,11.8l.5,5.9c.5,5.1-.8,9.8-3.6,14.1-2.9,4.4-7,7.2-12.1,8.3-5.4,1.3-12.1,2.2-19.9,2.9-3.1.3-6.1.4-8.9.4h0Z" fill="#e5006a"/>
          </g>
          <g>
            <path d="M58.1,276.7c-10.2,0-19.1-3.1-26.6-9.3-8.6-7.1-13.5-17-14.6-29.3-1.4-15.6,3.6-28.1,14.8-37,10.6-8.5,26.4-13.6,48.2-15.5l3-.3c-1.1-2.7-3.5-3.8-7.9-3.8s-1.5,0-2.3.1c-8.7.8-20.1,3.1-33.8,7-1.5.4-3,.6-4.6.6-3.2,0-6.2-.9-9-2.8-4.2-2.8-6.7-6.9-7.1-12l-.3-3.6c-.4-5.1.7-9.8,3.5-14.1,2.9-4.5,6.9-7.4,11.9-8.7,15-4.1,27.8-6.6,38.1-7.5,4.4-.4,8.6-.6,12.5-.6,15.1,0,27.1,2.9,35.5,8.7,11,7.5,17.4,20.1,18.9,37.6l5.4,62.1c.4,5-1.1,9.7-4.4,13.6s-7.7,6.2-12.6,6.7l-14.3,1.3h-1.8c-4.4,0-8.4-1.4-11.9-4.3-1.5-1.2-2.8-2.6-3.8-4.1-8.8,8.8-19.6,13.9-32.2,15-1.6.1-3.1.2-4.6.2h0ZM83.1,220.9c-8.1.7-12,2.5-13.9,3.8-2,1.4-2.7,3.1-2.5,5.6.3,3,1,4.1,4.7,4.1h1.4c4.4-.4,7.8-2,10.4-4.9,2.1-2.4,3.1-5.3,3.2-8.9l-3.3.3h0Z" fill="#e5006a"/>
            <path d="M173.2,264.5c-4.4,0-8.4-1.5-11.9-4.5-3.9-3.3-6.2-7.7-6.7-12.6l-12.7-144.7c-.4-5,1.1-9.7,4.4-13.6,3.3-3.9,7.7-6.2,12.6-6.7l17.3-1.5h1.7c4.4,0,8.4,1.5,11.9,4.5,3.9,3.3,6.2,7.7,6.7,12.6l3.5,39.7c8.4-6.3,17.6-9.9,27.7-10.8,1.7-.2,3.4-.2,5-.2,13.5,0,25,5,34.2,14.9,10,10.7,15.9,26.9,17.8,47.9,1.8,20.6-1.5,37.5-9.8,50-8.6,13-20.5,20.2-35.5,21.5-1.7.1-3.4.2-5.1.2-10.8,0-20.6-3.1-29.3-9.3-.8,1.6-1.8,3.2-3,4.7-3.4,3.9-7.7,6.1-12.8,6.5l-14.3,1.2h-1.7v.2ZM217.1,171.4h-1.5c-3.7.3-6.8,1.8-9.4,4.6-3.2,3.5-3.4,6.2-3.3,7.9l2.2,25c.1,1.8.8,4.4,4.6,7.3,2.6,2,5.5,3,8.6,3s.9,0,1.4,0c4-.4,6.9-2.2,9-5.8,2.4-4.2,3.3-10.6,2.5-19.3-2-22.8-10.9-22.8-14.2-22.8h0Z" fill="#e5006a"/>
            <path d="M347.9,251.2c-16.9,0-31.1-4.7-42.1-14-12.9-10.9-20.3-26.9-22.1-47.6-1.8-20.7,2.7-37.8,13.5-50.7,10.8-12.9,26.8-20.4,47.7-22.2,3-.3,5.9-.4,8.8-.4,16.9,0,31.1,4.7,42.1,14,12.9,10.9,20.3,26.9,22.1,47.6,1.8,20.7-2.7,37.8-13.5,50.7s-26.8,20.4-47.7,22.3c-3,.3-6,.4-8.8.4h0ZM350,157.5h-1.5c-5.6.5-7.6,3-8.6,5.2-1.4,2.8-2.8,8.9-1.6,22.1s3.6,18.9,5.4,21.4c1.9,2.6,4.3,3.7,7.9,3.7h1.5c5.6-.5,7.6-3,8.6-5.2,1.4-2.8,2.8-8.9,1.6-22.1-1.1-13.2-3.6-18.9-5.4-21.4-1.9-2.6-4.3-3.7-7.9-3.7h0Z" fill="#e5006a"/>
            <path d="M464.2,241.1c-12.2,0-21.7-3.6-28.3-10.7-7.5-7.9-11.9-21.5-13.7-41.5l-5-57.5c-.4-5,1.1-9.7,4.4-13.6s7.7-6.2,12.6-6.7l16.1-1.4h1.7c4.4,0,8.4,1.5,11.9,4.5,3.9,3.3,6.2,7.7,6.7,12.6l4.8,55.3c.7,8,2.2,10.3,2.7,10.8.7.8,2,1.2,3.9,1.2s.9,0,1.4,0c2.8-.2,5.2-1.6,7.5-4.1,2.2-2.4,3.2-4.8,3-7.1l-5-57.5c-.4-5,1.1-9.7,4.4-13.6s7.7-6.2,12.6-6.7l17.3-1.5h1.7c4.4,0,8.4,1.5,11.9,4.5,3.9,3.3,6.2,7.7,6.7,12.6l8.1,92.3c.4,5-1.1,9.7-4.4,13.6-3.3,3.9-7.7,6.2-12.6,6.7l-15.5,1.4h-1.8c-4.4,0-8.5-1.4-11.9-4.3-1.5-1.2-2.7-2.6-3.8-4-8.5,8.8-18.9,13.7-31.2,14.8-2.1.2-4.1.3-6.1.3h0v-.4Z" fill="#e5006a"/>
            <path d="M620.7,227.3c-13.3,0-23.6-3.1-30.6-9.3-8.5-7.5-13.5-20.6-15.2-40.2l-2.9-33-5.2.5h-1.7c-4.4,0-8.4-1.5-11.9-4.5-3.9-3.3-6.2-7.7-6.7-12.6l-.3-3.6c-.4-5,1.1-9.7,4.4-13.6,3.3-3.9,7.7-6.2,12.6-6.7l5.2-.5-2.2-24.6c-.4-5,1.1-9.7,4.4-13.6,3.3-3.9,7.7-6.2,12.6-6.7l17.3-1.5h1.7c4.4,0,8.4,1.5,11.9,4.5,3.9,3.3,6.2,7.7,6.7,12.6l2.2,24.6,16.6-1.4h1.7c4.4,0,8.4,1.5,11.9,4.5,3.9,3.3,6.2,7.7,6.7,12.6l.3,3.6c.4,5-1.1,9.7-4.4,13.6-3.3,3.9-7.7,6.2-12.6,6.7l-16.6,1.4,2.5,28.4c.9,10.5,2.2,13.2,2.5,13.8.2.1,1.1.5,3.4.5s1.4,0,2.2-.1c1.8-.2,4.1-.6,6.8-1.2,1.4-.3,2.7-.5,4-.5,3.3,0,6.4,1,9.4,2.8,4.3,2.8,6.8,6.9,7.3,11.8l.5,5.9c.5,5.1-.8,9.8-3.6,14.1-2.9,4.4-7,7.2-12.1,8.3-5.4,1.3-12.1,2.2-19.9,2.9-3.1.3-6.1.4-8.9.4h0Z" fill="#e5006a"/>
          </g>
        </g>
      </g>
      <g>
        <g>
          <g>
            <path d="M318.8,454.3c-.8,0-1.6,0-2.4-.1l-20.9-1.8c-7.4-.6-13.8-4.1-18.5-9.9-4.6-5.7-6.7-12.5-6.1-19.7l8.9-101.3-15.6-1.4c-7.3-.6-13.7-4-18.4-9.7-4.8-5.7-7-12.6-6.4-19.9l1-11.6c.6-7.3,4-13.6,9.7-18.4,5-4.2,11.1-6.5,17.4-6.5s1.6,0,2.4.1l106,9.3c7.3.6,13.6,4,18.4,9.7s7,12.6,6.4,19.9l-1,11.6c-.6,7.3-4,13.6-9.7,18.5-5,4.2-11.1,6.5-17.4,6.5s-1.6,0-2.4-.1l-15.6-1.4-8.9,101.3c-.6,7.2-3.9,13.5-9.4,18.3-5,4.3-11,6.6-17.5,6.6h0Z" fill="#e5006a"/>
            <path d="M404.5,461.8c-.8,0-1.6,0-2.4-.1l-18.4-1.6c-7.3-.6-13.7-4-18.5-9.7s-7-12.6-6.4-19.8l8.1-92.3c.6-7.3,4-13.7,9.7-18.5,5-4.2,11.1-6.5,17.4-6.5s1.6,0,2.4.1l17.3,1.5c7.3.6,13.6,4,18.4,9.7.8.9,1.4,1.8,2.1,2.8,9-4.5,19-7,29.9-7.5h1.1c7.5,0,14.3,3.2,19.2,9.1,4.8,5.7,7,12.7,6.3,20.1l-.5,5.9c-.6,7.2-3.8,13.5-9.3,18.2-5.1,4.4-11.4,6.9-18.3,7.1-8.5.4-15.2,2.7-20.3,7.1-4.8,4.2-7.3,9.2-7.9,15.8l-3,33.7c-.6,7.3-4,13.7-9.7,18.5-5,4.2-11.1,6.5-17.4,6.5h.2Z" fill="#e5006a"/>
            <path d="M577.4,476.9c-.8,0-1.6,0-2.4-.1l-14.3-1.2c-6.8-.6-12.9-3.5-17.5-8.3-8.3,4.3-17.3,6.5-27,6.5s-3.8,0-5.7-.2c-14.4-1.3-26.2-7.1-34.9-17.4-8.8-10.3-12.5-23-11.3-37.6,1.4-16.2,8.5-29.2,20.5-37.6,1-.7,2-1.3,3-2-1.2-.8-2.5-1.8-3.6-2.9-5.5-5.2-8.2-12.4-7.6-20l.3-3.6c.6-6.9,3.4-13.3,8.2-18.4,5-5.4,11.5-8.6,18.7-9.2,9.8-.9,18.7-1.4,26.5-1.4s9.7.2,13.9.6c23.6,2.1,40.3,8.2,51.2,18.7,11.5,11.2,16.4,27,14.7,47.2l-5.4,62.1c-.6,7.3-4,13.6-9.7,18.5-5,4.2-11.1,6.5-17.4,6.5h0l-.2-.2ZM528.1,416.5h0Z" fill="#e5006a"/>
            <path d="M714.9,489c-.8,0-1.6,0-2.4-.1l-16.2-1.4c-7.3-.6-13.7-4-18.5-9.7s-7-12.6-6.3-19.8l4.8-55.3c0-1.6.2-2.8.2-3.8-.5.2-1,.6-1.4.9-.5.4-.8.7-.9.9l-5,57.1c-.6,7.3-4,13.7-9.7,18.5-5,4.2-11.1,6.5-17.4,6.5s-1.6,0-2.4-.1l-17.3-1.5c-7.3-.6-13.7-4-18.5-9.7s-7-12.6-6.3-19.8l8.1-92.3c.6-7.3,4-13.7,9.7-18.5,5-4.2,11.1-6.5,17.4-6.5s1.6,0,2.4.1l15.5,1.4c6.8.6,12.7,3.4,17.4,8.2,8.1-4.3,16.9-6.4,26.3-6.4s3.6,0,5.4.2c18.4,1.6,31.7,8.7,39.5,21,7.1,11.2,9.6,27.6,7.6,50.1l-4.8,55.3c-.6,7.3-4,13.7-9.7,18.5-5,4.2-11.1,6.5-17.4,6.5h0v-.3Z" fill="#e5006a"/>
            <path d="M804.5,498.8c-3.5,0-7.2-.2-11-.5-13.3-1.2-26.7-3.7-39.9-7.4h-.2c-6.8-2-12.5-6.3-16.4-12.4-3.8-5.9-5.4-12.7-4.8-19.7l.5-5.9c.7-7.8,4.8-14.3,11.6-18.3,2-1.2,4.2-2.1,6.4-2.6-.3-.4-.7-.7-1-1.1-9.7-10.2-14.1-23.7-12.8-38.9,1.4-16.1,9.2-28.8,22.6-36.7,9.6-5.7,22.1-8.5,37.1-8.5s8.1.2,12.4.6c12.5,1.1,24.1,2.9,34.7,5.5h0c7.1,1.8,13,5.9,17.1,11.8,3.9,5.8,5.7,12.6,5.1,19.6l-.4,4.8c-.7,7.6-4.6,14.1-11.2,18.3-1.8,1.2-3.8,2.1-5.7,2.8.8.8,1.7,1.6,2.4,2.4,9.6,10.1,13.8,23.6,12.3,39.9-1.4,16.4-9.1,29.4-22,37.5-9.6,6-22,9.1-36.8,9.1h0v-.3Z" fill="#e5006a"/>
          </g>
          <g>
            <path d="M318.8,445.8h-1.7l-20.9-1.8c-5-.4-9.4-2.8-12.6-6.7-3.2-4-4.6-8.5-4.2-13.5l9.6-109.9-24.1-2.1c-5-.4-9.3-2.8-12.6-6.7-3.3-3.9-4.8-8.6-4.4-13.6l1-11.6c.4-5,2.7-9.3,6.7-12.6,3.5-3,7.5-4.5,11.9-4.5s1.1,0,1.7,0l106,9.3c5,.4,9.3,2.7,12.6,6.7,3.3,3.9,4.8,8.6,4.4,13.6l-1,11.6c-.4,5-2.8,9.3-6.7,12.6-3.5,3-7.5,4.5-11.9,4.5s-1.1,0-1.7,0l-24.1-2.1-9.6,109.9c-.4,5-2.6,9.2-6.5,12.6-3.5,3-7.5,4.5-11.9,4.5h0v-.2Z" fill="#fff"/>
            <path d="M404.5,453.3h-1.7l-18.4-1.6c-5-.4-9.3-2.8-12.6-6.7-3.3-3.9-4.8-8.6-4.4-13.6l8.1-92.3c.4-5,2.7-9.3,6.7-12.6,3.5-3,7.5-4.5,11.9-4.5s1.1,0,1.7,0l17.3,1.5c5,.4,9.3,2.7,12.6,6.7,2.5,2.9,3.9,6.3,4.3,9.9,9.8-7.1,21.4-11,34.6-11.5h.8c5,0,9.3,2.1,12.7,6,3.3,3.9,4.8,8.7,4.4,13.8l-.5,5.9c-.4,5-2.6,9.2-6.4,12.5-3.6,3.1-8,4.9-13,5-10.5.4-18.9,3.5-25.6,9.2-6.5,5.6-10,12.7-10.8,21.5l-3,33.7c-.4,5-2.7,9.3-6.7,12.6-3.5,3-7.5,4.5-11.9,4.5h-.1Z" fill="#fff"/>
            <path d="M577.4,468.4h-1.7l-14.3-1.2c-5.2-.5-9.5-2.6-12.8-6.5-1.3-1.5-2.3-3.1-3.1-4.8-8.8,6.2-18.7,9.4-29.4,9.4s-3.3,0-5-.2c-12.1-1.1-21.9-5.9-29.1-14.4s-10.4-19.1-9.3-31.4c3-34.2,32.8-41.4,57.2-41.4s9.1.2,14,.6l3,.3c-.6-2.6-2.8-4.8-9.4-5.4-3-.3-6.4-.4-10.1-.4-6.9,0-15.2.5-24.4,1.4h-1.8c-4.2,0-8-1.6-11.2-4.5-3.7-3.5-5.4-8-4.9-13l.3-3.6c.4-5.1,2.4-9.5,5.9-13.3,3.6-3.9,8-6.1,13.2-6.5,9.5-.9,18.1-1.3,25.7-1.3s9.2.2,13.1.5c21.6,1.9,36.6,7.2,46,16.3,9.6,9.3,13.6,22.9,12.1,40.3l-5.4,62.1c-.4,5-2.7,9.3-6.7,12.6-3.5,3-7.5,4.5-11.9,4.5h0ZM535.9,413.5c-12.2,0-12.6,4.7-12.8,6.7-.2,2.4-.4,4.5,5.3,5h1.8c3.6,0,6.7-1,9.3-3.1,2.5-2,4-4.7,4.7-8.2l-3.3-.3c-1.8-.1-3.4-.2-4.9-.2h0Z" fill="#fff"/>
            <path d="M714.9,480.4h-1.7l-16.2-1.4c-5-.4-9.3-2.8-12.6-6.7s-4.8-8.6-4.4-13.6l4.8-55.3c.7-7.9-.5-10.5-.8-11-.7-1.1-2.9-1.9-6-2.2h-.9c-2.5,0-4.8.9-7.2,2.8-2.6,2-3.9,4.1-4.1,6.5l-5,57.5c-.4,5-2.7,9.3-6.7,12.6-3.5,3-7.5,4.5-11.9,4.5s-1.1,0-1.7,0l-17.3-1.5c-5-.4-9.3-2.8-12.6-6.7s-4.8-8.6-4.4-13.6l8.1-92.3c.4-5,2.7-9.3,6.7-12.6,3.5-3,7.5-4.5,11.9-4.5s1.1,0,1.7,0l15.5,1.4c5.2.5,9.5,2.6,12.8,6.5,1.2,1.5,2.2,3,3,4.6,8.6-6.2,18.2-9.4,28.6-9.4s3.1,0,4.7.2c15.6,1.4,26.7,7.1,33,17.1,6,9.6,8.1,24.2,6.3,44.8l-4.8,55.3c-.4,5-2.7,9.3-6.7,12.6-3.5,3-7.5,4.5-11.9,4.5h-.2Z" fill="#fff"/>
            <path d="M804.5,490.2c-3.3,0-6.7-.2-10.3-.5-12.7-1.1-25.6-3.5-38.3-7.1-5-1.5-8.9-4.5-11.7-8.9-2.8-4.3-4-9.1-3.5-14.4l.5-5.9c.4-5,3-9.1,7.3-11.6,2.5-1.5,5.2-2.2,8-2.2s3.5.3,5.3.9c10.6,3.5,20.8,5.8,30.3,6.6.9,0,1.8.1,2.6.1,3.3,0,4.2-.7,4.3-.8v-.9c-.5-.3-1.9-.9-5.2-1.7-17.9-4.5-30.3-10.7-38.1-18.9-8.1-8.5-11.6-19.4-10.5-32.2,1.2-13.4,7.4-23.5,18.4-30.1,8.2-4.9,19.2-7.4,32.8-7.4s7.6.2,11.6.5c12,1,23.3,2.8,33.4,5.3,5.2,1.3,9.2,4.1,12.1,8.4,2.8,4.2,4.1,8.9,3.6,14l-.4,4.8c-.4,5-3,9-7.3,11.8-2.8,1.8-5.9,2.7-9,2.7s-3.1-.2-4.6-.6c-8.7-2.5-17.8-4.2-27.1-5-1.5-.1-2.8-.2-4-.2-2.5,0-3.6.3-3.8.4v.2c0,1.4,2.6,2.3,5,2.8h0c18.4,4.1,31,10,38.6,18,7.9,8.3,11.2,19.5,10,33.2-1.2,13.8-7.3,24.2-18,31-8.2,5.1-19.1,7.8-32.3,7.8h.2Z" fill="#fff"/>
          </g>
          <g>
            <path d="M315.9,440.1h-.9l-20.9-1.8c-2.7-.2-4.9-1.4-6.7-3.6-1.8-2.2-2.6-4.6-2.3-7.4l9.9-113.5c.2-1.8-.5-3-1-3.7s-1.6-1.5-3.4-1.6l-27.8-2.4c-2.7-.2-5-1.4-6.8-3.6-1.9-2.2-2.6-4.6-2.4-7.4l1-11.6c.2-2.7,1.4-5,3.7-6.8,2-1.6,4.1-2.5,6.4-2.5s.6,0,.9,0l106,9.3c2.7.2,5,1.4,6.8,3.7,1.9,2.2,2.6,4.6,2.4,7.4l-1,11.6c-.2,2.7-1.4,5-3.7,6.8-2,1.6-4.1,2.5-6.4,2.5s-.6,0-.9,0l-27.8-2.4h-.6c-2.6,0-4.5,1.8-4.8,4.5l-9.9,113.5c-.2,2.8-1.4,5-3.6,6.9-1.9,1.6-4,2.4-6.3,2.4h0v-.3Z" fill="#f9d2d4"/>
            <path d="M401.7,447.6h-.9l-18.4-1.6c-2.7-.2-5-1.4-6.8-3.6-1.9-2.2-2.6-4.6-2.4-7.4l8.1-92.3c.2-2.7,1.4-5,3.6-6.8,2-1.6,4.1-2.5,6.4-2.5s.6,0,.9,0l17.3,1.5c2.7.2,5,1.4,6.8,3.7,1.9,2.2,2.6,4.6,2.4,7.4l-.8,9.5c0,.8.2,1.6.7,2.3.5.6,1.3,1,2.1,1.1h.3c.6,0,1.4-.1,2.3-.9.1,0,.2-.2.3-.3,10.1-11.1,23.1-17.1,38.6-17.7h.4c2.5,0,4.4.9,6.1,3,1.9,2.2,2.6,4.7,2.4,7.6l-.5,5.9c-.2,2.7-1.4,5-3.5,6.8-2.2,1.9-4.7,2.8-7.7,2.9-12.4.5-22.8,4.3-30.9,11.3-8.1,7.1-12.8,16.2-13.7,27.3l-3,33.7c-.2,2.7-1.4,5-3.6,6.8-2,1.6-4.1,2.5-6.4,2.5h0v-.2Z" fill="#f9d2d4"/>
            <path d="M574.5,462.7h-.9l-14.3-1.2c-2.9-.2-5.2-1.4-7.1-3.6-1.9-2.2-2.7-4.6-2.6-7.5l.2-1.8c0-.8-.2-1.6-.7-2.3s-1.3-1-2.1-1.1h-.3c-.6,0-1.4.1-2.3.9,0,0,0,.1-.2.1-9.1,9-19.2,13.3-31,13.3s-2.8,0-4.2-.2c-9.9-.9-17.6-4.6-23.3-11.4-5.8-6.8-8.1-15-7.3-25.1,2-22.6,17.9-33.6,48.7-33.6s8.6.2,13.2.6l7,.6h.6c2.7,0,4.5-1.8,4.8-4.5v-.2c1.3-14.3-10.3-17.5-17.3-18.1-3.3-.3-6.9-.4-10.9-.4-7.2,0-15.7.5-25.3,1.4h-.9c-2,0-3.7-.7-5.3-2.2-1.8-1.7-2.5-3.6-2.3-6.1l.3-3.6c.3-3.2,1.5-5.9,3.7-8.2,2.1-2.3,4.6-3.5,7.6-3.8,9.3-.9,17.8-1.3,25-1.3s8.7.2,12.4.5c19.2,1.7,33,6.4,40.8,13.9,7.6,7.4,10.8,18.6,9.5,33.5l-5.4,62.1c-.2,2.7-1.4,5-3.7,6.8-2,1.6-4.1,2.5-6.4,2.5h0ZM533,407.8c-16.6,0-20.8,7.9-21.3,14.5-.7,8.4,3.9,13.5,13.1,14.3.9,0,1.7.1,2.6.1,5.6,0,10.5-1.7,14.6-5,4.8-3.9,7.5-9.4,8.2-16.4v-1.4c.3-1.8-.3-3-.9-3.7s-1.6-1.5-3.4-1.6l-7-.6c-2-.2-3.9-.3-5.7-.3h-.2Z" fill="#f9d2d4"/>
            <path d="M712,474.7h-.9l-16.2-1.4c-2.7-.2-5-1.4-6.8-3.6-1.9-2.2-2.7-4.6-2.4-7.4l4.8-55.3c.7-7.7,0-13-2.1-16.4-2.2-3.5-6.5-5.6-12.5-6.1h-1.6c-4.4,0-8.6,1.6-12.5,4.6-4.5,3.5-7,7.7-7.4,12.5l-5,57.5c-.2,2.7-1.4,5-3.7,6.8-2,1.6-4.1,2.5-6.4,2.5s-.6,0-.9,0l-17.3-1.5c-2.7-.2-5-1.4-6.8-3.6-1.9-2.2-2.7-4.6-2.4-7.4l8.1-92.3c.2-2.7,1.4-5,3.7-6.8,2-1.6,4.1-2.5,6.4-2.5s.6,0,.9,0l15.5,1.4c2.9.2,5.2,1.4,7.1,3.6,1.9,2.2,2.7,4.6,2.6,7.5l-.2,1.8c0,1.7,1.1,3.2,2.8,3.3h.4c1.2,0,2.1-.5,2.6-1.3,8.8-8.8,18.5-13.1,29.8-13.1s2.6,0,4,.2c12.8,1.1,21.7,5.5,26.5,13.1,4.9,7.8,6.6,21.1,5,39.5l-4.8,55.3c-.2,2.7-1.4,5-3.7,6.8-2,1.6-4.1,2.5-6.4,2.5h0l-.2-.2Z" fill="#f9d2d4"/>
            <path d="M801.7,484.5c-3,0-6.2-.1-9.6-.4-12.2-1.1-24.5-3.4-36.7-6.8-2.9-.9-5.2-2.6-6.9-5.3-1.8-2.7-2.5-5.6-2.2-9l.5-5.9c.2-2.2,1.2-3.8,3.1-5,1.2-.7,2.4-1.1,3.7-1.1s1.6.1,2.5.5c11.3,3.8,22.2,6.1,32.4,7,1.2.1,2.3.1,3.3.1,10.6,0,12.6-5.6,12.9-8.9.3-4-1.2-6.3-2.5-7.5-1.7-1.6-4.6-2.8-9.2-3.9-16-4-27.3-9.6-33.9-16.5-6.4-6.8-9.1-15.1-8.1-25.6.9-10.6,5.6-18.3,14.3-23.5,6.9-4.1,16.4-6.1,28.4-6.1s7.1.2,10.9.5c11.6,1,22.4,2.7,32.1,5.1,3,.8,5.3,2.4,7.1,4.9,1.7,2.5,2.4,5.3,2.2,8.5l-.4,4.8c-.2,2.3-1.3,4-3.4,5.4-1.5.9-2.9,1.4-4.4,1.4s-1.5-.1-2.2-.3c-9.2-2.7-18.9-4.5-28.7-5.3-1.7-.1-3.3-.2-4.7-.2-3.1,0-5.5.4-7.3,1.1-3,1.3-4.8,3.9-5.1,7.3-.4,4.3,1.4,9.8,11.8,11.9,16.4,3.6,27.9,8.8,34.2,15.5,6.2,6.5,8.7,15.2,7.7,26.6-1,11.1-5.6,19.1-14.1,24.4-6.8,4.3-16.2,6.5-27.8,6.5h0v-.2Z" fill="#f9d2d4"/>
          </g>
          <g>
            <path d="M321.6,434.3h-.9l-20.9-1.8c-2.7-.2-4.9-1.4-6.7-3.6-1.8-2.2-2.6-4.6-2.3-7.4l9.9-113.5c.2-1.8-.5-3-1-3.7s-1.6-1.5-3.4-1.6l-27.8-2.4c-2.7-.2-5-1.4-6.8-3.6-1.9-2.2-2.6-4.6-2.4-7.4l1-11.6c.2-2.7,1.4-5,3.7-6.8,2-1.6,4.1-2.5,6.4-2.5s.6,0,.9,0l106,9.3c2.7.2,5,1.4,6.8,3.7,1.9,2.2,2.6,4.6,2.4,7.4l-1,11.6c-.2,2.7-1.4,5-3.7,6.8-2,1.6-4.1,2.5-6.4,2.5s-.6,0-.9,0l-27.8-2.4h-.6c-2.6,0-4.5,1.8-4.8,4.5l-9.9,113.5c-.2,2.8-1.4,5-3.6,6.9-1.9,1.6-4,2.4-6.3,2.4h0v-.3Z" fill="#fff"/>
            <path d="M407.4,441.8h-.9l-18.4-1.6c-2.7-.2-5-1.4-6.8-3.6-1.9-2.2-2.6-4.6-2.4-7.4l8.1-92.3c.2-2.7,1.4-5,3.6-6.8,2-1.6,4.1-2.5,6.4-2.5s.6,0,.9,0l17.3,1.5c2.7.2,5,1.4,6.8,3.7,1.9,2.2,2.6,4.6,2.4,7.4l-.8,9.5c0,.8.2,1.6.7,2.3.5.6,1.3,1,2.1,1.1h.3c.6,0,1.4-.1,2.3-.9.1,0,.2-.2.3-.3,10.1-11.1,23.1-17.1,38.6-17.7h.4c2.5,0,4.4.9,6.1,3,1.9,2.2,2.6,4.7,2.4,7.6l-.5,5.9c-.2,2.7-1.4,5-3.5,6.8-2.2,1.9-4.7,2.8-7.7,2.9-12.4.5-22.8,4.3-30.9,11.3-8.1,7.1-12.8,16.2-13.7,27.3l-3,33.7c-.2,2.7-1.4,5-3.6,6.8-2,1.6-4.1,2.5-6.4,2.5h0v-.2Z" fill="#fff"/>
            <path d="M580.2,457h-.9l-14.3-1.2c-2.9-.2-5.2-1.4-7.1-3.6-1.9-2.2-2.7-4.6-2.6-7.5l.2-1.8c0-.8-.2-1.6-.7-2.3s-1.3-1-2.1-1.1h-.3c-.6,0-1.4.1-2.3.9,0,0,0,.1-.2.1-9.1,9-19.2,13.3-31,13.3s-2.8,0-4.2-.2c-9.9-.9-17.6-4.6-23.3-11.4-5.8-6.8-8.1-15-7.3-25.1,2-22.6,17.9-33.6,48.7-33.6s8.6.2,13.2.6l7,.6h.6c2.7,0,4.5-1.8,4.8-4.5v-.2c1.3-14.3-10.3-17.5-17.3-18.1-3.3-.3-6.9-.4-10.9-.4-7.2,0-15.7.5-25.3,1.4h-.9c-2,0-3.7-.7-5.3-2.2-1.8-1.7-2.5-3.6-2.3-6.1l.3-3.6c.3-3.2,1.5-5.9,3.7-8.2,2.1-2.3,4.6-3.5,7.6-3.8,9.3-.9,17.8-1.3,25-1.3s8.7.2,12.4.5c19.2,1.7,33,6.4,40.8,13.9,7.6,7.4,10.8,18.6,9.5,33.5l-5.4,62.1c-.2,2.7-1.4,5-3.7,6.8-2,1.6-4.1,2.5-6.4,2.5h0ZM538.7,402c-16.6,0-20.8,7.9-21.3,14.5-.7,8.4,3.9,13.5,13.1,14.3.9,0,1.7.1,2.6.1,5.6,0,10.5-1.7,14.6-5,4.8-3.9,7.5-9.4,8.2-16.4v-1.4c.3-1.8-.3-3-.9-3.7s-1.6-1.5-3.4-1.6l-7-.6c-2-.2-3.9-.3-5.7-.3h-.2Z" fill="#fff"/>
            <path d="M717.7,469h-.9l-16.2-1.4c-2.7-.2-5-1.4-6.8-3.6-1.9-2.2-2.7-4.6-2.4-7.4l4.8-55.3c.7-7.7,0-13-2.1-16.4-2.2-3.5-6.5-5.6-12.5-6.1h-1.6c-4.4,0-8.6,1.6-12.5,4.6-4.5,3.5-7,7.7-7.4,12.5l-5,57.5c-.2,2.7-1.4,5-3.7,6.8-2,1.6-4.1,2.5-6.4,2.5s-.6,0-.9,0l-17.3-1.5c-2.7-.2-5-1.4-6.8-3.6-1.9-2.2-2.7-4.6-2.4-7.4l8.1-92.3c.2-2.7,1.4-5,3.7-6.8,2-1.6,4.1-2.5,6.4-2.5s.6,0,.9,0l15.5,1.4c2.9.2,5.2,1.4,7.1,3.6,1.9,2.2,2.7,4.6,2.6,7.5l-.2,1.8c0,1.7,1.1,3.2,2.8,3.3h.4c1.2,0,2.1-.5,2.6-1.3,8.8-8.8,18.5-13.1,29.8-13.1s2.6,0,4,.2c12.8,1.1,21.7,5.5,26.5,13.1,4.9,7.8,6.6,21.1,5,39.5l-4.8,55.3c-.2,2.7-1.4,5-3.7,6.8-2,1.6-4.1,2.5-6.4,2.5h0l-.2-.2Z" fill="#fff"/>
            <path d="M807.4,478.8c-3,0-6.2-.1-9.6-.4-12.2-1.1-24.5-3.4-36.7-6.8-2.9-.9-5.2-2.6-6.9-5.3-1.8-2.7-2.5-5.6-2.2-9l.5-5.9c.2-2.2,1.2-3.8,3.1-5,1.2-.7,2.4-1.1,3.7-1.1s1.6.1,2.5.5c11.3,3.8,22.2,6.1,32.4,7,1.2.1,2.3.1,3.3.1,10.6,0,12.6-5.6,12.9-8.9.3-4-1.2-6.3-2.5-7.5-1.7-1.6-4.6-2.8-9.2-3.9-16-4-27.3-9.6-33.9-16.5-6.4-6.8-9.1-15.1-8.1-25.6.9-10.6,5.6-18.3,14.3-23.5,6.9-4.1,16.4-6.1,28.4-6.1s7.1.2,10.9.5c11.6,1,22.4,2.7,32.1,5.1,3,.8,5.3,2.4,7.1,4.9,1.7,2.5,2.4,5.3,2.2,8.5l-.4,4.8c-.2,2.3-1.3,4-3.4,5.4-1.5.9-2.9,1.4-4.4,1.4s-1.5-.1-2.2-.3c-9.2-2.7-18.9-4.5-28.7-5.3-1.7-.1-3.3-.2-4.7-.2-3.1,0-5.5.4-7.3,1.1-3,1.3-4.8,3.9-5.1,7.3-.4,4.3,1.4,9.8,11.8,11.9,16.4,3.6,27.9,8.8,34.2,15.5,6.2,6.5,8.7,15.2,7.7,26.6-1,11.1-5.6,19.1-14.1,24.4-6.8,4.3-16.2,6.5-27.8,6.5h0v-.2Z" fill="#fff"/>
          </g>
        </g>
        <g>
          <g>
            <path d="M52.4,279.6c-12.2,0-23-3.8-32.1-11.3-10.4-8.6-16.4-20.4-17.6-35.1-1.5-17.6,4.1-32.4,16.3-43-1.4-.6-2.7-1.3-4-2.2-6.4-4.2-10.2-10.7-10.9-18.4l-.3-3.6c-.6-6.9,1.1-13.7,4.9-19.5,4-6.2,9.8-10.5,16.8-12.3,15.7-4.3,28.7-6.8,39.6-7.8,4.6-.4,9.1-.6,13.3-.6,17.1,0,30.3,3.3,40.4,10.1,13.3,9,20.9,23.8,22.6,44l5.4,62.1c.6,7.3-1.6,14.1-6.4,19.9-4.8,5.7-11.2,9.1-18.4,9.7l-14.3,1.2c-.9,0-1.7.1-2.6.1-5.8,0-11.4-1.8-16.1-5.3-8.9,6.8-19.3,10.8-31.2,11.8-1.8.2-3.6.2-5.3.2h-.1Z" fill="#e5006a"/>
            <path d="M167.5,267.3c-6.4,0-12.4-2.2-17.4-6.5-5.7-4.8-9.1-11.2-9.7-18.4l-12.7-144.7c-.6-7.3,1.6-14.1,6.4-19.8s11.2-9.1,18.4-9.7l17.3-1.5c.8,0,1.6,0,2.4,0,6.4,0,12.4,2.2,17.4,6.5,5.7,4.8,9.1,11.2,9.7,18.5l2.3,26.2c6.2-2.8,12.7-4.4,19.6-5.1,1.9-.2,3.9-.3,5.8-.3,16,0,29.6,5.9,40.5,17.7,11.3,12.2,18,30,20,53,2,22.6-1.8,41.3-11.2,55.5-10,15.1-24.5,23.8-41.9,25.3-2,.2-3.9.3-5.9.3-9.7,0-18.7-2.1-26.9-6.4-4.6,4.8-10.6,7.6-17.4,8.2l-14.3,1.2c-.8,0-1.6.1-2.4.1h0ZM207.9,202.6s.2.4,1.2,1.2c1.2.9,2.2,1.2,3.5,1.2h.7c1.1-.1,1.6-.2,2.4-1.6.7-1.2,2.2-4.9,1.4-14.2-.8-9.1-2.8-12.8-3.6-13.9-.6-.8-.8-1-2.1-1s-.5,0-.8,0c-1.6.1-2.7.7-3.9,1.9s-1,1.4-1,1.4l2.2,25h0Z" fill="#e5006a"/>
            <path d="M342.2,254.1c-19,0-35-5.4-47.6-16.1-14.6-12.4-23.1-30.3-25.1-53.4-2-23.1,3.2-42.2,15.5-56.9,12.3-14.8,30.3-23.3,53.6-25.3,3.2-.3,6.4-.4,9.5-.4,19,0,35,5.4,47.6,16,14.6,12.4,23.1,30.3,25.1,53.4s-3.2,42.2-15.5,56.9c-12.3,14.8-30.3,23.3-53.6,25.3-3.2.3-6.5.4-9.5.4h0ZM345,195.6h1.7c.9,0,1.4-.2,1.6-.3h0c.2-.5,1.9-4.5.8-17.6s-3.5-16.8-3.8-17.1h0c-.1-.1-.4-.1-.8-.1h-.8c-.9,0-1.4.2-1.6.3h0c-.2.5-1.9,4.5-.8,17.6,1.1,13.2,3.5,16.8,3.8,17.1h0c0,.1-.1.1-.1.1Z" fill="#e5006a"/>
            <path d="M458.5,244c-14.6,0-26.3-4.5-34.6-13.4-8.8-9.4-14-24.6-16-46.6l-5-57.5c-.6-7.3,1.6-14.1,6.4-19.8,4.8-5.7,11.2-9.1,18.4-9.7l16.1-1.4c.8,0,1.6,0,2.4,0,6.4,0,12.4,2.2,17.4,6.5,5.7,4.8,9.1,11.2,9.7,18.5l4.8,55.3c.1,1.2.2,2.2.4,3,0,0,.1-.1.2-.2.4-.5.6-.8.8-1l-5-57.2c-.6-7.3,1.6-14.1,6.4-19.8,4.8-5.7,11.2-9.1,18.4-9.7l17.3-1.5c.8,0,1.6,0,2.4,0,6.3,0,12.4,2.2,17.4,6.5,5.7,4.8,9.1,11.2,9.7,18.4l8.1,92.3c.6,7.3-1.6,14.1-6.3,19.9-4.8,5.7-11.2,9.1-18.5,9.7l-15.5,1.4c-.9,0-1.7.1-2.6.1-5.8,0-11.3-1.8-16-5.2-8.7,6.7-18.9,10.6-30.1,11.6-2.3.2-4.6.3-6.8.3h0v-.3Z" fill="#e5006a"/>
            <path d="M615,230.2c-15.5,0-27.7-3.8-36.3-11.4-10.2-9-16.2-24-18.1-45.9l-2.2-24.6c-6-.2-11.7-2.4-16.5-6.4-5.7-4.8-9.1-11.2-9.7-18.4l-.3-3.6c-.6-7.3,1.6-14.1,6.3-19.8,4.1-4.8,9.3-8,15.2-9.2l-1.4-16.2c-.6-7.3,1.6-14.1,6.4-19.9,4.8-5.7,11.2-9.1,18.4-9.7l17.3-1.5c.8,0,1.6,0,2.4,0,6.4,0,12.4,2.2,17.4,6.5,5.7,4.8,9.1,11.2,9.7,18.5l1.4,16,8.1-.7c.8,0,1.6,0,2.4,0,6.3,0,12.4,2.2,17.4,6.5,5.7,4.8,9.1,11.2,9.7,18.5l.3,3.6c.6,7.3-1.6,14.1-6.3,19.8-4.8,5.7-11.2,9.1-18.5,9.7l-8.1.7,1.7,19.9c.2,2.6.5,4.6.7,6.2,1-.2,2.2-.4,3.7-.8h0c2-.5,4-.7,5.9-.7,4.9,0,9.6,1.4,14,4.2,6.5,4.2,10.5,10.7,11.2,18.3l.5,5.9c.6,7-1.1,13.7-5,19.5-4.1,6.2-10.1,10.4-17.3,12-5.9,1.4-13,2.4-21.1,3.1-3.3.3-6.6.4-9.7.4h0l.4-.3Z" fill="#e5006a"/>
          </g>
          <g>
            <path d="M52.4,271c-10.2,0-19.1-3.1-26.6-9.3-8.6-7.1-13.5-17-14.6-29.3-1.4-15.6,3.6-28.1,14.8-37,10.6-8.5,26.4-13.6,48.2-15.5l3-.3c-1.1-2.7-3.5-3.8-7.9-3.8s-1.5,0-2.3.1c-8.7.8-20.1,3.1-33.8,7-1.5.4-3,.6-4.6.6-3.1,0-6.2-.9-9-2.8-4.2-2.8-6.7-6.9-7.1-12l-.3-3.6c-.4-5.1.7-9.8,3.5-14.1,2.9-4.5,6.9-7.4,11.9-8.7,15-4.1,27.8-6.6,38.1-7.5,4.4-.4,8.6-.6,12.5-.6,15.1,0,27.1,2.9,35.5,8.7,11,7.5,17.4,20.1,18.9,37.6l5.4,62.1c.4,5-1.1,9.7-4.4,13.6-3.3,3.9-7.7,6.2-12.6,6.7l-14.3,1.2h-1.8c-4.4,0-8.4-1.4-11.9-4.3-1.5-1.2-2.8-2.6-3.8-4.1-8.8,8.9-19.6,13.9-32.2,15-1.5.1-3.1.2-4.6.2h0ZM77.4,215.2c-8.1.7-12,2.5-13.9,3.8-2,1.4-2.7,3.1-2.5,5.6.3,3,1,4.1,4.7,4.1h1.4c4.4-.4,7.8-2,10.4-4.9,2.1-2.4,3.1-5.3,3.2-8.9l-3.3.3h0Z" fill="#fff"/>
            <path d="M167.5,258.8c-4.4,0-8.4-1.5-11.9-4.5-3.9-3.3-6.2-7.7-6.7-12.6l-12.7-144.7c-.4-5,1.1-9.7,4.4-13.6,3.3-3.9,7.7-6.2,12.6-6.7l17.3-1.5h1.7c4.4,0,8.4,1.5,11.9,4.5,3.9,3.3,6.2,7.7,6.7,12.6l3.5,39.7c8.4-6.3,17.6-9.9,27.7-10.8,1.7-.2,3.4-.2,5-.2,13.5,0,25,5,34.2,14.9,10,10.7,15.9,26.8,17.8,47.9,1.8,20.6-1.5,37.5-9.8,50-8.6,13-20.5,20.2-35.5,21.5-1.7.1-3.4.2-5.1.2-10.8,0-20.6-3.1-29.3-9.3-.8,1.6-1.8,3.2-3,4.7-3.4,3.9-7.7,6.1-12.8,6.5l-14.3,1.2h-1.7v.2ZM211.4,165.7h-1.5c-3.7.3-6.8,1.8-9.4,4.6-3.2,3.5-3.4,6.2-3.3,7.9l2.2,25c.1,1.8.8,4.4,4.6,7.3,2.6,2,5.5,3,8.6,3s.9,0,1.4,0c4-.4,6.9-2.2,9-5.8,2.4-4.2,3.3-10.6,2.5-19.3-2-22.8-10.9-22.8-14.2-22.8h0Z" fill="#fff"/>
            <path d="M342.2,245.5c-16.9,0-31.1-4.7-42.1-14-12.9-10.9-20.3-26.9-22.1-47.6-1.8-20.7,2.7-37.8,13.5-50.7,10.8-12.9,26.8-20.4,47.7-22.2,3-.3,5.9-.4,8.8-.4,16.9,0,31.1,4.7,42.1,14,12.9,10.9,20.3,26.9,22.1,47.6,1.8,20.7-2.7,37.8-13.5,50.7s-26.8,20.4-47.7,22.3c-3,.3-6,.4-8.8.4h0ZM344.3,151.8h-1.5c-5.6.5-7.6,3-8.6,5.2-1.4,2.8-2.8,8.9-1.6,22.1s3.6,18.9,5.4,21.4c1.9,2.6,4.3,3.7,7.9,3.7h1.5c5.6-.5,7.6-3,8.6-5.2,1.4-2.8,2.8-8.9,1.6-22.1-1.1-13.2-3.6-18.9-5.4-21.4-1.9-2.6-4.3-3.7-7.9-3.7h0Z" fill="#fff"/>
            <path d="M458.5,235.4c-12.2,0-21.7-3.6-28.3-10.7-7.5-7.9-11.9-21.5-13.7-41.5l-5-57.5c-.4-5,1.1-9.7,4.4-13.6s7.7-6.2,12.6-6.7l16.1-1.4h1.7c4.4,0,8.4,1.5,11.9,4.5,3.9,3.3,6.2,7.7,6.7,12.6l4.8,55.3c.7,8,2.2,10.3,2.7,10.8.7.8,2,1.2,3.9,1.2s.9,0,1.4,0c2.8-.2,5.2-1.6,7.5-4.1,2.2-2.4,3.2-4.8,3-7.1l-5-57.5c-.4-5,1.1-9.7,4.4-13.6s7.7-6.2,12.6-6.7l17.3-1.5h1.7c4.4,0,8.4,1.5,11.9,4.5,3.9,3.3,6.2,7.7,6.7,12.6l8.1,92.3c.4,5-1.1,9.7-4.4,13.6-3.3,3.9-7.7,6.2-12.6,6.7l-15.5,1.4h-1.8c-4.4,0-8.5-1.4-11.9-4.3-1.5-1.2-2.7-2.6-3.8-4-8.5,8.8-18.9,13.7-31.2,14.8-2.1.2-4.1.3-6.1.3h0v-.4Z" fill="#fff"/>
            <path d="M615,221.6c-13.3,0-23.6-3.1-30.6-9.3-8.5-7.5-13.5-20.6-15.2-40.2l-2.9-33-5.2.5h-1.7c-4.4,0-8.4-1.5-11.9-4.5-3.9-3.3-6.2-7.7-6.7-12.6l-.3-3.6c-.4-5,1.1-9.7,4.4-13.6,3.3-3.9,7.7-6.2,12.6-6.7l5.2-.5-2.2-24.6c-.4-5,1.1-9.7,4.4-13.6,3.3-3.9,7.7-6.2,12.6-6.7l17.3-1.5h1.7c4.4,0,8.4,1.5,11.9,4.5,3.9,3.3,6.2,7.7,6.7,12.6l2.2,24.6,16.6-1.4h1.7c4.4,0,8.4,1.5,11.9,4.5,3.9,3.3,6.2,7.7,6.7,12.6l.3,3.6c.4,5-1.1,9.7-4.4,13.6-3.3,3.9-7.7,6.2-12.6,6.7l-16.6,1.4,2.5,28.4c.9,10.5,2.2,13.2,2.5,13.8.2.1,1.1.5,3.4.5s1.4,0,2.2-.1c1.8-.2,4.1-.6,6.8-1.2,1.4-.3,2.7-.5,4-.5,3.3,0,6.4,1,9.4,2.8,4.3,2.8,6.8,6.9,7.3,11.8l.5,5.9c.5,5.1-.8,9.8-3.6,14.1-2.9,4.4-7,7.2-12.1,8.3-5.4,1.3-12.1,2.2-19.9,2.9-3.1.3-6.1.4-8.9.4h0Z" fill="#fff"/>
          </g>
          <g>
            <path d="M49.6,265.3c-8.2,0-15.2-2.4-21.1-7.4-6.9-5.7-10.6-13.4-11.5-23.4-2.2-25.6,15.8-39.8,55.2-43.2l7.1-.6c1.8-.2,2.9-1,3.4-1.6.6-.7,1.2-1.8,1-3.7v-.2c-.9-9.8-6.8-15-17.1-15s-2,0-3.1.1c-9.2.8-21.2,3.2-35.4,7.3-.8.2-1.5.3-2.2.3-1.5,0-2.9-.4-4.2-1.4-2-1.4-3.1-3.1-3.3-5.6l-.3-3.6c-.3-3.2.4-6,2.2-8.8,1.7-2.6,3.9-4.3,6.8-5,14.6-4,26.9-6.4,36.7-7.3,4.2-.4,8.1-.6,11.8-.6,13.4,0,23.7,2.4,30.8,7.2,8.8,6,13.9,16.5,15.2,31.3l5.4,62.1c.2,2.7-.6,5.1-2.4,7.4s-4.1,3.4-6.8,3.6l-14.3,1.2h-1.1c-2.4,0-4.6-.8-6.5-2.4-2.2-1.8-3.5-4.1-3.9-6.9l-.2-1.8c0-1.6-1.4-2.8-3.1-2.8s-.2,0-.3,0c-.9,0-1.7.5-2.4,1.3,0,0,0,.1,0,.2-8.3,11.6-18.9,17.8-32.4,19-1.3.1-2.6.2-3.8.2h0ZM81.4,208.9h-.6l-7.1.6c-8.2.7-14.1,2.5-18.2,5.4-4.4,3.2-6.4,7.8-6,13.3.7,7.7,5.3,11.9,13.2,11.9h0c.7,0,1.4,0,2.2-.1,6.7-.6,12.1-3.2,16.1-7.8,4.1-4.6,5.8-10.5,5.2-17.5v-1.4c-.4-2.7-2.2-4.5-4.9-4.5h.1Z" fill="#f9d2d4"/>
            <path d="M164.6,253.1c-2.4,0-4.4-.8-6.4-2.4-2.2-1.9-3.4-4.1-3.7-6.8l-12.7-144.6c-.2-2.7.6-5.1,2.4-7.3,1.9-2.2,4.1-3.4,6.8-3.7l17.3-1.5h.9c2.4,0,4.4.8,6.4,2.5,2.2,1.9,3.4,4.1,3.6,6.8l4.4,50.5c.1,1.6,1.4,2.8,3.1,2.8s.2,0,.3,0c.9,0,1.7-.5,2.3-1.2,8.8-9.2,19.1-14.4,30.4-15.4,1.4-.1,2.9-.2,4.3-.2,11.2,0,20.4,4,28,12.2,8.6,9.3,13.9,23.7,15.5,42.8,1.6,18.7-1.2,33.7-8.4,44.6-7.2,10.9-16.7,16.6-29.1,17.7-1.5.1-2.9.2-4.4.2-11.9,0-22-4.3-30.8-13.3l-.2-.2c-.8-.7-1.7-.8-2.2-.8s-.2,0-.3,0c-1.7.1-3,1.6-2.8,3.3v1.8c.3,2.9-.6,5.4-2.5,7.5-1.9,2.2-4.2,3.3-7.1,3.6l-14.3,1.2h-.9.1ZM208.5,160c-.7,0-1.5,0-2.3.1-5.9.5-10.9,3-14.9,7.3-4.1,4.4-6,9.3-5.5,14.5l2.2,25c.5,5.2,3.1,9.7,8,13.4,4.1,3.1,8.8,4.7,13.8,4.7h0c.7,0,1.4,0,2.2-.1,6.9-.6,12.1-4,15.7-10,3.4-5.7,4.6-13.9,3.7-24.3-1.8-20.3-9.4-30.6-22.7-30.6h-.2Z" fill="#f9d2d4"/>
            <path d="M339.3,239.8c-14.8,0-27.1-4-36.6-12-11.1-9.4-17.5-23.4-19.1-41.8-1.6-18.4,2.3-33.4,11.5-44.5,9.3-11.1,23.4-17.6,41.9-19.2,2.8-.2,5.5-.4,8-.4,14.8,0,27.1,4,36.6,12,11.1,9.3,17.5,23.4,19.1,41.8,1.6,18.4-2.3,33.4-11.5,44.5s-23.4,17.6-41.9,19.2c-2.8.2-5.5.4-8,.4h0ZM341.5,146.1c-.7,0-1.5,0-2.3.1-7.4.6-12.6,4-15.6,10-2.7,5.6-3.5,14.2-2.4,26.6,1.1,12.3,3.4,20.7,7,25.7,3.5,4.8,8.5,7.2,14.8,7.2h0c.7,0,1.5,0,2.3-.1,7.4-.6,12.6-4,15.6-10,2.7-5.6,3.5-14.2,2.4-26.6s-3.4-20.7-7-25.7c-3.5-4.8-8.5-7.2-14.8-7.2Z" fill="#f9d2d4"/>
            <path d="M455.6,229.7c-9.7,0-17.1-2.7-22.1-8-6-6.4-9.8-18.7-11.4-36.4l-5-57.5c-.2-2.7.5-5.1,2.4-7.3,1.9-2.2,4.1-3.4,6.8-3.7l16.1-1.4h.9c2.3,0,4.4.8,6.4,2.5,2.2,1.9,3.4,4.1,3.6,6.8l4.8,55.3c.7,7.7,2.2,12.8,4.8,15.7,2.4,2.7,5.8,4.1,10.3,4.1h0c.7,0,1.4,0,2.1-.1,5-.4,9.4-2.8,13.1-7,3.8-4.2,5.5-8.8,5.1-13.5l-5-57.5c-.2-2.7.5-5.1,2.4-7.3,1.9-2.2,4.1-3.4,6.8-3.7l17.3-1.5h.9c2.3,0,4.4.8,6.4,2.5,2.2,1.9,3.4,4.1,3.7,6.8l8.1,92.3c.2,2.7-.5,5.1-2.4,7.4s-4.1,3.4-6.8,3.6l-15.5,1.4h-1.1c-2.5,0-4.6-.8-6.5-2.4-2.2-1.8-3.5-4.1-3.9-6.9v-1.8c-.3-1.6-1.6-2.8-3.2-2.8s-.2,0-.3,0c-1.4.1-2.3.9-2.7,1.8-7.9,11.4-18.1,17.5-31,18.6-1.8.2-3.6.2-5.3.2h0l.2-.2Z" fill="#f9d2d4"/>
            <path d="M612.1,215.9c-11.2,0-19.6-2.4-25-7.1-6.7-5.9-10.8-17.5-12.3-34.5l-3.2-36.6c-.2-2.7-2.1-4.5-4.8-4.5s-.4,0-.6,0l-8.9.8h-.9c-2.3,0-4.5-.8-6.4-2.4-2.2-1.9-3.4-4.1-3.7-6.8l-.3-3.6c-.2-2.7.5-5.1,2.4-7.3,1.9-2.2,4.1-3.4,6.8-3.7l8.9-.8c1.8-.2,2.9-1,3.4-1.7.6-.7,1.2-1.8,1-3.7l-2.5-28.2c-.2-2.7.5-5.1,2.4-7.3,1.9-2.2,4.1-3.4,6.8-3.7l17.3-1.5h.9c2.3,0,4.5.8,6.4,2.5,2.2,1.9,3.4,4.1,3.7,6.8l2.5,28.2c.2,2.7,2.1,4.5,4.8,4.5h.6l20.2-1.8h.9c2.3,0,4.4.8,6.4,2.5,2.2,1.9,3.4,4.1,3.7,6.8l.3,3.6c.2,2.7-.5,5.1-2.4,7.3s-4.1,3.4-6.8,3.7l-20.2,1.8c-2.9.3-4.7,2.4-4.5,5.3l2.8,32.1c1.1,12.9,2.9,16.6,4.4,18.4,2,2.5,5.4,3.7,10.1,3.7s1.9,0,2.9-.1c2.2-.2,5-.7,8.1-1.4.7-.2,1.3-.2,2-.2,1.6,0,3.2.5,4.8,1.5,2.1,1.3,3.2,3,3.4,5.3l.5,5.9c.3,3.2-.4,6-2.2,8.6-1.7,2.5-3.9,4.1-6.8,4.7-5.2,1.2-11.5,2.1-18.9,2.8-2.8.2-5.6.4-8.2.4h0l.2-.3Z" fill="#f9d2d4"/>
          </g>
          <g>
            <path d="M55.3,259.6c-8.2,0-15.2-2.4-21.1-7.4-6.9-5.7-10.6-13.4-11.5-23.4-2.2-25.6,15.8-39.8,55.2-43.2l7.1-.6c1.8-.2,2.9-1,3.4-1.6.6-.7,1.2-1.8,1-3.7v-.2c-.9-9.8-6.8-15-17.1-15s-2,0-3.1.1c-9.2.8-21.2,3.2-35.4,7.3-.8.2-1.5.3-2.2.3-1.5,0-2.9-.4-4.2-1.4-2-1.4-3.1-3.1-3.3-5.6l-.3-3.6c-.3-3.2.4-6,2.2-8.8,1.7-2.6,3.9-4.3,6.8-5,14.6-4,26.9-6.4,36.7-7.3,4.2-.4,8.1-.6,11.8-.6,13.4,0,23.7,2.4,30.8,7.2,8.8,6,13.9,16.5,15.2,31.3l5.4,62.1c.2,2.7-.6,5.1-2.4,7.4s-4.1,3.4-6.8,3.6l-14.3,1.2h-1.1c-2.4,0-4.6-.8-6.5-2.4-2.2-1.8-3.5-4.1-3.9-6.9l-.2-1.8c0-1.6-1.4-2.8-3.1-2.8s-.2,0-.3,0c-.9,0-1.7.5-2.4,1.3,0,0,0,.1,0,.2-8.3,11.6-18.9,17.8-32.4,19-1.3.1-2.6.2-3.8.2h0ZM87.1,203.1h-.6l-7.1.6c-8.2.7-14.1,2.5-18.2,5.4-4.4,3.2-6.4,7.8-6,13.3.7,7.7,5.3,11.9,13.2,11.9h0c.7,0,1.4,0,2.2-.1,6.7-.6,12.1-3.2,16.1-7.8,4.1-4.6,5.8-10.5,5.2-17.5v-1.4c-.4-2.7-2.2-4.5-4.9-4.5h.1Z" fill="#fff"/>
            <path d="M170.3,247.4c-2.4,0-4.4-.8-6.4-2.4-2.2-1.9-3.4-4.1-3.7-6.8l-12.7-144.6c-.2-2.7.6-5.1,2.4-7.3,1.9-2.2,4.1-3.4,6.8-3.7l17.3-1.5h.9c2.4,0,4.4.8,6.4,2.5,2.2,1.9,3.4,4.1,3.6,6.8l4.4,50.5c.1,1.6,1.4,2.8,3.1,2.8s.2,0,.3,0c.9,0,1.7-.5,2.3-1.2,8.8-9.2,19.1-14.4,30.4-15.4,1.4,0,2.9-.2,4.3-.2,11.2,0,20.4,4,28,12.2,8.6,9.3,13.9,23.7,15.5,42.8,1.6,18.7-1.2,33.6-8.4,44.6-7.2,10.9-16.7,16.6-29.1,17.7-1.5.1-2.9.2-4.4.2-11.9,0-22-4.3-30.8-13.3l-.2-.2c-.8-.7-1.7-.8-2.2-.8s-.2,0-.3,0c-1.7.1-3,1.6-2.8,3.3v1.8c.3,2.9-.6,5.4-2.5,7.5-1.9,2.2-4.2,3.3-7.1,3.6l-14.3,1.2h-.9,0ZM214.2,154.3c-.7,0-1.5,0-2.3.1-5.9.5-10.9,3-14.9,7.3-4.1,4.4-6,9.3-5.5,14.5l2.2,25c.5,5.2,3.1,9.7,8,13.4,4.1,3.1,8.8,4.7,13.8,4.7h0c.7,0,1.4,0,2.2-.1,6.9-.6,12.1-4,15.7-10,3.4-5.7,4.6-13.9,3.7-24.3-1.8-20.3-9.4-30.6-22.7-30.6h-.2Z" fill="#fff"/>
            <path d="M345,234.1c-14.8,0-27.1-4-36.6-12-11.1-9.4-17.5-23.4-19.1-41.8-1.6-18.4,2.3-33.4,11.5-44.5,9.3-11.1,23.4-17.6,41.9-19.2,2.8-.2,5.5-.4,8-.4,14.8,0,27.1,4,36.6,12,11.1,9.3,17.5,23.4,19.1,41.8,1.6,18.4-2.3,33.4-11.5,44.5s-23.4,17.6-41.9,19.2c-2.8.2-5.5.4-8,.4h0ZM347.2,140.4h-2.3c-7.4.7-12.6,4-15.6,10-2.7,5.6-3.5,14.2-2.4,26.6s3.4,20.7,7,25.7c3.5,4.8,8.5,7.2,14.8,7.2h0c.7,0,1.5,0,2.3-.1,7.4-.6,12.6-4,15.6-10,2.7-5.6,3.5-14.2,2.4-26.6s-3.4-20.7-7-25.7c-3.5-4.8-8.5-7.2-14.8-7.2h0Z" fill="#fff"/>
            <path d="M461.3,224c-9.7,0-17.1-2.7-22.1-8-6-6.4-9.8-18.7-11.4-36.4l-5-57.5c-.2-2.7.5-5.1,2.4-7.3,1.9-2.2,4.1-3.4,6.8-3.7l16.1-1.4h.9c2.3,0,4.4.8,6.4,2.5,2.2,1.9,3.4,4.1,3.6,6.8l4.8,55.3c.7,7.7,2.2,12.8,4.8,15.7,2.4,2.7,5.8,4.1,10.3,4.1h0c.7,0,1.4,0,2.1-.1,5-.4,9.4-2.8,13.1-7,3.8-4.2,5.5-8.8,5.1-13.5l-5-57.5c-.2-2.7.5-5.1,2.4-7.3,1.9-2.2,4.1-3.4,6.8-3.7l17.3-1.5h.9c2.3,0,4.4.8,6.4,2.5,2.2,1.9,3.4,4.1,3.7,6.8l8.1,92.3c.2,2.7-.5,5.1-2.4,7.4s-4.1,3.4-6.8,3.6l-15.5,1.4h-1.1c-2.5,0-4.6-.8-6.5-2.4-2.2-1.8-3.5-4.1-3.9-6.9v-1.8c-.3-1.6-1.6-2.8-3.2-2.8s-.2,0-.3,0c-1.4.1-2.3.9-2.7,1.8-7.9,11.4-18.1,17.5-31,18.6-1.8.2-3.6.2-5.3.2h0l.2-.2Z" fill="#fff"/>
            <path d="M617.8,210.2c-11.2,0-19.6-2.4-25-7.1-6.7-5.9-10.8-17.5-12.3-34.5l-3.2-36.6c-.2-2.7-2.1-4.5-4.8-4.5s-.4,0-.6,0l-8.9.8h-.9c-2.3,0-4.5-.8-6.4-2.4-2.2-1.9-3.4-4.1-3.7-6.8l-.3-3.6c-.2-2.7.5-5.1,2.4-7.3,1.9-2.2,4.1-3.4,6.8-3.7l8.9-.8c1.8-.2,2.9-1,3.4-1.7.6-.7,1.2-1.8,1-3.7l-2.5-28.2c-.2-2.7.5-5.1,2.4-7.3s4.1-3.4,6.8-3.7l17.3-1.5h.9c2.3,0,4.5.8,6.4,2.5,2.2,1.9,3.4,4.1,3.7,6.8l2.5,28.2c.2,2.7,2.1,4.5,4.8,4.5h.6l20.2-1.8h.9c2.3,0,4.4.8,6.4,2.5,2.2,1.9,3.4,4.1,3.7,6.8l.3,3.6c.2,2.7-.5,5.1-2.4,7.3s-4.1,3.4-6.8,3.7l-20.2,1.8c-2.9.3-4.7,2.4-4.5,5.3l2.8,32.1c1.1,12.9,2.9,16.6,4.4,18.4,2,2.5,5.4,3.7,10.1,3.7s1.9,0,2.9-.1c2.2-.2,5-.7,8.1-1.4.7-.2,1.3-.2,2-.2,1.6,0,3.2.5,4.8,1.5,2.1,1.3,3.2,3,3.4,5.3l.5,5.9c.3,3.2-.4,6-2.2,8.6-1.7,2.5-3.9,4.1-6.8,4.7-5.2,1.2-11.5,2.1-18.9,2.8-2.8.2-5.6.4-8.2.4h0l.2-.3Z" fill="#fff"/>
          </g>
        </g>
      </g>
    </g>
  </g>
</svg>